<svg xmlns="http://www.w3.org/2000/svg" viewBox="0 0 256 256" fill="currentColor"><path d="M240 210h-10V88a6 6 0 00-6-6h-64a6 6 0 00-6 6v42h-52V40a6 6 0 00-6-6H32a6 6 0 00-6 6v170H16a6 6 0 000 12h224a6 6 0 000-12zM166 94h52v116h-52zm-12 48v68h-52v-68zM38 46h52v164H38zm32 26v16a6 6 0 01-12 0V72a6 6 0 0112 0zm0 48v16a6 6 0 01-12 0v-16a6 6 0 0112 0zm0 48v16a6 6 0 01-12 0v-16a6 6 0 0112 0zm52 16v-16a6 6 0 0112 0v16a6 6 0 01-12 0zm64 0v-16a6 6 0 0112 0v16a6 6 0 01-12 0zm0-48v-16a6 6 0 0112 0v16a6 6 0 01-12 0z"/></svg>