<svg xmlns="http://www.w3.org/2000/svg" viewBox="0 0 256 256" fill="currentColor"><path d="M176 168v64a8 8 0 01-8 8h-64a8 8 0 01-8-8v-64z" opacity=".2"/><path d="M218.3 48.34l-60.68-18.2 30-15a8 8 0 00-7.2-14.29L134 24.05a80.08 80.08 0 00-78 80V208a8 8 0 0016 0v-32h16v56a16 16 0 0016 16h64a16 16 0 0016-16V104a48.07 48.07 0 00-40-47.32V42.75l69.7 20.91a8 8 0 104.6-15.32zM88 104v56H72v-56a64.07 64.07 0 0156-63.48v16.16A48.07 48.07 0 0088 104zm80 128h-64v-56h64zm0-128v56h-64v-56a32 32 0 0164 0z"/></svg>