<svg xmlns="http://www.w3.org/2000/svg" viewBox="0 0 24 24"><g fill="currentcolor" fill-rule="evenodd"><path fill-rule="nonzero" d="M5 5v14h14V5zm0-2h14a2 2 0 012 2v14a2 2 0 01-2 2H5a2 2 0 01-2-2V5a2 2 0 012-2"/><path d="M9.23 8.31L6.3 11.26a1.06 1.06 0 000 1.48l2.93 2.96a1.03 1.03 0 001.47 0 1.05 1.05 0 000-1.48L8.5 12l2.2-2.22a1.05 1.05 0 000-1.48 1.02 1.02 0 00-.73-.3c-.27 0-.53.1-.73.31m4.06 0a1.05 1.05 0 000 1.48L15.5 12l-2.2 2.22a1.05 1.05 0 000 1.48c.4.41 1.06.41 1.46 0l2.93-2.95a1.05 1.05 0 000-1.48l-2.93-2.96a1.03 1.03 0 00-1.46 0"/></g></svg>