<svg xmlns="http://www.w3.org/2000/svg" viewBox="0 0 24 24"><g fill="currentcolor"><path d="M10 5a1 1 0 001 1h3.01a1 1 0 000-2H11c-.55 0-1 .45-1 1M8 5c0-1.66 1.35-3 3-3h3.01a3 3 0 010 6H11a3 3 0 01-3-3m2 7a1 1 0 001 1h3.01a1 1 0 000-2H11c-.55 0-1 .45-1 1m-2 0c0-1.66 1.35-3 3-3h3.01a3 3 0 010 6H11a3 3 0 01-3-3m2 7a1 1 0 001 1h3.01a1 1 0 000-2H11c-.55 0-1 .45-1 1m-2 0c0-1.66 1.35-3 3-3h3.01a3 3 0 010 6H11a3 3 0 01-3-3"/><path d="M16.06 6h2.42c.81 0 1.47.66 1.47 1.47v1.95c0 .82-.65 1.47-1.47 1.47H16v2h2.47a3.47 3.47 0 003.48-3.47V7.47A3.47 3.47 0 0018.48 4h-2.41zm-7.17 5H6.47A3.47 3.47 0 003 14.47v1.95c0 1.92 1.55 3.47 3.47 3.47h2.48v-2H6.47c-.82 0-1.47-.65-1.47-1.47v-1.95c0-.81.66-1.47 1.47-1.47h2.42z"/></g></svg>