<svg xmlns="http://www.w3.org/2000/svg" fill="none" viewBox="0 0 16 16"><path fill="currentcolor" fill-rule="evenodd" d="M.5 4.5a2.75 2.75 0 115.5 0 2.75 2.75 0 01-5.5 0m2.75-1.25a1.25 1.25 0 100 2.5 1.25 1.25 0 000-2.5m11.75 2H8v-1.5h7zM.5 11.5a2.75 2.75 0 115.5 0 2.75 2.75 0 01-5.5 0m2.75-1.25a1.25 1.25 0 100 2.5 1.25 1.25 0 000-2.5m11.75 2H8v-1.5h7z" clip-rule="evenodd"/><path fill="currentcolor" fill-rule="evenodd" d="M.5 4.5a2.75 2.75 0 115.5 0 2.75 2.75 0 01-5.5 0m2.75-1.25a1.25 1.25 0 100 2.5 1.25 1.25 0 000-2.5m12.75 2H8v-1.5h8zM.5 11.5a2.75 2.75 0 115.5 0 2.75 2.75 0 01-5.5 0m2.75-1.25a1.25 1.25 0 100 2.5 1.25 1.25 0 000-2.5m12.75 2H8v-1.5h8z" clip-rule="evenodd"/></svg>