<svg xmlns="http://www.w3.org/2000/svg" fill="none" viewBox="0 0 16 16"><path fill="currentcolor" fill-rule="evenodd" d="M3.964 2.904L5.752 4.69a4 4 0 014.497 0l1.787-1.787a6.5 6.5 0 00-8.072 0m9.132 1.06L11.31 5.752a4 4 0 010 4.497l1.787 1.787a6.5 6.5 0 000-8.072m-1.06 9.132l-1.787-1.787a4 4 0 01-4.497 0l-1.788 1.787a6.5 6.5 0 008.072 0m-9.132-1.06l1.787-1.787a4 4 0 010-4.497L2.904 3.964a6.5 6.5 0 000 8.072m-.56-9.693a8 8 0 1111.313 11.314A8 8 0 012.343 2.343m7.424 3.89a2.5 2.5 0 10-3.536 3.535 2.5 2.5 0 003.536-3.536" clip-rule="evenodd"/></svg>