<svg xmlns="http://www.w3.org/2000/svg" fill="none" viewBox="0 0 16 16"><path fill="currentcolor" fill-rule="evenodd" d="M2 2.875A2.875 2.875 0 014.875 0h8.375a.75.75 0 01.75.75V9.5a.75.75 0 01-.75.75V13H14v1.5h-3.5V13h1.25v-2.75H4.875a1.375 1.375 0 100 2.75H5.5v1.5h-.625A2.875 2.875 0 012 11.625zM3.5 9.1a2.86 2.86 0 011.375-.35H12.5V1.5H4.875c-.76 0-1.375.616-1.375 1.375z" clip-rule="evenodd"/><path fill="currentcolor" d="M6.5 15.564V11.5h3v4.064a.25.25 0 01-.441.16L8 14.465l-1.059 1.26a.25.25 0 01-.441-.16"/></svg>