<svg xmlns="http://www.w3.org/2000/svg" fill="none" viewBox="0 0 16 16"><mask id="a" width="16" height="16" x="0" y="0" maskUnits="userSpaceOnUse" style="mask-type:alpha"><path fill="currentcolor" d="M5.106 0C5.04.239 5 .49 5 .75v7.5a2.75 2.75 0 003.462 2.656l7.246-1.941q.15-.04.292-.098V16H0V0zm5.672 4.59l-.278.076v-.29q.143.102.278.215M16 2.17A10.3 10.3 0 0013.831 0H16z"/></mask><g mask="url(#a)"><path stroke="currentcolor" stroke-linejoin="round" stroke-width="1.5" d="M1.75 8a6.25 6.25 0 1012.5 0 6.25 6.25 0 00-12.5 0z"/></g><path stroke="currentcolor" stroke-linejoin="round" stroke-width="1.5" d="M7.75 8.25V.75c3.47 0 6.39 2.357 7.246 5.558z"/></svg>