<svg xmlns="http://www.w3.org/2000/svg" fill="none" viewBox="0 0 16 16"><path fill="currentcolor" fill-rule="evenodd" d="M7.25 3.406l-3.672.864a.75.75 0 00-.504.405l-3 6.25A.75.75 0 000 11.25a3.75 3.75 0 107.5 0 .75.75 0 00-.074-.324l-2.595-5.41 6.068-1.428-2.325 4.837a.75.75 0 00-.074.325 3.75 3.75 0 107.5 0 .75.75 0 00-.074-.325l-3-6.25a.75.75 0 00-.848-.405l-3.328.783V1h-1.5zm5.001 1.33L10.443 8.5h3.615zM14.372 10h-4.244a2.251 2.251 0 004.244 0M3.751 6.732L1.94 10.5h3.617zM5.872 12H1.628a2.25 2.25 0 004.244 0" clip-rule="evenodd"/></svg>