<svg xmlns="http://www.w3.org/2000/svg" fill="none" viewBox="0 0 16 16"><path fill="currentcolor" d="M4.25 11a.75.75 0 01.75.75v2.5a.75.75 0 01-.75.75h-2.5a.75.75 0 01-.75-.75v-2.5a.75.75 0 01.75-.75zm5 0a.75.75 0 01.75.75v2.5a.75.75 0 01-.75.75h-2.5a.75.75 0 01-.75-.75v-2.5a.75.75 0 01.75-.75zm5 0a.75.75 0 01.75.75v2.5a.75.75 0 01-.75.75h-2.5a.75.75 0 01-.75-.75v-2.5a.75.75 0 01.75-.75zm-10-5a.75.75 0 01.75.75v2.5a.75.75 0 01-.75.75h-2.5A.75.75 0 011 9.25v-2.5A.75.75 0 011.75 6zm5 0a.75.75 0 01.75.75v2.5a.75.75 0 01-.75.75h-2.5A.75.75 0 016 9.25v-2.5A.75.75 0 016.75 6zm5 0a.75.75 0 01.75.75v2.5a.75.75 0 01-.75.75h-2.5a.75.75 0 01-.75-.75v-2.5a.75.75 0 01.75-.75zm-10-5a.75.75 0 01.75.75v2.5a.75.75 0 01-.75.75h-2.5A.75.75 0 011 4.25v-2.5A.75.75 0 011.75 1zm5 0a.75.75 0 01.75.75v2.5a.75.75 0 01-.75.75h-2.5A.75.75 0 016 4.25v-2.5A.75.75 0 016.75 1zm5 0a.75.75 0 01.75.75v2.5a.75.75 0 01-.75.75h-2.5a.75.75 0 01-.75-.75v-2.5a.75.75 0 01.75-.75z"/></svg>