<svg xmlns="http://www.w3.org/2000/svg" fill="none" viewBox="0 0 16 16"><path fill="currentcolor" d="M5.932.274a8 8 0 014.14 15.455 1 1 0 01-.097.02c-.908.118-1.72.055-2.29-.438-.573-.498-.672-1.24-.682-1.85-.011-.672-.309-1.152-.72-1.426-.42-.279-1.016-.384-1.682-.169-1.006.325-1.93.458-2.717.158-.837-.32-1.308-1.042-1.597-1.909l-.012-.043A8 8 0 015.932.274M14.28 6.32A6.5 6.5 0 001.718 9.66c.218.647.464.871.701.962.29.11.796.116 1.72-.182 1.061-.344 2.14-.209 2.974.346.84.56 1.371 1.507 1.39 2.65.009.546.112.695.166.742.058.05.291.181 1.064.088a6.5 6.5 0 004.547-7.947"/><path fill="currentcolor" d="M10.87 5.68a1.13 1.13 0 11.58 2.17 1.13 1.13 0 01-.58-2.17m-6.49-.07a1.13 1.13 0 11.58 2.17 1.13 1.13 0 01-.58-2.17m3.3-2.18a1.13 1.13 0 11.58 2.17 1.13 1.13 0 01-.58-2.17"/></svg>