<svg xmlns="http://www.w3.org/2000/svg" fill="none" viewBox="0 0 16 16"><path fill="currentcolor" d="M.47 1.53l14 14 1.06-1.06-14-14zm8.74 10.86l1.24 1.24A8.5 8.5 0 018 14C4.43 14 1.32 11.77.17 8.62c-.15-.4-.15-.84 0-1.24a8 8 0 011.51-2.53l1.06 1.06a6.5 6.5 0 00-1.16 1.98.3.3 0 000 .21c.93 2.56 3.48 4.4 6.42 4.4q.62 0 1.21-.11M8 2a8.5 8.5 0 00-2.45.36L6.79 3.6q.59-.1 1.21-.1c2.94 0 5.49 1.85 6.42 4.4a.3.3 0 010 .21 6.5 6.5 0 01-1.16 1.98l1.06 1.06a8 8 0 001.51-2.53c.15-.4.15-.84 0-1.24C14.68 4.23 11.57 2 8 2"/></svg>