<svg xmlns="http://www.w3.org/2000/svg" fill="none" viewBox="0 0 16 16"><path fill="currentcolor" d="M9.5 9a2 2 0 012 2v2.94c0 .59-.48 1.06-1.06 1.06H9.06A1.06 1.06 0 018 13.94v-1.38c0-.59.48-1.06 1.06-1.06H10V11a.5.5 0 00-.5-.5H9V9zM6.94 1C7.52 1 8 1.48 8 2.06v1.37c0 .59-.48 1.07-1.06 1.07H6V5a.5.5 0 00.5.5H7V7h-.5a2 2 0 01-2-2V2.06C4.5 1.48 4.98 1 5.56 1zM14 9a2 2 0 012 2v2.94c0 .59-.48 1.06-1.06 1.06h-1.38a1.06 1.06 0 01-1.06-1.06v-1.38c0-.59.48-1.06 1.06-1.06h.94V11a.5.5 0 00-.5-.5h-.5V9zM2.44 1c.58 0 1.06.48 1.06 1.06v1.37c0 .59-.48 1.06-1.06 1.06H1.5V5a.5.5 0 00.5.5h.5V7H2a2 2 0 01-2-2V2.06C0 1.48.48 1 1.06 1z"/></svg>