<svg xmlns="http://www.w3.org/2000/svg" fill="none" viewBox="0 0 16 16"><path fill="currentcolor" fill-rule="evenodd" d="M7.233 1.434C8.125.672 9.5 1.307 9.5 2.48v11.04c0 1.174-1.375 1.808-2.267 1.047l-2.87-2.447A.5.5 0 004.04 12H2a2 2 0 01-2-2V6a2 2 0 012-2h2.04a.5.5 0 00.324-.12zM8 2.75L5.337 5.02a2 2 0 01-1.298.48H2a.5.5 0 00-.5.5v4a.5.5 0 00.5.5h2.04a2 2 0 011.297.478L8 13.249zm4.97 8.719a4.907 4.907 0 000-6.94l1.06-1.06a6.407 6.407 0 010 9.06zm-2-2a2.08 2.08 0 000-2.94l1.06-1.06a3.58 3.58 0 010 5.06z" clip-rule="evenodd"/></svg>