<svg xmlns="http://www.w3.org/2000/svg" fill="none" viewBox="0 0 16 16"><path fill="currentcolor" fill-rule="evenodd" d="M12.036 2.904A6.501 6.501 0 108 14.5V16a8 8 0 115.657-13.657l.53.53L8.28 8.78 7.22 7.72l2.304-2.305A3.001 3.001 0 108 11v1.5a4.5 4.5 0 112.608-8.168z" clip-rule="evenodd"/><path fill="currentcolor" fill-rule="evenodd" d="M14.58 4.862a.75.75 0 01.959.454l.008.025a.75.75 0 11-1.414.499l-.007-.02a.75.75 0 01.454-.958m-2.798 2.573a.75.75 0 01.713.786l-.001.015-.001.014a.75.75 0 11-1.498-.083v-.01l.001-.01a.75.75 0 01.786-.712m3.497.184a.75.75 0 01.71.787v.026a.75.75 0 11-1.498-.081V8.33a.75.75 0 01.788-.711m-4.205 2.656a.75.75 0 01-.052 1.06l-.022.019a.75.75 0 11-1-1.118l.015-.013a.75.75 0 011.059.052m3.799.16a.75.75 0 01.355.999l-.011.023a.75.75 0 01-1.353-.649l.01-.019a.75.75 0 01.999-.355m-1.457 2.442a.75.75 0 01-.053 1.06l-.02.017a.75.75 0 01-1.001-1.117l.015-.014a.75.75 0 011.06.054m-2.278 1.703a.75.75 0 01-.454.959l-.025.008a.75.75 0 01-.499-1.414l.02-.007a.75.75 0 01.958.454" clip-rule="evenodd"/></svg>