<svg xmlns="http://www.w3.org/2000/svg" fill="none" viewBox="0 0 16 16"><path fill="currentcolor" d="M8.75 8a.75.75 0 11-1.5 0 .75.75 0 011.5 0M5.5 8A.75.75 0 114 8a.75.75 0 011.5 0M12 8a.75.75 0 11-1.5 0A.75.75 0 0112 8m-3.25 3.25a.75.75 0 11-1.5 0 .75.75 0 011.5 0m0-6.5a.75.75 0 11-1.5 0 .75.75 0 011.5 0"/><path fill="currentcolor" fill-rule="evenodd" d="M1 3a2 2 0 012-2h10a2 2 0 012 2v10a2 2 0 01-2 2H3a2 2 0 01-2-2zm2-.5a.5.5 0 00-.5.5v10a.5.5 0 00.5.5h10a.5.5 0 00.5-.5V3a.5.5 0 00-.5-.5z" clip-rule="evenodd"/></svg>