<svg xmlns="http://www.w3.org/2000/svg" fill="none" viewBox="0 0 16 16"><path fill="currentcolor" fill-rule="evenodd" d="M1 1.75A.75.75 0 011.75 1h3.5a.75.75 0 01.721.544l.821 2.874a1.75 1.75 0 01-.562 1.825L4.29 7.86c.975 1.55 2.3 2.875 3.85 3.85l1.617-1.94a1.75 1.75 0 011.825-.562l2.874.82a.75.75 0 01.544.722v3.5a.75.75 0 01-.75.75c-2.266 0-4.422-.61-6.309-1.664a13.77 13.77 0 01-5.277-5.277A12.9 12.9 0 011 1.75m8.484 10.69c1.25.578 2.606.94 4.016 1.035v-2.16l-2.33-.665a.25.25 0 00-.26.08zM3.56 6.516L5.27 5.09a.25.25 0 00.08-.261L4.684 2.5H2.525A11.4 11.4 0 003.56 6.516" clip-rule="evenodd"/></svg>