<svg xmlns="http://www.w3.org/2000/svg" fill="none" viewBox="0 0 16 16"><path fill="currentcolor" fill-rule="evenodd" d="M8.708 2.594a.5.5 0 00-.77.15L5.5 7.433V13.5h6.371c.493 0 .928-.32 1.074-.79l1.328-4.25A1.125 1.125 0 0013.2 7H9.75A.75.75 0 019 6.25V3.075a.5.5 0 00-.175-.38zM4 13.5V8H2a.5.5 0 00-.5.5V13a.5.5 0 00.5.5zm.295-7l2.313-4.45a2 2 0 013.076-.596l.118.101a2 2 0 01.698 1.519V5.5h2.7a2.625 2.625 0 012.505 3.408l-1.328 4.25A2.625 2.625 0 0111.871 15H2a2 2 0 01-2-2V8.5a2 2 0 012-2z" clip-rule="evenodd"/></svg>