<svg xmlns="http://www.w3.org/2000/svg" fill="none" viewBox="0 0 16 16"><path fill="currentcolor" fill-rule="evenodd" d="M6.85.444a1.713 1.713 0 012.301 0L10.3 1.486a.2.2 0 00.15.055L12 1.48a1.71 1.71 0 011.762 1.479l.21 1.537a.2.2 0 00.081.139l1.226.95c.696.54.87 1.52.4 2.266l-.828 1.312a.2.2 0 00-.027.158l.328 1.516a1.713 1.713 0 01-1.151 1.993l-1.477.474a.2.2 0 00-.123.103l-.723 1.372a1.713 1.713 0 01-2.162.787l-1.435-.587a.2.2 0 00-.161 0l-1.436.587a1.713 1.713 0 01-2.162-.787l-.723-1.372a.22.22 0 00-.124-.103L2 12.83a1.713 1.713 0 01-1.15-1.993l.327-1.516a.2.2 0 00-.027-.158L.322 7.852a1.713 1.713 0 01.4-2.266l1.225-.95a.2.2 0 00.081-.14l.21-1.536a1.71 1.71 0 011.763-1.48l1.55.06a.2.2 0 00.15-.055zm-.1 9.384L4.826 7.519l-1.152.961 2.5 3a.75.75 0 001.152 0l5-6-1.152-.96z" clip-rule="evenodd"/></svg>