<svg xmlns="http://www.w3.org/2000/svg" fill="none" viewBox="0 0 16 16"><path fill="currentcolor" fill-rule="evenodd" d="M4.67.494A.75.75 0 015.375 0h.75a.75.75 0 01.705.494l3.625 10a.8.8 0 01.045.256V11H9.06l-.015.006L9.043 11H9v-.118L7.955 8h-4.41L2.5 10.882V11h-.043l-.002.006L2.44 11H1v-.25a.8.8 0 01.045-.256zM4.088 6.5h3.324L5.75 1.916z" clip-rule="evenodd"/><path fill="currentcolor" fill-rule="evenodd" d="M13.928 9.265l1.144.97-4.667 5.5a.75.75 0 01-1.144 0l-2.333-2.75 1.144-.97 1.761 2.076z" clip-rule="evenodd"/></svg>