<svg xmlns="http://www.w3.org/2000/svg" fill="none" viewBox="0 0 16 16"><path fill="currentcolor" fill-rule="evenodd" d="M.72.72a.75.75 0 01.73-.194l9.167 2.522a2 2 0 011.461 1.739l.294 3.083a2 2 0 012.042.483L15.78 9.72a.75.75 0 010 1.06l-5 5a.75.75 0 01-1.06 0l-1.366-1.366a2 2 0 01-.484-2.042l-3.083-.294a2 2 0 01-1.74-1.46L.528 1.448A.75.75 0 01.72.72m12.634 8.694a.5.5 0 00-.707 0l-3.233 3.232a.5.5 0 000 .707l.836.836 3.94-3.94zM6.636 5.575a1.624 1.624 0 012.114 1.55 1.625 1.625 0 11-3.175-.49l-2.85-2.85 1.77 6.435a.5.5 0 00.435.365l4.04.384 1.999-2-.384-4.04a.5.5 0 00-.365-.435l-6.435-1.77z" clip-rule="evenodd"/></svg>