<svg xmlns="http://www.w3.org/2000/svg" fill="none" viewBox="0 0 16 16"><path fill="currentcolor" fill-rule="evenodd" d="M1.81 3.75l2.47-2.47L3.22.22l-3 3a.75.75 0 000 1.06l3 3 1.06-1.06z" clip-rule="evenodd"/><path fill="currentcolor" fill-rule="evenodd" d="M6.06 4.5l1.72 1.72-1.06 1.06-3-3a.75.75 0 010-1.06l3-3 1.06 1.06L6.06 3h5.69A3.25 3.25 0 0115 6.25v3.5A3.25 3.25 0 0111.75 13H11v-1.5h.75a1.75 1.75 0 001.75-1.75v-3.5a1.75 1.75 0 00-1.75-1.75zM1 9.5h1.75a.75.75 0 01.75.75V16H2v-5H1z" clip-rule="evenodd"/><path fill="currentcolor" fill-rule="evenodd" d="M9 10.875c0-.76-.616-1.375-1.375-1.375h-1.75c-.76 0-1.375.616-1.375 1.375v3.75c0 .76.616 1.375 1.375 1.375h1.75C8.385 16 9 15.384 9 14.625zM7.5 11v3.5H6V11z" clip-rule="evenodd"/></svg>