<svg xmlns="http://www.w3.org/2000/svg" fill="none" viewBox="0 0 16 16"><path fill="currentcolor" d="M5.5 11a.5.5 0 00-.5-.5H3a.5.5 0 00-.5.5v2a.5.5 0 00.5.5h2a.5.5 0 00.5-.5zm8 0a.5.5 0 00-.5-.5h-2a.5.5 0 00-.5.5v2a.5.5 0 00.5.5h2a.5.5 0 00.5-.5zm-8-8a.5.5 0 00-.5-.5H3a.5.5 0 00-.5.5v2a.5.5 0 00.5.5h2a.5.5 0 00.5-.5zm8 0a.5.5 0 00-.5-.5h-2a.5.5 0 00-.5.5v2a.5.5 0 00.5.5h2a.5.5 0 00.5-.5zM7 13a2 2 0 01-2 2H3a2 2 0 01-2-2v-2a2 2 0 012-2h2a2 2 0 012 2zm8 0a2 2 0 01-2 2h-2a2 2 0 01-2-2v-2a2 2 0 012-2h2a2 2 0 012 2zM7 5a2 2 0 01-2 2H3a2 2 0 01-2-2V3a2 2 0 012-2h2a2 2 0 012 2zm8 0a2 2 0 01-2 2h-2a2 2 0 01-2-2V3a2 2 0 012-2h2a2 2 0 012 2z"/></svg>