<svg xmlns="http://www.w3.org/2000/svg" fill="none" viewBox="0 0 16 16"><path fill="currentcolor" d="M10.72 13.9l1.12 1.12A8 8 0 01.98 4.16L2.1 5.28a6.5 6.5 0 008.63 8.63M8 0C6.61 0 5.3.36 4.16.98L5.28 2.1a6.5 6.5 0 018.63 8.63l1.12 1.12A8 8 0 008 0"/><path fill="currentcolor" d="M9.06 5.88l1.57 1.57a1.25 1.25 0 10-1.57-1.57m-2.97 4.15c.38.3.87.57 1.44.67l1.43 1.43c-.3.07-.62.11-.96.11-1.23 0-2.2-.54-2.83-1.03a6 6 0 01-.94-.92l-.06-.07-.02-.02-.01-.01.61-.44.61-.44.01.01.03.04q.05.06.14.16c.13.14.31.33.55.51M.47 1.53l14 14 1.06-1.06-14-14z"/></svg>