<svg xmlns="http://www.w3.org/2000/svg" fill="none" viewBox="0 0 16 16"><path fill="currentcolor" fill-rule="evenodd" d="M5.655.095L13.78 8.22a.75.75 0 010 1.06l-5.616 5.616a2 2 0 01-2.828 0L.604 10.164a2 2 0 010-2.828L5.689 2.25 4.595 1.155zM6.75 3.31L2.06 8h9.38zm4.69 6.19H2.06l4.336 4.336a.5.5 0 00.708 0z" clip-rule="evenodd"/><path fill="currentcolor" d="M14.5 12a.75.75 0 00-.654.383v.002l-.003.003-.007.013-.026.046a17 17 0 00-.36.695c-.098.202-.202.43-.283.641-.068.177-.167.458-.167.717a1.5 1.5 0 003 0c0-.259-.1-.54-.167-.717a8 8 0 00-.284-.641 16 16 0 00-.36-.695l-.025-.046-.007-.013-.002-.004-.001-.001A.75.75 0 0014.5 12"/></svg>