<svg xmlns="http://www.w3.org/2000/svg" fill="none" viewBox="0 0 16 16"><path fill="currentcolor" fill-rule="evenodd" d="M1 3a2 2 0 012-2h8a2 2 0 012 2v8a2 2 0 01-2 2H3a2 2 0 01-2-2zm2-.5a.5.5 0 00-.5.5v8a.5.5 0 00.5.5h8a.5.5 0 00.5-.5V3a.5.5 0 00-.5-.5zm6.426 1.517l1.148.966-4 4.75a.75.75 0 01-1.148 0l-2-2.375 1.148-.966L6 8.086z" clip-rule="evenodd"/><path fill="currentcolor" fill-rule="evenodd" d="M16 6v6.75A3.25 3.25 0 0112.75 16H6v-1.5h6.75a1.75 1.75 0 001.75-1.75V6z" clip-rule="evenodd"/></svg>