<svg xmlns="http://www.w3.org/2000/svg" fill="none" viewBox="0 0 16 16"><path fill="currentcolor" fill-rule="evenodd" d="M8 1.5a6.5 6.5 0 100 13 6.5 6.5 0 000-13M0 8a8 8 0 1116 0A8 8 0 010 8m8-3c-.586 0-1 .414-1 1H5.5c0-1.414 1.086-2.5 2.5-2.5s2.5 1.086 2.5 2.5c0 1.133-.713 1.706-1.162 2.058-.511.402-.588.494-.588.692v.75h-1.5v-.75c0-.977.689-1.507 1.078-1.806l.084-.065C8.838 6.544 9 6.367 9 6c0-.586-.414-1-1-1" clip-rule="evenodd"/><path fill="currentcolor" d="M9 11.5a1 1 0 11-2 0 1 1 0 012 0"/></svg>