<svg xmlns="http://www.w3.org/2000/svg" fill="none" viewBox="0 0 16 16"><path fill="currentcolor" fill-rule="evenodd" d="M9.435.001a.75.75 0 01.547.194l3.023 2.75-1.01 1.11-2.437-2.217A10.2 10.2 0 007.527 7.25h3.163l1.28-1.28a.75.75 0 01.53-.22h2.75a.75.75 0 01.671 1.085L15.339 8l.582 1.165a.75.75 0 01-.67 1.085H12.5a.75.75 0 01-.531-.22l-1.28-1.28H7.528c.149 2.02.895 3.88 2.051 5.41l2.414-2.213 1.014 1.106-3 2.75a.75.75 0 01-1.07-.059A11.75 11.75 0 016.023 8.75H2.756l1.361 1.184-.984 1.132-2.875-2.5a.75.75 0 010-1.132l2.875-2.5.984 1.132L2.755 7.25h3.269A11.7 11.7 0 018.914.255a.75.75 0 01.52-.254m2.626 8l.75.749h1.226l-.208-.414a.75.75 0 010-.671l.208-.415H12.81z" clip-rule="evenodd"/></svg>