<svg xmlns="http://www.w3.org/2000/svg" fill="none" viewBox="0 0 16 16"><path fill="currentcolor" fill-rule="evenodd" d="M8 0a.75.75 0 01.7.48l1.705 4.434 4.403.338a.75.75 0 01.422 1.324l-3.38 2.818 1.25 4.662a.75.75 0 01-1.148.813L8 12.159l-3.95 2.71a.75.75 0 01-1.15-.813l1.251-4.662L.77 6.576a.75.75 0 01.422-1.324l4.403-.338L7.3.48A.75.75 0 018 0m0 2.84L6.655 6.335l-3.506.27 2.7 2.25-.973 3.627L8 10.341l3.124 2.142-.973-3.627 2.7-2.25-3.506-.27z" clip-rule="evenodd"/><path fill="currentcolor" d="M6.655 6.336L8 2.84l1.345 3.497 3.506.27-2.7 2.25.973 3.627L8 10.341l-3.124 2.142.973-3.627-2.7-2.25z"/></svg>