<svg xmlns="http://www.w3.org/2000/svg" fill="none" viewBox="0 0 16 16"><path fill="currentcolor" fill-rule="evenodd" d="M4.81 2.433l-1.804.82c-.353.16-.599.491-.65.876l-.433 3.245A3.5 3.5 0 013.5 7c1.184 0 2.23.587 2.863 1.486A3 3 0 018 8c.604 0 1.167.179 1.637.486A3.5 3.5 0 0112.5 7c.567 0 1.103.135 1.577.374l-.433-3.245a1.13 1.13 0 00-.65-.876l-1.804-.82.62-1.366 1.805.82A2.63 2.63 0 0115.13 3.93l.76 5.697A3.505 3.505 0 0112.5 14a3.5 3.5 0 01-3.453-4.074A1.5 1.5 0 008 9.5c-.407 0-.776.162-1.047.426q.046.281.047.574a3.5 3.5 0 11-6.89-.873L.87 3.93a2.63 2.63 0 011.515-2.042l1.805-.82zM1.5 10.546a2 2 0 10.083-.617zm12.917-.617l.082.617a2 2 0 11-.082-.617" clip-rule="evenodd"/></svg>