<svg xmlns="http://www.w3.org/2000/svg" viewBox="0 0 24 24"><path fill="currentcolor" d="M17.222 11.557L12.11 16.64a3.01 3.01 0 01-4.238.004 2.97 2.97 0 01.002-4.21L13.339 7a1.75 1.75 0 012.472-.002c.683.679.684 1.775.002 2.452l-5.126 5.095a.493.493 0 01-.699-.007.49.49 0 010-.701l4.764-4.735a.74.74 0 000-1.052.75.75 0 00-1.058 0L8.93 12.785a1.97 1.97 0 000 2.805c.781.777 2.038.78 2.816.007l5.126-5.094a3.206 3.206 0 00-.003-4.557 3.253 3.253 0 00-4.589.002l-5.466 5.433a4.45 4.45 0 00-.001 6.314 4.516 4.516 0 006.355-.004l5.113-5.081a.74.74 0 000-1.053.75.75 0 00-1.059 0"/></svg>