<svg xmlns="http://www.w3.org/2000/svg" viewBox="0 0 24 24"><path fill="currentcolor" fill-rule="evenodd" d="M10.88 5.48l-8.43 6.83c-.4.32-.58.96-.41 1.42l.1.27c.17.46.73.83 1.23.82l1.13-.02 6.06-.1 3.65-.06c.51-.01.79-.38.62-.86l-2.92-8.03c-.1-.29-.32-.44-.57-.44a.73.73 0 00-.46.18m-5.9 10.46l1.75 4.82a1 1 0 101.88-.68l-1.54-4.23zm13.71-9.11l-2.82 1.03a1 1 0 10.68 1.88l2.82-1.03a1 1 0 10-.68-1.88m-1.79 3.85a1 1 0 00-.64.77 1 1 0 00.81 1.16l2.96.52a1 1 0 001.12-1.3l-.02-.05a1 1 0 00-.76-.62l-2.95-.52a.97.97 0 00-.51.05m-.56-7.65l-1.93 2.3a1 1 0 001.53 1.29l1.93-2.3a1 1 0 00-.76-1.64 1 1 0 00-.77.36"/></svg>