<svg xmlns="http://www.w3.org/2000/svg" viewBox="0 0 24 24"><g fill="currentcolor" fill-rule="evenodd"><path fill-rule="nonzero" d="M5 6.007v11.986C5 18.55 5.45 19 6.007 19h11.986C18.55 19 19 18.55 19 17.993V6.007C19 5.45 18.55 5 17.993 5H6.007C5.45 5 5 5.45 5 6.007m-2 0A3.006 3.006 0 016.007 3h11.986A3.006 3.006 0 0121 6.007v11.986A3.006 3.006 0 0117.993 21H6.007A3.006 3.006 0 013 17.993z"/><path d="M11.005 17H16.5c.27 0 .5-.228.5-.509v-1.634a.73.73 0 00-.167-.44L14.5 11.85a.24.24 0 00-.344-.006L11 15l-.821-.821a.25.25 0 00-.358 0l-2.465 2.465c-.195.195-.136.356.135.356z"/><circle cx="9" cy="9" r="2"/></g></svg>