<svg xmlns="http://www.w3.org/2000/svg" viewBox="0 0 24 24"><path fill="currentcolor" fill-rule="evenodd" d="M16.587 6.003H15A1 1 0 0115 4h3.9l.047.001a.98.98 0 01.736.285l.032.032c.2.2.296.47.284.736l.001.048v3.896a1 1 0 11-2 0V7.411l-3.309 3.308a.977.977 0 01-1.374-.005l-.032-.032a.976.976 0 01-.005-1.374zM7.413 17.997H9A1 1 0 019 20H5.1l-.047-.001a.98.98 0 01-.736-.285l-.032-.032A.98.98 0 014 18.946v-3.944a1 1 0 112 0v1.587l3.309-3.308a.977.977 0 011.374.005l.032.032a.976.976 0 01.005 1.374z"/></svg>