<svg xmlns="http://www.w3.org/2000/svg" viewBox="0 0 24 24"><path fill="currentcolor" fill-rule="evenodd" d="M11.701 16.7a5.002 5.002 0 110-10.003 5.002 5.002 0 010 10.004m8.368-3.117a1.995 1.995 0 01-1.346-1.885c0-.876.563-1.613 1.345-1.885a.48.48 0 00.315-.574 9 9 0 00-.836-1.993.48.48 0 00-.598-.195 2.04 2.04 0 01-1.29.08 1.99 1.99 0 01-1.404-1.395 2.04 2.04 0 01.076-1.297.48.48 0 00-.196-.597 9 9 0 00-1.975-.826.48.48 0 00-.574.314 1.995 1.995 0 01-1.885 1.346 1.99 1.99 0 01-1.884-1.345.48.48 0 00-.575-.315c-.708.2-1.379.485-2.004.842a.47.47 0 00-.198.582A2.002 2.002 0 014.445 7.06a.48.48 0 00-.595.196 9 9 0 00-.833 1.994.48.48 0 00.308.572 1.995 1.995 0 011.323 1.877c0 .867-.552 1.599-1.324 1.877a.48.48 0 00-.308.57 9 9 0 00.723 1.79.477.477 0 00.624.194c.595-.273 1.343-.264 2.104.238.117.077.225.185.302.3.527.8.512 1.58.198 2.188a.473.473 0 00.168.628 9 9 0 002.11.897.474.474 0 00.57-.313 1.995 1.995 0 011.886-1.353c.878 0 1.618.567 1.887 1.353a.475.475 0 00.57.313 9 9 0 002.084-.883.473.473 0 00.167-.631c-.318-.608-.337-1.393.191-2.195.077-.116.185-.225.302-.302.772-.511 1.527-.513 2.125-.23a.477.477 0 00.628-.19 9 9 0 00.728-1.793.48.48 0 00-.314-.573"/></svg>