<svg xmlns="http://www.w3.org/2000/svg" viewBox="0 0 24 24"><path fill="currentcolor" fill-rule="evenodd" d="M15.587 6.988l.626-.664c.203-.215.481-.324.76-.324.247 0 .496.086.694.262a.98.98 0 01.063 1.414l-.565.6a7 7 0 11-10.33 0l-.564-.6a.98.98 0 01.062-1.414A1.04 1.04 0 017.03 6c.278 0 .556.109.76.324l.624.664a7 7 0 012.582-.916L10.998 5H10.5a.5.5 0 01-.5-.5v-1a.5.5 0 01.5-.5h3a.5.5 0 01.5.5v1a.5.5 0 01-.5.5h-.498l.001 1.071a7 7 0 012.584.917M12 18a5 5 0 100-10 5 5 0 000 10m.368-4.232a.796.796 0 01-1.14-.018.834.834 0 01.018-1.163l2.386-2.355a.796.796 0 011.14.018.834.834 0 01-.018 1.163z"/></svg>