<svg xmlns="http://www.w3.org/2000/svg" viewBox="0 0 24 24"><path fill="currentcolor" d="M13.293 14.707A2.998 2.998 0 019 12.003v-1.589l-1-1v2.592A4.004 4.004 0 0012 16a4 4 0 002.031-.554zm2.183 2.183A6 6 0 0113 17.917v2.074a1 1 0 11-2 0v-2.074c-2.838-.478-5-2.951-5-5.91V9a1 1 0 01.65-.937L3.704 5.12a.996.996 0 01.002-1.413.996.996 0 011.413-.002L20.123 18.71a.996.996 0 01-.002 1.412.996.996 0 01-1.412.002zM9.186 4.958A3 3 0 0112 3c1.657 0 3 1.342 3 2.997v4.775zm8.608 8.608L16 11.772V9a1 1 0 012 0v3.006c0 .54-.072 1.063-.206 1.56"/></svg>