<svg xmlns="http://www.w3.org/2000/svg" viewBox="0 0 64 64"><path d="M9.1 47.7c-1.8 1.8-2.7 1-3.8-.1-1.1-1.1-1.9-2-.1-3.8 1.8-1.8 5-4.2 6.1-3.1 1.1 1-.4 5.2-2.2 7" fill="#89664c"/><path d="M50.1 41.2c.1-.3.3-.6.4-1l9.7 2.2-8.9-4.7c.4-1.4.6-2.9.7-4.4L62 32l-10-1.3c-.1-1.5-.3-3-.7-4.4l8.9-4.7-9.7 2.2c-.6-1.5-1.3-2.8-2.1-4.1l6.6-7.2-8 5.2c-1-1.3-2.2-2.5-3.5-3.5L47 5.6l-5.4 7.2c-1.5-1-3.1-1.8-4.8-2.4l.4-8.4-2.4 7.7C33 9.3 31 9 29 9h-.1l-2.1-7 .3 7.1c-2.2.2-4.4.7-6.4 1.5l-3.7-5 2.3 5.5c-2.2 1-4.2 2.4-6 4L9 12.4l3.4 3.7c-1.8 1.9-3.3 4-4.3 6.4l-4.2-1 3.8 2c-1 2.5-1.5 5.1-1.6 7.9L2 32l4 .5c0 2 .4 4 .9 5.9 4.2-1 9.2-1.5 14.8-1.5 9.7 0 19.9 1.6 28.4 4.3" fill="#c1875d"/><path d="M3.8 42.4l4.2-1c1.1 2.4 2.6 4.6 4.3 6.4L9 51.6l4.3-2.8c1.8 1.6 3.8 3 6 4L17 58.4l3.7-4.9c2 .8 4.2 1.3 6.4 1.5l-.3 7 2.1-7h.1c2 0 4-.3 5.8-.7l2.4 7.7-.4-8.4c1.7-.6 3.3-1.4 4.8-2.4l5.4 7.2-3.5-8.5c1.3-1 2.4-2.2 3.5-3.5l8 5.2-6.6-7.2c.6-1 1.2-2.1 1.6-3.2-8.5-2.7-18.7-4.3-28.4-4.3-5.6 0-10.5.5-14.8 1.5.2.7.4 1.4.7 2l-3.7 2" fill="#ffe2b3"/><ellipse cx="14.2" cy="26.7" rx="6" ry="6.2" fill="#fcfcfa"/><ellipse cx="14.2" cy="26.7" rx="4.1" ry="4.2" fill="#29251c"/><ellipse cx="32" cy="26.7" rx="7.8" ry="8.1" fill="#fcfcfa"/><ellipse cx="32" cy="26.7" rx="5.4" ry="5.6" fill="#29251c"/><path d="M51.3 45.1c2.7 2.7 1.5 4.2-.1 5.9s-3.1 2.9-5.9.1c-2.7-2.7-6.5-7.7-4.8-9.4 1.6-1.6 8 .7 10.8 3.4" fill="#c1875d"/><path d="M12.6 37.4c5.2 0 5.1-2.6 8.3-3.3 2.6-.5 4.6 2.3 8.6 3.1" fill="#ffe2b3"/><path d="M17.5 38.7c.4-.7.8-1.4 1.3-1.9.6-.6 1.3-1.1 2.1-1.3.8-.2 1.7-.1 2.5.3.7.4 1.3 1 1.7 1.7-.6-.5-1.3-.9-2-1.1-.7-.3-1.4-.3-2-.1-.7.2-1.3.5-1.9 1-.6.3-1.1.9-1.7 1.4" fill="#29251c"/><g fill="#e0bb86"><path d="M18.3 39.5c-.2.1-.5.2-.7.2-.3 0-.6 0-.8-.2-.3-.2-.5-.4-.5-.7-.1-.3 0-.5.1-.8.1.2.2.5.3.7.1.2.2.3.4.4.2.2.7.3 1.2.4M26.2 36.7c.1.2.2.4.2.6 0 .2 0 .5-.1.7-.1.2-.4.4-.6.4-.2 0-.5 0-.7-.1l.6-.3c.2-.1.3-.2.3-.3.1-.2.2-.6.3-1M19.1 39.3c.3-.3.5-.7.9-.9.3-.3.7-.5 1.2-.6.4-.1.9-.1 1.3.1s.7.5 1 .8c-.4-.2-.7-.4-1.1-.5-.4-.1-.7-.1-1.1 0-.4.1-.7.2-1.1.4-.4.3-.7.5-1.1.7"/></g><g fill="#89664c"><ellipse transform="rotate(-17.607 46.552 30.002)" cx="46.6" cy="30" rx="1.9" ry="2.7"/><ellipse transform="rotate(-17.598 46.557 23.48)" cx="46.6" cy="23.5" rx="1.4" ry="1.9"/><ellipse transform="rotate(-17.591 44.036 25.084)" cx="44" cy="25.1" rx=".9" ry="1.2"/><ellipse transform="rotate(-59.17 15.184 17.042)" cx="15.2" cy="17" rx="1.6" ry="1.1"/><path d="M18.3 18.3c-.8-.5-.9-1.7-.2-2.8.7-1.1 1.8-1.6 2.6-1.2.8.5.9 1.7.2 2.8-.7 1.2-1.8 1.7-2.6 1.2"/><ellipse transform="rotate(-59.163 17.763 13.823)" cx="17.8" cy="13.8" rx="1" ry=".7"/></g></svg>