<svg viewBox="0 0 15 15" fill="none" xmlns="http://www.w3.org/2000/svg"><path fill-rule="evenodd" clip-rule="evenodd" d="M3.88 1H11.12c.403 0 .735 0 1.006.022.281.023.54.072.782.196a2 2 0 01.874.874c.124.243.173.501.196.782.022.27.022.603.022 1.005v7.241c0 .403 0 .735-.022 1.006-.023.281-.072.54-.196.782a2 2 0 01-.874.874c-.243.124-.501.173-.782.196-.27.022-.603.022-1.005.022H3.88c-.403 0-.735 0-1.006-.022-.281-.023-.54-.072-.782-.196a2 2 0 01-.874-.874c-.124-.243-.173-.501-.196-.782C1 11.856 1 11.523 1 11.12V3.88c0-.403 0-.735.022-1.006.023-.281.072-.54.196-.782a2 2 0 01.874-.874c.243-.124.501-.173.782-.196C3.144 1 3.477 1 3.88 1zm-.924 1.019c-.22.018-.332.05-.41.09a1 1 0 00-.437.437c-.04.078-.072.19-.09.41C2 3.18 2 3.472 2 3.9V7h5V2H3.9c-.428 0-.72 0-.944.019zM7 8H2v3.1c0 .428 0 .72.019.944.018.22.05.332.09.41a1 1 0 00.437.437c.078.04.19.072.41.09.225.019.516.019.944.019H7V8zm1 0h5v3.1c0 .428 0 .72-.019.944-.018.22-.05.332-.09.41a1 1 0 01-.437.437c-.078.04-.19.072-.41.09-.225.019-.516.019-.944.019H8V8zm5-1H8V2h3.1c.428 0 .72 0 .944.019.22.018.332.05.41.09a1 1 0 01.437.437c.04.078.072.19.09.41.019.225.019.516.019.944V7z" fill="currentColor"/></svg>