<svg viewBox="0 0 15 15" fill="none" xmlns="http://www.w3.org/2000/svg"><path fill-rule="evenodd" clip-rule="evenodd" d="M13.354 2.354a.5.5 0 00-.708-.708L10.683 3.61A8.475 8.475 0 007.5 3C4.308 3 1.656 4.706.076 7.235a.5.5 0 000 .53c.827 1.323 1.947 2.421 3.285 3.167l-1.715 1.714a.5.5 0 00.708.708l1.963-1.964c.976.393 2.045.61 3.183.61 3.192 0 5.844-1.706 7.424-4.235a.5.5 0 000-.53c-.827-1.323-1.947-2.421-3.285-3.167l1.715-1.714zm-3.45 2.035A7.517 7.517 0 007.5 4C4.803 4 2.53 5.378 1.096 7.5c.777 1.15 1.8 2.081 3.004 2.693L9.904 4.39zM5.096 10.61L10.9 4.807c1.204.612 2.227 1.543 3.004 2.693C12.47 9.622 10.197 11 7.5 11a7.518 7.518 0 01-2.404-.389z" fill="currentColor"/></svg>