<svg viewBox="0 0 15 15" fill="none" xmlns="http://www.w3.org/2000/svg"><path fill-rule="evenodd" clip-rule="evenodd" d="M7.754.82a.5.5 0 00-.508 0l-5.5 3.25a.5.5 0 000 .86l5.5 3.25a.5.5 0 00.508 0l5.5-3.25a.5.5 0 000-.86L7.754.82zM7.5 7.17L2.983 4.5 7.5 1.83l4.517 2.67L7.5 7.17zm-5.93.326a.5.5 0 01.684-.176l5.246 3.1 5.246-3.1a.5.5 0 11.508.86l-5.5 3.25a.5.5 0 01-.508 0l-5.5-3.25a.5.5 0 01-.177-.684zm0 3a.5.5 0 01.684-.177l5.246 3.1 5.246-3.1a.5.5 0 01.508.861l-5.5 3.25a.5.5 0 01-.508 0l-5.5-3.25a.5.5 0 01-.177-.684z" fill="currentColor"/></svg>