<svg viewBox="0 0 15 15" fill="none" xmlns="http://www.w3.org/2000/svg"><path fill-rule="evenodd" clip-rule="evenodd" d="M2 1a1 1 0 00-1 1v11a1 1 0 001 1h11a1 1 0 001-1V2a1 1 0 00-1-1H2zm1.05 5h1.9v6h-1.9V6zm2.025-1.995a1.075 1.075 0 11-2.15 0 1.075 1.075 0 012.15 0zM12 8.357c0-1.805-1.167-2.507-2.326-2.507-.379-.018-.757.061-1.095.231-.257.13-.526.424-.734.938h-.053V6H6v6.005h1.906V8.81c-.027-.327.077-.75.291-1.001.215-.252.52-.312.753-.342h.073c.606 0 1.056.375 1.056 1.32v3.217h1.906L12 8.357z" fill="currentColor"/></svg>