<svg viewBox="0 0 15 15" fill="none" xmlns="http://www.w3.org/2000/svg"><path fill-rule="evenodd" clip-rule="evenodd" d="M2 1.5a.5.5 0 11-1 0 .5.5 0 011 0zM2 5v5h11V5H2zm0-1a1 1 0 00-1 1v5a1 1 0 001 1h11a1 1 0 001-1V5a1 1 0 00-1-1H2zm-.5 10a.5.5 0 100-1 .5.5 0 000 1zM4 1.5a.5.5 0 11-1 0 .5.5 0 011 0zM3.5 14a.5.5 0 100-1 .5.5 0 000 1zM6 1.5a.5.5 0 11-1 0 .5.5 0 011 0zM5.5 14a.5.5 0 100-1 .5.5 0 000 1zM8 1.5a.5.5 0 11-1 0 .5.5 0 011 0zM7.5 14a.5.5 0 100-1 .5.5 0 000 1zM10 1.5a.5.5 0 11-1 0 .5.5 0 011 0zM9.5 14a.5.5 0 100-1 .5.5 0 000 1zM12 1.5a.5.5 0 11-1 0 .5.5 0 011 0zM11.5 14a.5.5 0 100-1 .5.5 0 000 1zM14 1.5a.5.5 0 11-1 0 .5.5 0 011 0zM13.5 14a.5.5 0 100-1 .5.5 0 000 1z" fill="currentColor"/></svg>