<svg viewBox="0 0 15 15" fill="none" xmlns="http://www.w3.org/2000/svg"><path fill-rule="evenodd" clip-rule="evenodd" d="M3.5 14.9a.4.4 0 00.4-.4v-4.034l1.317 1.317a.4.4 0 00.565-.566l-2-2a.4.4 0 00-.565 0l-2 2a.4.4 0 00.565.566L3.1 10.466V14.5c0 .22.18.4.4.4zM8 10.5a.5.5 0 00.5.5h6a.5.5 0 100-1h-6a.5.5 0 00-.5.5zm0-3a.5.5 0 00.5.5h6a.5.5 0 000-1h-6a.5.5 0 00-.5.5zM8.5 5a.5.5 0 110-1h6a.5.5 0 010 1h-6zM3.9.5a.4.4 0 00-.8 0v4.034L1.781 3.217a.4.4 0 00-.565.566l2 2a.4.4 0 00.565 0l2-2a.4.4 0 00-.565-.566L3.899 4.534V.5z" fill="currentColor"/></svg>