<svg viewBox="0 0 15 15" fill="none" xmlns="http://www.w3.org/2000/svg"><path fill-rule="evenodd" clip-rule="evenodd" d="M7.233 4.696c0-1.727 1.4-3.127 3.127-3.127 1.014 0 1.823.479 2.365 1.175a5.246 5.246 0 001.626-.629 2.634 2.634 0 01-1.148 1.45l.002.003a5.26 5.26 0 001.5-.413l-.001.002c-.337.505-.76.95-1.248 1.313.026.177.04.354.04.53 0 3.687-2.809 7.975-7.975 7.975a7.93 7.93 0 01-4.296-1.26.5.5 0 01-.108-.748.45.45 0 01.438-.215c.916.108 1.83-.004 2.637-.356a3.086 3.086 0 01-1.69-1.876.45.45 0 01.103-.448 3.07 3.07 0 01-1.045-2.31v-.034a.45.45 0 01.365-.442 3.068 3.068 0 01-.344-1.416c0-.468.003-1.058.332-1.59a.45.45 0 01.323-.208.5.5 0 01.538.161 6.964 6.964 0 004.46 2.507v-.044zm-1.712 7.279a6.936 6.936 0 01-2.249-.373 5.318 5.318 0 002.39-1.042.45.45 0 00-.27-.804 2.174 2.174 0 01-1.714-.888c.19-.015.376-.048.556-.096a.45.45 0 00-.028-.876 2.18 2.18 0 01-1.644-1.474c.2.048.409.077.623.084a.45.45 0 00.265-.824A2.177 2.177 0 012.48 3.87c0-.168.003-.317.013-.453a7.95 7.95 0 005.282 2.376.5.5 0 00.513-.61 2.127 2.127 0 012.071-2.614c1.234 0 2.136 1.143 2.136 2.432 0 3.256-2.476 6.974-6.975 6.974z" fill="currentColor"/></svg>