<svg xmlns="http://www.w3.org/2000/svg" viewBox="0 0 24 24" fill="currentColor" class="icon icon-tabler icons-tabler-filled icon-tabler-alarm"><path d="M0 0h24v24H0z" fill="none"/><path d="M16 6.072a8 8 0 11-11.995 7.213L4 13l.005-.285A8 8 0 0116 6.072zM12 9a1 1 0 00-1 1v3l.007.117A1 1 0 0012 14h2l.117-.007A1 1 0 0015 13l-.007-.117A1 1 0 0014 12h-1v-2l-.007-.117A1 1 0 0012 9z"/><path d="M6.412 3.191A1 1 0 017.685 4.73l-.097.08-2.75 2a1 1 0 01-1.273-1.54l.097-.08 2.75-2zM16.191 3.412a1 1 0 011.291-.288l.106.067 2.75 2a1 1 0 01-1.07 1.685l-.106-.067-2.75-2a1 1 0 01-.22-1.397z"/></svg>