<svg xmlns="http://www.w3.org/2000/svg" viewBox="0 0 24 24" fill="currentColor" class="icon icon-tabler icons-tabler-filled icon-tabler-align-box-bottom-center"><path d="M0 0h24v24H0z" fill="none"/><path d="M18.333 2c1.96 0 3.56 1.537 3.662 3.472l.005.195v12.666c0 1.96-1.537 3.56-3.472 3.662l-.195.005H5.667a3.667 3.667 0 01-3.662-3.472L2 18.333V5.667c0-1.96 1.537-3.56 3.472-3.662L5.667 2h12.666zM9 15a1 1 0 00-1 1v2l.007.117A1 1 0 0010 18v-2l-.007-.117A1 1 0 009 15zm3-4a1 1 0 00-1 1v6l.007.117A1 1 0 0013 18v-6l-.007-.117A1 1 0 0012 11zm3 2a1 1 0 00-1 1v4l.007.117A1 1 0 0016 18v-4l-.007-.117A1 1 0 0015 13z"/></svg>