<svg xmlns="http://www.w3.org/2000/svg" viewBox="0 0 24 24" fill="currentColor" class="icon icon-tabler icons-tabler-filled icon-tabler-arrow-move-down"><path d="M0 0h24v24H0z" fill="none"/><path d="M12 10a1 1 0 011 1v7.584l1.293-1.291a1 1 0 011.32-.083l.094.083a1 1 0 010 1.414l-3 3a1 1 0 01-.112.097l-.11.071-.114.054-.105.035-.149.03L12 22l-.075-.003-.126-.017-.111-.03-.111-.044-.098-.052-.096-.067-.09-.08-3-3a1 1 0 011.414-1.414L11 18.586V11a1 1 0 011-1m0-8a3 3 0 11-3 3l.005-.176A3 3 0 0112 2"/></svg>