<svg xmlns="http://www.w3.org/2000/svg" viewBox="0 0 24 24" fill="currentColor" class="icon icon-tabler icons-tabler-filled icon-tabler-arrow-big-left-lines"><path d="M0 0h24v24H0z" fill="none"/><path d="M9.586 4L3 10.586a2 2 0 000 2.828L9.586 20a2 2 0 002.18.434l.145-.068A2 2 0 0013 18.586V16h2a1 1 0 001-1V9l-.007-.117A1 1 0 0015 8l-2-.001V5.414A2 2 0 009.586 4zM21 8a1 1 0 01.993.883L22 9v6a1 1 0 01-1.993.117L20 15V9a1 1 0 011-1zM18 8a1 1 0 01.993.883L19 9v6a1 1 0 01-1.993.117L17 15V9a1 1 0 011-1z"/></svg>