<svg xmlns="http://www.w3.org/2000/svg" viewBox="0 0 24 24" fill="currentColor" class="icon icon-tabler icons-tabler-filled icon-tabler-arrow-guide"><path d="M0 0h24v24H0z" fill="none"/><path d="M18.707 3.293l3 3q.054.053.097.112l.071.11.054.114.035.105.03.148L22 7l-.003.075-.017.126-.03.111-.044.111-.052.098-.067.096-.08.09-3 3a1 1 0 01-1.414-1.414L18.585 8H14a1 1 0 00-1 1v8a3 3 0 01-3 3H7.829A3.001 3.001 0 012 19l.005-.176A3 3 0 017.83 18H10a1 1 0 001-1V9a3 3 0 013-3h4.585l-1.292-1.293a1 1 0 01-.083-1.32l.083-.094a1 1 0 011.414 0"/></svg>