<svg xmlns="http://www.w3.org/2000/svg" viewBox="0 0 24 24" fill="currentColor" class="icon icon-tabler icons-tabler-filled icon-tabler-building-broadcast-tower"><path d="M0 0h24v24H0z" fill="none"/><path d="M12 10a2 2 0 011.497 3.327l2.452 7.357a1 1 0 11-1.898.632L13.611 20h-3.224l-.438 1.317a1 1 0 01-1.152.663l-.113-.03a1 1 0 01-.633-1.265l2.452-7.357A2 2 0 0110 12l.005-.15A2 2 0 0112 10"/><path d="M18.093 4.078a10 10 0 013.137 11.776 1 1 0 01-1.846-.77 8 8 0 10-14.769 0 1 1 0 01-1.846.77A10 10 0 0118.093 4.078"/><path d="M15.657 7.243a6 6 0 011.882 7.066 1 1 0 11-1.846-.77 4 4 0 10-7.384 0 1 1 0 11-1.846.77 6 6 0 019.194-7.066"/></svg>