<svg xmlns="http://www.w3.org/2000/svg" viewBox="0 0 24 24" fill="currentColor" class="icon icon-tabler icons-tabler-filled icon-tabler-butterfly"><path d="M0 0h24v24H0z" fill="none"/><path d="M17.117 6.244l.228.076a5.5 5.5 0 011.24 9.738l-.063.039.02.034a4 4 0 01.101 3.533l-.093.19A4 4 0 0113 21.462V6.605a5.5 5.5 0 014.118-.36M8.505 6c.885 0 1.736.21 2.495.597v14.87a4 4 0 01-1.012.41l-.196.045a4 4 0 01-4.424-5.587l.118-.238-.035-.023a5.5 5.5 0 01-2.397-5.258l.034-.233A5.5 5.5 0 018.505 6M14.445 2.168a1 1 0 011.11 1.664l-3 2a1 1 0 01-1.11 0l-3-2a1 1 0 011.11-1.664l2.444 1.63z"/></svg>