<svg xmlns="http://www.w3.org/2000/svg" viewBox="0 0 24 24" fill="currentColor" class="icon icon-tabler icons-tabler-filled icon-tabler-device-gamepad-3"><path d="M0 0h24v24H0z" fill="none"/><path d="M12.707 14.293l3 3A1 1 0 0116 18v2a2 2 0 01-2 2h-4a2 2 0 01-2-2v-2a1 1 0 01.293-.707l3-3a1 1 0 011.414 0M6 8a1 1 0 01.707.293l3 3a1 1 0 010 1.414l-3 3A1 1 0 016 16H4a2 2 0 01-2-2v-4a2 2 0 012-2zm14 0a2 2 0 012 2v4a2 2 0 01-2 2h-2a1 1 0 01-.707-.293l-3-3a1 1 0 010-1.414l3-3A1 1 0 0118 8zm-6-6a2 2 0 012 2v2a1 1 0 01-.293.707l-3 3a1 1 0 01-1.414 0l-3-3A1 1 0 018 6V4a2 2 0 012-2z"/></svg>