<svg xmlns="http://www.w3.org/2000/svg" viewBox="0 0 24 24" fill="currentColor" class="icon icon-tabler icons-tabler-filled icon-tabler-device-remote"><path d="M0 0h24v24H0z" fill="none"/><path d="M15 2a3 3 0 013 3v14a3 3 0 01-3 3H9a3 3 0 01-3-3V5a3 3 0 013-3h2v1a1 1 0 00.883.993L12 4a1 1 0 001-1V2zm-5 15a1 1 0 00-1 1l.007.127A1 1 0 0011 18.01l-.007-.127A1 1 0 0010 17m4 0a1 1 0 00-1 1l.007.127A1 1 0 0015 18.01l-.007-.127A1 1 0 0014 17m-4-3a1 1 0 00-1 1l.007.127A1 1 0 0011 15.01l-.007-.127A1 1 0 0010 14m4 0a1 1 0 00-1 1l.007.127A1 1 0 0015 15.01l-.007-.127A1 1 0 0014 14m-2-7a3 3 0 00-2.995 2.824L9 10a3 3 0 103-3"/></svg>