<svg xmlns="http://www.w3.org/2000/svg" viewBox="0 0 24 24" fill="currentColor" class="icon icon-tabler icons-tabler-filled icon-tabler-hexagon-letter-k"><path d="M0 0h24v24H0z" fill="none"/><path d="M13.666 1.429l6.75 3.98.096.063.093.078.106.074a3.22 3.22 0 011.284 2.39l.005.204v7.284c0 1.175-.643 2.256-1.623 2.793l-6.804 4.302c-.98.538-2.166.538-3.2-.032l-6.695-4.237A3.23 3.23 0 012 15.502V8.217c0-1.106.57-2.128 1.476-2.705l6.95-4.098c1-.552 2.214-.552 3.24.015m.864 5.723a1 1 0 00-1.378.318L11 10.912V8a1 1 0 00-.883-.993L10 7a1 1 0 00-1 1v8a1 1 0 002 0v-2.914l2.152 3.444a1 1 0 001.276.374l.102-.056.095-.068a1 1 0 00.223-1.31L12.678 12l2.17-3.47a1 1 0 00-.318-1.378"/></svg>