<svg xmlns="http://www.w3.org/2000/svg" viewBox="0 0 24 24" fill="currentColor" class="icon icon-tabler icons-tabler-filled icon-tabler-hexagon-letter-n"><path d="M0 0h24v24H0z" fill="none"/><path d="M13.666 1.429l6.75 3.98.096.063.093.078.106.074a3.22 3.22 0 011.284 2.39l.005.204v7.284c0 1.175-.643 2.256-1.623 2.793l-6.804 4.302c-.98.538-2.166.538-3.2-.032l-6.695-4.237A3.23 3.23 0 012 15.502V8.217c0-1.106.57-2.128 1.476-2.705l6.95-4.098c1-.552 2.214-.552 3.24.015m-2.772 6.124C10.423 6.609 9 6.945 9 8v8a1 1 0 001 1l.117-.007A1 1 0 0011 16v-3.764l2.106 4.211c.471.944 1.894.608 1.894-.447V8a1 1 0 00-1-1l-.117.007A1 1 0 0013 8v3.764z"/></svg>