<svg xmlns="http://www.w3.org/2000/svg" viewBox="0 0 24 24" fill="currentColor" class="icon icon-tabler icons-tabler-filled icon-tabler-ironing-steam"><path d="M0 0h24v24H0z" fill="none"/><path d="M12 18a1 1 0 011 1v2a1 1 0 01-2 0v-2a1 1 0 011-1M16.459 3a4 4 0 013.945 3.343l.577 3.464.81 4.865A2 2 0 0119.82 17H3a1 1 0 01-1-1 8 8 0 018-8h8.652l-.22-1.329a2 2 0 00-1.811-1.665L16.459 5H9a1 1 0 110-2zM7.106 18.553a1 1 0 011.788.894l-1 2a1 1 0 01-1.788-.894zM15.553 18.106a1 1 0 011.341.447l1 2a1 1 0 01-1.788.894l-1-2a1 1 0 01.447-1.341"/></svg>