<svg xmlns="http://www.w3.org/2000/svg" viewBox="0 0 24 24" fill="currentColor" class="icon icon-tabler icons-tabler-filled icon-tabler-manual-gearbox"><path d="M0 0h24v24H0z" fill="none"/><path d="M19 3a3 3 0 011 5.829V10a3 3 0 01-3 3h-4v2.171A3.001 3.001 0 119 18l.005-.176A3 3 0 0111 15.17V13H6v2.171A3.001 3.001 0 112 18l.005-.176A3 3 0 014 15.17V8.829A3 3 0 012 6l.005-.176a3 3 0 113.996 3.005L6 11h5V8.83A3 3 0 019 6l.005-.176a3 3 0 113.996 3.005L13 11h4a1 1 0 001-1V8.83A3 3 0 0116 6l.005-.176A3 3 0 0119 3"/></svg>