<svg xmlns="http://www.w3.org/2000/svg" viewBox="0 0 24 24" fill="currentColor" class="icon icon-tabler icons-tabler-filled icon-tabler-mood-crazy-happy"><path d="M0 0h24v24H0z" fill="none"/><path d="M17 3.34A10 10 0 112 12l.005-.324A10 10 0 0117 3.34m-1.8 10.946a1 1 0 00-1.414.014 2.5 2.5 0 01-3.572 0 1 1 0 00-1.428 1.4 4.5 4.5 0 006.428 0 1 1 0 00-.014-1.414M7.707 7.793a1 1 0 00-1.414 1.414l.792.793-.792.793a1 1 0 001.414 1.414l.793-.792.793.792a1 1 0 101.414-1.414L9.915 10l.792-.793a1 1 0 10-1.414-1.414l-.793.792zm7 0a1 1 0 00-1.414 1.414l.792.793-.792.793a1 1 0 001.414 1.414l.793-.792.793.792a1 1 0 001.414-1.414L16.915 10l.792-.793a1 1 0 10-1.414-1.414l-.793.792z"/></svg>