<svg xmlns="http://www.w3.org/2000/svg" viewBox="0 0 24 24" fill="currentColor" class="icon icon-tabler icons-tabler-filled icon-tabler-mood-sad"><path d="M0 0h24v24H0z" fill="none"/><path d="M17 3.34a10 10 0 11-14.995 8.984L2 12l.005-.324A10 10 0 0117 3.34zm-5 9.86a4.5 4.5 0 00-3.214 1.35 1 1 0 101.428 1.4 2.5 2.5 0 013.572 0 1 1 0 001.428-1.4A4.5 4.5 0 0012 13.2zM9.01 9l-.127.007a1 1 0 000 1.986L9 11l.127-.007a1 1 0 000-1.986L9.01 9zm6 0l-.127.007a1 1 0 000 1.986L15 11l.127-.007a1 1 0 000-1.986L15.01 9z"/></svg>