<svg xmlns="http://www.w3.org/2000/svg" viewBox="0 0 24 24" fill="currentColor" class="icon icon-tabler icons-tabler-filled icon-tabler-mountain"><path d="M0 0h24v24H0z" fill="none"/><path d="M6.18 10.95l2.54 3.175.084.093a1 1 0 001.403-.01l1.637-1.638 1.324 1.985a1 1 0 001.457.226l3.632-2.906 3.647 7.697A1 1 0 0121 21H3a1 1 0 01-.904-1.428zM12 3.072a3.3 3.3 0 012.983 1.888l2.394 5.057-3.15 2.52-1.395-2.092-.075-.099a1 1 0 00-1.464-.053l-1.711 1.709-1.301-1.627L7.13 8.94l1.888-3.98A3.3 3.3 0 0112 3.072"/></svg>