<svg xmlns="http://www.w3.org/2000/svg" viewBox="0 0 24 24" fill="currentColor" class="icon icon-tabler icons-tabler-filled icon-tabler-play-card-8"><path d="M0 0h24v24H0z" fill="none"/><path d="M17 2a3 3 0 013 3v14a3 3 0 01-3 3H7a3 3 0 01-3-3V5a3 3 0 013-3zm.01 16H17a1 1 0 00-.117 1.993l.127.007a1 1 0 000-2M13 8h-2a2 2 0 00-2 2v1c0 .365.098.707.268 1.001-.17.293-.268.635-.268.999v1a2 2 0 002 2h2a2 2 0 002-2v-1a2 2 0 00-.268-1c.17-.293.268-.635.268-1v-1a2 2 0 00-2-2m0 5v1h-2v-1zm0-3v1h-2v-1zM7.01 4H7a1 1 0 00-.117 1.993L7.01 6a1 1 0 100-2"/></svg>