<svg xmlns="http://www.w3.org/2000/svg" viewBox="0 0 24 24" fill="currentColor" class="icon icon-tabler icons-tabler-filled icon-tabler-play-card-q"><path d="M0 0h24v24H0z" fill="none"/><path d="M17 2a3 3 0 013 3v14a3 3 0 01-3 3H7a3 3 0 01-3-3V5a3 3 0 013-3zm.01 16H17a1 1 0 00-.117 1.993l.127.007a1 1 0 000-2M12 8a3 3 0 00-3 3v2a3 3 0 004.293 2.708l.5.5a1 1 0 001.414-1.415l-.499-.5c.187-.392.292-.83.292-1.293v-2a3 3 0 00-3-3m0 2a1 1 0 011 1v2a1 1 0 01-2 0v-2a1 1 0 011-1M7.01 4H7a1 1 0 00-.117 1.993L7.01 6a1 1 0 100-2"/></svg>