<svg xmlns="http://www.w3.org/2000/svg" viewBox="0 0 24 24" fill="currentColor" class="icon icon-tabler icons-tabler-filled icon-tabler-relation-many-to-many"><path d="M0 0h24v24H0z" fill="none"/><path d="M19 4a3 3 0 013 3v10a3 3 0 01-3 3H5a3 3 0 01-3-3V7a3 3 0 013-3zm-3.2 5.4c-.577-.769-1.8-.361-1.8.6v4a1 1 0 001 1l.117-.007A1 1 0 0016 14v-1l1.2 1.6c.577.769 1.8.361 1.8-.6v-4a1 1 0 00-1-1l-.117.007A1 1 0 0017 10v1zm-9 0C6.223 8.631 5 9.039 5 10v4a1 1 0 001 1l.117-.007A1 1 0 007 14v-1l1.2 1.6c.577.769 1.8.361 1.8-.6v-4a1 1 0 00-1-1l-.117.007A1 1 0 008 10v1zm5.2 3.1a1 1 0 00-1 1v.01a1 1 0 002 0v-.01a1 1 0 00-1-1m0-3a1 1 0 00-1 1v.01a1 1 0 002 0v-.01a1 1 0 00-1-1"/></svg>