<svg xmlns="http://www.w3.org/2000/svg" viewBox="0 0 24 24" fill="currentColor" class="icon icon-tabler icons-tabler-filled icon-tabler-section"><path d="M0 0h24v24H0z" fill="none"/><path d="M20.01 19a1 1 0 01.117 1.993L20 21a1 1 0 01-.117-1.993zm-16 0a1 1 0 010 2 1 1 0 01-.127-1.993zm4 0a1 1 0 010 2 1 1 0 01-.127-1.993zm4 0a1 1 0 01.117 1.993L12 21a1 1 0 01-.117-1.993zm4 0a1 1 0 01.117 1.993L16 21a1 1 0 01-.117-1.993zm4-16a1 1 0 01.117 1.993L20 5a1 1 0 01-.117-1.993zm-16 0a1 1 0 110 2 1 1 0 01-.127-1.993zm4 0a1 1 0 110 2 1 1 0 01-.127-1.993zm4 0a1 1 0 01.117 1.993L12 5a1 1 0 01-.117-1.993zM16 3a1 1 0 011 1 1 1 0 11-2 .01c0-.562.448-1.01 1-1.01m3 4a2 2 0 012 2v6a2 2 0 01-2 2H5a2 2 0 01-2-2V9a2 2 0 012-2z"/></svg>