<svg xmlns="http://www.w3.org/2000/svg" viewBox="0 0 24 24" fill="currentColor" class="icon icon-tabler icons-tabler-filled icon-tabler-sort-descending-shapes"><path d="M0 0h24v24H0z" fill="none"/><path d="M7 5a1 1 0 011 1v9.584l1.293-1.291a1 1 0 011.32-.083l.094.083a1 1 0 010 1.414l-3 3a1 1 0 01-.112.097l-.11.071-.114.054-.105.035-.149.03L7 19l-.075-.003-.126-.017-.111-.03-.111-.044-.098-.052-.096-.067-.09-.08-3-3a1 1 0 011.414-1.414L6 15.586V6a1 1 0 011-1m12 8a2 2 0 012 2v4a2 2 0 01-2 2h-4a2 2 0 01-2-2v-4a2 2 0 012-2zm-1.136-9.504l3.5 6A1 1 0 0120.5 11h-7a1 1 0 01-.864-1.504l3.5-6a1 1 0 011.728 0"/></svg>