<svg xmlns="http://www.w3.org/2000/svg" viewBox="0 0 24 24" fill="currentColor" class="icon icon-tabler icons-tabler-filled icon-tabler-sort-ascending-2"><path d="M0 0h24v24H0z" fill="none"/><path d="M16.852 5.011l.058-.007L17 5l.075.003.126.017.111.03.111.044.098.052.104.074.082.073 3 3a1 1 0 11-1.414 1.414L18 8.415V18a1 1 0 01-2 0V8.415l-1.293 1.292a1 1 0 01-1.32.083l-.094-.083a1 1 0 010-1.414l3-3q.053-.054.112-.097l.11-.071.114-.054.105-.035zM9.5 4A1.5 1.5 0 0111 5.5v4A1.5 1.5 0 019.5 11h-4A1.5 1.5 0 014 9.5v-4A1.5 1.5 0 015.5 4zM9.5 13a1.5 1.5 0 011.5 1.5v4A1.5 1.5 0 019.5 20h-4A1.5 1.5 0 014 18.5v-4A1.5 1.5 0 015.5 13z"/></svg>