<svg xmlns="http://www.w3.org/2000/svg" viewBox="0 0 24 24" fill="currentColor" class="icon icon-tabler icons-tabler-filled icon-tabler-square-letter-w"><path d="M0 0h24v24H0z" fill="none"/><path d="M19 2a3 3 0 013 3v14a3 3 0 01-3 3H5a3 3 0 01-3-3V5a3 3 0 013-3zm-4.992 5.876l-.52 4.153-.56-1.4c-.319-.799-1.41-.837-1.803-.114l-.053.114-.561 1.4-.519-4.153a1 1 0 00-1-.876l-.116.008a1 1 0 00-.868 1.116l1 8c.128 1.025 1.537 1.207 1.92.247L12 13.693l1.072 2.678c.383.96 1.792.778 1.92-.247l1-8a1 1 0 00-1.984-.248"/></svg>