<svg xmlns="http://www.w3.org/2000/svg" viewBox="0 0 24 24" fill="currentColor" class="icon icon-tabler icons-tabler-filled icon-tabler-square-arrow-down"><path d="M0 0h24v24H0z" fill="none"/><path d="M19 2a3 3 0 013 3v14a3 3 0 01-3 3H5a3 3 0 01-3-3V5a3 3 0 013-3zm-7 5a1 1 0 00-1 1v5.585l-2.293-2.292-.094-.083a1 1 0 00-1.32 1.497l4 4 .094.083.092.064.098.052.11.044.112.03.126.017L12 17l.117-.007.149-.029.105-.035.113-.054.111-.071a.939.939 0 00.112-.097l4-4 .083-.094a1 1 0 00-.083-1.32l-.094-.083a1 1 0 00-1.32.083L13 13.585V8l-.007-.117A1 1 0 0012 7z"/></svg>