<svg xmlns="http://www.w3.org/2000/svg" viewBox="0 0 24 24" fill="currentColor" class="icon icon-tabler icons-tabler-filled icon-tabler-square-letter-x"><path d="M0 0h24v24H0z" fill="none"/><path d="M19 2a3 3 0 013 3v14a3 3 0 01-3 3H5a3 3 0 01-3-3V5a3 3 0 013-3zm-4.553 5.106a1 1 0 00-1.341.447L12 9.763l-1.106-2.21a1 1 0 00-1.234-.494l-.107.047a1 1 0 00-.447 1.341L10.88 12l-1.775 3.553a1 1 0 00.345 1.283l.102.058a1 1 0 001.341-.447L12 14.236l1.106 2.211a1 1 0 001.234.494l.107-.047a1 1 0 00.447-1.341L13.118 12l1.776-3.553a1 1 0 00-.345-1.283z"/></svg>