<svg xmlns="http://www.w3.org/2000/svg" viewBox="0 0 24 24" fill="currentColor" class="icon icon-tabler icons-tabler-filled icon-tabler-swipe-up"><path d="M0 0h24v24H0z" fill="none"/><path d="M11.852 3.011l.058-.007L12 3l.075.003.126.017.111.03.111.044.098.052.104.074.082.073 3 3a1 1 0 11-1.414 1.414L13 6.415l.001 4.685A5.002 5.002 0 0112 21a5 5 0 01-5-5l.005-.217A5 5 0 0111 11.1V6.415L9.707 7.707a1 1 0 01-1.32.083l-.094-.083a1 1 0 010-1.414l3-3q.053-.054.112-.097l.11-.071.114-.054.105-.035z"/></svg>