<svg xmlns="http://www.w3.org/2000/svg" viewBox="0 0 24 24" fill="currentColor" class="icon icon-tabler icons-tabler-filled icon-tabler-tags"><path d="M0 0h24v24H0z" fill="none"/><path d="M9.172 5a3 3 0 012.121.879l5.71 5.71a3.41 3.41 0 010 4.822l-3.592 3.592a3.41 3.41 0 01-4.822 0l-5.71-5.71A3 3 0 012 12.172V8a3 3 0 013-3zM7 9h-.01A1 1 0 107 11a1 1 0 000-2"/><path d="M14.293 5.293a1 1 0 011.414 0L20.3 9.885a5.82 5.82 0 010 8.23l-1.592 1.592a1 1 0 01-1.414-1.414l1.592-1.592a3.82 3.82 0 000-5.402l-4.592-4.592a1 1 0 010-1.414"/></svg>