<svg xmlns="http://www.w3.org/2000/svg" viewBox="0 0 24 24" fill="currentColor" class="icon icon-tabler icons-tabler-filled icon-tabler-zoom-scan"><path d="M0 0h24v24H0z" fill="none"/><path d="M4 15a1 1 0 011 1v2a1 1 0 001 1h2a1 1 0 010 2H6a3 3 0 01-3-3v-2a1 1 0 011-1M20 15a1 1 0 011 1v2a3 3 0 01-3 3h-2a1 1 0 010-2h2a1 1 0 001-1v-2a1 1 0 011-1M11 7a4 4 0 013.446 6.031l2.261 2.262a1 1 0 01-1.414 1.414l-2.262-2.26-.031.017A4 4 0 017 11l.005-.2A4 4 0 0111 7M8 3a1 1 0 110 2H6a1 1 0 00-1 1v2a1 1 0 11-2 0V6a3 3 0 013-3zM18 3a3 3 0 013 3v2a1 1 0 01-2 0V6a1 1 0 00-1-1h-2a1 1 0 010-2z"/></svg>