<svg xmlns="http://www.w3.org/2000/svg" viewBox="0 0 24 24" fill="currentColor" class="icon icon-tabler icons-tabler-filled icon-tabler-zoom-code"><path d="M0 0h24v24H0z" fill="none"/><path d="M14 3.072a8 8 0 012.32 11.834l5.387 5.387a1 1 0 01-1.414 1.414l-5.388-5.387A8 8 0 012 10l.005-.285A8 8 0 0114 3.072m-5.293 4.22a1 1 0 00-1.414 0l-2 2a1 1 0 000 1.415l2 2a1 1 0 001.414 0l.083-.094a1 1 0 00-.083-1.32L7.415 10l1.292-1.293a1 1 0 000-1.414m4 0a1 1 0 00-1.414 0l-.083.095a1 1 0 00.083 1.32L12.585 10l-1.292 1.293a1 1 0 001.414 1.414l2-2a1 1 0 000-1.414z"/></svg>