<svg viewBox="0 0 16 16" fill="none" xmlns="http://www.w3.org/2000/svg"><path fill-rule="evenodd" clip-rule="evenodd" d="M11.67 8.658c-.338.334-.598.705-.781 1.114-.178.407-.268.85-.268 1.329v1.6a1.304 1.304 0 01-.794 1.197c-.159.068-.329.102-.509.102H7.712a1.285 1.285 0 01-.922-.379 1.303 1.303 0 01-.38-.92v-1.6c0-.479-.092-.921-.274-1.329a3.556 3.556 0 00-.776-1.114 4.689 4.689 0 01-1.006-1.437A4.187 4.187 0 014 5.5a4.432 4.432 0 01.616-2.27c.197-.336.432-.64.705-.914.274-.272.578-.506.911-.702.338-.196.7-.348 1.084-.454C7.7 1.053 8.1 1 8.516 1a4.476 4.476 0 012.276.614 4.475 4.475 0 011.622 1.616 4.438 4.438 0 01.616 2.27c0 .617-.117 1.191-.353 1.721a4.69 4.69 0 01-1.006 1.437zM9.623 10.5H7.409v2.201c0 .081.028.15.09.212.062.061.131.09.213.09h1.606a.289.289 0 00.213-.09.286.286 0 00.09-.212V10.5z" fill="#FC0"/></svg>