<svg viewBox="0 0 16 16" fill="none" xmlns="http://www.w3.org/2000/svg"><path fill-rule="evenodd" clip-rule="evenodd" d="M7.71 3h6.79l.51.5v10l-.5.5H8.743c.253-.307.474-.642.657-1h4.59v-1.51l.01-4v-1.5H7.69l-.017.017a5.494 5.494 0 00-.882-.508l.349-.349.35-.15h6.5l.01-.99H7.5l-.36-.15-.85-.85H2V5.6c-.354.18-.686.399-.99.649V2.5l.5-.5h5l.35.15.85.85z" fill="#C5C5C5"/><path d="M6 10.5a1.5 1.5 0 11-3 0 1.5 1.5 0 013 0z" fill="#C5C5C5"/><path fill-rule="evenodd" clip-rule="evenodd" d="M8 10.5a3.5 3.5 0 11-7 0 3.5 3.5 0 017 0zM4.5 13a2.5 2.5 0 100-5 2.5 2.5 0 000 5z" fill="#C5C5C5"/></svg>