<svg viewBox="0 0 24 24" xmlns="http://www.w3.org/2000/svg"><path d="M7.164 13.58l1.287-1.27a.425.425 0 00.002-.603L7.166 10.42l-.608.601.552.552H5.147v.852h1.97l-.557.55zm9.82.04l1.715-1.28a.427.427 0 000-.682l-1.716-1.277-.515.682.686.51H15.44v.853h1.715l-.686.511zM9.945 12c0 .905-.156 1.758-.449 2.5a7.07 7.07 0 012.511-.445c.87 0 1.74.148 2.51.445a6.855 6.855 0 01-.448-2.5c0-.905.157-1.757.449-2.5-1.543.593-3.479.593-5.022 0 .293.743.45 1.595.45 2.5zm-2.1 4.136a.424.424 0 010-.602c.778-.774 1.243-2.095 1.243-3.534 0-1.439-.465-2.76-1.244-3.534a.424.424 0 010-.602.43.43 0 01.607 0c1.662 1.65 5.45 1.65 7.113 0a.43.43 0 01.732.301.42.42 0 01-.126.301c-.778.774-1.243 2.095-1.243 3.534 0 1.439.465 2.76 1.243 3.534a.424.424 0 010 .602.43.43 0 01-.606 0c-1.662-1.65-5.451-1.65-7.113 0a.43.43 0 01-.607 0zm15.299-4.134c0-.397-.155-.77-.438-1.051a1.495 1.495 0 00-1.058-.435c-.383 0-.766.145-1.058.435a1.481 1.481 0 000 2.102c.583.58 1.532.58 2.116 0 .283-.28.438-.654.438-1.05zm.168 1.654a2.354 2.354 0 01-1.664.684 2.354 2.354 0 01-1.664-.684 2.33 2.33 0 010-3.308 2.366 2.366 0 013.328 0 2.33 2.33 0 010 3.308zM3.85 12.012a1.491 1.491 0 00-1.496-1.487 1.493 1.493 0 00-1.496 1.487c0 .397.155.77.437 1.051.566.561 1.551.561 2.116 0 .283-.281.439-.654.439-1.051zm.168 1.654a2.354 2.354 0 01-1.665.684 2.355 2.355 0 01-1.664-.684 2.332 2.332 0 010-3.308 2.367 2.367 0 013.329 0 2.33 2.33 0 010 3.308zm14.367 4.7a9.034 9.034 0 01-6.41 2.639 9.033 9.033 0 01-6.41-2.638c-1.175-1.166-1.82-2.56-2.156-3.524l-.81.28c.364 1.047 1.07 2.566 2.36 3.846a9.888 9.888 0 007.016 2.888 9.888 9.888 0 007.016-2.888 10.234 10.234 0 002.43-3.848l-.812-.276a9.37 9.37 0 01-2.224 3.522zM3.407 9.158l-.81-.28c.52-1.484 1.358-2.851 2.363-3.849a9.887 9.887 0 017.014-2.885 9.885 9.885 0 017.014 2.885 10.497 10.497 0 012.43 3.85l-.809.279a9.628 9.628 0 00-2.228-3.526 9.03 9.03 0 00-6.407-2.636 9.03 9.03 0 00-6.408 2.636c-.914.909-1.681 2.161-2.159 3.526z"/></svg>