<svg viewBox="0 0 24 24" xmlns="http://www.w3.org/2000/svg"><path d="M7.909 1.878c-1.146 0-2.073.982-2.073 2.127 0 1.2.927 2.127 2.073 2.127h8.4c1.145 0 2.071-.982 2.071-2.127 0-1.2-.926-2.127-2.072-2.127zm-4.855.872v.928C1.418 3.787 0 5.205 0 6.95c0 1.8 1.363 3.219 3.108 3.219h.546c.327 0 .545-.219.545-.546 0-.327-.218-.545-.545-.545h-.545c-1.146 0-2.018-.928-2.018-2.128 0-1.145.872-2.072 1.963-2.127v1.145l1.528-1.582zM7.91 7.442c-1.146 0-2.073.98-2.073 2.126 0 1.145.927 2.127 2.073 2.127h8.4c1.145 0 2.071-.982 2.071-2.127 0-1.145-.926-2.126-2.072-2.126zm12.49 1.799c-.327 0-.546.218-.546.545 0 .328.219.546.546.546h.545c1.146 0 2.018.927 2.018 2.127 0 1.145-.872 2.073-1.963 2.127v-1.145l-1.528 1.472 1.528 1.637v-.927c1.636-.055 3-1.418 3-3.218.054-1.8-1.31-3.164-3.055-3.164zm-12.49 3.818c-1.146 0-2.073.982-2.073 2.127 0 .436.11.872.382 1.2l.491-.163c.545-.218 1.145-.655 1.527-.983a.754.754 0 00.218-.163c.054-.054.11-.109.218-.164.328-.272.764-.6 1.418-.71h.382c.545 0 1.036.165 1.363.492.11-.055.218-.108.273-.163.163-.055.273-.164.382-.218.11-.055.272-.11.436-.11a.9.9 0 01.818.491c.11.218.219.6-.109 1.2-.054.11-.163.218-.218.382-.164.327-.381.654-.708 1.09h3.6c1.145 0 2.071-.981 2.071-2.127 0-1.2-.926-2.181-2.072-2.181zm-6.44.05a.177.177 0 00-.051.004c-.327.11-.327.982.218 1.582.437.49.818.873.873 1.255.163 1.527.491 2.345 1.2 3.218.491.6 1.145.927 1.8 1.145.054-.163.055-.327.11-.437.054-.109.054-.218.054-.218l.218.055c-.11.546-.382 1.636-.491 1.854-.11.327-.274.71.436.491 1.145-.382 2.072-1.473 2.454-2.727h.164a2.449 2.449 0 01-.381.982c.327-.109.654-.218.872-.327.71-.327 1.418-.819 1.745-1.146 1.527-1.418 2.072-2.508 2.509-3.217.436-.764-.163-.982-.436-.818-.327.109-.764.436-1.09.545-.274-.49-.82-.71-1.528-.6-.6.108-.982.49-1.364.763-.273.218-1.146.928-1.855 1.2-.763.328-1.526.273-2.017.164-.273-.055-1.418-.545-.6-2.236.382-.818.327-1.363.163-1.473-.218-.163-.872.382-1.308.709-.358-.256-1.388-.751-1.695-.767zm8.513 2.787c.163 0 .272.163.272.327 0 .163-.109.272-.272.327-.164 0-.273-.164-.273-.327 0-.164.109-.327.273-.327zm.054.108c-.055 0-.11.054-.11.109 0 .054.055.11.11.11.054 0 .109-.056.109-.11a.117.117 0 00-.11-.109zm.273 3.437c-.273.218-.655.49-1.091.708.272.164.763.436.927.546.272.218.6.382.49-.327a2.683 2.683 0 00-.326-.927z"/></svg>