<svg viewBox="0 0 24 24" xmlns="http://www.w3.org/2000/svg"><path d="M5.455 5.728a1.582 1.582 0 01.62.663q.272.625.604 1.36c.22.491.443.988.663 1.491s.435.994.637 1.47.387.914.548 1.31.289.733.384 1.01a2.244 2.244 0 01.143.547 1.645 1.645 0 01-.06.435.951.951 0 01-.215.39 1.078 1.078 0 01-.434.28 2.137 2.137 0 01-.723.104 1.968 1.968 0 01-.762-.125 1.51 1.51 0 01-.488-.319 2.162 2.162 0 01-.325-.41q-.13-.215-.268-.411a1.328 1.328 0 00-.312-.318.806.806 0 00-.476-.126h-.833a1.157 1.157 0 00-.58.125 1.095 1.095 0 00-.351.319 4.113 4.113 0 00-.253.41 2.015 2.015 0 01-.301.411 1.363 1.363 0 01-.476.319 2.053 2.053 0 01-.789.125 1.5 1.5 0 01-1.068-.325 1.03 1.03 0 01-.34-.768 2.266 2.266 0 01.137-.592c.092-.283.214-.62.372-1.01l.542-1.303c.199-.476.41-.97.637-1.476.226-.509.452-1.015.675-1.524l.652-1.464a1.371 1.371 0 01.604-.637 1.929 1.929 0 01.944-.235 1.673 1.673 0 01.892.274zm10.527.044a1.016 1.016 0 01.34.789 2.546 2.546 0 01-.137.717c-.093.295-.209.628-.352 1.003-.143.372-.31.777-.494 1.212-.187.434-.375.875-.565 1.327-.26.616-.485 1.17-.67 1.66a9.322 9.322 0 01-.572 1.25 2.833 2.833 0 01-.637.795 1.303 1.303 0 01-.85.28 1.513 1.513 0 01-.867-.229 2.13 2.13 0 01-.625-.69 7.162 7.162 0 01-.547-1.164c-.179-.467-.387-1.024-.631-1.667q-.273-.728-.56-1.425c-.19-.465-.363-.893-.52-1.283a19.19 19.19 0 01-.385-1.048 2.558 2.558 0 01-.148-.723.946.946 0 01.404-.86 1.82 1.82 0 011.004-.26 2.113 2.113 0 01.851.138 1.787 1.787 0 01.527.357 1.872 1.872 0 01.313.455 5.887 5.887 0 01.291.658c.092.238.182.48.274.723l.253.67a3.152 3.152 0 00.23.494c.074.125.14.188.202.188q.102 0 .214-.188a3.67 3.67 0 00.229-.488c.077-.2.158-.42.241-.657s.17-.477.259-.709a6.912 6.912 0 01.286-.643 1.726 1.726 0 01.306-.45 2.205 2.205 0 01.28-.24 1.458 1.458 0 01.3-.164 1.733 1.733 0 01.372-.098 3.478 3.478 0 01.51-.033 1.268 1.268 0 01.874.304zm4.42-.044a1.581 1.581 0 01.62.663q.271.625.603 1.36c.22.491.444.988.664 1.491s.434.994.637 1.47.387.914.547 1.31.29.733.384 1.01a2.244 2.244 0 01.143.547 1.645 1.645 0 01-.06.434.952.952 0 01-.214.39 1.078 1.078 0 01-.434.28 2.137 2.137 0 01-.724.105 1.969 1.969 0 01-.762-.125 1.508 1.508 0 01-.488-.319 2.162 2.162 0 01-.324-.41q-.13-.215-.268-.411a1.327 1.327 0 00-.312-.319.806.806 0 00-.477-.125h-.833a1.158 1.158 0 00-.58.125 1.096 1.096 0 00-.351.319 4.131 4.131 0 00-.253.41 2.007 2.007 0 01-.3.411 1.364 1.364 0 01-.477.319 2.053 2.053 0 01-.788.125 1.5 1.5 0 01-1.069-.325 1.03 1.03 0 01-.34-.768 2.27 2.27 0 01.138-.592c.092-.283.214-.619.372-1.009.155-.39.333-.824.533-1.3s.41-.97.636-1.476c.227-.51.453-1.015.676-1.524l.652-1.464a1.371 1.371 0 01.604-.637 1.929 1.929 0 01.943-.236 1.651 1.651 0 01.902.27zM4.532 18.546a.193.193 0 00.173-.104c0-.003.283-.524.563-1.14.14-.31.283-.64.39-.946.053-.155.098-.301.13-.435a1.65 1.65 0 00.054-.375 1.562 1.562 0 00-.437-1.113 1.222 1.222 0 00-1.75 0 1.564 1.564 0 00-.437 1.113 1.604 1.604 0 00.053.375 6.149 6.149 0 00.265.789c.336.836.818 1.729.818 1.735a.215.215 0 00.179.101zm14.947 0a.193.193 0 00.173-.104c0-.003.282-.524.562-1.14.14-.31.283-.64.39-.946.054-.155.098-.301.131-.435a1.644 1.644 0 00.054-.375 1.562 1.562 0 00-.438-1.113 1.222 1.222 0 00-1.75 0 1.565 1.565 0 00-.437 1.113 1.6 1.6 0 00.053.375 6.132 6.132 0 00.265.789c.336.836.819 1.729.819 1.735a.215.215 0 00.178.101z"/></svg>