<svg viewBox="0 0 24 24" xmlns="http://www.w3.org/2000/svg"><path d="M1.291.068A1.29 1.29 0 000 1.36v3.352a1.29 1.29 0 001.291 1.291h3.354a1.29 1.29 0 001.289-1.291V1.359A1.29 1.29 0 004.644.07zm9.033 0a1.29 1.29 0 00-1.29 1.291v3.352a1.29 1.29 0 001.29 1.291H22.71A1.29 1.29 0 0024 4.711V1.359A1.29 1.29 0 0022.709.07zM1.291 9.033A1.29 1.29 0 000 10.323v3.353a1.29 1.29 0 001.291 1.29h21.418A1.29 1.29 0 0024 13.677v-3.354a1.29 1.29 0 00-1.291-1.289zm0 8.965A1.29 1.29 0 000 19.289v3.352a1.29 1.29 0 001.291 1.29h12.385a1.29 1.29 0 001.29-1.29v-3.352a1.29 1.29 0 00-1.29-1.291zm18.064 0a1.29 1.29 0 00-1.289 1.291v3.352a1.29 1.29 0 001.29 1.29h3.353A1.29 1.29 0 0024 22.642V19.29a1.29 1.29 0 00-1.291-1.291z"/></svg>