<svg viewBox="0 0 24 24" xmlns="http://www.w3.org/2000/svg"><path d="M22.333 19.849a5.439 5.439 0 00-6.5-.829 7.914 7.914 0 01-3.837.987A8 8 0 015 15.91a5.473 5.473 0 01-.037 5.359 11.6 11.6 0 0012.671.9 1.825 1.825 0 012.188.3L21.356 24l2.562-2.568zm-2.096.404a11.664 11.664 0 001.931-13.89 1.836 1.836 0 01.3-2.193L24 2.635 21.438.067l-1.58 1.589a5.471 5.471 0 00-.827 6.516A8 8 0 0115.916 19l2.086 3c.917-.51 1.471-.981 2.235-1.747zm-.005-16.481A11.6 11.6 0 006.373 1.836a1.816 1.816 0 01-.9.235 1.82 1.82 0 01-1.291-.536L2.654 0 .091 2.568l1.586 1.583A5.422 5.422 0 005.476 5.7a5.412 5.412 0 002.7-.718A7.961 7.961 0 0118.985 8.1l3.083-1.94a10.462 10.462 0 00-1.836-2.388zM5 15.909l-.034-.062A8 8 0 018.084 5.015l-2.023-3.03C5.144 2.5 4.527 3 3.763 3.766a11.664 11.664 0 00-1.931 13.89 1.836 1.836 0 01-.3 2.193L0 21.384l2.562 2.568 1.579-1.589a5.477 5.477 0 00.824-1.094A5.473 5.473 0 005 15.909z"/></svg>