<svg viewBox="0 0 24 24" xmlns="http://www.w3.org/2000/svg"><path d="M.44 15.414a13.706 13.706 0 01-.436-3.44 13.7 13.7 0 01.436-3.44 3.468 3.468 0 013.044 3.44 3.468 3.468 0 01-3.044 3.44zm3.973-3.44a1.087 1.087 0 102.175 0 1.087 1.087 0 00-2.175 0zm19.147-3.44a3.468 3.468 0 00-3.044 3.44 3.468 3.468 0 003.044 3.44 13.731 13.731 0 00.436-3.44c0-1.188-.152-2.341-.436-3.44zm-6.148 3.44a1.087 1.087 0 102.175 0 1.087 1.087 0 00-2.175 0zm-5.435 8.546a3.47 3.47 0 00-3.44 3.044 13.736 13.736 0 003.441.436c1.189 0 2.34-.151 3.44-.436a3.47 3.47 0 00-3.44-3.044zm.001-3.104a1.088 1.088 0 100 2.176 1.088 1.088 0 000-2.176zm0-13.936c1.772 0 3.23-1.33 3.44-3.044A13.735 13.735 0 0011.978 0c-1.189 0-2.341.152-3.44.436a3.469 3.469 0 003.44 3.044zm0 .929a1.087 1.087 0 100 2.174 1.087 1.087 0 000-2.174zm6.032 13.596a3.468 3.468 0 00-.282 4.582 13.762 13.762 0 004.863-4.865 3.47 3.47 0 00-4.58.283zm-.657-2.195a1.09 1.09 0 00-1.539 1.539 1.088 1.088 0 101.54-1.539zM5.966 5.96a3.467 3.467 0 00.282-4.581 13.768 13.768 0 00-4.864 4.864 3.468 3.468 0 004.582-.283zm.657.658A1.088 1.088 0 108.16 8.155a1.088 1.088 0 00-1.538-1.539zm15.962-.386a13.76 13.76 0 00-4.864-4.864 3.468 3.468 0 00.283 4.581 3.469 3.469 0 004.581.283zm-5.238 1.912a1.089 1.089 0 10-1.539-1.537 1.089 1.089 0 001.539 1.537zM1.377 17.71a13.763 13.763 0 004.865 4.865 3.468 3.468 0 00-4.865-4.865zm5.239-1.912a1.088 1.088 0 101.538 1.538 1.088 1.088 0 00-1.538-1.538z"/></svg>