<svg viewBox="0 0 24 24" xmlns="http://www.w3.org/2000/svg"><path d="M6.577 11.92a1.62 1.62 0 001.521 1.706h.094a1.617 1.617 0 10-1.615-1.706zM.55 11.504a.522.522 0 10.002 0H.551zM6.474 2.54a.522.522 0 10-.001 0h.001zm1.64 2.858a.807.807 0 10-.727-1.44.807.807 0 00.727 1.44zM2.597 7.364a.665.665 0 10.729-1.112.665.665 0 00-.729 1.112zm.982 3.852a.808.808 0 10.76.852.808.808 0 00-.76-.852zm-.891 5.422a.665.665 0 10.893.295.664.664 0 00-.891-.296l-.002.001zm3.136-7.093a.95.95 0 10-.001 0zm9.95-4.21a.808.808 0 100-.001zm1.656-2.85a.522.522 0 100-.001zm-1.53 7.893a1.616 1.616 0 10-.183 3.227h.093a1.616 1.616 0 00.09-3.23v.003zm-7.255-.945a1.616 1.616 0 102.887-1.454A1.616 1.616 0 008.645 9.43v.002zm12.667-2.07a.665.665 0 10-.003 0h.003zm-4.096.514a.95.95 0 10.856 1.696.95.95 0 00-.856-1.696zm-5.277-5.636a.665.665 0 10-.004 0h.004zm-.008 4.183a.95.95 0 10-.001 0h.001zm-5.147 9.7a.95.95 0 10-.854-1.697.95.95 0 00.854 1.697zm5.76-8.313a1.614 1.614 0 102.701 1.767 1.614 1.614 0 00-2.701-1.767zm2.81 6.757a1.617 1.617 0 10-.716 2.17h.001a1.607 1.607 0 00.724-2.155l-.008-.015zm2.822-.112a.95.95 0 10-1.042 1.588.95.95 0 001.042-1.588zm3.096-2.429a.808.808 0 10-.852.76.808.808 0 00.852-.76zm2.235-.574a.522.522 0 10-.058 1.043.522.522 0 00.058-1.043zm-2.104 5.182a.665.665 0 10-.73 1.113.665.665 0 00.73-1.112zM6.57 21.517a.522.522 0 10-.574.873.522.522 0 00.573-.873zm10.955-.055a.522.522 0 10.003-.001l-.003.001zm-6.07-5.272a1.616 1.616 0 10-2.702-1.771 1.616 1.616 0 002.703 1.771zm-3.23 2.477a.808.808 0 10-.885 1.35.808.808 0 00.886-1.35zm3.767 3.093a.665.665 0 10.003 0h-.003zM12 17.576a.95.95 0 10.001 0zm3.886 1.026a.808.808 0 10.004-.002c-.001 0-.003 0-.004.002z"/></svg>