<svg viewBox="0 0 24 24" xmlns="http://www.w3.org/2000/svg"><path d="M12 0A12 12 0 000 12a12 12 0 0012 12 12 12 0 0012-12A12 12 0 0012 0zm-.006 3.43a3.372 3.372 0 013.37 3.369v2.199L9.628 5.689a4.261 4.261 0 00-.688-.32 3.351 3.351 0 013.053-1.94zm-4.498 2.6c.588 0 1.17.156 1.684.452l5.734 3.311-2.91 1.678-3.6-2.076a.46.46 0 00-.459 0L5.35 10.893a4.18 4.18 0 00-.621.433 3.349 3.349 0 01-.155-3.61A3.385 3.385 0 017.496 6.03zm8.723.015a3.383 3.383 0 013.205 1.672 3.37 3.37 0 01-1.235 4.6l-5.736 3.308v-3.357l3.602-2.077a.459.459 0 00.228-.398V6.799a4.42 4.42 0 00-.064-.754zm-8.504 4.543v6.617c0 .254.021.505.066.754a3.4 3.4 0 01-.285.012 3.383 3.383 0 01-2.92-1.684 3.343 3.343 0 01-.338-2.555 3.342 3.342 0 011.57-2.044l1.907-1.1zm.908 0l2.912 1.68v4.152a.46.46 0 00.23.396l2.594 1.498h.002c.22.127.45.235.688.32a3.35 3.35 0 01-3.055 1.938 3.373 3.373 0 01-3.371-3.367v-6.617zm10.647 2.088a3.347 3.347 0 01.154 3.611 3.372 3.372 0 01-4.604 1.233l-1.908-1.1 5.738-3.309a4.31 4.31 0 00.62-.435z"/></svg>