<svg viewBox="0 0 24 24" xmlns="http://www.w3.org/2000/svg"><path d="M12.071 0A12.023 12.023 0 002.31 5.011c-2.913 4.075-2.879 9.774.068 13.821.094.13.196.254.292.367.27.306.543.59.782.82.18.165.386.345.615.517.416.337.866.63 1.343.873-.429-.2-.834-.401-1.177-.58-.075-.036-.139-.077-.207-.112-.22-.11-.422-.228-.616-.339a5.47 5.47 0 01-.747-.527c-.153 1.044-.754 1.895-1.792 2-.975.096-.954 1.383 0 1.5 2.647.33 5.45.648 8.22.648 1.68.014 3.359-.128 5.013-.426.38-.098.758-.182 1.079-.27 5.512-1.53 9.055-6.856 8.64-12.487a.683.683 0 000-.11c-.61-4.85-3.896-9-8.697-10.301A11.676 11.676 0 0012.07 0zm-.108 3.025a.677.677 0 01.396.14 11.07 11.07 0 011.86 1.677 16.66 16.66 0 012.874-.246h.432c.95.027.962 1.5.027 1.5h-.443c-.618 0-1.235.039-1.847.117a16.68 16.68 0 011.765 3.486c.947-.194 1.91-.303 2.877-.326h.02c.95 0 .935 1.482-.02 1.501-.802.023-1.6.11-2.387.264a26.43 26.43 0 01.893 4.221c.057.479-.285.715-.66.715a.83.83 0 01-.846-.715 29.483 29.483 0 00-.23-1.411 23.662 23.662 0 00-.635-2.463 19.676 19.676 0 00-.505-1.418 15.706 15.706 0 00-1.93-3.577c-.263.069-.519.125-.782.2a15.29 15.29 0 00-1.805.616 20.446 20.446 0 011.798 3.791c.626-.3 1.27-.562 1.93-.782l.713 1.35a15.46 15.46 0 00-2.18.872 20.74 20.74 0 01.782 5.25.7.7 0 01-.74.726.723.723 0 01-.76-.727v-.228a18.878 18.878 0 00-.638-4.303 15.612 15.612 0 00-.449-1.473A18.893 18.893 0 009.674 7.95a7.71 7.71 0 00-.616.36c-.92.548-1.762 1.22-2.502 1.995a.685.685 0 01-.503.232c-.563 0-1.073-.754-.563-1.29A13.44 13.44 0 018.514 6.88c.096-.062.2-.117.304-.173-.221-.312-.46-.612-.712-.899a.832.832 0 00-.07-.09c-.485-.554.023-1.306.57-1.306a.652.652 0 01.496.248c.38.442.74.899 1.079 1.376l.013.007a14.556 14.556 0 011.923-.7c.13-.043.262-.08.396-.109a6.949 6.949 0 00-.85-.727.402.402 0 00-.063-.048c-.646-.463-.243-1.434.363-1.434zm-1.386 9.299l.55 1.44a16.386 16.386 0 00-2.656 2.157c-.159.13-.338.218-.5.215-.575 0-1.088-.752-.56-1.28a18.44 18.44 0 013.166-2.532z"/></svg>