<svg viewBox="0 0 24 24" xmlns="http://www.w3.org/2000/svg"><path d="M15.538 11.131a.63.63 0 00-.138.387h.297a.33.33 0 01.148-.271.468.468 0 01.236-.079H17.636a.131.131 0 000-.262h-1.16l-.43-.001a.635.635 0 00-.508.226m4.721-.225h-.897s-1.07-.057-1.07 1.094c0 1.15 1.07 1.094 1.07 1.094h.897s1.07.056 1.07-1.094c0-1.048-.887-1.095-1.046-1.095h-.024M18.58 12s-.066-.832.807-.832h.85c.872 0 .806.832.806.832s.066.831-.806.831h-.85c-.873 0-.807-.831-.807-.831m-8.494-1.094h-.897S8.117 10.849 8.117 12c0 1.15 1.07 1.094 1.07 1.094h.898s1.07.056 1.07-1.094c0-1.048-.888-1.095-1.046-1.095h-.024M8.405 12s-.066-.832.806-.832h.85c.873 0 .807.832.807.832s.066.831-.807.831h-.85c-.872 0-.806-.831-.806-.831m-3.311 0c0 1.15 1.07 1.094 1.07 1.094h1.45a.131.131 0 000-.262H6.188c-.872 0-.806-.832-.806-.832s-.066-.832.806-.832h1.426a.131.131 0 000-.262H6.14c-.159 0-1.047.046-1.047 1.094m-2.607-1.095a.318.318 0 00-.319.319v1.552c0 .176.143.318.319.318H3.72a.318.318 0 00.318-.318v-1.552a.318.318 0 00-.318-.319zm-2.169 0a.318.318 0 00-.318.319v.001c0 .076.027.144.071.199l.001.004 1.232 1.55.003.002c.06.069.145.114.243.114h.001a.318.318 0 00.319-.318v-1.553a.318.318 0 00-.318-.318zm21.493.132v2.058h2.058a.131.131 0 000-.263h-1.796v-1.795a.131.131 0 00-.262 0m-7.18-.088l-1.396 1.395-1.41-1.41-.001.002a.131.131 0 00-.214.101v2.058h.262v-1.742l1.27 1.27a.22.22 0 00.029.02l.01.006.007.003c.038.016.072.01.097 0l.003-.002a.08.08 0 00.018-.01l.004-.003a.131.131 0 00.019-.015l1.268-1.268v1.741h.263v-2.058a.131.131 0 00-.229-.088m.77.57a.63.63 0 00.138.387.635.635 0 00.507.226h1.184c.094 0 .198.05.236.078a.33.33 0 01.148.271h.297a.63.63 0 00-.138-.387.635.635 0 00-.507-.226h-1.185a.467.467 0 01-.235-.078.33.33 0 01-.148-.272zm2.213.962a.33.33 0 01-.148.272.466.466 0 01-.236.078h-1.698v.001a.131.131 0 000 .263l.01-.001h1.724c.23 0 .392-.092.507-.226a.63.63 0 00.138-.387z"/></svg>