<svg viewBox="0 0 24 24" xmlns="http://www.w3.org/2000/svg"><path d="M2.475 3.936l.002.04c0 .78-.632 1.413-1.413 1.413l-.058-.002V6.86c.02-.001.038-.005.058-.005a.64.64 0 01.64.64.638.638 0 01-.64.639c-.02 0-.039-.004-.058-.006v1.168c.02-.002.038-.006.058-.006a.638.638 0 01.64.639.64.64 0 01-.64.64c-.02 0-.039-.004-.058-.006v1.166c.02-.001.038-.006.058-.006a.64.64 0 01.64.641.638.638 0 01-.64.639c-.02 0-.039-.004-.058-.006v1.432c.02-.001.039-.004.058-.004.78 0 1.413.633 1.413 1.414v.011h19.088v-.011c0-.78.631-1.414 1.412-1.414l.017.002v-1.426l-.017.002a.64.64 0 01-.641-.639.641.641 0 01.64-.64l.018.002v-1.159l-.017.002a.641.641 0 01-.641-.64.64.64 0 01.64-.639l.018.002v-1.16l-.017.002a.64.64 0 01-.641-.639.641.641 0 01.64-.64l.018.001V5.39h-.017c-.78 0-1.412-.632-1.412-1.412l.002-.041zm9.517.832a.2.2 0 01.102.027l3.39 2.006a.2.2 0 01.121.183.202.202 0 01-.2.202h-.821v3.609h1.018v1.057l-.641.601v1.795h5.37c.188 0 .34-.174.34-.389V6.04c0-.215-.152-.389-.34-.389h-4.794v-.402h4.795c.408 0 .74.355.74.791v7.82c0 .436-.332.791-.74.791H3.684c-.409 0-.74-.355-.74-.79V6.038c0-.436.331-.791.74-.791h4.718v.402H3.684c-.187 0-.34.174-.34.389v7.82c0 .215.153.389.34.389h5.328v-1.805l-.631-.592v-1.056h1.017v-3.61h-.816a.203.203 0 01-.195-.148.2.2 0 01.092-.224l3.412-2.018a.198.198 0 01.101-.027zm0 .433L9.314 6.783h5.354zm7.145 1.662a.203.203 0 01.166.149.2.2 0 01-.14.246l-3.231.877a.2.2 0 01-.053.008.2.2 0 01-.193-.149.2.2 0 01.14-.246l3.23-.879a.2.2 0 01.08-.006zM5.03 6.916a.202.202 0 01.08.006l2.928.826a.201.201 0 01-.055.395.2.2 0 01-.054-.008l-2.926-.826a.201.201 0 01-.139-.248.198.198 0 01.166-.145zm4.77.27v3.609h1.996v-.61a1.22 1.22 0 01-1.026-1.203c0-.606.445-1.11 1.026-1.203v-.593zm2.398 0v.597a1.22 1.22 0 011.012 1.2c0 .6-.438 1.101-1.012 1.2v.612h1.983v-3.61zm-.207.978a.82.82 0 00-.818.818.818.818 0 10.818-.818zm-7.848.63h3.43a.2.2 0 01.2.202.2.2 0 01-.2.201h-3.43a.202.202 0 01-.2-.2.202.202 0 01.2-.202zm12.147 0h3.43a.202.202 0 01.2.202.202.202 0 01-.2.201h-3.43a.202.202 0 01-.201-.2.202.202 0 01.201-.202zm-8.283.903a.201.201 0 01.17.143.2.2 0 01-.135.25l-2.72.82a.204.204 0 01-.06.008.202.202 0 01-.193-.143.2.2 0 01.135-.25l2.723-.82a.203.203 0 01.08-.008zm7.85 0a.204.204 0 01.08.008l3.076.924a.2.2 0 01.134.25.202.202 0 01-.193.143.191.191 0 01-.057-.008l-3.076-.924a.201.201 0 01-.135-.25.2.2 0 01.17-.143zm-7.077 1.5v.48l.516.483h5.388l.516-.482v-.48H9.398zm.631 1.366v1.156l3.004-1.156zm4.121 0L9.44 14.139c-.009.003-.018.002-.027.004v.105h2.535l2.612-1.107v-.579zm1.026 1.013l-1.608.672h1.608zM0 17.617v2.412h.508v-.933h1.177v-.483H.508V18.1h1.336v-.483zm9.52 0v2.412h.484v-1.011h1.002v1.011h.506v-2.412h-.506v.943h-1.002v-.943zm10.943.348c-.64 0-1.107.472-1.107 1.049v.006c0 .576.46 1.045 1.101 1.045.64 0 1.106-.475 1.106-1.051v-.006c0-.577-.46-1.043-1.1-1.043zm-17.565.021l-.89 2.043h.467l.19-.455h.876l.19.455h.478l-.89-2.043zm9.98 0l-.888 2.043h.465l.19-.455h.879l.189.455h.477l-.89-2.043zM4.708 18v2.03h.457v-.651h.358l.445.65H6.5l-.506-.724c.264-.096.445-.302.445-.63v-.005c0-.417-.293-.67-.783-.67zm2.44 0v2.03h1.582v-.4H7.602v-.425h.978v-.396h-.978v-.412h1.11V18zm7.54 0v2.03h.458v-.651h.359l.445.65h.533l-.507-.724c.264-.096.445-.302.445-.63v-.005c0-.417-.294-.67-.783-.67zm2.383 0v2.03h.987c.468 0 .777-.186.777-.557v-.006c0-.273-.148-.408-.389-.498.149-.081.274-.209.274-.438v-.006c0-.318-.262-.525-.686-.525zm5.135 0v2.03h.457v-.651h.36l.445.65H24l-.508-.724c.264-.096.445-.302.445-.63v-.005c0-.417-.293-.67-.783-.67zm-1.748.377a.62.62 0 01.627.637v.006a.613.613 0 01-.621.632.624.624 0 01-.63-.638v-.006c0-.348.256-.631.624-.631zm-2.943.014h.45c.194 0 .302.075.302.209v.006c0 .15-.129.214-.33.214h-.422zm-12.35.011h.453c.223 0 .36.1.36.291v.006c0 .171-.128.287-.35.287h-.463zm9.98 0h.456c.222 0 .357.1.357.291v.006c0 .171-.127.287-.35.287h-.463zm7.518 0h.455c.223 0 .358.1.358.291v.006c0 .171-.128.287-.35.287h-.463zm-19.56.12l.277.658h-.553zm9.982 0l.275.658h-.55zm4.43.67h.529c.234 0 .338.084.338.22v.006c0 .15-.123.219-.324.219h-.543z"/></svg>