<svg viewBox="0 0 24 24" xmlns="http://www.w3.org/2000/svg"><path d="M3.02 21.055l1.12-.23c1.054-.219 2.114-.415 3.161-.66a4.955 4.952 0 003.696-3.915 6.06 6.057 0 00.085-1.153l.366-.09a4.936 4.933 0 003.75-3.717 3.8 3.798 0 00.128-1.06c-.002-.096 0-.193 0-.305.094-.023.18-.047.267-.067a4.552 4.549 0 002.68-1.755 5.772 5.769 0 001.005-4.854c-.021-.088-.035-.179-.061-.264a.63.629 0 00-.728-.432l-3.184.652-3.485.716-4.002.822q-2.186.449-4.373.893a1.125 1.125 0 01-.422.06c-.007-.074-.017-.14-.017-.204-.001-1.12.002-2.243-.005-3.364a.324.324 0 01.174-.307 8.493 8.488 0 011.9-.86A17.205 17.194 0 017.827.315C8.373.23 8.922.181 9.47.12a26.795 26.777 0 013.526-.102c.496.01.992.051 1.487.097.542.051 1.085.11 1.623.192a14.482 14.472 0 014.007 1.124c.262.123.509.28.764.422a.215.215 0 01.122.223c-.004.054 0 .11 0 .163v19.519c0 .347.045.28-.262.472a8.437 8.432 0 01-1.961.857 16.78 16.769 0 01-2.851.63c-.6.08-1.2.146-1.804.207-.277.03-.556.035-.835.043-.564.015-1.128.041-1.691.03-.636-.014-1.272-.059-1.907-.099a20.054 20.041 0 01-2.519-.332 13.423 13.415 0 01-3.224-.976c-.273-.13-.53-.29-.797-.435a.246.246 0 01-.144-.248c.008-.23 0-.46.003-.69 0-.049.01-.096.016-.163zm9.985-10.652a1.248 1.248 0 01-.09.55 2.624 2.622 0 01-2.045 1.84c-1.3.28-2.607.537-3.912.805l-.57.114a1.147 1.146 0 10.403 2.256c.595-.11 1.186-.242 1.779-.363.064-.014.128-.022.209-.035a2.584 2.582 0 01-.55 1.41A2.801 2.8 0 016.516 18c-1.103.223-2.206.45-3.308.676-.052.01-.106.013-.156.02-.048-.146-.061-10.38-.014-10.63l14.048-2.883a1.523 1.522 0 01-.016.18 3.438 3.436 0 01-.738 1.502 2.399 2.397 0 01-1.426.804c-1.11.216-2.218.45-3.326.677l-.96.196a1.168 1.168 0 00-.953 1.057 1.147 1.147 0 00.875 1.186 1.747 1.746 0 00.807-.054c.492-.1.983-.203 1.475-.304.053-.01.108-.014.18-.023z"/></svg>