<svg viewBox="0 0 24 24" xmlns="http://www.w3.org/2000/svg"><path d="M12 0a1.667 1.667 0 00-1.666 1.666A1.667 1.667 0 0012 3.334a1.667 1.667 0 001.666-1.668A1.667 1.667 0 0012 0zM9.506 1.145A11.572 11.572 0 00.442 12.317a.716.716 0 001.075.618.702.702 0 00.358-.6 10.136 10.136 0 015.06-8.666 10.09 10.09 0 012.696-1.074 2.55 2.55 0 01-.125-1.452zm8.015 1.26a.712.712 0 00-.695.713.704.704 0 00.34.61 10.133 10.133 0 014.545 11.587c.314.046.618.15.894.309.148.084.29.183.42.293a11.573 11.573 0 00-5.15-13.43.715.715 0 00-.354-.082zm-5.519 3.791a6.247 6.247 0 10.002 12.494 6.247 6.247 0 00-.002-12.494zm0 1.43a4.819 4.819 0 013.41 8.222 4.817 4.817 0 11-3.41-8.222zm-.01 2.295c-1.412.014-1.896 1.887-.668 2.584l-.435 2.207a.237.237 0 00.234.281h1.772a.236.236 0 00.234-.281l-.438-2.207a1.38 1.38 0 00.692-1.202 1.38 1.38 0 00-1.39-1.382zm-9.324 6.242a1.667 1.667 0 00-1.666 1.666 1.667 1.667 0 001.666 1.668 1.667 1.667 0 001.666-1.668 1.667 1.667 0 00-1.666-1.666zm18.664 0a1.667 1.667 0 00-1.666 1.666 1.667 1.667 0 001.666 1.668 1.667 1.667 0 001.666-1.668 1.667 1.667 0 00-1.666-1.666zM4.655 19.427a2.54 2.54 0 01-.702.608 2.584 2.584 0 01-.468.207 11.576 11.576 0 0014.208 2.273.713.713 0 000-1.238.704.704 0 00-.703-.012 10.134 10.134 0 01-10.052-.05 10.17 10.17 0 01-2.283-1.788z"/></svg>