<svg viewBox="0 0 24 24" xmlns="http://www.w3.org/2000/svg"><path d="M12 0C8.926 0 5.852 1.17 3.511 3.511c-4.37 4.371-4.66 11.299-.869 16.01a3.138 3.138 0 01.719-3.314 3.138 3.138 0 013.672-.56 6.163 6.163 0 019.324-8.004 2.921 2.921 0 104.132-4.132A11.968 11.968 0 0012 0zm9.36 4.481a3.138 3.138 0 01-.72 3.313 3.138 3.138 0 01-3.672.56 6.165 6.165 0 01-.61 8.003 2.921 2.921 0 104.131 4.132c4.37-4.37 4.66-11.298.87-16.008zM5.576 15.501a2.92 2.92 0 00-2.922 2.922 2.92 2.92 0 002.922 2.922 2.92 2.92 0 002.922-2.922A2.92 2.92 0 005.577 15.5zm10.07 1.467a6.168 6.168 0 01-7.293 0 3.14 3.14 0 01-.56 3.672 3.136 3.136 0 01-3.314.718c4.376 3.523 10.665 3.523 15.04 0a3.136 3.136 0 01-3.313-.718 3.138 3.138 0 01-.56-3.672z"/></svg>