<svg viewBox="0 0 24 24" xmlns="http://www.w3.org/2000/svg"><path d="M1.861 0H3.59v3.548h3.861V0H9.19v8.883H7.458V5.136H3.59v3.746H1.858zm8.248 8.883zM13.854 0h1.706l2.809 4.7h.1L21.278 0h1.719v8.883h-1.719v-4.38l.1-1.489h-.1l-2.334 3.983h-1.039l-2.347-3.983h-.1l.1 1.489v4.38h-1.706zm4.702 21.648a4.082 4.082 0 01-1.154-.161 3.417 3.417 0 01-1.01-.484 3.5 3.5 0 01-.8-.782 3.817 3.817 0 01-.538-1.092l1.666-.62a2.411 2.411 0 00.643 1.116 1.683 1.683 0 001.207.434 2.173 2.173 0 00.524-.062 1.749 1.749 0 00.459-.2 1.02 1.02 0 00.328-.335.88.88 0 00.118-.459 1.052 1.052 0 00-.092-.447 1.031 1.031 0 00-.315-.373 2.538 2.538 0 00-.564-.335 8.135 8.135 0 00-.852-.335l-.577-.2a4.753 4.753 0 01-.774-.335 3.44 3.44 0 01-.7-.509 2.662 2.662 0 01-.525-.695 2.093 2.093 0 01-.2-.918 2.248 2.248 0 01.21-.968 2.433 2.433 0 01.616-.794 2.87 2.87 0 01.957-.533 3.726 3.726 0 011.246-.2 3.57 3.57 0 011.22.186 2.783 2.783 0 01.879.459 2.468 2.468 0 01.59.608 2.9 2.9 0 01.328.633l-1.56.62a1.55 1.55 0 00-.485-.67 1.387 1.387 0 00-.944-.3 1.655 1.655 0 00-.957.261.754.754 0 00-.38.658.843.843 0 00.367.682 4.232 4.232 0 001.167.534l.59.186a6.271 6.271 0 011.023.434 2.948 2.948 0 01.8.57 2.191 2.191 0 01.511.769 2.44 2.44 0 01.183.98 2.317 2.317 0 01-.3 1.2 2.559 2.559 0 01-.747.819 3.361 3.361 0 01-1.036.484 4.184 4.184 0 01-1.128.161zm-13.028 0a4.441 4.441 0 01-3.23-1.34 4.757 4.757 0 01-.956-1.476 4.912 4.912 0 01-.339-1.824 4.813 4.813 0 01.339-1.811 4.569 4.569 0 01.956-1.477 4.38 4.38 0 011.427-.992 4.5 4.5 0 011.8-.36 4.417 4.417 0 011.79.36 4.343 4.343 0 011.44.992 4.418 4.418 0 01.944 1.477 4.67 4.67 0 01.351 1.811 4.765 4.765 0 01-.351 1.824 4.589 4.589 0 01-.944 1.476 4.495 4.495 0 01-3.23 1.34zm0-1.588a2.822 2.822 0 001.125-.223 2.761 2.761 0 00.92-.621 2.723 2.723 0 00.617-.955 3.321 3.321 0 00.23-1.253 3.227 3.227 0 00-.23-1.24 2.7 2.7 0 00-.617-.968 2.759 2.759 0 00-.92-.62 2.821 2.821 0 00-1.125-.223 2.856 2.856 0 00-2.057.844 2.946 2.946 0 00-.617.968 3.388 3.388 0 00-.218 1.24 3.488 3.488 0 00.218 1.253 2.972 2.972 0 00.617.955 2.856 2.856 0 002.057.843zm4.972 1.389zm-8.269 1.039h6.5V24h-6.5z"/></svg>