<svg viewBox="0 0 24 24" xmlns="http://www.w3.org/2000/svg"><path d="M22.182 15.499a1.763 1.763 0 01-.354-.036 1.832 1.832 0 01-1.208-.863l-.007-.012a.543.543 0 01.2-.716.524.524 0 01.27-.074.533.533 0 01.462.272.558.558 0 00.018.03l.057.076.075.077a.739.739 0 00.346.167.76.76 0 00.595-.136.72.72 0 00.3-.54.744.744 0 00-.208-.577s-1.6-1.661-1.671-1.738a1.96 1.96 0 01-.193-.23c-.226-.32-.296-.696-.261-1.07a1.736 1.736 0 01.225-.74s.073-.123.095-.155c.084-.123.251-.283.366-.372a1.881 1.881 0 01.306-.185 1.75 1.75 0 012.282.705.519.519 0 01.055.402.53.53 0 01-.253.326.508.508 0 01-.259.07.528.528 0 01-.46-.27.695.695 0 00-.466-.33.721.721 0 00-.564.128.688.688 0 00-.267.498.7.7 0 00.19.54l1.636 1.686a1.828 1.828 0 01.507 1.393c-.047.524-.307 1-.715 1.305a1.843 1.843 0 01-1.099.369m-5.175 0a1.76 1.76 0 001.759-1.76v-3.478a1.759 1.759 0 00-3.518 0v3.478a1.76 1.76 0 001.759 1.76m0-5.935c.378 0 .697.32.697.697v3.478a.698.698 0 01-.697.697.69.69 0 01-.697-.697v-3.478a.698.698 0 01.697-.697m-7.898.323v5.08a.53.53 0 001.061 0V12.09zm2.88 2.025v-2.88a.531.531 0 011.062 0v5.084zm1.053 2.94v.114a.533.533 0 01-1.007.24l-2.92-6.052v-.121a.526.526 0 01.303-.477.525.525 0 01.709.247zm-7.907.646a1.761 1.761 0 001.759-1.759v-3.478a1.759 1.759 0 00-3.518 0v3.478a1.76 1.76 0 001.76 1.76m0-5.935a.707.707 0 01.696.697v3.478a.697.697 0 11-1.394 0v-3.478a.698.698 0 01.697-.697M0 14.911a.58.58 0 101.158 0v-5.83A.58.58 0 000 9.08z"/></svg>