<svg viewBox="0 0 24 24" xmlns="http://www.w3.org/2000/svg"><path d="M19.671 8.622a2.31 2.31 0 00-.895-.998c-.464-.294-1.044-.356-1.448-.356q-.204 0-.408.02h-.01a3 3 0 01.034-.185c.02-.103.043-.22.056-.341.054-.521-.132-1.222-.473-1.785-.054-.09-.052-.12-.052-.12a.4.4 0 01.06-.07l.03-.033c.807-.864 1.051-1.814.724-2.829C16.67 0 16.504 0 16.382 0a.192.192 0 00-.144.063.224.224 0 00-.048.177c.063.638-.081 1.552-.177 1.9-.118.438-.528 1.09-1.824 1.711a3 3 0 01-.279.103c-.423.141-1.13.378-1.522.918-.296.347-.368.695-.496 1.322-.114.558-.206 1.237-.026 2.048a6 6 0 00.052.207l.028.112.015-.003-.016.004c.012.048.004.06-.013.072a1.3 1.3 0 01-.192.059c-.192.03-.384.065-.567.1-.584.1-2.348.405-3.161 1.699-.502.798-.573 1.84-.212 3.1.374 1.249 1.116 2.106 1.624 2.281l.008.003q.054.025.105.042a1.5 1.5 0 01-.007.126 2 2 0 00-.01.069c-.056.407-.248.845-.444.857-.103-.02-.512-.252-.801-.442a31 31 0 01-.264-.174c-.808-.535-1.254-.829-1.934-.905a.7.7 0 00-.07-.004c-.72 0-2.016 1.213-2.044 3.63-.014 1.21.113 2.316.378 3.288.189.697.39 1.094.45 1.2l.232.437.107-.48c.562-2.544 1.255-3.157 2.408-3.89.845.792 1.956 1.21 3.22 1.21 1.066 0 2.18-.31 3.139-.873.941-.552 1.668-1.296 2.112-2.156.074.048.163.11.222.152.211.148.256.179.331.179h.007c.082-.003.861-.264 1.658-1.238.463-.566.846-1.266 1.135-2.082.36-1.008.576-2.198.65-3.537.082-1.124-.032-2.02-.339-2.66zm-2.987-6.47c.067.27.076.55.026.824a2.7 2.7 0 01-.685 1.442 8.21 8.21 0 00.66-2.267m-.557 3.301c.117.178.207.372.265.576a1.47 1.47 0 01-.033.811c-.138.328-.323.493-.55.493h-.03a.6.6 0 01-.226-.082c-.292-.171-.45-.624-.336-.956a.5.5 0 00.014-.03c.018-.049.072-.14.22-.283a8.23 8.23 0 01.675-.528zm-3.38-.09l.004-.005v-.005c.062-.154.491-.402.776-.567a6 6 0 01.107-.062 4.1 4.1 0 01.384-.177c.47-.2 1.2-.51 1.802-1.09-.175.613-.595 1.644-1.286 2.269-.154.138-.464.261-.824.403-.387.153-.853.336-1.304.613.035-.353.144-.97.34-1.379zm-.3 1.996c.233-.192.658-.452 2.051-.912a6 6 0 01.032.154l.028.141c.091.45.192.956 1.13 1.237-.088.192-.267.517-.33.578l-.02.018-.015.024c-.182.293-1.168.931-1.61.931a.33.33 0 01-.056-.004c-.266-.051-.877-.594-1.056-.994-.347-.787-.276-1.07-.156-1.171zm-3.471 7.221c-.511-.76-.898-2.087-.645-3.155v-.005c.123-.58.528-.922.696-1.042l.024-.018c.249-.217.757-.446 1.433-.646.096-.025.15-.036.151-.036.125-.026.26-.057.393-.088a6.8 6.8 0 01.758-.148 2.2 2.2 0 00.19-.03 1.45 1.45 0 01.252-.033.324.324 0 01.192.05c.25.298.864.886 1.266.92h.025c.458-.024 1.176-.471 2.134-1.329.163-.144.314-.27.462-.38l.018-.013a3.52 3.52 0 01.856-.478c-.1.328-.18.89.144 1.68.168.409.492 1.33.76 2.233.462 1.554.398 1.828.388 1.853a.53.53 0 01-.062.15.37.37 0 01-.103-.036c-.233-.108-.494-.3-.799-.526-.566-.415-1.27-.931-2.301-1.334a6.159 6.159 0 00-2.236-.445 4.67 4.67 0 00-.897.085c-1.623.32-2.479 1.036-2.938 1.42l-.003.004a.188.188 0 00-.06.209.185.185 0 00.177.121.882.882 0 00.218-.05 9.04 9.04 0 011.488-.31q.27-.032.543-.033c.786 0 1.51.24 2.274.76.175.147.282.244.347.307l-.066.018-.464.13c-1.15.326-2.886.817-3.709.817a1.4 1.4 0 01-.188-.011c-.213-.032-.474-.254-.715-.61zm-3.39 5.83a4.09 4.09 0 00-.7 1.415c-.155-.741-.337-1.96-.234-2.908.215-1.965 1.189-2.623 1.333-2.657h.01c.008 0 .017 0 .036.02.078.085.246.441.124 1.916-.03.304.044.561.218.765.117.135.265.24.432.305a4.96 4.96 0 00-1.22 1.144zm1.655-1.929a.43.43 0 01-.16.037.129.129 0 01-.106-.04c-.032-.033-.102-.144-.08-.473.016-.161.039-.323.06-.48a7 7 0 00.084-.893c.568.372 1.196.765 1.604.947-.266.235-.82.66-1.402.903zm7.404-.053a5.35 5.35 0 01-3.47 1.632 6.3 6.3 0 01-.463.017c-1.736 0-2.618-.736-3.024-1.147 1.962-.846 2.36-2.056 2.534-2.585a2 2 0 01.048-.134c.075-.037.313-.144 1.047-.419.576-.207 1.267-.44 1.876-.645.507-.171.946-.32 1.185-.407l.02-.006a1 1 0 01.096-.023l.013.017c.223.29.592.468.595.47.277.124.573.199.875.221-.007 1.049-.486 2.137-1.33 3.009zm1.522-3.59c-.727 0-.981-.234-1.22-.517-1.179-1.406-2.482-1.637-2.989-1.67a7.3 7.3 0 00-.473-.016c-.128 0-.252.003-.374.01a5.7 5.7 0 011.824-.303c1.3 0 2.553.461 3.72 1.37.477.37.827.632 1.13.843a28 28 0 01-.598.168l-.095.026a5.76 5.76 0 01-.924.088zm.452 2.658c-.076-.067-.192-.174-.311-.283a4.7 4.7 0 00.247-.864c.057-.312.092-.72.109-.937a8.6 8.6 0 001.022-.217c.405-.116.717-.248.94-.399-.695 1.735-1.7 2.496-2.007 2.699zm2.404-3.966c-.104-.855-.45-1.912-.585-2.323-.014-.048-.026-.082-.035-.108-.01-.033-.04-.12-.105-.297-.167-.465-.514-1.432-.576-1.718-.089-.42.112-.999.24-1.05a.35.35 0 01.124-.022c.236 0 .528.223.758.583.28.432.445 1.005.467 1.608.048 1.316-.074 2.415-.288 3.327"/></svg>