<svg viewBox="0 0 24 24" xmlns="http://www.w3.org/2000/svg"><path d="M10.445 21.393l11.54-.775.451.775zM7.56 11.113l-5.092 10.28h-.904zm10.427 2.652l-6.43-9.505.452-.775zm2.57 5.216l.627.896-10.652.707zM4.655 20.976l-1.143.09 4.709-9.488zm6.173-14.667l.476-.998 5.984 8.782zM19.1 17.364l.847 1.015-8.685 1.413zM6.76 20.532l-1.32.224 3.11-8.162zm3.406-12.189l.472-1.207 5.558 6.732zm7.403 7.54l1.13 1.016-6.378 1.98zm-8.759 4.08l-1.46.448 1.46-6.44zm.8-9.539l.363-1.48 4.868 4.477zm-.348 9.402v-7.851l.244-1.085 6.864 3.926.834.758L10.34 19.5zM12.01 1.694L0 22.306h24z"/></svg>