<svg viewBox="0 0 24 24" xmlns="http://www.w3.org/2000/svg"><path d="M19.494 9.614c-.152 0-.265.046-.333.121a.412.412 0 00-.114.296c0 .314.14.469.416.469.167 0 .288-.038.364-.114a.416.416 0 00.11-.302c0-.314-.137-.47-.417-.47h-.023zm-17.341.038l-1.078 1.866L0 13.383h2.85v-1.9l-.058-.722zm18.086.015v3.394l.25-.461.022.007a2.232 2.232 0 00.73.224.31.31 0 00.179-.053c.049-.03.068-.065.068-.125 0-.065-.027-.114-.099-.155a1.298 1.298 0 00-.17-.091 2.811 2.811 0 01-.738-.39c-.151-.129-.227-.322-.227-.567a.757.757 0 01.303-.625 1.196 1.196 0 01.753-.227c.295 0 .53.076.704.212a.844.844 0 01.302.587v.022l-.726.14-.008-.03c-.011-.114-.038-.185-.087-.238a.299.299 0 00-.223-.08.227.227 0 00-.163.057c-.045.042-.068.087-.068.129 0 .049.008.079.019.102a.254.254 0 00.05.068l.075.064a.802.802 0 00.094.053l.13.05c.04.026.147.075.313.15v-.01a1.392 1.392 0 01.44.275c.116.114.177.28.177.489 0 .211-.098.4-.291.567a1.022 1.022 0 01-.492.227H24V9.667zm-10.08.292l-.726.215-.03.504-.333.045-.072.503h.39v1.124c0 .386.049.662.15.832.107.17.322.254.655.254a1.43 1.43 0 00.704-.197l-.136-.446a1.574 1.574 0 01-.288.049c-.113 0-.196-.034-.242-.102-.05-.065-.072-.186-.072-.356v-1.162h.59l.091-.556h-.68zm1.903 0l-.726.215-.03.504-.333.045-.076.503h.394v1.124c0 .386.049.662.15.832.103.17.323.254.655.254a1.415 1.415 0 00.7-.197l-.136-.446a1.574 1.574 0 01-.287.049c-.114 0-.193-.034-.242-.102-.046-.065-.069-.186-.069-.356v-1.162h.59l.091-.556h-.68zm-7.862.67a.848.848 0 00-.677.332h-.02l-.071-.31-.598.076.053.757v1.891h.772v-2.001a.39.39 0 01.306-.148c.182 0 .277.114.277.33v1.82h.768v-2.002a.378.378 0 01.31-.148c.178 0 .265.114.265.33v1.82h.78v-1.783c0-.643-.262-.965-.78-.965a.897.897 0 00-.727.33c-.12-.22-.333-.33-.628-.33zm3.61 0a2.244 2.244 0 00-.564.086 2.126 2.126 0 00-.473.174l.215.477a2.584 2.584 0 01.666-.151c.137 0 .227.03.273.083.049.05.072.133.072.242v.2l-.44.076a1.389 1.389 0 00-.665.273c-.151.132-.227.33-.227.594 0 .503.242.757.726.757a.908.908 0 00.742-.379h.019a.957.957 0 00.386.379l.435-.413a.757.757 0 01-.167-.25 1.07 1.07 0 01-.034-.302v-.95a1.62 1.62 0 00-.03-.34.742.742 0 00-.113-.277.518.518 0 00-.292-.211 1.472 1.472 0 00-.492-.069zm6.337 0c-.39.007-.68.136-.881.382a1.612 1.612 0 00-.303 1.033c0 .93.393 1.392 1.173 1.392a2.005 2.005 0 001.003-.273l-.16-.472a2.085 2.085 0 01-.688.147c-.19 0-.318-.05-.393-.147a.757.757 0 01-.114-.45h1.04l.36-.05c0-.212-.004-.39-.015-.53-.03-.352-.114-.605-.242-.756-.16-.186-.405-.277-.742-.277zm2.683 0a.598.598 0 00-.378.155.866.866 0 00-.254.423h-.019l-.094-.556-.583.076.057.749v1.9h.768v-1.514c0-.19.053-.33.159-.428a.522.522 0 01.355-.147.984.984 0 01.273.049l.178-.605a.946.946 0 00-.432-.099h-.026zm3.05.018l-.772.08v2.395a1.513 1.513 0 01-.053.507c-.034.087-.133.19-.295.31l.423.447a1.892 1.892 0 00.56-.466 1.06 1.06 0 00.137-.598zm1.43 0a1.162 1.162 0 00-.727.224.692.692 0 00-.28.575c0 .242.076.408.216.526a2.747 2.747 0 00.719.386 1.699 1.699 0 01.182.102c.079.045.12.113.12.189a.19.19 0 01-.09.174.367.367 0 01-.208.05 2.126 2.126 0 01-.73-.205l-.25.45c.329.19.654.288.983.288a1.135 1.135 0 00.769-.235c.185-.163.272-.337.272-.533a.61.61 0 00-.163-.454 1.29 1.29 0 00-.416-.258 3.746 3.746 0 01-.325-.147l-.114-.05a1.022 1.022 0 01-.113-.06l-.08-.068a.31.31 0 01-.06-.08.375.375 0 01-.015-.125.22.22 0 01.075-.166.284.284 0 01.197-.072c.106 0 .19.038.253.099a.439.439 0 01.103.242l.62-.118a.795.795 0 00-.265-.53 1.014 1.014 0 00-.673-.204zm-7.204.58h.022c.118 0 .193.037.227.113.034.075.05.212.05.4h-.613a.829.829 0 01.083-.381c.049-.084.125-.125.23-.133zm-6.103 1.01v.472a.47.47 0 01-.341.144c-.178 0-.265-.083-.265-.25 0-.113.05-.189.14-.242a1.4 1.4 0 01.466-.125zm-4.295.128v1.007h.48v-.174zm14.094.064a.488.488 0 00-.454.489.488.488 0 00.492.488.488.488 0 00.484-.492.488.488 0 00-.488-.485.488.488 0 00-.037 0zm2.437.742v.257h.704a2.176 2.176 0 01-.704-.257z"/></svg>