<svg viewBox="0 0 24 24" xmlns="http://www.w3.org/2000/svg"><path d="M6.44 7.391h2.066a.358.358 0 00.354-.353.358.358 0 00-.354-.359H6.44a.358.358 0 100 .712zm14.08 7.082a1.74 1.74 0 00-1.773 1.777 1.773 1.773 0 001.773 1.796h1.703A1.773 1.773 0 0024 16.273a1.745 1.745 0 00-1.777-1.777zm1.703-4.95A1.745 1.745 0 0024 7.744a1.773 1.773 0 00-1.777-1.773H20.52a1.773 1.773 0 00-1.773 1.773 1.74 1.74 0 001.773 1.777zm-1.703.697a1.777 1.777 0 00-1.773 1.778 1.74 1.74 0 001.773 1.777h1.703A1.745 1.745 0 0024 11.998a1.777 1.777 0 00-1.777-1.773zm-4.886 4.253a1.74 1.74 0 00-1.773 1.777 1.768 1.768 0 001.773 1.796h.633a1.773 1.773 0 001.777-1.772 1.745 1.745 0 00-1.777-1.801zm.633-4.95a1.745 1.745 0 001.777-1.778 1.773 1.773 0 00-1.777-1.773h-.651a1.768 1.768 0 00-1.773 1.773 1.74 1.74 0 001.773 1.777zm-.651.697a1.777 1.777 0 00-1.754 1.778 1.74 1.74 0 001.772 1.777h.633a1.745 1.745 0 001.796-1.777 1.777 1.777 0 00-1.796-1.778zM3.914 8.824h1.033a.354.354 0 00.358-.353.363.363 0 00-.358-.358H3.932a.354.354 0 000 .707zm-3.15-2.13h.27a.354.354 0 00.358-.354.363.363 0 00-.358-.358h-.27a.354.354 0 000 .707zm5.676 9.91h2.066a.354.354 0 01.354.354.358.358 0 01-.354.358H6.44a.358.358 0 110-.712zm-2.508-1.42h1.033a.354.354 0 110 .708H3.932a.354.354 0 010-.707zm-3.15 2.132h.27a.354.354 0 01.359.354.363.363 0 01-.359.358h-.27a.354.354 0 010-.707zm1.587.73h9.027a1.773 1.773 0 001.772-1.772 1.74 1.74 0 00-1.772-1.778H1.694a.358.358 0 000 .712h.931a.354.354 0 010 .707H.317a.358.358 0 000 .712H5.17a.358.358 0 010 .712H2.378a.354.354 0 00-.34.354.358.358 0 00.354.358zm4.071-6.388h2.066a.354.354 0 00.354-.354.358.358 0 00-.354-.358H6.44a.363.363 0 00-.358.358.358.358 0 00.358.354zm-2.508 1.424h1.033a.358.358 0 100-.712H3.932a.354.354 0 00-.353.353.358.358 0 00.353.359zM.782 10.95h.27a.354.354 0 100-.707h-.27a.358.358 0 00-.353.353.358.358 0 00.353.358zm1.587-.712h9.027a1.777 1.777 0 011.772 1.759 1.74 1.74 0 01-1.772 1.777H1.694a.354.354 0 010-.707h.931a.358.358 0 00.354-.358.358.358 0 00-.354-.354H.317a.358.358 0 010-.712H5.17a.358.358 0 000-.712H2.378a.358.358 0 010-.712zm0-4.253h9.027a1.773 1.773 0 011.772 1.773 1.74 1.74 0 01-1.772 1.777H1.694a.358.358 0 01-.353-.353.354.354 0 01.34-.359h.93a.354.354 0 000-.707H.317a.358.358 0 010-.712H5.17a.358.358 0 000-.712H2.378a.354.354 0 01-.34-.353.358.358 0 01.331-.391z"/></svg>