<svg viewBox="0 0 24 24" xmlns="http://www.w3.org/2000/svg"><path d="M20 14.4a.8.8 0 110 1.6.8.8 0 010-1.6zm-11.2 0h4.8a.8.8 0 110 1.6H8.8a.8.8 0 110-1.6zM7.2 9.6a.8.8 0 01.8.8V12a.8.8 0 11-1.6 0v-1.6a.8.8 0 01.8-.8zm-3.999.759A2.4 2.4 0 017.2 8.612a2.4 2.4 0 014 1.788V12a.8.8 0 11-1.6 0v-1.6a.8.8 0 10-1.6 0V12a.8.8 0 11-1.6 0v-1.6a.8.8 0 10-1.6 0V12a.8.8 0 11-1.6 0v-1.6l.001-.041zM17.6 12.8v2.4a.8.8 0 11-1.6 0v-2.4h-2.306c-.493 0-.894-.358-.894-.8 0-.442.401-.8.894-.8h6.212c.493 0 .894.358.894.8 0 .442-.401.8-.894.8H17.6zM16.8 8H20a.8.8 0 110 1.6h-3.2a.8.8 0 110-1.6zM4 14.4h1.6a.8.8 0 110 1.6H4a.8.8 0 110-1.6zM13.2 8h.4a.8.8 0 110 1.6h-.4a.8.8 0 110-1.6zM1.6 14.4H0V8.8c0-2.208 1.792-4 4-4h16c2.208 0 4 1.792 4 4v6.4c0 2.208-1.792 4-4 4H4c-2.208 0-4-1.792-4-4v-1.6h1.6v1.6A2.4 2.4 0 004 17.6h16a2.4 2.4 0 002.4-2.4V8.8A2.4 2.4 0 0020 6.4H4a2.4 2.4 0 00-2.4 2.4v5.6z"/></svg>