<svg viewBox="0 0 24 24" xmlns="http://www.w3.org/2000/svg"><path d="M11.965 0A12 12 0 000 12a12 12 0 0012 12 12 12 0 0012-12 12 12 0 00-3.209-8.167 7.272 7.272 0 01-.799 3.218c-.548.957-2.281 2.77-3.264 3.699a.723.723 0 00.056 1.104c.996.74 2.658 2.151 2.788 3.422.176 1.835 1.6 4.02 1.675 4.159a.67.67 0 01-.105.327 12.067 12.067 0 01-2.03 1.898 2.435 2.435 0 01-.807.126c-1.944-.04-1.526-1.866-1.712-2.905s-.78-3.085-2.716-2.788c0 0 .484 4.243-1.489 5.546s-5.843 2.27-6.55-.408 2.46-2.384 2.684-2.384c.223 0 2.233-.632 1.267-2.53-.967-1.898-2.01-3.5-2.01-3.5a11.37 11.37 0 00-2.735 1.285 5.42 5.42 0 00-1.061.82c-1.065 1.104-2.19 1.713-2.954 1.358a1.368 1.368 0 01-.32-.221A11.926 11.926 0 01.1 13.503c.43-.641 2.082-2.038 3.696-2.906 1.304-.702 2.737-.988 3.118-1.355-.671-2.235-1.882-5.703.832-7.33C9.881.634 12.69-.142 13.77 2.958c1.08 3.1.802 3.796 1.267 3.796.465 0 1.608.223 2.09-1.75.356-1.445.574-2.685 1.379-3.087A12 12 0 0012 0a12 12 0 00-.035 0zm-.498 2.125c-.353-.019-.78.05-1.303.224 0 0-1.895.52-1.749 2.53.13 1.777 1.08 2.753 3.053 2.01 1.972-.737 2.31-1.264 1.824-2.753-.364-1.117-.765-1.956-1.825-2.011zm.48.726a.249.249 0 01.183.07 1.58 1.58 0 01.232.346.253.253 0 01-.197.37.253.253 0 01-.233-.131 1.559 1.559 0 00-.148-.232.256.256 0 010-.353.249.249 0 01.163-.07zm3.529.152a.22.22 0 01.192.103.22.22 0 01-.07.305.22.22 0 11-.122-.408zM12.609 4.27a.253.253 0 01.227.133 1.5 1.5 0 01.102.982.253.253 0 01-.246.205h-.049a.253.253 0 01-.2-.295 1.013 1.013 0 00-.071-.697.253.253 0 01.237-.328zm-8.035.552a.12.12 0 01.029.003.12.12 0 11-.147.091.12.12 0 01.118-.094zm15.77 3.419l.273.539.593.12-.539.275-.123.592-.272-.539-.592-.123.538-.272zm-17.767.535a.22.22 0 01.193.104.22.22 0 01-.07.304.22.22 0 11-.123-.408zm16.004 2.79a.258.258 0 01.062.007.258.258 0 11-.31.195.258.258 0 01.248-.202zM4.914 16.115a.17.17 0 01.165.14.17.17 0 01-.137.197.17.17 0 11-.028-.337zm9.769 4.094a.2.2 0 01.036.004.2.2 0 11-.233.15.2.2 0 01.197-.154z"/></svg>