<svg viewBox="0 0 24 24" xmlns="http://www.w3.org/2000/svg"><path d="M.945 1.045A.947.947 0 000 1.988v20.024c0 .534.436.943.945.943h22.11a.944.944 0 00.945-.943V1.988a.941.941 0 00-.945-.943zm.118 1.064h21.875v19.784H1.063zM3.53 4.385c-.198 0-.361.149-.361.334v3.699c0 .185.162.334.361.334h16.94c.198 0 .36-.15.36-.334v-3.7c0-.184-.161-.333-.36-.333zm2.057.886a1.3 1.3 0 011.297 1.297 1.3 1.3 0 01-1.297 1.3 1.3 1.3 0 01-1.299-1.3 1.3 1.3 0 011.299-1.297m-.002.62a.68.68 0 00-.676.677.68.68 0 00.678.678.68.68 0 00.678-.678.68.68 0 00-.678-.677zM3.53 9.816c-.198 0-.361.15-.361.334v3.702c0 .184.162.332.361.332h16.94c.198 0 .36-.15.36-.334v-3.7c0-.184-.161-.334-.36-.334zm2.057.887A1.3 1.3 0 016.885 12a1.3 1.3 0 01-1.297 1.299A1.3 1.3 0 014.289 12a1.3 1.3 0 011.299-1.297m-.002.62A.68.68 0 004.91 12a.68.68 0 00.678.68.68.68 0 000-1.358zM3.53 15.247c-.198 0-.361.15-.361.334v3.701c0 .185.162.332.361.332h16.94c.198 0 .36-.15.36-.334v-3.699c0-.184-.161-.334-.36-.334zm2.057.887a1.3 1.3 0 011.297 1.297 1.3 1.3 0 01-1.297 1.298 1.3 1.3 0 01-1.299-1.298 1.3 1.3 0 011.299-1.297m-.002.619a.68.68 0 00.002 1.358.68.68 0 000-1.358z"/></svg>