<svg viewBox="0 0 24 24" xmlns="http://www.w3.org/2000/svg"><path d="M12.088 0a2.984 2.984 0 00-2.986 2.984 2.984 2.984 0 00.525 1.68 2.654 2.654 0 012.482-1.734c1.121 0 2.083.706 2.467 1.695a2.984 2.984 0 00.496-1.64A2.984 2.984 0 0012.088 0zM5.65 2.666A2.984 2.984 0 002.666 5.65 2.984 2.984 0 005.65 8.635 2.984 2.984 0 008.635 5.65 2.984 2.984 0 005.65 2.666zm12.7 0a2.984 2.984 0 00-2.985 2.984 2.984 2.984 0 002.985 2.985 2.984 2.984 0 002.986-2.985 2.984 2.984 0 00-2.986-2.984zm-6.24.764a2.147 2.147 0 00-2.147 2.146 2.147 2.147 0 002.146 2.147 2.147 2.147 0 002.147-2.147 2.147 2.147 0 00-2.147-2.146zM9.112 6.04A3.497 3.497 0 016.128 9.1a2.147 2.147 0 001.363.493A2.147 2.147 0 009.64 7.447a2.147 2.147 0 00-.526-1.406zm5.782.047a2.147 2.147 0 00-.489 1.36 2.147 2.147 0 002.147 2.146 2.147 2.147 0 001.355-.489 3.494 3.494 0 01-3.013-3.017zM2.985 9.016A2.984 2.984 0 000 12a2.984 2.984 0 002.984 2.984 2.984 2.984 0 001.659-.505A2.655 2.655 0 012.922 12c0-1.131.719-2.102 1.723-2.479a2.984 2.984 0 00-1.66-.505zm18.03 0a2.984 2.984 0 00-1.673.52 2.655 2.655 0 011.71 2.474c0 1.12-.705 2.082-1.695 2.467a2.984 2.984 0 001.659.507A2.984 2.984 0 0024 12a2.984 2.984 0 00-2.984-2.984zm-15.447.838A2.147 2.147 0 003.422 12a2.147 2.147 0 002.146 2.146A2.147 2.147 0 007.715 12a2.147 2.147 0 00-2.147-2.146zm12.838.01a2.147 2.147 0 00-2.146 2.146 2.147 2.147 0 002.146 2.146 2.147 2.147 0 002.147-2.146 2.147 2.147 0 00-2.147-2.147zM7.492 14.376a2.147 2.147 0 00-1.398.518 3.496 3.496 0 013.015 3.037 2.147 2.147 0 00.53-1.409 2.147 2.147 0 00-2.147-2.146zm9.06 0a2.147 2.147 0 00-2.146 2.146 2.147 2.147 0 00.492 1.362 3.495 3.495 0 013.047-2.996 2.147 2.147 0 00-1.392-.512zm-10.902.988a2.984 2.984 0 00-2.984 2.985 2.984 2.984 0 002.984 2.986 2.984 2.984 0 002.985-2.986 2.984 2.984 0 00-2.985-2.985zm12.7 0a2.984 2.984 0 00-2.985 2.985 2.984 2.984 0 002.985 2.986 2.984 2.984 0 002.986-2.986 2.984 2.984 0 00-2.986-2.985zm-6.35.908a2.147 2.147 0 00-2.146 2.147A2.147 2.147 0 0012 20.566a2.147 2.147 0 002.146-2.146A2.147 2.147 0 0012 16.273zm2.268 3.504A2.65 2.65 0 0112 21.067a2.65 2.65 0 01-2.188-1.16 2.734 2.635 0 00-.46 1.458A2.734 2.635 0 0012.086 24a2.734 2.635 0 002.734-2.635 2.734 2.635 0 00-.552-1.588z"/></svg>