<svg viewBox="0 0 24 24" xmlns="http://www.w3.org/2000/svg"><path d="M15.014 3.713a18.383 18.383 0 00-1.626.084c-.816.082-1.714.245-2.53.408l.57 6.368.246 1.96.654 6.857 1.55-.083 1.796-.162v-.082l-.408-4.081v-.573a19.201 19.201 0 002.04-.408 10.164 10.164 0 001.633-.816 5.257 5.257 0 001.714-2.041 6.53 6.53 0 00.409-2.774 4.751 4.751 0 00-2.858-4.082 7.347 7.347 0 00-2.694-.572 18.383 18.383 0 00-.496-.003zm-10.775.98a18.383 18.383 0 00-1.626.085A14.026 14.026 0 000 5.105l.572 6.366.163 1.96.654 6.857 1.551-.082 1.795-.164-.327-4.081v-.571a19.197 19.197 0 002.041-.408 10.164 10.164 0 001.633-.817 5.257 5.257 0 001.714-2.04 5.967 5.967 0 00.408-2.695A4.653 4.653 0 007.43 5.267a7.347 7.347 0 00-2.695-.57 18.383 18.383 0 00-.496-.004zM15.1 6.731a1.233 1.233 0 01.085.006 3.265 3.265 0 011.468.325 2.065 2.065 0 011.062 1.633 2.596 2.596 0 01-.164 1.143 1.861 1.861 0 01-.571.817 2.449 2.449 0 01-1.306.572 1.78 1.78 0 01-.653.081l-.409-4.49a1.233 1.233 0 01.488-.087zm-10.942.98a1.233 1.233 0 01.17.005 3.265 3.265 0 011.47.327 2.065 2.065 0 011.06 1.633 4.947 4.947 0 01-.163 1.143 1.861 1.861 0 01-.573.816 2.449 2.449 0 01-1.305.57 1.78 1.78 0 01-.653.082l-.408-4.49a1.233 1.233 0 01.402-.086zm17.801 7.27A2.04 2.04 0 1024 17.023a2.04 2.04 0 00-2.04-2.04z"/></svg>