<svg viewBox="0 0 24 24" xmlns="http://www.w3.org/2000/svg"><path d="M3.157 11.485a1.254 1.254 0 00-1.18-1.324H0v3.58h1.084v-1.1h.66c.166 0 .333-.02.496-.059.497-.103.87-.52.917-1.025v-.072zm-1.081.005a.35.35 0 01-.337.301c-.081.007-.15.007-.23.007h-.425v-.777h.632a.36.36 0 01.36.326.658.658 0 010 .143zm3.678 1.45c0-.278-.01-.51-.01-.786a1.654 1.654 0 00-.057-.42.666.666 0 00-.332-.43 1.046 1.046 0 00-.316-.118 2.63 2.63 0 00-1.065-.02c-.1.015-.197.043-.29.082a.77.77 0 00-.455.5.597.597 0 00-.024.261.124.124 0 00.014.048l.86.02a.386.386 0 01.025-.153.262.262 0 01.162-.162.49.49 0 01.342 0 .23.23 0 01.156.157.15.15 0 01-.02.13.22.22 0 01-.1.078l-.074.024c-.113.03-.228.055-.343.075a6.793 6.793 0 00-.276.05 3.248 3.248 0 00-.365.095.787.787 0 00-.295.173.621.621 0 00-.205.393.792.792 0 00.012.3.71.71 0 00.51.54c.276.083.573.067.84-.044a.83.83 0 00.344-.248c.018.06.038.117.057.176.012.032.03.061.051.087h.948a.414.414 0 01-.068-.207c-.014-.2-.022-.4-.026-.6zm-.956-.088a.431.431 0 01-.067.193.406.406 0 01-.182.145.627.627 0 01-.21.054.453.453 0 01-.163-.013.244.244 0 01-.12-.074.204.204 0 01-.057-.106.17.17 0 01.064-.174.314.314 0 01.105-.063c.095-.035.19-.066.288-.093.118-.034.232-.078.342-.13a.907.907 0 010 .261zM8.06 11.14a1.038 1.038 0 00-.755.054 1.662 1.662 0 00-.393.262l-.023-.27H5.97v2.56h.982v-1.42a.413.413 0 01.06-.222.383.383 0 01.482-.16c.081.032.142.1.167.183.013.043.02.087.02.131v1.484h1.01V12.09a1.205 1.205 0 00-.06-.394.822.822 0 00-.572-.558l.001.002zm5.95 1.25a1.076 1.076 0 00-.42-.23l-.106-.03a4.543 4.543 0 00-.58-.123 1.85 1.85 0 01-.156-.03.3.3 0 01-.068-.024.117.117 0 01-.059-.152v-.008a.222.222 0 01.131-.105.491.491 0 01.316 0c.107.03.178.133.17.244h.902a.9.9 0 00-.055-.31.551.551 0 00-.184-.255.848.848 0 00-.242-.138 1.196 1.196 0 00-.262-.073 2.627 2.627 0 00-.642-.037 2.033 2.033 0 00-.366.054 1.082 1.082 0 00-.444.211.693.693 0 00-.28.526.72.72 0 00.052.316.675.675 0 00.393.393c.09.036.183.064.278.082l.554.104c.07.01.138.028.205.051.06.018.103.07.113.131a.19.19 0 01-.052.176.304.304 0 01-.17.086.492.492 0 01-.262-.025.368.368 0 01-.105-.06.263.263 0 01-.089-.132.41.41 0 01-.02-.138h-.932v.055a.773.773 0 00.256.555.99.99 0 00.426.24c.33.098.676.12 1.014.065.16-.023.313-.073.455-.148a.935.935 0 00.176-.118.778.778 0 00.246-.852.632.632 0 00-.193-.302v.001zm6.198-2.226h.957v.676h-.957v-.676zm0 1.024h.957v2.558h-.957v-2.558zm2.872 1.505a1.167 1.167 0 01-.018.154.393.393 0 01-.096.2.299.299 0 01-.185.097.364.364 0 01-.316-.1.53.53 0 01-.152-.26 1.168 1.168 0 01.012-.703.41.41 0 01.178-.232.36.36 0 01.407.017c.092.068.153.17.17.284h.874a.78.78 0 00-.09-.417 1.12 1.12 0 00-.724-.564 1.711 1.711 0 00-.806-.02c-.48.094-.863.456-.984.93a1.383 1.383 0 00-.03.621c.022.15.074.291.151.42.095.171.227.32.385.435.19.148.416.24.655.262.18.02.36.012.538-.025a1.24 1.24 0 00.685-.38.928.928 0 00.263-.719h-.917zm-3.704-1.553a1.038 1.038 0 00-.755.054 1.656 1.656 0 00-.393.262l-.03-.27h-.919v2.56h.984v-1.429a.425.425 0 01.06-.22.393.393 0 01.484-.16c.08.032.14.1.164.182a.453.453 0 01.021.14v1.483h1.016V12.09a1.2 1.2 0 00-.06-.394.822.822 0 00-.572-.558v.002zm-7.879 1.8c0-.278-.01-.51-.012-.786 0-.142-.018-.283-.054-.42a.675.675 0 00-.333-.43 1.056 1.056 0 00-.315-.118 2.637 2.637 0 00-1.067-.02c-.1.015-.196.043-.289.082a.766.766 0 00-.456.5.617.617 0 00-.025.261.149.149 0 00.015.048l.86.02a.384.384 0 01.024-.153.262.262 0 01.163-.162.49.49 0 01.342 0 .23.23 0 01.156.157.15.15 0 01-.02.13.213.213 0 01-.099.078l-.075.024c-.113.03-.228.055-.343.075a6.314 6.314 0 00-.274.05 3.204 3.204 0 00-.366.095.762.762 0 00-.296.173.617.617 0 00-.21.393.753.753 0 00.012.3c.056.26.252.468.508.54.277.083.575.067.842-.044a.808.808 0 00.335-.245c.017.058.036.116.057.173.01.032.03.062.052.087h.948a.418.418 0 01-.054-.207 13.47 13.47 0 01-.026-.6zm-.97-.084a.435.435 0 01-.07.19.371.371 0 01-.167.144.656.656 0 01-.205.054.466.466 0 01-.175-.015.248.248 0 01-.122-.073.214.214 0 01-.055-.105.172.172 0 01.057-.17.344.344 0 01.105-.063 4.83 4.83 0 01.288-.093c.118-.035.233-.079.344-.13.01.086.01.174 0 .261zm5.483-1.72a1.858 1.858 0 00-.577 0 1.33 1.33 0 00-.747.371 1.21 1.21 0 00-.383.798c-.02.185-.003.372.048.551.073.278.24.522.47.693.147.117.32.197.504.235.26.055.527.055.787 0 .184-.038.36-.118.507-.235.23-.17.396-.415.468-.693a1.42 1.42 0 00.05-.55 1.208 1.208 0 00-.383-.799 1.33 1.33 0 00-.743-.37zm.06 1.814a.388.388 0 01-.513.193.371.371 0 01-.194-.193.903.903 0 01-.072-.246 1.42 1.42 0 01.012-.515.657.657 0 01.1-.247.374.374 0 01.622 0 .627.627 0 01.105.247c.034.17.038.344.01.515a.885.885 0 01-.07.246z"/></svg>