<svg viewBox="0 0 24 24" xmlns="http://www.w3.org/2000/svg"><path d="M10.44.418a3.12 3.12 0 013.12 0l7.69 4.44a3.12 3.12 0 011.56 2.702v8.88a3.12 3.12 0 01-1.56 2.702l-7.69 4.44a3.12 3.12 0 01-3.12 0l-7.69-4.44a3.12 3.12 0 01-1.56-2.702V7.56a3.12 3.12 0 011.56-2.702zm3.87 3.315L12.311 2.58a.624.624 0 00-.624 0l-7.69 4.44a.624.624 0 00-.312.54v3.774l10.623-6.133zm2.496 13.643l1.255.725 1.941-1.12a.624.624 0 00.312-.541V7.56a.624.624 0 00-.312-.54l-3.196-1.845zm-2.497-1.441V8.083l-6.8 3.926zM3.686 14.217v2.223c0 .223.119.429.312.54l7.69 4.44a.624.624 0 00.624 0l3.252-1.878-10.55-6.091z"/></svg>