<svg viewBox="0 0 24 24" xmlns="http://www.w3.org/2000/svg"><path d="M12.779.025a11.789 11.789 0 00-5.338.896A11.829 11.829 0 003.058 4.11 11.928 11.928 0 00.427 14.363a11.92 11.92 0 002.3 4.921 11.842 11.842 0 004.24 3.378 11.783 11.783 0 0010.533-.226.327.327 0 01.331.018 9.136 9.136 0 005.197 1.545.332.332 0 00.332-.332v-4.038a.334.334 0 00-.276-.331 4.732 4.732 0 01-1.106-.319.329.329 0 01-.191-.352.33.33 0 01.05-.133 11.943 11.943 0 00.772-11.871 11.87 11.87 0 00-4.042-4.628A11.793 11.793 0 0012.765.018l.013.007h.001zM4.843 11.898a7.24 7.24 0 011.205-4.005 7.18 7.18 0 013.215-2.657 7.133 7.133 0 017.815 1.558 7.239 7.239 0 011.555 7.854 7.202 7.202 0 01-2.643 3.234 7.147 7.147 0 01-9.049-.896 7.228 7.228 0 01-2.103-5.089l.005.001z"/></svg>