<svg viewBox="0 0 24 24" xmlns="http://www.w3.org/2000/svg"><path d="M3.813 1.803c-1.103 0-1.99.888-1.99 1.99v16.414c0 1.102.887 1.99 1.99 1.99h16.375c1.102 0 1.99-.888 1.99-1.99V3.793c0-1.102-.888-1.99-1.99-1.99zm8.82 1.234a1.802 1.825 0 011.803 1.824 1.802 1.825 0 01-1.803 1.827A1.802 1.825 0 0110.83 4.86a1.802 1.825 0 011.803-1.824zm2.986 3.496a1.802 1.825 0 011.803 1.826 1.802 1.825 0 01-1.803 1.825 1.802 1.825 0 01-1.803-1.825 1.802 1.825 0 011.803-1.826zm-7.346.26a1.802 1.825 0 011.803 1.824 1.802 1.825 0 01-1.803 1.826 1.802 1.825 0 01-1.802-1.826 1.802 1.825 0 011.802-1.824zm3.98 2.633a1.802 1.825 0 011.804 1.826 1.802 1.825 0 01-1.803 1.824 1.802 1.825 0 01-1.803-1.824 1.802 1.825 0 011.803-1.826zm7.044.053a1.802 1.825 0 011.803 1.826 1.802 1.825 0 01-1.803 1.824 1.802 1.825 0 01-1.8-1.824 1.802 1.825 0 011.8-1.826zm-3.402 2.535a1.802 1.825 0 011.802 1.826 1.802 1.825 0 01-1.802 1.824 1.802 1.825 0 01-1.803-1.824 1.802 1.825 0 011.803-1.826zm-11.614.953a1.802 1.825 0 011.803 1.826 1.802 1.825 0 01-1.803 1.824 1.802 1.825 0 01-1.802-1.824 1.802 1.825 0 011.802-1.826zm15.518.93a1.802 1.825 0 011.803 1.824 1.802 1.825 0 01-1.803 1.826 1.802 1.825 0 01-1.803-1.826 1.802 1.825 0 011.803-1.825zM7.81 15.665a1.802 1.825 0 011.802 1.824 1.802 1.825 0 01-1.802 1.826 1.802 1.825 0 01-1.803-1.826 1.802 1.825 0 011.803-1.824zM3.564 0A3.556 3.556 0 000 3.564v16.872A3.556 3.556 0 003.564 24h16.872A3.556 3.556 0 0024 20.436V3.564A3.556 3.556 0 0020.436 0zm-.002 1.021h16.875a2.536 2.536 0 012.542 2.542v16.875a2.536 2.536 0 01-2.542 2.54H3.563a2.536 2.536 0 01-2.54-2.54V3.563a2.536 2.536 0 012.54-2.542z"/></svg>