<svg viewBox="0 0 24 24" xmlns="http://www.w3.org/2000/svg"><path d="M9.12.35l.27 1.09a10.845 10.845 0 00-3.015 1.248l-.578-.964A11.955 11.955 0 019.12.35zm5.76 0l-.27 1.09a10.845 10.845 0 013.015 1.248l.581-.964A11.955 11.955 0 0014.88.35zM1.725 5.797A11.955 11.955 0 00.351 9.119l1.09.27A10.845 10.845 0 012.69 6.374zm-.6 6.202a10.856 10.856 0 01.122-1.63l-1.112-.168a12.043 12.043 0 000 3.596l1.112-.169A10.856 10.856 0 011.125 12zm17.078 10.275l-.578-.964a10.845 10.845 0 01-3.011 1.247l.27 1.091a11.955 11.955 0 003.319-1.374zM22.875 12a10.856 10.856 0 01-.122 1.63l1.112.168a12.043 12.043 0 000-3.596l-1.112.169a10.856 10.856 0 01.122 1.63zm.774 2.88l-1.09-.27a10.845 10.845 0 01-1.248 3.015l.964.581a11.955 11.955 0 001.374-3.326zm-10.02 7.875a10.952 10.952 0 01-3.258 0l-.17 1.112a12.043 12.043 0 003.597 0zm7.125-4.303a10.914 10.914 0 01-2.304 2.302l.668.906a12.019 12.019 0 002.542-2.535zM18.45 3.245a10.914 10.914 0 012.304 2.304l.906-.675a12.019 12.019 0 00-2.535-2.535zM3.246 5.549A10.914 10.914 0 015.55 3.245l-.675-.906A12.019 12.019 0 002.34 4.874zm19.029.248l-.964.577a10.845 10.845 0 011.247 3.011l1.091-.27a11.955 11.955 0 00-1.374-3.318zM10.371 1.246a10.952 10.952 0 013.258 0L13.8.134a12.043 12.043 0 00-3.597 0zM3.823 21.957L1.5 22.5l.542-2.323-1.095-.257-.542 2.323a1.125 1.125 0 001.352 1.352l2.321-.532zm-2.642-3.041l1.095.255.375-1.61a10.828 10.828 0 01-1.21-2.952l-1.09.27a11.91 11.91 0 001.106 2.852zm5.25 2.437l-1.61.375.255 1.095 1.185-.275a11.91 11.91 0 002.851 1.106l.27-1.091a10.828 10.828 0 01-2.943-1.217zM12 2.25a9.75 9.75 0 00-8.25 14.938l-.938 4 4-.938A9.75 9.75 0 1012 2.25z"/></svg>