<svg viewBox="0 0 24 24" xmlns="http://www.w3.org/2000/svg"><path d="M23.876 18.031l-3.962 4.14a.92.92 0 01-.306.21.94.94 0 01-.367.074H.46a.469.469 0 01-.252-.073.451.451 0 01-.17-.196.438.438 0 01-.031-.255.444.444 0 01.117-.23l3.965-4.139a.92.92 0 01.305-.21.94.94 0 01.366-.075h18.78a.47.47 0 01.252.074.453.453 0 01.17.196.438.438 0 01.031.255.444.444 0 01-.117.23zm-3.962-8.335a.92.92 0 00-.306-.21.941.941 0 00-.367-.075H.46a.469.469 0 00-.252.073.451.451 0 00-.17.197.438.438 0 00-.031.254.444.444 0 00.117.23l3.965 4.14a.92.92 0 00.305.21.94.94 0 00.366.074h18.78a.469.469 0 00.252-.073.453.453 0 00.17-.196.438.438 0 00.031-.255.444.444 0 00-.117-.23zM.46 6.723h18.782a.941.941 0 00.367-.075.92.92 0 00.306-.21l3.962-4.14a.444.444 0 00.117-.23.438.438 0 00-.032-.254.453.453 0 00-.17-.196.469.469 0 00-.252-.073H4.76a.941.941 0 00-.366.074.92.92 0 00-.305.21L.125 5.97a.444.444 0 00-.117.23.438.438 0 00.03.254.451.451 0 00.17.196.469.469 0 00.252.074z"/></svg>