<svg viewBox="0 0 24 24" xmlns="http://www.w3.org/2000/svg"><path d="M11.46 2.942a2.55 2.55 0 00-1.427.902 2.862 2.862 0 00-.463.975l-.054.243H3.58v-.546c0-.603-.025-.71-.194-.81-.086-.051-.242-.057-1.628-.057H.223l-.111.112L0 3.873v3.125l.096.107.096.108 1.537.008c1.683.009 1.641.013 1.775-.186.071-.105.075-.143.075-.665v-.553h3.956l-.377.19c-.833.424-1.498.888-2.097 1.468A6.848 6.848 0 003.615 9.44a8.898 8.898 0 00-.527 1.425c-.034.143-.053.173-.113.173-.122 0-.45.096-.624.184a1.891 1.891 0 00-.984 2.212 1.9 1.9 0 001.807 1.38c.33 0 .54-.05.862-.203a1.887 1.887 0 001.054-1.698c0-.307-.107-.697-.263-.96-.172-.29-.524-.613-.802-.737-.118-.053-.215-.114-.215-.137s.065-.241.146-.487c.724-2.202 2.401-3.69 5.14-4.56.208-.065.394-.125.414-.132.021-.007.074.1.123.25.273.829.92 1.42 1.794 1.64.382.097.945.077 1.33-.047.742-.24 1.368-.877 1.61-1.637l.069-.22.326.11a8.181 8.181 0 013.13 1.936 8.191 8.191 0 012.217 3.716l.079.28-.17.076c-.788.353-1.264 1.264-1.09 2.087a1.926 1.926 0 001.575 1.517 1.918 1.918 0 002.079-1.257 1.888 1.888 0 00-1.215-2.41 1.777 1.777 0 00-.347-.082c-.086 0-.094-.013-.15-.255-.34-1.44-1.233-3.001-2.365-4.129-.58-.577-1.468-1.248-2.029-1.531a.906.906 0 01-.189-.111c0-.01.931-.016 2.069-.016h2.069v1.18l.095.108.096.107h3.157l.107-.107.107-.107.01-1.512c.01-1.66.01-1.664-.188-1.78-.086-.051-.242-.057-1.628-.057h-1.533l-.112.112-.112.112V5.06h-5.968l-.023-.149c-.061-.41-.304-.882-.633-1.231a2.49 2.49 0 00-1.264-.737c-.249-.059-.823-.06-1.076-.001m-.037 9.13c-.056.03-.14.15-.235.335-1.723 3.355-4.168 8.178-4.182 8.249-.043.218.18.455.397.42.057-.01.99-.42 2.072-.912s2.005-.908 2.05-.926c.072-.028.341.088 2.053.88 1.084.501 2.027.932 2.097.957.155.055.3.018.418-.108.181-.193.266-.003-2.034-4.578-1.497-2.977-2.134-4.212-2.205-4.277a.376.376 0 00-.431-.04"/></svg>