<svg viewBox="0 0 24 24" xmlns="http://www.w3.org/2000/svg"><path d="M24 12a3 3 0 11-6 0 3 3 0 016 0zm-9 9a3 3 0 11-6 0 3 3 0 016 0zm0-9a3 3 0 11-6 0 3 3 0 016 0zm6-6a3 3 0 110-6 3 3 0 010 6zm0-.5a2.5 2.5 0 100-5 2.5 2.5 0 000 5zM3 24a3 3 0 110-6 3 3 0 010 6zm0-.5a2.5 2.5 0 100-5 2.5 2.5 0 000 5zm18 .5a3 3 0 110-6 3 3 0 010 6zm0-.5a2.5 2.5 0 100-5 2.5 2.5 0 000 5zM6 12a3 3 0 11-6 0 3 3 0 016 0zm9-9a3 3 0 11-6 0 3 3 0 016 0zm-3 2.5a2.5 2.5 0 100-5 2.5 2.5 0 000 5zM6 3a3 3 0 11-6 0 3 3 0 016 0zM3 5.5a2.5 2.5 0 100-5 2.5 2.5 0 000 5z"/></svg>