<svg viewBox="0 0 24 24" xmlns="http://www.w3.org/2000/svg"><path d="M13.912 0a8.72 8.72 0 00-8.308 6.139c1.05-.515 2.18-.845 3.342-.976 2.415-3.363 7.4-3.412 9.88-.097 2.48 3.315 1.025 8.084-2.883 9.45a6.131 6.131 0 01-.3 2.762 8.72 8.72 0 003.01-1.225A8.72 8.72 0 0013.913 0zm.082 6.451a2.284 2.284 0 10-.15 4.566 2.284 2.284 0 00.15-4.566zm-5.629.27a8.72 8.72 0 00-3.031 1.235 8.72 8.72 0 1013.06 9.913 10.173 10.174 0 01-3.343.965 6.125 6.125 0 11-7.028-9.343 6.114 6.115 0 01.342-2.772zm1.713 6.27a2.284 2.284 0 00-2.284 2.283 2.284 2.284 0 002.284 2.284 2.284 2.284 0 002.284-2.284 2.284 2.284 0 00-2.284-2.284z"/></svg>