<svg viewBox="0 0 24 24" xmlns="http://www.w3.org/2000/svg"><path d="M8.646 4.738l.034.02 2.945 1.66a.66.66 0 00.65 0l2.92-1.644a.992.992 0 011.008 1.71l-.033.02-1.688.952a.33.33 0 000 .574l4.555 2.57a.66.66 0 00.65 0l2.815-1.59a.993.993 0 011.01 1.71l-.035.02-1.585.89a.33.33 0 000 .578l1.594.897a.992.993 0 01-.94 1.748l-.035-.02-2.826-1.591a.66.66 0 00-.65 0l-4.605 2.595a.33.33 0 000 .575l1.905 1.072a.993.993 0 01-.94 1.748l-.035-.018-3.133-1.767a.66.66 0 00-.65 0L8.416 19.23a.992.992 0 01-1.006-1.71l.033-.02 1.93-1.088a.33.33 0 000-.575l-4.564-2.572a.66.66 0 00-.65 0l-2.689 1.51a.993.993 0 01-1.005-1.711l.034-.018 1.452-.817a.33.33 0 000-.577l-1.45-.817a.992.992 0 01.941-1.746l.033.018 2.685 1.515a.66.66 0 00.65 0l4.607-2.596a.33.33 0 000-.576l-1.711-.963a.992.993 0 01.94-1.748zm2.977 4.324l-4.609 2.59a.33.33 0 000 .58l4.563 2.57a.66.66 0 00.65 0l4.606-2.595a.33.33 0 000-.577l-4.558-2.57a.66.66 0 00-.65 0z"/></svg>