<svg viewBox="0 0 24 24" xmlns="http://www.w3.org/2000/svg"><path d="M7.811 0a.254.254 0 00-.133.042L2.83 3.18a.426.426 0 00-.195.358v9.285c0 .141.115.256.256.256h5.18L18.432 7.35a.426.426 0 00.22-.373v-5.3a.256.256 0 00-.38-.224L8.073 7.091V.256A.256.256 0 007.81 0zm.017 14.707h-4.93a.257.257 0 00-.256.268 9.367 9.367 0 0018.721 0 .258.258 0 00-.256-.268h-4.932a.26.26 0 00-.254.238 3.93 3.93 0 01-3.918 3.619c-2.478 0-3.48-2.105-3.48-2.105a3.985 3.985 0 01-.44-1.519.255.255 0 00-.255-.233z"/></svg>