<svg viewBox="0 0 24 24" xmlns="http://www.w3.org/2000/svg"><path d="M24 12c0 6.62-5.38 12-12 12S0 18.62 0 12 5.38 0 12 0s12 5.38 12 12zM1.21 12A10.78 10.78 0 0012 22.79 10.78 10.78 0 0022.79 12 10.78 10.78 0 0012 1.21 10.78 10.78 0 001.21 12zm10.915-6.086l2.162 1.248a.25.25 0 01.125.217v1.103l2.473 1.428a.25.25 0 01.125.217v2.355l.955.551a.25.25 0 01.125.217v2.496a.25.25 0 01-.125.217l-2.162 1.248a.25.25 0 01-.25 0l-.956-.552-2.472 1.427a.25.25 0 01-.25 0l-2.472-1.427-.956.552a.25.25 0 01-.25 0l-2.162-1.248a.25.25 0 01-.125-.217V13.25a.25.25 0 01.125-.217l.955-.551v-2.355a.25.25 0 01.125-.217l2.473-1.428V7.38a.25.25 0 01.125-.217l2.162-1.248a.25.25 0 01.25 0zm1.268 10.049a.25.25 0 01-.125-.217V13.25a.25.25 0 01.125-.217l2.16-1.248a.25.25 0 01.25 0l.707.408v-1.922l-2.098-1.21v.814a.25.25 0 01-.125.217l-2.162 1.248a.25.25 0 01-.25 0l-2.162-1.248a.25.25 0 01-.125-.217V9.06L7.49 10.271v1.922l.707-.408a.25.25 0 01.25 0l2.16 1.248a.25.25 0 01.125.217v2.496a.25.25 0 01-.125.217l-.705.408L12 17.582l2.098-1.211zM10.088 9.73l1.662.96V8.766l-1.662-.955zm3.824 0V7.811l-1.662.955v1.924zM12 6.418l-1.66.96 1.66.954 1.66-.954zm-5.59 9.184l1.66.958v-1.921l-1.66-.956zm3.822 0v-1.92l-1.662.957v1.923zm-1.91-3.311l-1.662.96 1.661.955 1.66-.956zm5.446 3.31l1.66.96v-1.922l-1.66-.956zm3.822 0v-1.918l-1.662.956v1.922zm-1.912-3.31l-1.66.96 1.66.955 1.66-.956z"/></svg>