<svg viewBox="0 0 24 24" xmlns="http://www.w3.org/2000/svg"><path d="M23.267 0H.737A.737.737 0 000 .737v3.09h12a8.177 8.177 0 016.803 12.705h5.177V.737A.733.733 0 0023.267 0zM3.827 12a8.153 8.153 0 011.37-4.532H0v15.8A.733.733 0 00.737 24h22.53a.733.733 0 00.733-.733v-3.094H12A8.173 8.173 0 013.827 12zm14.115-.207a9.212 9.212 0 01-2.282.554 3.983 3.983 0 00-.024-.92A9.742 9.742 0 0017.6 9.112a.882.882 0 00-1.49-.944 8.762 8.762 0 01-1.215 1.549 3.612 3.612 0 00-.756-.721 7.265 7.265 0 00-.124-1.545 12.434 12.434 0 00-.561-2.012.88.88 0 00-1.131-.525.84.84 0 00-.323.203.888.888 0 00-.207.928c.08.21.147.398.207.61.088.282.16.549.22.796a7.523 7.523 0 01.127.912 3.433 3.433 0 00-.917.024A9.766 9.766 0 009.113 6.42a.884.884 0 00-.944 1.494 8.79 8.79 0 011.553 1.195 3.724 3.724 0 00-.725.756 9.499 9.499 0 00-3.557.69.882.882 0 00.606 1.656 9.272 9.272 0 012.318-.57c0 .12-.02.24-.02.359a3.676 3.676 0 00.044.558 9.662 9.662 0 00-1.968 2.314.88.88 0 00.745 1.354.876.876 0 00.749-.399 8.603 8.603 0 011.195-1.549 3.955 3.955 0 00.756.725 7.018 7.018 0 00.128 1.541 12.036 12.036 0 00.561 2.012.876.876 0 00.825.561.896.896 0 00.302-.052.92.92 0 00.319-.207.876.876 0 00.207-.924c-.076-.215-.147-.398-.207-.613-.088-.283-.16-.546-.215-.797a6.603 6.603 0 01-.143-.872H12a3.728 3.728 0 00.562-.04 9.714 9.714 0 002.31 1.964.882.882 0 10.943-1.49 8.897 8.897 0 01-1.549-1.214 3.736 3.736 0 00.725-.757h.203a9.957 9.957 0 003.35-.69.884.884 0 00-.602-1.66zM13.96 12v.16a1.952 1.952 0 01-.693 1.35 1.796 1.796 0 01-.243.175 1.991 1.991 0 01-1.032.29h-.16a1.952 1.952 0 01-1.345-.689 2.306 2.306 0 01-.18-.247 1.991 1.991 0 01-.29-1.031v-.16a1.868 1.868 0 01.047-.298 1.991 1.991 0 01.642-1.048 2.788 2.788 0 01.247-.179 1.991 1.991 0 011.031-.29h.16a1.916 1.916 0 01.302.047 1.991 1.991 0 011.048.646 1.796 1.796 0 01.175.242A1.991 1.991 0 0113.975 12z"/></svg>