<svg viewBox="0 0 24 24" xmlns="http://www.w3.org/2000/svg"><path d="M23.163 0h-1.488v1.488h1.488zm-5.207 10.423V7.44h2.976v2.977h2.975v.943c0 1.091-.092 2.383-.306 3.398-.12.567-.3 1.13-.512 1.672a11.903 11.903 0 01-.741 1.56 11.68 11.68 0 01-1.246 1.775l-.025.03-.042.049c-.115.134-.228.268-.353.398a11.761 11.761 0 01-.45.449 11.832 11.832 0 01-6.98 3.243A16.38 16.38 0 0112 24c-.314-.001-.94-.033-1.252-.065a11.837 11.837 0 01-6.98-3.243 11.75 11.75 0 01-.45-.45c-.131-.135-.25-.274-.368-.415h-.001l-.051-.06a11.658 11.658 0 01-1.246-1.777 11.972 11.972 0 01-.74-1.56 10.61 10.61 0 01-.513-1.671c-.214-1.016-.306-2.307-.306-3.397V.186h5.952v10.237s0 .784.01 1.041l.002.06c.012.332.024.658.059.982.098.919.301 1.79.72 2.528.122.213.245.42.392.616a5.987 5.987 0 003.957 2.34c.202.03.61.055.815.055.204 0 .613-.025.815-.055a5.988 5.988 0 003.957-2.34c.148-.196.27-.403.392-.616.419-.737.622-1.61.72-2.528.035-.325.047-.65.06-.983l.002-.059c.01-.257.01-1.041.01-1.041zm.742-8.19h2.233v2.231h2.976v2.977h-2.976V4.465h-2.233V2.233z"/></svg>