<svg viewBox="0 0 24 24" xmlns="http://www.w3.org/2000/svg"><path d="M14.274 22.332a7.852 7.852 0 01-2.22.334h-.107a7.78 7.78 0 01-2.237-.34.668.668 0 10-.379 1.282 9.267 9.267 0 002.616.392h.107a9.155 9.155 0 002.6-.39.667.667 0 10-.38-1.278zM20.101 5.91v-.04a8.522 8.522 0 00-16.207.026v.016c-.752 2.213-.48 5.175.734 7.935 1.66 3.774 4.674 6.406 7.343 6.406h.075c2.669 0 5.682-2.624 7.342-6.406 1.199-2.754 1.47-5.722.713-7.938zm-3.916-3.23c-1.35-.05-2.818.534-4.185 1.676-1.382-1.142-2.85-1.727-4.2-1.676a7.23 7.23 0 018.385 0zm-3.09 15.995a2.597 2.597 0 01-2.205 0c-2.277-1.049-2.736-5.266-1.006-9.2A11.979 11.979 0 0112 6.198a11.888 11.888 0 012.112 3.277c1.718 3.934 1.26 8.151-1.017 9.2zm-7.26-5.356c-1.09-2.472-1.335-5.071-.684-6.99.347-1.007.932-1.722 1.687-2.072 1.183-.547 2.715-.16 4.183 1.028a13.257 13.257 0 00-2.357 3.651c-1.17 2.67-1.428 5.389-.889 7.505a12.66 12.66 0 01-1.94-3.122zm12.315 0a12.726 12.726 0 01-1.94 3.125c.533-2.12.266-4.852-.89-7.508a13.257 13.257 0 00-2.356-3.651c1.468-1.188 2.997-1.575 4.18-1.028.758.35 1.334 1.068 1.69 2.072.658 1.905.402 4.518-.695 6.99z"/></svg>