<svg viewBox="0 0 24 24" xmlns="http://www.w3.org/2000/svg"><path d="M13.74 1.053a.495.495 0 00-.157.025.493.493 0 00-.25.188L7.595 9.562a.49.49 0 00-.084.223.488.488 0 00.032.236.49.49 0 00.14.193.493.493 0 00.215.105l3.707.786-.23 4.58a.488.488 0 00.085.3.492.492 0 00.25.189.496.496 0 00.313 0 .494.494 0 00.25-.187l5.738-8.296a.488.488 0 00.084-.223.488.488 0 00-.032-.236.488.488 0 00-.14-.194.493.493 0 00-.215-.104l-3.707-.787.23-4.58a.488.488 0 00-.085-.3.491.491 0 00-.25-.188.494.494 0 00-.156-.026zM1.157 9.788c-.307.001-.6.124-.817.34a1.161 1.161 0 00-.34.817 1.162 1.162 0 00.334.82l10.842 10.842a1.158 1.158 0 00.377.252 1.158 1.158 0 00.445.088h.004a1.158 1.158 0 00.445-.088 1.157 1.157 0 00.377-.252l10.842-10.843a1.163 1.163 0 00.334-.82 1.162 1.162 0 00-.34-.816 1.162 1.162 0 00-.817-.34 1.161 1.161 0 00-.82.334l-5.4 5.4-.026.02L12 20.14l-4.598-4.597c-.007-.008-.016-.013-.024-.02l-5.401-5.401a1.162 1.162 0 00-.82-.334z"/></svg>