<svg viewBox="0 0 24 24" xmlns="http://www.w3.org/2000/svg"><path d="M15.818 12a3.82 3.82 0 01-3.82 3.82A3.82 3.82 0 018.178 12a3.82 3.82 0 013.82-3.82 3.82 3.82 0 013.82 3.82zm3.179 9.73l-2.726-2.725A8.212 8.212 0 0112 20.212 8.212 8.212 0 013.788 12a8.212 8.212 0 011.209-4.269l-2.73-2.73A12 12 0 000 12c0 6.627 5.373 12 12 12a12 12 0 006.997-2.27zM12 0a12 12 0 00-6.997 2.27L7.73 4.994A8.212 8.212 0 0112 3.788 8.212 8.212 0 0120.212 12a8.212 8.212 0 01-1.209 4.269l2.73 2.73A12 12 0 0024 12c0-6.627-5.373-12-12-12z"/></svg>