<svg viewBox="0 0 24 24" xmlns="http://www.w3.org/2000/svg"><path d="M21.805 5.477L12.797.215a1.591 1.591 0 00-1.6 0L2.19 5.477a1.41 1.41 0 00-.697 1.215v10.604a1.438 1.438 0 00.715 1.243l9.023 5.251a1.553 1.553 0 001.558 0l8.998-5.25a1.438 1.438 0 00.72-1.244V6.692a1.41 1.41 0 00-.702-1.215zm-2.001 10.428a.277.277 0 01-.139.238l-7.527 4.388a.277.277 0 01-.282 0l-7.524-4.385a.29.29 0 01-.14-.257v-7.8a.277.277 0 01.138-.239l2.732-1.6a.284.284 0 01.279 0 .277.277 0 01.14.242v7.324l2.469-1.432v-7.65a.274.274 0 01.138-.241l1.781-1.04a.277.277 0 01.282 0l1.794 1.042a.28.28 0 01.136.241v7.642l2.455 1.43V6.484a.277.277 0 01.141-.24.28.28 0 01.28 0l2.731 1.603a.277.277 0 01.139.239z"/></svg>