<svg viewBox="0 0 24 24" xmlns="http://www.w3.org/2000/svg"><path d="M21.458 11.005c-.024-.179-.078-.632-.165-1.08a8.082 8.082 0 00-.255-1.006l-.005-.015a1.87 1.87 0 00-.151-.315 1.224 1.224 0 00-.317-.354 1.57 1.57 0 00-1.412-.138 2.029 2.029 0 00-.861 1.064c-.238.465-.475.93-.742 1.378a2.617 2.617 0 01-.572.7 1.33 1.33 0 01-.367.215c-.534.2-.91-.08-1.321-.403-.438-.342-.824-.744-1.274-1.073a1.851 1.851 0 00-.983-.43c-.637-.003-1.195.619-1.544 1.078-.195.258-.577.779-.775 1.033a3.403 3.403 0 01-.454.458 1.169 1.169 0 01-.196.138 1.101 1.101 0 01-.48.136 1.566 1.566 0 01-.869-.263 2.678 2.678 0 01-.288-.183l-.035-.027a.469.469 0 00-.734.428.392.392 0 00.024.136c0 .003.003.005.004.008a.395.395 0 00.093.14c.608.897 1.47 1.55 2.303 1.564a1.507 1.507 0 00.635-.124c.646-.285 1.13-.903 1.67-1.334a1.314 1.314 0 01.776-.33 1.038 1.038 0 01.63.215 2.122 2.122 0 01.189.144 8.916 8.916 0 01.742.753 9.93 9.93 0 00.9.85 2.53 2.53 0 001.146.56c.046.007.091.011.136.014a1.522 1.522 0 001.002-.314 4.176 4.176 0 00.745-.689 6.13 6.13 0 00.463-.664c.07-.112.143-.19.2-.308a5.769 5.769 0 01-.065.953 10.09 10.09 0 01-.212 1.288q-.062.253-.135.503-.116.397-.262.786a1.906 1.906 0 01-.072.188l-.003.007q-.088.23-.192.453a7.005 7.005 0 01-12.74-.01q-.106-.225-.195-.459l-.004-.009a10.91 10.91 0 01.426-9.024 13.024 13.024 0 011.635-2.396 8.352 8.352 0 012.132-1.946c.03-.017.057-.037.086-.055a4.168 4.168 0 014.57 0l.086.055a11.285 11.285 0 011.795 1.588l.002.002.052.053a1.183 1.183 0 00.296.212 1.36 1.36 0 001.493-.211 1.291 1.291 0 00.137-1.672c-.041-.05-.083-.1-.121-.15a8.076 8.076 0 00-.722-.763A14.069 14.069 0 0015.375.9a6.85 6.85 0 00-.118-.071A6.126 6.126 0 0012.118 0a5.748 5.748 0 00-3.033.841 3.166 3.166 0 00-.117.071A12.178 12.178 0 006.003 3.39a.455.455 0 01-.024.025 15.477 15.477 0 00-3.578 9.8 16.626 16.626 0 00.359 3.444 9.487 9.487 0 0018.478.017l.028-.13a.097.097 0 00.002-.012l.02-.103a15.856 15.856 0 00.286-2.235q.026-.454.026-.91a18.254 18.254 0 00-.142-2.28z"/></svg>