<svg viewBox="0 0 24 24" xmlns="http://www.w3.org/2000/svg"><path d="M12.075 0a3.263 3.263 0 00-2.38.955L6.216 4.431l-.53-.529c-1.2-1.055-2.822.513-1.745 1.742l.531.531L.976 9.671a3.263 3.263 0 000 4.613L4.47 17.78l-.068.066-.516.514c-1.07 1.206.472 2.816 1.707 1.775l.598-.594 3.502 3.502a3.263 3.263 0 004.615 0l8.714-8.714a3.263 3.263 0 000-4.615l.002-.002-3.486-3.488.58-.58a1.233 1.233 0 00-1.744-1.742l-.56.56L14.306.956A3.263 3.263 0 0012.075 0zM12 1.72c.394 0 .79.151 1.09.452l3.507 3.505-4.566 4.568L7.433 5.65l3.478-3.478A1.533 1.533 0 0112 1.72zM5.691 7.395l4.593 4.593-4.595 4.578-3.494-3.498a1.54 1.54 0 010-2.18zm12.626.047l3.49 3.49a1.54 1.54 0 010 2.177l-8.714 8.715a1.54 1.54 0 01-2.18 0l-3.5-3.5z"/></svg>