<svg viewBox="0 0 24 24" xmlns="http://www.w3.org/2000/svg"><path d="M15.145 14.103a.17.17 0 01.086-.269l1.716-.42c.126-.037.136-.173.123-.229a.166.166 0 00-.021-.04L13.07 8.163c-.073-.102-.03-.228.074-.266l1.345-.433a.167.167 0 00.08-.256L9.557.08a.154.154 0 00-.189-.068L.1 4.03a.17.17 0 00-.03.29l5.167 3.673a.16.16 0 01.068.151.173.173 0 01-.056.115l-.04.024-1.215.532a.17.17 0 00-.09.096v.04a.182.182 0 00.069.154l5.325 3.842c.11.085.074.243-.04.294l-1.58.618a.168.168 0 00-.021.3L20.77 21.73c.15.063.29-.11.198-.244l-5.823-7.384zm.148-7.402a1.07 1.07 0 01.136.927 1.045 1.045 0 01-.667.661l-.362.118 3.32 4.19a1.048 1.048 0 01-.566 1.673l-.618.155 4.481 5.677a11.677 11.677 0 00-8.7-19.471c-.414 0-.822.021-1.236.061zm-8.082 8.227a1.05 1.05 0 01.139-1.882l.377-.145L3.46 9.81a1.05 1.05 0 01.191-1.811l.062-.028-1.69-1.187A11.68 11.68 0 0019.12 21.805z"/></svg>