<svg viewBox="0 0 24 24" xmlns="http://www.w3.org/2000/svg"><path d="M4.157 0A4.151 4.151 0 000 4.161v15.678A4.151 4.151 0 004.157 24h15.682A4.152 4.152 0 0024 19.839V4.161A4.152 4.152 0 0019.839 0H4.157zm10.61 8.761h.03a.577.577 0 01.23.038.585.585 0 01.201.124.63.63 0 01.162.431.612.612 0 01-.162.435.58.58 0 01-.201.128.58.58 0 01-.23.042.529.529 0 01-.235-.042.585.585 0 01-.332-.328.559.559 0 01-.038-.235.613.613 0 01.17-.431.59.59 0 01.405-.162zm2.853 1.572c.03.004.061.004.095.004.325-.011.646.064.937.219.238.144.431.355.552.609.128.279.189.582.185.888v.193a2 2 0 010 .219h-2.498c.003.227.075.45.204.642a.78.78 0 00.646.265.714.714 0 00.484-.136.642.642 0 00.23-.318l.915.257a1.398 1.398 0 01-.28.537c-.14.159-.321.284-.521.355a2.234 2.234 0 01-.836.136 1.923 1.923 0 01-1.001-.245 1.618 1.618 0 01-.665-.703 2.221 2.221 0 01-.227-1.036 1.95 1.95 0 01.48-1.398 1.9 1.9 0 011.3-.488zm-9.607.023c.162.004.325.026.48.079.207.065.4.174.563.314.26.302.393.692.366 1.088v2.276H8.53l-.109-.711h-.065c-.064.163-.155.31-.272.439a1.122 1.122 0 01-.374.264 1.023 1.023 0 01-.453.083 1.334 1.334 0 01-.866-.264.965.965 0 01-.329-.801.993.993 0 01.076-.431 1.02 1.02 0 01.242-.363 1.478 1.478 0 011.043-.303h.952v-.181a.696.696 0 00-.136-.454.553.553 0 00-.438-.154.695.695 0 00-.378.086.48.48 0 00-.193.254l-.99-.144a1.26 1.26 0 01.257-.563c.14-.174.321-.302.533-.378.261-.091.54-.136.82-.129.053-.003.106-.007.163-.007zm4.384.007c.174 0 .347.038.506.114.182.083.34.211.458.374.257.423.377.911.351 1.406a2.53 2.53 0 01-.355 1.448 1.148 1.148 0 01-1.009.517c-.204 0-.401-.045-.582-.136a1.052 1.052 0 01-.48-.457 1.298 1.298 0 01-.114-.234h-.045l.004 1.784h-1.059v-4.713h.904l.117.805h.057c.068-.208.177-.401.328-.56a1.129 1.129 0 01.843-.344h.076v-.004zm7.559.084h.903l.113.805h.053a1.37 1.37 0 01.235-.484.813.813 0 01.313-.242.82.82 0 01.39-.076h.234v1.051h-.401a.662.662 0 00-.313.008.623.623 0 00-.272.155.663.663 0 00-.174.26.683.683 0 00-.027.314v1.875h-1.054v-3.666zm-17.515.003h3.262v.896L3.73 13.104l.034.113h1.973l.042.9H2.4v-.9l1.931-1.754-.045-.117H2.441v-.896zm11.815 0h1.055v3.659h-1.055V10.45zm3.443.684l.019.016a.69.69 0 00-.351.045.756.756 0 00-.287.204c-.11.155-.174.336-.189.522h1.545c-.034-.526-.257-.787-.74-.787h.003zm-5.718.163c-.026 0-.057 0-.083.004a.78.78 0 00-.31.053.746.746 0 00-.257.189 1.016 1.016 0 00-.204.695v.064c-.015.257.057.507.204.711a.634.634 0 00.253.196.638.638 0 00.314.061.644.644 0 00.578-.265c.14-.223.204-.48.189-.74a1.216 1.216 0 00-.181-.711.677.677 0 00-.503-.257zm-4.509 1.266a.464.464 0 00-.268.102.373.373 0 00-.114.276c0 .053.008.106.027.155a.375.375 0 00.087.132.576.576 0 00.397.11v.004a.863.863 0 00.563-.182.573.573 0 00.211-.457v-.14h-.903z"/></svg>