<svg viewBox="0 0 24 24" xmlns="http://www.w3.org/2000/svg"><path d="M4.01 0A3.999 3.999 0 00.014 4v16c0 2.209 1.79 4 3.996 4h15.98a3.998 3.998 0 003.996-4V4c0-2.209-1.79-4-3.996-4zm-.672 2.834h17.326a.568.568 0 110 1.137h-8.129a.566.566 0 01.033.19v1.804A6.06 6.06 0 0118.057 12c0 3.157-2.41 5.75-5.489 6.037v2.56a.568.568 0 11-1.136 0v-2.56A6.061 6.061 0 015.943 12a6.06 6.06 0 015.489-6.035V4.16c0-.066.012-.13.033-.19H3.338a.568.568 0 110-1.136zm8.094 4.307A4.89 4.89 0 007.113 12a4.89 4.89 0 004.319 4.86zm1.136 0v9.718A4.892 4.892 0 0016.888 12a4.892 4.892 0 00-4.32-4.86z"/></svg>