<svg viewBox="0 0 24 24" xmlns="http://www.w3.org/2000/svg"><path d="M18.555 18.69a3 3 0 00-2.52-2.865h-6.3l7.26-6.945a2.145 2.145 0 00.495-2.34 2.1 2.1 0 00-2.205-1.23h-9a2.79 2.79 0 002.19 2.895h5.175L6 15.375a2.01 2.01 0 00-.42 2.13 1.965 1.965 0 002.115 1.185zM2.85 18.6a2.535 2.535 0 002.55 2.535h13.2a2.536 2.537 0 002.55-2.535V7.92A2.865 2.865 0 0124 5.31V18.6a5.385 5.385 0 01-5.4 5.4H5.4A5.385 5.385 0 010 18.6V5.4A5.385 5.385 0 015.4 0h13.2a5.595 5.595 0 012.07.405A5.235 5.235 0 0122.635 1.8a1.5 1.5 0 01.42 1.005 1.41 1.41 0 01-.42 1.02 1.5 1.5 0 01-2.025 0A2.685 2.685 0 0019.59 3a2.43 2.43 0 00-.99-.195H5.4A2.505 2.505 0 002.865 5.4z"/></svg>