<svg xmlns="http://www.w3.org/2000/svg" viewBox="0 0 24 24" fill="none" stroke="currentColor" stroke-width="2" stroke-linecap="round" stroke-linejoin="round" class="icon icon-tabler icons-tabler-outline icon-tabler-ball-american-football-off"><path d="M0 0h24v24H0z" stroke="none"/><path d="M15 9l-1 1m-2 2l-3 3M10 12l2 2M8 21a5 5 0 00-5-5"/><path d="M6.813 6.802A12.96 12.96 0 003 16a5 5 0 005 5 12.96 12.96 0 009.186-3.801m1.789-2.227A12.94 12.94 0 0021 8a5 5 0 00-5-5 12.94 12.94 0 00-6.967 2.022M16 3a5 5 0 005 5M3 3l18 18"/></svg>