<svg xmlns="http://www.w3.org/2000/svg" viewBox="0 0 24 24" fill="none" stroke="currentColor" stroke-width="2" stroke-linecap="round" stroke-linejoin="round" class="icon icon-tabler icons-tabler-outline icon-tabler-basket-heart"><path d="M0 0h24v24H0z" stroke="none"/><path d="M17 10l-2-6M7 10l2-6M10.5 20H7.244a3 3 0 01-2.965-2.544l-1.255-7.152A2 2 0 015.001 8H19a2 2 0 011.977 2.304l-.143.817M12.602 12.092a2 2 0 00-2.233 3.066"/><path d="M18 22l3.35-3.284a2.143 2.143 0 00.005-3.071 2.242 2.242 0 00-3.129-.006l-.224.22-.223-.22a2.242 2.242 0 00-3.128-.006 2.143 2.143 0 00-.006 3.071L18 22z"/></svg>