<svg xmlns="http://www.w3.org/2000/svg" viewBox="0 0 24 24" fill="none" stroke="currentColor" stroke-width="2" stroke-linecap="round" stroke-linejoin="round" class="icon icon-tabler icons-tabler-outline icon-tabler-basket-pin"><path d="M0 0h24v24H0z" stroke="none"/><path d="M17 10l-2-6M7 10l2-6M12 20H7.244a3 3 0 01-2.965-2.544l-1.255-7.152A2 2 0 015.001 8H19a2 2 0 011.977 2.304l-.161.92M13.866 13.28A2 2 0 1012 16M21.121 20.121a3 3 0 10-4.242 0c.418.419 1.125 1.045 2.121 1.879 1.051-.89 1.759-1.516 2.121-1.879zM19 18v.01"/></svg>