<svg xmlns="http://www.w3.org/2000/svg" viewBox="0 0 24 24" fill="none" stroke="currentColor" stroke-width="2" stroke-linecap="round" stroke-linejoin="round" class="icon icon-tabler icons-tabler-outline icon-tabler-beach-off"><path d="M0 0h24v24H0z" stroke="none"/><path d="M15.071 15.102a7.502 7.502 0 00-8.124 1.648M10.27 6.269L20.196 12a6 6 0 00-10.32-6.123"/><path d="M16.732 10C18.39 7.13 18.957 4.356 18 3.804 17.043 3.252 14.925 5.13 13.268 8M15 9l-.739 1.279M12.794 12.82L12 14.196M3 19.25A2.4 2.4 0 014 19a2.4 2.4 0 012 1 2.4 2.4 0 002 1 2.4 2.4 0 002-1 2.4 2.4 0 012-1 2.4 2.4 0 012 1 2.4 2.4 0 002 1 2.4 2.4 0 002-1 2.4 2.4 0 011.135-.858M3 3l18 18"/></svg>