<svg xmlns="http://www.w3.org/2000/svg" viewBox="0 0 24 24" fill="none" stroke="currentColor" stroke-width="2" stroke-linecap="round" stroke-linejoin="round" class="icon icon-tabler icons-tabler-outline icon-tabler-bell-cog"><path d="M0 0h24v24H0z" stroke="none"/><path d="M12 17H4a4 4 0 002-3v-3a7 7 0 014-6 2 2 0 114 0 7 7 0 014 6v.5M17.001 19a2 2 0 104 0 2 2 0 10-4 0M19.001 15.5V17M19.001 21v1.5M22.032 17.25l-1.299.75M17.27 20l-1.3.75M15.97 17.25l1.3.75M20.733 20l1.3.75M9 17v1a3 3 0 003 3"/></svg>