<svg xmlns="http://www.w3.org/2000/svg" viewBox="0 0 24 24" fill="none" stroke="currentColor" stroke-width="2" stroke-linecap="round" stroke-linejoin="round" class="icon icon-tabler icons-tabler-outline icon-tabler-bottle-off"><path d="M0 0h24v24H0z" stroke="none"/><path d="M10 5h4V3a1 1 0 00-1-1h-2a1 1 0 00-1 1v2z"/><path d="M14 3.5c0 1.626.507 3.212 1.45 4.537l.05.07a8.093 8.093 0 011.5 4.694V13m0 4v2a2 2 0 01-2 2H9a2 2 0 01-2-2v-6.2a8.09 8.09 0 011.35-4.474m1.336-2.63A7.822 7.822 0 0010 3.5"/><path d="M7 14.803A2.4 2.4 0 008 14a2.4 2.4 0 012-1 2.4 2.4 0 012 1 2.4 2.4 0 002 1 2.4 2.4 0 00.866-.142M3 3l18 18"/></svg>