<svg xmlns="http://www.w3.org/2000/svg" viewBox="0 0 24 24" fill="none" stroke="currentColor" stroke-width="2" stroke-linecap="round" stroke-linejoin="round" class="icon icon-tabler icons-tabler-outline icon-tabler-brain"><path d="M0 0h24v24H0z" stroke="none"/><path d="M15.5 13a3.5 3.5 0 00-3.5 3.5v1a3.5 3.5 0 007 0v-1.8M8.5 13a3.5 3.5 0 013.5 3.5v1a3.5 3.5 0 01-7 0v-1.8"/><path d="M17.5 16a3.5 3.5 0 000-7H17"/><path d="M19 9.3V6.5a3.5 3.5 0 00-7 0M6.5 16a3.5 3.5 0 010-7H7"/><path d="M5 9.3V6.5a3.5 3.5 0 017 0v10"/></svg>