<svg xmlns="http://www.w3.org/2000/svg" viewBox="0 0 24 24" fill="none" stroke="currentColor" stroke-width="2" stroke-linecap="round" stroke-linejoin="round" class="icon icon-tabler icons-tabler-outline icon-tabler-brand-minecraft"><path d="M0 0h24v24H0z" stroke="none"/><path d="M21 16.008V7.99a1.98 1.98 0 00-1-1.717l-7-4.008a2.016 2.016 0 00-2 0L4 6.273c-.619.355-1 1.01-1 1.718v8.018c0 .709.381 1.363 1 1.717l7 4.008c.62.354 1.38.354 2 0l7-4.008c.619-.355 1-1.01 1-1.718zM12 22V12M12 12l8.73-5.04M3.27 6.96L12 12M12 17l3.003-1.668m3-1.667L21 12m-9 5l-9-5"/><path d="M15 17l3-1.67v-3L15 14z"/></svg>