<svg xmlns="http://www.w3.org/2000/svg" viewBox="0 0 24 24" fill="none" stroke="currentColor" stroke-width="2" stroke-linecap="round" stroke-linejoin="round" class="icon icon-tabler icons-tabler-outline icon-tabler-brand-google-analytics"><path d="M0 0h24v24H0z" stroke="none"/><path d="M10 10.105A1.105 1.105 0 0111.105 9h1.79A1.105 1.105 0 0114 10.105v9.79A1.105 1.105 0 0112.895 21h-1.79A1.105 1.105 0 0110 19.895zM17 4.105A1.105 1.105 0 0118.105 3h1.79A1.105 1.105 0 0121 4.105v15.79A1.105 1.105 0 0119.895 21h-1.79A1.105 1.105 0 0117 19.895zM3 19a2 2 0 104 0 2 2 0 10-4 0"/></svg>