<svg xmlns="http://www.w3.org/2000/svg" viewBox="0 0 24 24" fill="none" stroke="currentColor" stroke-width="2" stroke-linecap="round" stroke-linejoin="round" class="icon icon-tabler icons-tabler-outline icon-tabler-brand-php"><path d="M0 0h24v24H0z" stroke="none"/><path d="M2 12a10 9 0 1020 0 10 9 0 10-20 0"/><path d="M5.5 15l.395-1.974L6.5 10h1.32a1 1 0 01.986 1.164l-.167 1a1 1 0 01-.986.836H6M15.5 15l.395-1.974L16.5 10h1.32a1 1 0 01.986 1.164l-.167 1a1 1 0 01-.986.836H16M12 7.5L11 13M11.6 10H14l-.5 3"/></svg>