<svg xmlns="http://www.w3.org/2000/svg" viewBox="0 0 24 24" fill="none" stroke="currentColor" stroke-width="2" stroke-linecap="round" stroke-linejoin="round" class="icon icon-tabler icons-tabler-outline icon-tabler-building-cog"><path d="M0 0h24v24H0z" stroke="none"/><path d="M3 21h9M9 8h1M9 12h1M9 16h1M14 8h1M14 12h1M5 21V5a2 2 0 012-2h10a2 2 0 012 2v7M16 18a2 2 0 104.001-.001A2 2 0 0016 18zM18 14.5V16M18 20v1.5M21.032 16.25l-1.299.75M16.27 19l-1.3.75M14.97 16.25l1.3.75M19.733 19l1.3.75"/></svg>