<svg xmlns="http://www.w3.org/2000/svg" viewBox="0 0 24 24" fill="none" stroke="currentColor" stroke-width="2" stroke-linecap="round" stroke-linejoin="round" class="icon icon-tabler icons-tabler-outline icon-tabler-building-airport"><path d="M0 0h24v24H0z" stroke="none"/><path d="M3.59 7h8.82a1 1 0 01.902 1.433l-1.44 3a1 1 0 01-.901.567H5.029a1 1 0 01-.901-.567l-1.44-3A1 1 0 013.589 7"/><path d="M6 7l-.78-2.342A.5.5 0 015.693 4h4.612a.5.5 0 01.475.658L10 7M8 2v2M6 12v9h4v-9M3 21h18M22 5h-6l-1-1"/><path d="M18 3l2 2-2 2M10 17h7a2 2 0 012 2v2"/></svg>