<svg xmlns="http://www.w3.org/2000/svg" viewBox="0 0 24 24" fill="none" stroke="currentColor" stroke-width="2" stroke-linecap="round" stroke-linejoin="round" class="icon icon-tabler icons-tabler-outline icon-tabler-camera-heart"><path d="M0 0h24v24H0z" stroke="none"/><path d="M10.5 20H5a2 2 0 01-2-2V9a2 2 0 012-2h1a2 2 0 002-2 1 1 0 011-1h6a1 1 0 011 1 2 2 0 002 2h1a2 2 0 012 2v2M14.41 11.212a3 3 0 10-4.15 4.231"/><path d="M18 22l3.35-3.284a2.143 2.143 0 00.005-3.071 2.242 2.242 0 00-3.129-.006l-.224.22-.223-.22a2.242 2.242 0 00-3.128-.006 2.143 2.143 0 00-.006 3.071L18 22z"/></svg>