<svg xmlns="http://www.w3.org/2000/svg" viewBox="0 0 24 24" fill="none" stroke="currentColor" stroke-width="2" stroke-linecap="round" stroke-linejoin="round" class="icon icon-tabler icons-tabler-outline icon-tabler-caravan"><path d="M0 0h24v24H0z" stroke="none"/><path d="M7 18a2 2 0 104 0 2 2 0 00-4 0"/><path d="M11 18h7a2 2 0 002-2V9a2 2 0 00-2-2H8.5A5.5 5.5 0 003 12.5V16a2 2 0 002 2h2M8 7l7-3 1 3"/><path d="M13 11.5a.5.5 0 01.5-.5h2a.5.5 0 01.5.5v2a.5.5 0 01-.5.5h-2a.5.5 0 01-.5-.5zM20 16h2"/></svg>