<svg xmlns="http://www.w3.org/2000/svg" viewBox="0 0 24 24" fill="none" stroke="currentColor" stroke-width="2" stroke-linecap="round" stroke-linejoin="round" class="icon icon-tabler icons-tabler-outline icon-tabler-circle-dashed-number-6"><path d="M0 0h24v24H0z" stroke="none"/><path d="M8.56 3.69a9 9 0 00-2.92 1.95M3.69 8.56A9 9 0 003 12M3.69 15.44a9 9 0 001.95 2.92M8.56 20.31A9 9 0 0012 21M15.44 20.31a9 9 0 002.92-1.95M20.31 15.44A9 9 0 0021 12M20.31 8.56a9 9 0 00-1.95-2.92M15.44 3.69A9 9 0 0012 3M14 9a1 1 0 00-1-1h-2a1 1 0 00-1 1v6a1 1 0 001 1h2a1 1 0 001-1v-2a1 1 0 00-1-1h-3"/></svg>