<svg xmlns="http://www.w3.org/2000/svg" viewBox="0 0 24 24" fill="none" stroke="currentColor" stroke-width="2" stroke-linecap="round" stroke-linejoin="round" class="icon icon-tabler icons-tabler-outline icon-tabler-color-swatch-off"><path d="M0 0h24v24H0z" stroke="none"/><path d="M13 13v4a4 4 0 006.832 2.825M21 17V5a2 2 0 00-2-2h-4a2 2 0 00-2 2v4"/><path d="M13 7.35l-2-2a2 2 0 00-2.11-.461M6.76 6.763L5.344 8.178a2 2 0 000 2.828l9 9"/><path d="M7.3 13H5a2 2 0 00-2 2v4a2 2 0 002 2h12M17 17v.01M3 3l18 18"/></svg>