<svg xmlns="http://www.w3.org/2000/svg" viewBox="0 0 24 24" fill="none" stroke="currentColor" stroke-width="2" stroke-linecap="round" stroke-linejoin="round" class="icon icon-tabler icons-tabler-outline icon-tabler-diabolo-plus"><path d="M0 0h24v24H0z" stroke="none"/><path d="M4 6a8 3 0 1016 0A8 3 0 104 6"/><path d="M4 6v.143a1 1 0 00.048.307L6 12l-1.964 5.67a1 1 0 00-.036.265V18c0 1.657 3.582 3 8 3 .17 0 .34-.002.508-.006M18 12l1.952-5.55A1 1 0 0020 6.143V6"/><path d="M6 12c0 1.105 2.686 2 6 2s6-.895 6-2M16 19h6M19 16v6"/></svg>