<svg xmlns="http://www.w3.org/2000/svg" viewBox="0 0 24 24" fill="none" stroke="currentColor" stroke-width="2" stroke-linecap="round" stroke-linejoin="round" class="icon icon-tabler icons-tabler-outline icon-tabler-droplet-star"><path d="M0 0h24v24H0z" stroke="none"/><path d="M17.496 10.034l-4.321-6.417c-.421-.625-1.288-.803-1.937-.397a1.376 1.376 0 00-.41.397l-4.893 7.26C4.24 13.715 4.9 17.318 7.502 19.423a7.106 7.106 0 003.547 1.517M17.8 20.817l-2.172 1.138a.392.392 0 01-.568-.41l.415-2.411-1.757-1.707a.389.389 0 01.217-.665l2.428-.352 1.086-2.193a.392.392 0 01.702 0l1.086 2.193 2.428.352a.39.39 0 01.217.665l-1.757 1.707.414 2.41a.39.39 0 01-.567.411L17.8 20.817z"/></svg>