<svg xmlns="http://www.w3.org/2000/svg" viewBox="0 0 24 24" fill="none" stroke="currentColor" stroke-width="2" stroke-linecap="round" stroke-linejoin="round" class="icon icon-tabler icons-tabler-outline icon-tabler-file-settings"><path d="M0 0h24v24H0z" stroke="none"/><path d="M10 14a2 2 0 104 0 2 2 0 10-4 0M12 10.5V12M12 16v1.5M15.031 12.25l-1.299.75M10.268 15l-1.3.75M15 15.803l-1.285-.773M10.285 12.97L9 12.197M14 3v4a1 1 0 001 1h4"/><path d="M17 21H7a2 2 0 01-2-2V5a2 2 0 012-2h7l5 5v11a2 2 0 01-2 2z"/></svg>