<svg xmlns="http://www.w3.org/2000/svg" viewBox="0 0 24 24" fill="none" stroke="currentColor" stroke-width="2" stroke-linecap="round" stroke-linejoin="round" class="icon icon-tabler icons-tabler-outline icon-tabler-file-infinity"><path d="M0 0h24v24H0z" stroke="none"/><path d="M15.536 17.586a2.123 2.123 0 00-2.929 0 1.951 1.951 0 000 2.828c.809.781 2.12.781 2.929 0 .809-.781-.805.778 0 0l1.46-1.41 1.46-1.419"/><path d="M15.54 17.582l1.46 1.42 1.46 1.41c.809.78-.805-.779 0 0s2.12.781 2.929 0a1.951 1.951 0 000-2.828 2.123 2.123 0 00-2.929 0M14 3v4a1 1 0 001 1h4"/><path d="M9.5 21H7a2 2 0 01-2-2V5a2 2 0 012-2h7l5 5v6"/></svg>