<svg xmlns="http://www.w3.org/2000/svg" viewBox="0 0 24 24" fill="none" stroke="currentColor" stroke-width="2" stroke-linecap="round" stroke-linejoin="round" class="icon icon-tabler icons-tabler-outline icon-tabler-file-type-rs"><path d="M0 0h24v24H0z" stroke="none"/><path d="M14 3v4a1 1 0 001 1h4"/><path d="M14 3v4a1 1 0 001 1h4M9 20.25c0 .414.336.75.75.75H11a1 1 0 001-1v-1a1 1 0 00-1-1h-1a1 1 0 01-1-1v-1a1 1 0 011-1h1.25a.75.75 0 01.75.75"/><path d="M5 12V5a2 2 0 012-2h7l5 5v11a2 2 0 01-2 2h-1M3 18h1.5a1.5 1.5 0 000-3H3v6m3 0l-2-3"/></svg>