<svg xmlns="http://www.w3.org/2000/svg" viewBox="0 0 24 24" fill="none" stroke="currentColor" stroke-width="2" stroke-linecap="round" stroke-linejoin="round" class="icon icon-tabler icons-tabler-outline icon-tabler-file-type-doc"><path d="M0 0h24v24H0z" stroke="none"/><path d="M14 3v4a1 1 0 001 1h4"/><path d="M5 12V5a2 2 0 012-2h7l5 5v4M5 15v6h1a2 2 0 002-2v-2a2 2 0 00-2-2H5zM20 16.5a1.5 1.5 0 00-3 0v3a1.5 1.5 0 003 0M12.5 15a1.5 1.5 0 011.5 1.5v3a1.5 1.5 0 01-3 0v-3a1.5 1.5 0 011.5-1.5z"/></svg>