<svg xmlns="http://www.w3.org/2000/svg" viewBox="0 0 24 24" fill="none" stroke="currentColor" stroke-width="2" stroke-linecap="round" stroke-linejoin="round" class="icon icon-tabler icons-tabler-outline icon-tabler-gavel"><path d="M0 0h24v24H0z" stroke="none"/><path d="M13 10l7.383 7.418c.823.82.823 2.148 0 2.967a2.11 2.11 0 01-2.976 0L10 13M6 9l4 4M13 10L9 6M3 21h7"/><path d="M6.793 15.793l-3.586-3.586a1 1 0 010-1.414L5.5 8.5 6 9l3-3-.5-.5 2.293-2.293a1 1 0 011.414 0l3.586 3.586a1 1 0 010 1.414L13.5 10.5 13 10l-3 3 .5.5-2.293 2.293a1 1 0 01-1.414 0z"/></svg>