<svg xmlns="http://www.w3.org/2000/svg" viewBox="0 0 24 24" fill="none" stroke="currentColor" stroke-width="2" stroke-linecap="round" stroke-linejoin="round" class="icon icon-tabler icons-tabler-outline icon-tabler-ghost-off"><path d="M0 0h24v24H0z" stroke="none"/><path d="M8.794 4.776A7 7 0 0119 11v4m-.12 3.898a1.779 1.779 0 01-2.98.502 1.65 1.65 0 00-2.6 0 1.65 1.65 0 01-2.6 0 1.65 1.65 0 00-2.6 0A1.78 1.78 0 015 18v-7c0-1.683.594-3.227 1.583-4.434M14 10h.01M10 14a3.5 3.5 0 004 0M3 3l18 18"/></svg>