<svg xmlns="http://www.w3.org/2000/svg" viewBox="0 0 24 24" fill="none" stroke="currentColor" stroke-width="2" stroke-linecap="round" stroke-linejoin="round" class="icon icon-tabler icons-tabler-outline icon-tabler-hand-finger-off"><path d="M0 0h24v24H0z" stroke="none"/><path d="M8 13V8M8.06 4.077A1.5 1.5 0 0111 4.5V7m0 4v1M12.063 8.065A1.5 1.5 0 0114 9.5v.5M14.06 10.082A1.5 1.5 0 0117 10.5V12"/><path d="M17 11.5a1.5 1.5 0 013 0V16m-.88 3.129A6 6 0 0114 22h-2 .208a6 6 0 01-5.012-2.7L7 19c-.312-.479-1.407-2.388-3.286-5.728a1.5 1.5 0 01.536-2.022 1.867 1.867 0 012.28.28L8 13M3 3l18 18"/></svg>