<svg xmlns="http://www.w3.org/2000/svg" viewBox="0 0 24 24" fill="none" stroke="currentColor" stroke-width="2" stroke-linecap="round" stroke-linejoin="round" class="icon icon-tabler icons-tabler-outline icon-tabler-ikosaedr"><path d="M0 0h24v24H0z" stroke="none"/><path d="M21 8.007v7.986a2 2 0 01-1.006 1.735l-7 4.007a2 2 0 01-1.988 0l-7-4.007A2 2 0 013 15.993V8.007a2 2 0 011.006-1.735l7-4.007a2 2 0 011.988 0l7 4.007A2 2 0 0121 8.007M3.29 6.97L7.5 9M20.71 6.97L16.5 9M20.7 17H3.3"/><path d="M11.76 2.03L7.5 9l-4.3 7.84M12.24 2.03Q15.037 6.47 16.5 9t4.3 7.84"/><path d="M12 17L7.5 9h9zM12 17v5"/></svg>