<svg xmlns="http://www.w3.org/2000/svg" viewBox="0 0 24 24" fill="none" stroke="currentColor" stroke-width="2" stroke-linecap="round" stroke-linejoin="round" class="icon icon-tabler icons-tabler-outline icon-tabler-mail-heart"><path d="M0 0h24v24H0z" stroke="none"/><path d="M10.5 19H5a2 2 0 01-2-2V7a2 2 0 012-2h14a2 2 0 012 2v4"/><path d="M3 7l9 6 2.983-1.989L21 7M18 22l3.35-3.284a2.143 2.143 0 00.005-3.071 2.242 2.242 0 00-3.129-.006l-.224.22-.223-.22a2.242 2.242 0 00-3.128-.006 2.143 2.143 0 00-.006 3.071L18 22z"/></svg>