<svg xmlns="http://www.w3.org/2000/svg" viewBox="0 0 24 24" fill="none" stroke="currentColor" stroke-width="2" stroke-linecap="round" stroke-linejoin="round" class="icon icon-tabler icons-tabler-outline icon-tabler-map-pin-heart"><path d="M0 0h24v24H0z" stroke="none"/><path d="M15 11a3 3 0 10-3.973 2.839M11.76 21.47a1.991 1.991 0 01-1.173-.57l-4.244-4.243A8 8 0 1120 11.069"/><path d="M18 22l3.35-3.284a2.143 2.143 0 00.005-3.071 2.242 2.242 0 00-3.129-.006l-.224.22-.223-.22a2.242 2.242 0 00-3.128-.006 2.143 2.143 0 00-.006 3.071L18 22z"/></svg>