<svg xmlns="http://www.w3.org/2000/svg" viewBox="0 0 24 24" fill="none" stroke="currentColor" stroke-width="2" stroke-linecap="round" stroke-linejoin="round" class="icon icon-tabler icons-tabler-outline icon-tabler-masks-theater-off"><path d="M0 0h24v24H0z" stroke="none"/><path d="M13 9h6.808a2 2 0 011.992 2.183l-.554 6.041m-1.286 2.718A3.99 3.99 0 0117.25 21h-1.5a4 4 0 01-3.983-3.635l-.567-6.182M18 13h.01M15 16.5c.657.438 1.313.588 1.97.451M8.632 15.982A4.05 4.05 0 018.25 16h-1.5a4 4 0 01-3.983-3.635L2.2 6.183a2 2 0 01.514-1.531A1.99 1.99 0 014 4m4 0h2.808a2 2 0 012 2M6 8h.01M6 12c.764-.51 1.528-.63 2.291-.36M3 3l18 18"/></svg>