<svg xmlns="http://www.w3.org/2000/svg" viewBox="0 0 24 24" fill="none" stroke="currentColor" stroke-width="2" stroke-linecap="round" stroke-linejoin="round" class="icon icon-tabler icons-tabler-outline icon-tabler-message-circle-heart"><path d="M0 0h24v24H0z" stroke="none"/><path d="M10.59 19.88A9.763 9.763 0 017.7 19L3 20l1.3-3.9C1.976 12.663 2.874 8.228 6.4 5.726c3.526-2.501 8.59-2.296 11.845.48 1.565 1.335 2.479 3.065 2.71 4.861"/><path d="M18 22l3.35-3.284a2.143 2.143 0 00.005-3.071 2.242 2.242 0 00-3.129-.006l-.224.22-.223-.22a2.242 2.242 0 00-3.128-.006 2.143 2.143 0 00-.006 3.071L18 22z"/></svg>