<svg xmlns="http://www.w3.org/2000/svg" viewBox="0 0 24 24" fill="none" stroke="currentColor" stroke-width="2" stroke-linecap="round" stroke-linejoin="round" class="icon icon-tabler icons-tabler-outline icon-tabler-olympics-off"><path d="M0 0h24v24H0z" stroke="none"/><path d="M6 6a3 3 0 103 3M15 9a3 3 0 106 0 3 3 0 10-6 0"/><path d="M9 9a3 3 0 003 3m2.566-1.445a3 3 0 00-4.135-4.113M6 15a3 3 0 106 0 3 3 0 10-6 0"/><path d="M12.878 12.88a3 3 0 004.239 4.247m.586-3.431a3.012 3.012 0 00-1.43-1.414M3 3l18 18"/></svg>