<svg xmlns="http://www.w3.org/2000/svg" viewBox="0 0 24 24" fill="none" stroke="currentColor" stroke-width="2" stroke-linecap="round" stroke-linejoin="round" class="icon icon-tabler icons-tabler-outline icon-tabler-paper-bag-off"><path d="M0 0h24v24H0z" stroke="none"/><path d="M7.158 3.185C7.414 3.066 7.7 3 8 3h8a2 2 0 012 2v1.82a5 5 0 00.528 2.236l.944 1.888A5 5 0 0120 13.18V16m-.177 3.824A2 2 0 0118 21H6a2 2 0 01-2-2v-5.82a5 5 0 01.528-2.236L6 8V6M13.185 13.173a2 2 0 102.64 2.647"/><path d="M6 21a2 2 0 002-2v-5.82a5 5 0 00-.528-2.236L6 8M11 7h2M3 3l18 18"/></svg>