<svg xmlns="http://www.w3.org/2000/svg" viewBox="0 0 24 24" fill="none" stroke="currentColor" stroke-width="2" stroke-linecap="round" stroke-linejoin="round" class="icon icon-tabler icons-tabler-outline icon-tabler-pentagon-number-8"><path d="M0 0h24v24H0z" stroke="none"/><path d="M13.163 2.168l8.021 5.828c.694.504.984 1.397.719 2.212l-3.064 9.43a1.978 1.978 0 01-1.881 1.367H7.042a1.978 1.978 0 01-1.881-1.367l-3.064-9.43a1.978 1.978 0 01.719-2.212l8.021-5.828a1.978 1.978 0 012.326 0z"/><path d="M12 12h-1a1 1 0 01-1-1V9a1 1 0 011-1h2a1 1 0 011 1v2a1 1 0 01-1 1h-2a1 1 0 00-1 1v2a1 1 0 001 1h2a1 1 0 001-1v-2a1 1 0 00-1-1"/></svg>