<svg xmlns="http://www.w3.org/2000/svg" viewBox="0 0 24 24" fill="none" stroke="currentColor" stroke-width="2" stroke-linecap="round" stroke-linejoin="round" class="icon icon-tabler icons-tabler-outline icon-tabler-photo-cog"><path d="M0 0h24v24H0z" stroke="none"/><path d="M15 8h.01M12 21H6a3 3 0 01-3-3V6a3 3 0 013-3h12a3 3 0 013 3v6"/><path d="M3 16l5-5c.928-.893 2.072-.893 3 0l3 3M14 14l1-1c.48-.461 1.016-.684 1.551-.67M17.001 19a2 2 0 104 0 2 2 0 10-4 0M19.001 15.5V17M19.001 21v1.5M22.032 17.25l-1.299.75M17.27 20l-1.3.75M15.97 17.25l1.3.75M20.733 20l1.3.75"/></svg>