<svg xmlns="http://www.w3.org/2000/svg" viewBox="0 0 24 24" fill="none" stroke="currentColor" stroke-width="2" stroke-linecap="round" stroke-linejoin="round" class="icon icon-tabler icons-tabler-outline icon-tabler-pig"><path d="M0 0h24v24H0z" stroke="none"/><path d="M15 11v.01M16 3v3.803A6.019 6.019 0 0118.658 10h1.341a1 1 0 011 1v2a1 1 0 01-1 1h-1.342a6.008 6.008 0 01-1.658 2.473V18.5a1.5 1.5 0 01-3 0v-.583a6.04 6.04 0 01-1 .083h-4a6.04 6.04 0 01-1-.083v.583a1.5 1.5 0 01-3 0v-2.027A6 6 0 018.999 6h2.5l4.5-3z"/></svg>