<svg xmlns="http://www.w3.org/2000/svg" viewBox="0 0 24 24" fill="none" stroke="currentColor" stroke-width="2" stroke-linecap="round" stroke-linejoin="round" class="icon icon-tabler icons-tabler-outline icon-tabler-play-card-star"><path d="M0 0h24v24H0z" stroke="none"/><path d="M19 5v14a2 2 0 01-2 2H7a2 2 0 01-2-2V5a2 2 0 012-2h10a2 2 0 012 2M8 6h.01M16 18h.01"/><path d="M11.75 14.112l-1.63.853a.294.294 0 01-.425-.307l.31-1.808-1.317-1.28a.292.292 0 01.163-.499l1.82-.264.815-1.644a.294.294 0 01.527 0l.814 1.644 1.82.264a.292.292 0 01.164.499l-1.318 1.28.31 1.807a.292.292 0 01-.425.308z"/></svg>