<svg xmlns="http://www.w3.org/2000/svg" viewBox="0 0 24 24" fill="none" stroke="currentColor" stroke-width="2" stroke-linecap="round" stroke-linejoin="round" class="icon icon-tabler icons-tabler-outline icon-tabler-pool-off"><path d="M0 0h24v24H0z" stroke="none"/><path d="M2 20a2.4 2.4 0 002 1 2.4 2.4 0 002-1 2.4 2.4 0 012-1 2.4 2.4 0 012 1 2.4 2.4 0 002 1 2.4 2.4 0 002-1 2.4 2.4 0 012-1 2.4 2.4 0 012 1 2.4 2.4 0 002 1c.303 0 .6-.045.876-.146M2 16a2.4 2.4 0 002 1 2.4 2.4 0 002-1 2.4 2.4 0 012-1 2.4 2.4 0 012 1 2.4 2.4 0 002 1 2.4 2.4 0 002-1 2.4 2.4 0 011.13-.856m5.727 1.717A2.4 2.4 0 0022 16M15 11V4.5a1.5 1.5 0 013 0M9 12V9m0-4v-.5a1.5 1.5 0 00-1.936-1.436M15 5H9M9 10h1m4 0h1M3 3l18 18"/></svg>