<svg xmlns="http://www.w3.org/2000/svg" viewBox="0 0 24 24" fill="none" stroke="currentColor" stroke-width="2" stroke-linecap="round" stroke-linejoin="round" class="icon icon-tabler icons-tabler-outline icon-tabler-rectangular-prism-off"><path d="M0 0h24v24H0z" stroke="none"/><path d="M8.18 8.18L4 10.273c-.619.355-1 1.01-1 1.718v5.018c0 .709.381 1.363 1 1.717l4 2.008a2.016 2.016 0 002 0l7.146-3.578m2.67-1.337l.184-.093c.619-.355 1-1.01 1-1.718V8.99a1.98 1.98 0 00-1-1.717l-4-2.008a2.016 2.016 0 00-2 0L10.854 6.84M9 21v-7.5M9 13.5l3.048-1.458m2.71-1.296L20.5 8M3.5 11L9 13.5M3 3l18 18"/></svg>