<svg xmlns="http://www.w3.org/2000/svg" viewBox="0 0 24 24" fill="none" stroke="currentColor" stroke-width="2" stroke-linecap="round" stroke-linejoin="round" class="icon icon-tabler icons-tabler-outline icon-tabler-rollercoaster-off"><path d="M0 0h24v24H0z" stroke="none"/><path d="M3 21a5.55 5.55 0 005.265-3.795L9 15a8.759 8.759 0 012.35-3.652m2.403-1.589A8.76 8.76 0 0117.325 9H21M20 9v7m0 4v1M8 21v-3M12 21v-9M16 9.5V12m0 4v5M15 3h5v3h-5zM9.446 5.415L10 5l2 2.5-.285.213M9.447 9.415L8 10.5 6.2 10 6 8l1.139-.854M3 3l18 18"/></svg>