<svg xmlns="http://www.w3.org/2000/svg" viewBox="0 0 24 24" fill="none" stroke="currentColor" stroke-width="2" stroke-linecap="round" stroke-linejoin="round" class="icon icon-tabler icons-tabler-outline icon-tabler-sailboat-off"><path d="M0 0h24v24H0z" stroke="none"/><path d="M2 20a2.4 2.4 0 002 1 2.4 2.4 0 002-1 2.4 2.4 0 012-1 2.4 2.4 0 012 1 2.4 2.4 0 002 1 2.4 2.4 0 002-1 2.4 2.4 0 012-1 2.4 2.4 0 012 1 2.4 2.4 0 002 1 2.4 2.4 0 002-1M4 18l-1-3h12m4 0h2l-.506 1.517M11 11v1h1m4 0h2l-7-9v4M7.713 7.718L6 12M3 3l18 18"/></svg>