<svg xmlns="http://www.w3.org/2000/svg" viewBox="0 0 24 24" fill="none" stroke="currentColor" stroke-width="2" stroke-linecap="round" stroke-linejoin="round" class="icon icon-tabler icons-tabler-outline icon-tabler-scuba-mask-off"><path d="M0 0h24v24H0z" stroke="none"/><path d="M11 7h5a1 1 0 011 1v4.5c0 .154-.014.304-.04.45m-2 2.007c-.15.028-.305.043-.463.043h-.5a2 2 0 01-2-2 2 2 0 10-4 0 2 2 0 01-2 2h-.5a2.5 2.5 0 01-2.5-2.5V8a1 1 0 011-1h3M10 17a2 2 0 002 2h3.5a5.475 5.475 0 002.765-.744m2-2c.47-.81.739-1.752.739-2.756V4M3 3l18 18"/></svg>