<svg xmlns="http://www.w3.org/2000/svg" viewBox="0 0 24 24" fill="none" stroke="currentColor" stroke-width="2" stroke-linecap="round" stroke-linejoin="round" class="icon icon-tabler icons-tabler-outline icon-tabler-stethoscope-off"><path d="M0 0h24v24H0z" stroke="none"/><path d="M4.172 4.179A2 2 0 003 6v3.5a5.5 5.5 0 009.856 3.358M14 10V6a2 2 0 00-2-2h-1"/><path d="M8 15a6 6 0 0010.714 3.712m1.216-2.798c.046-.3.07-.605.07-.914v-3M11 3v2"/><path d="M18 10a2 2 0 104 0 2 2 0 10-4 0M3 3l18 18"/></svg>