<svg xmlns="http://www.w3.org/2000/svg" viewBox="0 0 24 24" fill="none" stroke="currentColor" stroke-width="2" stroke-linecap="round" stroke-linejoin="round" class="icon icon-tabler icons-tabler-outline icon-tabler-storm-off"><path d="M0 0h24v24H0z" stroke="none"/><path d="M9.884 9.874a3 3 0 104.24 4.246m.57-3.441a3.012 3.012 0 00-1.41-1.39"/><path d="M7.037 7.063a7 7 0 009.907 9.892m1.585-2.426A7 7 0 009.471 5.47M5.369 14.236c-1.605-3.428-1.597-6.673-1-9.849"/><path d="M18.63 9.76a14.323 14.323 0 011.368 6.251m-.37 3.608c-.087.46-.187.92-.295 1.377M3 3l18 18"/></svg>