<svg xmlns="http://www.w3.org/2000/svg" viewBox="0 0 24 24" fill="none" stroke="currentColor" stroke-width="2" stroke-linecap="round" stroke-linejoin="round" class="icon icon-tabler icons-tabler-outline icon-tabler-vector-bezier"><path d="M0 0h24v24H0z" stroke="none"/><path d="M3 15a1 1 0 011-1h2a1 1 0 011 1v2a1 1 0 01-1 1H4a1 1 0 01-1-1zM17 15a1 1 0 011-1h2a1 1 0 011 1v2a1 1 0 01-1 1h-2a1 1 0 01-1-1zM10 7a1 1 0 011-1h2a1 1 0 011 1v2a1 1 0 01-1 1h-2a1 1 0 01-1-1zM10 8.5A6 6 0 005 14M14 8.5a6 6 0 015 5.5M10 8H4M20 8h-6M2 8a1 1 0 102 0 1 1 0 10-2 0M20 8a1 1 0 102 0 1 1 0 10-2 0"/></svg>