<svg xmlns="http://www.w3.org/2000/svg" viewBox="0 0 24 24" fill="none" stroke="currentColor" stroke-width="2" stroke-linecap="round" stroke-linejoin="round" class="icon icon-tabler icons-tabler-outline icon-tabler-view-360-number"><path d="M0 0h24v24H0z" stroke="none"/><path d="M14 6a1 1 0 00-1-1h-2a1 1 0 00-1 1v6a1 1 0 001 1h2a1 1 0 001-1v-2a1 1 0 00-1-1h-3M3 5h2.5A1.5 1.5 0 017 6.5v1A1.5 1.5 0 015.5 9H4h1.5A1.5 1.5 0 017 10.5v1A1.5 1.5 0 015.5 13H3M17 7v4a2 2 0 104 0V7a2 2 0 10-4 0zM3 16c0 1.657 4.03 3 9 3s9-1.343 9-3"/></svg>