<svg xmlns="http://www.w3.org/2000/svg" viewBox="0 0 24 24" fill="none" stroke="currentColor" stroke-width="2" stroke-linecap="round" stroke-linejoin="round" class="icon icon-tabler icons-tabler-outline icon-tabler-volume-off"><path d="M0 0h24v24H0z" stroke="none"/><path d="M15 8a5 5 0 011.912 4.934m-1.377 2.602A5 5 0 0115 16M17.7 5a9 9 0 012.362 11.086m-1.676 2.299A9 9 0 0117.7 19M9.069 5.054L9.5 4.5A.8.8 0 0111 5v2m0 4v8a.8.8 0 01-1.5.5L6 15H4a1 1 0 01-1-1v-4a1 1 0 011-1h2l1.294-1.664M3 3l18 18"/></svg>