<svg xmlns="http://www.w3.org/2000/svg" viewBox="0 0 24 24" fill="none" stroke="currentColor" stroke-width="2" stroke-linecap="round" stroke-linejoin="round" class="icon icon-tabler icons-tabler-outline icon-tabler-world-heart"><path d="M0 0h24v24H0z" stroke="none"/><path d="M21 12a9 9 0 10-9.679 8.974M3.6 9h16.8M3.6 15h6.9M11.5 3a17 17 0 000 18M12.5 3a16.983 16.983 0 012.556 8.136"/><path d="M18 22l3.35-3.284a2.143 2.143 0 00.005-3.071 2.242 2.242 0 00-3.129-.006l-.224.22-.223-.22a2.242 2.242 0 00-3.128-.006 2.143 2.143 0 00-.006 3.071L18 22z"/></svg>