<svg viewBox="0 0 16 16" fill="none" xmlns="http://www.w3.org/2000/svg"><path d="M7.55 10.078c.46.182.879.424 1.257.725.378.3.702.65.97 1.046a4.826 4.826 0 01.848 2.714V15H9.75v-.438a3.894 3.894 0 00-1.155-2.782 4.054 4.054 0 00-1.251-.84 3.898 3.898 0 00-1.531-.315A3.894 3.894 0 003.03 11.78c-.356.36-.636.777-.841 1.251-.205.474-.31.985-.315 1.531V15H1v-.438a4.724 4.724 0 01.848-2.713 4.918 4.918 0 012.229-1.77 2.994 2.994 0 01-.554-.493 3.156 3.156 0 01-.417-.602 2.942 2.942 0 01-.26-.683 3.345 3.345 0 01-.096-.739c0-.423.08-.82.24-1.189a3.095 3.095 0 011.626-1.627 3.067 3.067 0 012.386-.007A3.095 3.095 0 018.63 6.366a3.067 3.067 0 01.157 1.928c-.059.237-.148.465-.266.684a3.506 3.506 0 01-.417.608c-.16.187-.344.35-.554.492zM5.812 9.75c.3 0 .583-.057.847-.17a2.194 2.194 0 001.163-1.163C7.94 8.148 8 7.863 8 7.563a2.138 2.138 0 00-.643-1.538 2.383 2.383 0 00-.697-.472 2.048 2.048 0 00-.847-.178c-.301 0-.584.057-.848.17a2.218 2.218 0 00-1.169 1.17c-.114.264-.17.547-.17.848 0 .3.056.583.17.847.114.264.269.497.465.697a2.168 2.168 0 001.552.643zM15 1v7h-1.75l-2.625 2.625V8H9.75v-.875h1.75v1.388l1.388-1.388h1.237v-5.25h-8.75v1.572a7.256 7.256 0 00-.437.069 2.62 2.62 0 00-.438.123V1H15z" fill="#424242"/></svg>