<svg viewBox="0 0 16 16" fill="none" xmlns="http://www.w3.org/2000/svg"><g clip-path="url(#clip0)"><path fill-rule="evenodd" clip-rule="evenodd" d="M2.25 6.93A3.3 3.3 0 014 3.94L3.46 3A4.71 4.71 0 001 7.29c0 1.4.53 2.17 1.47 2.17a1.2 1.2 0 001.22-1.33A1.19 1.19 0 002.47 6.9a.58.58 0 00-.22.03zm3.44 0a3.28 3.28 0 011.77-3L6.9 3a4.71 4.71 0 00-2.46 4.29c0 1.4.53 2.17 1.46 2.17a1.21 1.21 0 001.23-1.33A1.2 1.2 0 005.9 6.9a.51.51 0 00-.21.03zm8.06 1.84a3.28 3.28 0 01-1.77 3l.56.94A4.7 4.7 0 0015 8.4c0-1.39-.53-2.17-1.47-2.17a1.2 1.2 0 00-1.22 1.33 1.189 1.189 0 001.22 1.23.86.86 0 00.22-.02zm-3.44 0a3.26 3.26 0 01-1.77 3l.56.94a4.7 4.7 0 002.46-4.31c0-1.4-.56-2.17-1.46-2.17a1.21 1.21 0 00-1.23 1.33 1.2 1.2 0 001.23 1.23.75.75 0 00.21-.02z" fill="#424242"/></g><defs><clipPath id="clip0"><path fill="#fff" d="M0 0h16v16H0z"/></clipPath></defs></svg>