<svg viewBox="0 0 24 24" fill="none" xmlns="http://www.w3.org/2000/svg"><path d="M21.007 8.222a3.737 3.737 0 10-4.806 3.562 2.99 2.99 0 01-2.668 1.67h-2.989a4.456 4.456 0 00-2.99 1.165V7.4a3.737 3.737 0 10-1.494 0v9.117a3.776 3.776 0 101.816.099 2.99 2.99 0 012.668-1.667h2.99a4.484 4.484 0 004.223-3.039 3.736 3.736 0 003.25-3.687zM4.565 3.738a2.242 2.242 0 114.484 0 2.242 2.242 0 01-4.484 0zM9.05 20.179a2.242 2.242 0 11-4.483 0 2.242 2.242 0 014.483 0zm8.221-9.715a2.242 2.242 0 110-4.485 2.242 2.242 0 010 4.485z" fill="#424242"/></svg>