<svg viewBox="0 0 16 16" fill="none" xmlns="http://www.w3.org/2000/svg"><path fill-rule="evenodd" clip-rule="evenodd" d="M1.5 4.83h2.79L8.15 1l.85.35v13l-.85.33-3.86-3.85H1.5l-.5-.5v-5l.5-.5zM4.85 10L8 13.14V2.56L4.85 5.68l-.35.15H2v4h2.5l.35.17zM15 7.83a6.97 6.97 0 01-1.578 4.428l-.711-.71A5.974 5.974 0 0014 7.83c0-1.4-.48-2.689-1.284-3.71l.711-.71A6.97 6.97 0 0115 7.83zm-2 0a4.978 4.978 0 01-1.002 3.004l-.716-.716A3.982 3.982 0 0012 7.83c0-.847-.264-1.633-.714-2.28l.717-.716c.626.835.997 1.872.997 2.996zm-2 0c0 .574-.16 1.11-.44 1.566l-.738-.738a1.993 1.993 0 00.004-1.647l.739-.739c.276.454.436.988.436 1.558z" fill="#424242"/></svg>