<svg viewBox="0 0 16 16" fill="none" xmlns="http://www.w3.org/2000/svg"><g clip-path="url(#clip0)" fill-rule="evenodd" clip-rule="evenodd"><path d="M1.5 2h13l.5.5v5.503a5.003 5.003 0 00-1-.583V3H2v9h5a5 5 0 001 3H4v-1h3v-1H1.5l-.5-.5v-10l.5-.5z" fill="#424242"/><path d="M9.778 8.674a4 4 0 114.445 6.652 4 4 0 01-4.445-6.652zm2.13 4.99l2.387-3.182-.8-.6-2.077 2.769-1.301-1.041-.625.78 1.705 1.364.712-.09z" fill="#388A34"/></g><defs><clipPath id="clip0"><path fill="#fff" d="M0 0h16v16H0z"/></clipPath></defs></svg>