<svg xmlns="http://www.w3.org/2000/svg" viewBox="0 0 128 128"><g fill="none" fill-rule="evenodd"><path stroke="#FFF" stroke-width="2" d="M81.934 24C90.56 24 95 30.66 95 38.84v11.131c0 2.052-1.75 3.71-3.908 3.71H78.344M81.934 24c-4.223 0-3.59 6.977-3.59 11.074v18.608M81.934 24H55.633C45.051 24 40 29.594 40 38.84v58.305c0 1.024.875 1.855 1.954 1.855.548 0 1.07-.218 1.44-.602l16.36-15.805L74.95 98.398c.729.756 1.965.807 2.76.114.404-.351.634-.847.634-1.367V53.682"/><path fill="#FFF" d="M8 12h55a2 2 0 0 1 2 2v10h2V14a4 4 0 0 0-4-4H8a4 4 0 0 0-4 4v34a4 4 0 0 0 4 4h32v-2H8a2 2 0 0 1-2-2V14a2 2 0 0 1 2-2zm32 61H24a4 4 0 0 0-4 4v27a4 4 0 0 0 4 4h33a4 4 0 0 0 4-4V83.89l-1.246-1.297-.754.728V104a2 2 0 0 1-2 2H24a2 2 0 0 1-2-2V77a2 2 0 0 1 2-2h16v-2zm38.344 9H86v33a4 4 0 0 0 4 4h31a4 4 0 0 0 4-4V74a4 4 0 0 0-4-4h-4v-7a4 4 0 0 0-4-4H78.344v2H113a2 2 0 0 1 2 2v7H90a4 4 0 0 0-4 4v6h-7.656v2zM95 43h13a4 4 0 0 0 4-4V27a4 4 0 0 0-4-4H82c-1.014 0-1.94.378-2.646 1h2.58c1.99 0 3.757.354 5.298 1H108a2 2 0 0 1 2 2v12a2 2 0 0 1-2 2H95v2zm20 29H90a2 2 0 0 0-2 2v6h25a2 2 0 0 0 2-2v-6zM88 82h25a4 4 0 0 0 4-4v-6h4a2 2 0 0 1 2 2v41a2 2 0 0 1-2 2H90a2 2 0 0 1-2-2V82z" opacity=".2"/><path fill="#FFF" d="M59.967 84.655l13.95 14.554c.724.753 1.953.804 2.744.114.4-.35.63-.845.63-1.364V36.07c0-.45-.008-.935-.016-1.442-.065-4.09-.152-9.599 3.583-9.599H59.967v59.626z" opacity=".2"/></g></svg>