<svg xmlns="http://www.w3.org/2000/svg" viewBox="0 0 128 128"><g fill="none" fill-rule="evenodd"><g fill="#FFF" opacity=".2"><path d="M72.998 16.842C95.207 21.054 112 40.566 112 64c0 26.51-21.49 48-48 48S16 90.51 16 64c0-24.835 18.86-45.264 43.04-47.747a7 7 0 0 1 13.958.589zM110 64c0 25.405-20.595 46-46 46S18 89.405 18 64c0-23.754 18.005-43.303 41.112-45.743a7.002 7.002 0 0 0 13.646.576C93.974 22.923 110 41.59 110 64zM61.083 16.087a5.002 5.002 0 0 1 9.893.416 48.404 48.404 0 0 0-9.893-.416zm.036 2.002a46.692 46.692 0 0 1 9.654.406 5.002 5.002 0 0 1-9.654-.406z"/><path d="M64 126a61.74 61.74 0 0 1-38.493-13.393A9.978 9.978 0 0 1 18 116c-5.523 0-10-4.477-10-10a9.987 9.987 0 0 1 4.098-8.073C5.713 88.179 2 76.523 2 64 2 29.758 29.758 2 64 2c12.381 0 23.915 3.63 33.595 9.882C100 7.202 104.876 4 110.5 4c8.008 0 14.5 6.492 14.5 14.5 0 5.736-3.33 10.694-8.163 13.045C122.648 40.985 126 52.101 126 64c0 11.688-3.234 22.62-8.856 31.952a6.5 6.5 0 0 1-7.738 10.266C98.086 118.387 81.932 126 64 126zm60-62c0 11.24-3.09 21.757-8.468 30.75a6.5 6.5 0 0 0-7.724 10.249C96.86 116.691 81.283 123.999 64 123.999c-14.11 0-27.08-4.87-37.326-13.021A9.952 9.952 0 0 0 28 106c0-5.523-4.477-10-10-10-1.49 0-2.905.326-4.176.911C7.614 87.461 4 76.153 4 64 4 30.863 30.863 4 64 4c12.104 0 23.37 3.584 32.796 9.748A14.48 14.48 0 0 0 96 18.5c0 8.008 6.492 14.5 14.5 14.5 1.554 0 3.05-.244 4.454-.697C120.687 41.501 124 52.363 124 64zm-98 42a7.965 7.965 0 0 1-.897 3.685A60.323 60.323 0 0 1 14.97 98.594 8 8 0 0 1 26 106zm-2.041 5.338A62.372 62.372 0 0 1 13.22 99.583a8 8 0 1 0 10.738 11.755zM99.27 13.003C101.305 8.855 105.57 6 110.5 6c6.904 0 12.5 5.596 12.5 12.5 0 5.027-2.968 9.362-7.247 11.346A62.337 62.337 0 0 0 99.27 13.003zm-.75 1.916a60.336 60.336 0 0 1 15.301 15.635c-1.058.29-2.171.446-3.321.446-6.904 0-12.5-5.596-12.5-12.5 0-1.245.182-2.447.52-3.58zM112.5 96c.708 0 1.378.163 1.973.455a60.26 60.26 0 0 1-5.318 7.056A4.5 4.5 0 0 1 112.5 96zm3.538 1.719a62.205 62.205 0 0 1-5.238 6.949 4.5 4.5 0 0 0 5.238-6.95z"/></g><path stroke="#FFF" stroke-linejoin="round" stroke-width="2" d="M84.132 89.123h0a.67.67 0 0 1 .098-.904c.383-.325.703-.607.957-.842 6.354-5.913 10.339-14.422 10.339-23.873 0-9.473-4.003-18-10.383-23.914a28.111 28.111 0 0 0-.912-.802.67.67 0 0 1-.1-.905l1.966-2.634a.599.599 0 0 1 .873-.107c.17.143.316.267.437.374C95.117 42.286 100 52.31 100 63.504c0 10.863-4.6 20.626-11.921 27.383-.277.255-.647.578-1.113.97a.598.598 0 0 1-.874-.106l-1.96-2.628zm-40.14-50.426c-7.078 5.898-11.598 14.895-11.598 24.967 0 9.415 3.949 17.891 10.246 23.774.242.227.547.496.912.808a.67.67 0 0 1 .096.897l-1.937 2.614a.572.572 0 0 1-.84.105c-.4-.338-.718-.617-.961-.84C32.602 84.3 28 74.537 28 63.664c0-11.563 5.205-21.871 13.335-28.6l2.659 3.59c.004.004.007.012.006.026a.039.039 0 0 1-.004.013.01.01 0 0 1-.003.004zm7.8 10.935c-.258.223-.48.424-.661.602-3.46 3.381-5.608 8.077-5.608 13.267 0 5.245 2.192 9.983 5.715 13.372.155.15.34.317.552.5a.59.59 0 0 1 .084.813l-1.98 2.569a.647.647 0 0 1-.923.094c-.191-.162-.35-.301-.478-.419C43.88 76.208 41 70.185 41 63.501c0-6.796 2.978-12.91 7.727-17.14.07-.063.15-.132.24-.209a.647.647 0 0 1 .924.093l1.985 2.574a.59.59 0 0 1-.085.813zM87 63.498c0 6.805-2.985 12.925-7.743 17.158-.064.057-.138.12-.221.192a.646.646 0 0 1-.923-.093l-1.987-2.578a.591.591 0 0 1 .084-.812c.336-.292.62-.553.846-.78 3.352-3.367 5.423-7.988 5.423-13.087 0-5.036-2.021-9.607-5.301-12.963a17.01 17.01 0 0 0-.97-.902.591.591 0 0 1-.084-.813l1.985-2.575a.646.646 0 0 1 .922-.094c.23.195.418.36.567.498C84.158 50.868 87 56.856 87 63.498zM68 64a4 4 0 1 1-8 0 4 4 0 0 1 8 0z"/><path stroke="#FFF" stroke-width="2" d="M66.728 73.624L66 73.83V102a1 1 0 0 1-1 1h-2a1 1 0 0 1-1-1V73.829l-.728-.205C57.074 72.436 54 68.576 54 64c0-5.523 4.477-10 10-10s10 4.477 10 10c0 4.576-3.074 8.436-7.272 9.624z"/></g></svg>