<svg xmlns="http://www.w3.org/2000/svg" viewBox="0 0 128 128"><g fill="none" fill-rule="evenodd"><path fill="#FFF" d="M7 7h55a2 2 0 0 1 2 2v15h2V9a4 4 0 0 0-4-4H7a4 4 0 0 0-4 4v41a4 4 0 0 0 4 4h17v-2H7a2 2 0 0 1-2-2V9a2 2 0 0 1 2-2zm17 70h-6a4 4 0 0 0-4 4v31a4 4 0 0 0 4 4h36a4 4 0 0 0 4-4v-7h-2v7a2 2 0 0 1-2 2H18a2 2 0 0 1-2-2V81a2 2 0 0 1 2-2h6v-2zm59 28v15a4 4 0 0 0 4 4h35a4 4 0 0 0 4-4V75a4 4 0 0 0-4-4h-6v-7a4 4 0 0 0-4-4h-6v2h6a2 2 0 0 1 2 2v7h-8v2h8v6a2 2 0 0 1-2 2h-6v2h6a4 4 0 0 0 4-4v-6h6a2 2 0 0 1 2 2v45a2 2 0 0 1-2 2H87a2 2 0 0 1-2-2v-15h-2zm23-68h5a4 4 0 0 0 4-4V18a4 4 0 0 0-4-4H87a4 4 0 0 0-4 4v6h2v-6a2 2 0 0 1 2-2h24a2 2 0 0 1 2 2v15a2 2 0 0 1-2 2h-5v2z" opacity=".2"/><path stroke="#FFF" stroke-linecap="round" stroke-linejoin="round" stroke-width="2" d="M54 63.5l-12 6.588L54 77.5M76 63.5l12 6.588L76 77.5"/><path stroke="#FFF" stroke-linecap="round" stroke-width="2" d="M70.5 58.5L58 83.5"/><rect width="78" height="77" x="26" y="26" stroke="#FFF" stroke-width="2" rx="3"/><path stroke="#FFF" stroke-width="2" d="M27 42h76"/><circle cx="34" cy="34" r="3" stroke="#FFF" stroke-width="2"/><circle cx="44" cy="34" r="3" stroke="#FFF" stroke-width="2"/><circle cx="54" cy="34" r="3" stroke="#FFF" stroke-width="2"/><path fill="#FFF" opacity=".2" d="M26 26h78v16H26z"/></g></svg>