<svg xmlns="http://www.w3.org/2000/svg" viewBox="0 0 64 64"><g fill="#FFF" fill-rule="evenodd"><path d="M51.7 12a1 1 0 0 0-2 0v3h-2.795v-2a1 1 0 1 0-2 0v2h-3.15v-2a1 1 0 1 0-2 0v2h-3.151v-2a1 1 0 1 0-2 0v2h-3.151v-2a1 1 0 1 0-2 0v2h-3.151v-2a1 1 0 1 0-2 0v2H21.15v-2a1 1 0 1 0-2 0v2H16v-2a1 1 0 1 0-2 0v2h-2a1 1 0 1 0 0 2h2v2.702h-1a1 1 0 1 0 0 2h1v3.068h-1a1 1 0 1 0 0 2h1v3.069h-1a1 1 0 1 0 0 2h1v3.068h-1a1 1 0 1 0 0 2h1v3.068h-1a1 1 0 1 0 0 2h1v3.069h-1a1 1 0 1 0 0 2h1v3.068h-1a1 1 0 0 0-.933 1.361l4.002-1.36H16v-3.07h3.15v2.02l1.12-.38c.272-.083.544-.119.88-.148v-1.491h3.152v2.173l2 .605v-2.778h3.15v3.068H27.26l4.899 1.483 4.446-2.593v-1.958h3.15v.12l2.671-1.557c.216-.131.649-.23 1.081-.23.432-.032.973.033 1.297.132l6.897 1.95v-.415h3.34a1 1 0 1 0 0-2H51.7v-3.069h3.34a1 1 0 0 0 0-2H51.7v-3.068h3.34a1 1 0 1 0 0-2H51.7v-3.068h3.34a1 1 0 0 0 0-2H51.7V26.77h3.34a1 1 0 1 0 0-2H51.7v-3.068h3.34a1 1 0 1 0 0-2H51.7V17h4.34a1 1 0 1 0 0-2H51.7v-3zm2.938 38.112v2h.402a1 1 0 1 0 0-2h-.402zM16 19.702V17h3.15v2.702H16zm0 5.068v-3.068h3.15v3.068H16zm0 5.069V26.77h2.417c.38-.474.965-.777 1.62-.777.655 0 1.24.303 1.62.777h2.645v3.069H21.15v-.018a2.066 2.066 0 0 1-1.114.324c-.398 0-.77-.112-1.086-.306H16zm0 5.068v-3.068h3.15v3.068H16zm0 5.068v-3.068h3.15v3.068H16zm0 5.069v-3.069h3.15v3.069H16zm5.15 0h3.152v-3.069H21.15v3.069zm0-5.069h3.152v-3.068H21.15v3.068zm0-5.068h3.152v-3.068H21.15v3.068zm0-10.137h3.152v-3.068H21.15v3.068zm0-5.068h3.152V17H21.15v2.702zm5.152 0V17h3.15v2.702h-3.15zm0 5.068v-3.068h3.15v3.068h-3.15zm0 5.069V26.77h3.15v3.069h-3.15zm0 5.068v-3.068h3.15v3.068h-3.15zm0 5.068v-3.068h.661a2.076 2.076 0 1 1 2.49 2.192v.876h-3.151zm0 5.069v-3.069h3.15v3.069h-3.15zm5.15 5.068h3.152v-3.068h-3.151v3.068zm0-5.068h3.152v-3.069h-3.151v3.069zm0-5.069h3.152v-3.068h-3.151v3.068zm0-5.068h3.152v-3.068h-3.151v3.068zm0-5.068h3.152V26.77h-3.151v3.069zm0-5.069h3.152v-3.068h-3.151v3.068zm0-5.068h3.152V17h-3.151v2.702zm5.152 0V17h3.15v.963a2.075 2.075 0 0 1-.285 3.739h.285v3.068h-3.15v-3.068h1.37a2.077 2.077 0 0 1-1.328-2h-.042zm0 10.137V26.77h3.15v3.069h-3.15zm0 5.068v-3.068h3.15v3.068h-3.15zm0 5.068v-3.068h3.15v3.068h-3.15zm0 5.069v-3.069h3.15v3.069h-3.15zm5.15 0h3.151v-3.069h-3.15v3.069zm0-5.069h3.151v-3.068h-3.15v3.068zm0-5.068h3.151v-3.068h-3.15v3.068zm0-5.068h3.151V26.77h-3.15v3.069zm0-5.069h3.151v-3.068h-3.15v3.068zm0-5.068h3.151V17h-3.15v2.702zm5.151 0V17H49.7v2.702h-2.795zm0 5.068v-3.068H49.7v3.068h-2.795zm2.795 3.225a2.076 2.076 0 1 0-2.795 1.293v.55H49.7v-1.843zm-2.795 6.912v-3.068H49.7v3.068h-2.795zm0 5.068v-3.068H49.7v3.068h-2.795zm0 5.069v-3.069H49.7v3.069h-2.795z" opacity=".2"/><path d="M10 11a1 1 0 0 1 1-1h42.206C54.776 10 56 11.31 56 12.85V55a1 1 0 0 1-1 1H11a1 1 0 0 1-1-.968V11zm44 1.85v34.038l-8.62-2.685a4.716 4.716 0 0 0-1.656-.193c-.53.006-1.162.131-1.595.416l-9.954 6.395-9.363-3.123c-.468-.156-.913-.196-1.407-.196-.028 0-.056 0-.083.003-.435.036-.871.079-1.324.23a1.006 1.006 0 0 0-.035.012L12 50.731v-12.2l6.234-6.94c.533.262 1.132.409 1.766.409.86 0 1.657-.271 2.309-.733l3.424 3.424a4 4 0 1 0 6.03-.584l5.462-10.522A3.983 3.983 0 0 0 39 24c.941 0 1.807-.325 2.49-.87l2.732 2.553a4 4 0 1 0 1.13-1.681L42.7 21.524a4 4 0 1 0-7.023.703l-5.66 10.903a4.006 4.006 0 0 0-2.752.265l-3.66-3.66a4 4 0 1 0-6.888.551L12 35.538V12h41.206c.405 0 .794.355.794.85zM12 54v-1.133l8.646-3.24c.19-.062.401-.091.8-.125.353.002.553.034.733.094l9.817 3.274a1 1 0 0 0 .857-.108l10.362-6.657.003-.001a.994.994 0 0 1 .152-.049c.116-.028.256-.045.395-.045a2.742 2.742 0 0 1 .992.094l.02.006L54 48.983V54H12zm27-36a2 2 0 1 0 0 4.001A2 2 0 0 0 39 18zM29 35a2 2 0 1 0 0 0zm-7.004-6.874a2.015 2.015 0 0 0-.006-.33A2 2 0 1 0 20 30a2 2 0 0 0 1.996-1.874zm24.04-.75a2 2 0 1 0 3.929-.754 2 2 0 0 0-3.93.754z"/></g></svg>