<svg xmlns="http://www.w3.org/2000/svg" viewBox="0 0 128 128"><g fill="none" fill-rule="evenodd"><path fill="#FFF" d="M63.5 13C95.269 13 121 38.662 121 70.345c0 8.459-1.869 16.487-5.031 23.655H99.097V34.302c0-1.763-1.42-3.205-3.156-3.205H33.774V94H11.175A56.393 56.393 0 0 1 6 70.345C6 38.662 31.731 13 63.5 13z" opacity=".2"/><path stroke="#FFF" stroke-linecap="round" stroke-linejoin="round" stroke-width="2" d="M5 95h118.016M33.857 31.24c0-1.318-1.143-2.24-2.428-2.24C30 29 29 30.054 29 31.24V95h5V31.24h-.143z"/><path fill="#FFF" d="M92.929 32.205a1 1 0 1 0-2 0v5.08h-5.374v-4.08a1 1 0 1 0-2 0v4.08H78.11v-4.08a1 1 0 1 0-2 0v4.08h-5.444v-4.08a1 1 0 1 0-2 0v4.08h-5.443v-4.08a1 1 0 1 0-2 0v4.08H55.78v-4.08a1 1 0 1 0-2 0v4.08h-5.444v-4.08a1 1 0 0 0-2 0v4.08h-5.443v-4.08a1 1 0 0 0-2 0v4.08h-4.714a1 1 0 1 0 0 2h4.714v5.64h-3.714a1 1 0 1 0 0 2h3.714v5.678h-3.714a1 1 0 1 0 0 2h3.714v5.68h-3.714a1 1 0 1 0 0 2h3.714v5.679h-3.714a1 1 0 1 0 0 2h3.714v5.68h-3.714a1 1 0 1 0 0 2h3.714v5.679h-3.714a1 1 0 1 0 0 2h3.714v.688l4.743-2.688h-2.743v-5.68h5.444v4.15l1.21-.688a3.26 3.26 0 0 1 .79-.272v-3.19h5.443v4.926l5.46 2.754h1.984v1l2 1.009v-2.01h4.766l2.677-2.6V77.64h5.226l2.218-2.154v-5.525h5.444v3.375a.298.298 0 0 0 .007.004l1.993.939v-4.318h5.374v5.68h-2.484l4.484 2.112v-.113h3.892a1 1 0 0 0 0-2H92.93v-5.679h3.892a1 1 0 1 0 0-2H92.93v-5.68h3.892a1 1 0 1 0 0-2H92.93v-5.679h3.892a1 1 0 1 0 0-2H92.93v-5.679h3.892a1 1 0 1 0 0-2H92.93v-5.64h4.892a1 1 0 1 0 0-2H92.93v-5.079zm-52.036 12.72v-5.64h5.444v5.64h-5.444zm0 7.678v-5.679h5.444v5.68h-5.444zm0 7.68v-5.68h4.302A2.987 2.987 0 0 1 47 54c.678 0 1.303.225 1.805.603h4.975v5.68h-5.444v-.596a2.988 2.988 0 0 1-2 .24v.356h-5.443zm0 7.679v-5.68h5.444v5.68h-5.444zm0 7.68v-5.68h5.444v5.68h-5.444zm7.444 0h5.443v-5.68h-5.444v5.68zm0-7.68h5.443v-5.68h-5.444v5.68zm0-15.359h5.443v-5.679h-5.444v5.68zm0-7.679h5.443v-5.64h-5.444v5.64zm7.443 0v-5.64h5.444v5.64H55.78zm0 7.68v-5.68h5.444v5.68H55.78zm0 7.679v-5.68h5.444v5.68H55.78zm0 7.679v-5.68h5.444v4.978a3 3 0 0 1 0 5.48v2.901H55.78v-5.679H57a2.99 2.99 0 0 1 .798-2H55.78zm0 15.359v-5.68h5.444v5.68H55.78zm7.444 0h5.443v-5.68h-5.443v5.68zm0-7.68h5.443v-5.679h-5.443v5.68zm0-7.679h5.443v-5.68h-5.443v5.68zm0-7.68h5.443v-5.679h-5.443v5.68zm0-7.679h5.443v-5.679h-5.443v5.68zm0-7.679h5.443v-5.64h-5.443v5.64zm7.443 0v-5.64h5.444v3.584A2.99 2.99 0 0 1 77 45a2.99 2.99 0 0 1-.89 2.132v5.471h-5.443v-5.679h1.031a2.988 2.988 0 0 1-.697-2h-.334zm0 15.359v-5.68h5.444v5.68h-5.444zm0 7.679v-5.68h5.444v5.68h-5.444zm0 7.68v-5.68h5.444v5.68h-5.444zm7.444-7.68h5.444v-5.68H78.11v5.68zm0-7.68h5.444v-5.679H78.11v5.68zm0-7.679h5.444v-5.679H78.11v5.68zm0-7.679h5.444v-5.64H78.11v5.64zm7.444 0v-5.64h5.374v5.64h-5.374zm0 7.68v-5.68h5.374v5.68h-5.374zm4.1 2a3 3 0 1 0-4.1 4.025v1.654h5.374v-5.68h-1.273zm-4.1 13.358v-5.68h5.374v5.68h-5.374z" opacity=".2"/><path fill="#FFF" d="M107.558 28.564a1 1 0 1 0-1.651-1.128L99 37.543V34.65c0-1.995-1.607-3.65-3.609-3.65H34a1 1 0 0 0-1 1v63a.999.999 0 0 0 1 1h64a1 1 0 0 0 1-1V41.088l8.558-12.524zM97 34.65v5.82l-8.179 11.968A3.984 3.984 0 0 0 87 52c-.87 0-1.674.277-2.33.748l-6.89-6.436a4 4 0 1 0-7.037 1.01l-9.76 18.8a4.007 4.007 0 0 0-2.547.195l-7.753-7.753a4 4 0 1 0-7.005.665L35 68.89V33h60.391c.868 0 1.609.73 1.609 1.65zM35 87.066V71.883L45.171 60.56c.548.282 1.17.441 1.829.441.924 0 1.774-.313 2.452-.84l7.387 7.388a4 4 0 1 0 5.899-.465l9.58-18.453c.511.237 1.081.37 1.682.37 1.017 0 1.945-.38 2.651-1.005l6.734 6.29a4 4 0 1 0 6.942-.506L97 44.014v34.553L84 72.44c-.632-.314-1.584-.508-2.404-.42-.806.015-1.688.31-2.227.848L64.815 87.012l-13.643-6.881c-.662-.334-1.308-.428-2.037-.428-.041 0-.083.003-.125.008-.64.08-1.268.175-1.912.5a1.032 1.032 0 0 0-.042.023L35 87.066zm48.136-12.82L97 80.778V94H35v-4.635l13.018-7.378c.292-.144.602-.209 1.178-.283.503.005.796.072 1.075.212l14.278 7.203a1 1 0 0 0 1.148-.176l15.072-14.645.013-.013a.9.9 0 0 1 .303-.163c.175-.063.378-.101.574-.101.041 0 .083-.003.125-.008.43-.054 1.023.067 1.328.22l.024.013zm-37.55-18.66A1.994 1.994 0 0 1 47 55a1.995 1.995 0 0 1 2 2 2 2 0 1 1-3.414-1.414zM58 69.93a2 2 0 1 1 0 0zM87 54a2.001 2.001 0 0 0-2 1.987V56a2 2 0 1 0 2-2zM74 43a2 2 0 1 1-2 2v-.001A2 2 0 0 1 74 43z"/><path fill="#FFF" fill-rule="nonzero" d="M25.47 98a1 1 0 0 0 0 2v-2zm78.265 2a1 1 0 0 0 0-2v2zm-69.837 2a1 1 0 0 0 0 2v-2zm60.204 2a1 1 0 0 0 0-2v2zm-54.184 2a1 1 0 0 0 0 2v-2zm49.368 2a1 1 0 0 0 0-2v2zm-39.735 2a1 1 0 0 0 0 2v-2zm30.102 2a1 1 0 0 0 0-2v2zm-22.878 2a1 1 0 0 0 0 2v-2zm14.45 2a1 1 0 0 0 0-2v2zm-45.756-16h78.266v-2H25.469v2zm8.429 4h60.204v-2H33.898v2zm6.02 4h49.368v-2H39.918v2zm9.633 4h30.102v-2H49.551v2zm7.224 4h14.45v-2h-14.45v2z" opacity=".2"/></g></svg>