<svg xmlns="http://www.w3.org/2000/svg" viewBox="0 0 64 64"><g fill="none" fill-rule="evenodd"><path stroke="#FFF" stroke-linecap="round" stroke-linejoin="round" stroke-width="2" d="M44.61 56.628H14.03c-.618 0-1.03-.412-1.03-1.03V15.03c0-.618.412-1.03 1.03-1.03h30.58c.618 0 1.03.412 1.03 1.03v40.568c0 .618-.515 1.03-1.03 1.03z"/><path fill="#FFF" d="M20 9.031l.001-.03A.32.32 0 0 1 20.015 9h30.159a.34.34 0 0 1 .002.031v40.632a.07.07 0 0 1-.002.016v.003l-.002.001-.002.002a.044.044 0 0 1-.013.009H47.145v2h3.015c1.01 0 2.016-.81 2.016-2.03V9.03c0-.532-.179-1.055-.567-1.449C51.22 7.187 50.697 7 50.16 7H20.015c-.537 0-1.06.187-1.449.582-.388.394-.566.917-.566 1.45V13h2V9.031z"/><path stroke="#FFF" stroke-linecap="round" stroke-width="2" d="M30 23h10m-21 5h21m-21 5h21m-21 5h21m-21 5h21m-21 5h12"/><rect width="7" height="4" x="18" y="19" fill="#FFF" fill-opacity=".2" stroke="#FFF" stroke-width="2" rx="1"/><path fill="#C4C4C4" opacity=".2" d="M13 56.601v-7.426L45.175 17v39.601z"/></g></svg>