<svg xmlns="http://www.w3.org/2000/svg" viewBox="0 0 128 128"><g fill="none" fill-rule="evenodd"><path fill="#FFF" d="M56.716 46.387C48.672 43.115 43 35.22 43 26c0-12.15 9.85-22 22-22s22 9.85 22 22c0 9.209-5.657 17.096-13.686 20.375l-.834-1.82C79.82 41.592 85 34.4 85 26c0-11.046-8.954-20-20-20s-20 8.954-20 20c0 8.411 5.192 15.61 12.546 18.565l-.83 1.822zm-6.082 13.346a17.283 17.283 0 0 0-7.744-1.732c.073-.657.11-1.325.11-2.001 0-9.941-8.059-18-18-18S7 46.059 7 56a17.92 17.92 0 0 0 3.612 10.817c-3.2 2.106-5.659 5.393-6.924 9.238C2.807 78.732 5.002 81 7.394 81h33.549l.911-2H7.394c-1.247 0-2.196-1.135-1.807-2.32 1.988-6.04 7.163-10.347 13.233-10.347 2.83 0 5.463.935 7.671 2.545.554.404 1.081.85 1.578 1.335.294-.632.619-1.243.972-1.831C32.082 63.325 37.234 60 43.077 60c2.39 0 4.664.556 6.725 1.56l.832-1.827zM34.791 94.5H6a1 1 0 1 0 0 2h27.88l.911-2zm-1.823 4H13a1 1 0 1 0 0 2h19.057l.911-2zm65.138 2l-.916-2H116a1 1 0 0 1 0 2H98.106zm-8.384 2h2.453a2.993 2.993 0 0 1 1.493 1.453l.26.547h-9.761l5.555-2zm-52.155 0h2.266l5.667 2h-9.727l.145-.356a2.994 2.994 0 0 1 1.648-1.644zm-6.421 0H22a1 1 0 0 0 0 2h8.234l.912-2zm2.99 6h22.697l-5.666-2H34.955l-.819 2zm44.475-2l-5.555 2h22.777l-.952-2H78.61zm21.328-2H107a1 1 0 0 0 0-2h-7.977l.916 2zm-38.319 6H34a1 1 0 0 0 0 2h28.498a3 3 0 0 0-.878-2zm5.882 2a2.999 2.999 0 0 1 .864-2H95a1 1 0 0 1 0 2H67.502zm-5.002 2H42a1 1 0 0 0 0 2h20.5v-2zm5 2v-2H87a1 1 0 0 1 0 2H67.5zm-4.95 2H49a1 1 0 0 0 0 2h32a1 1 0 0 0 0-2H67.45a2.501 2.501 0 0 1-4.9 0zm33.724-22l-.916-2H124a1 1 0 0 1 0 2H96.274zM58.792 41.83C52.474 39.352 48 33.199 48 26c0-9.389 7.611-17 17-17s17 7.611 17 17c0 7.19-4.464 13.338-10.772 15.823L70.394 40C76.014 37.835 80 32.383 80 26c0-8.284-6.716-15-15-15-8.284 0-15 6.716-15 15 0 6.39 3.995 11.846 9.623 14.008l-.83 1.823zm2.078-4.56C56.278 35.587 53 31.176 53 26c0-6.627 5.373-12 12-12s12 5.373 12 12c0 5.172-3.272 9.58-7.859 11.266l-.836-1.825C72.204 34.076 75 30.365 75 26c0-5.523-4.477-10-10-10s-10 4.477-10 10c0 4.368 2.8 8.081 6.703 9.444l-.833 1.826zM56 122.5a1 1 0 0 0 0 2h18a1 1 0 0 0 0-2H56zM9 56a15.93 15.93 0 0 0 3.366 9.82 14.723 14.723 0 0 1 6.454-1.487c3.2 0 6.166 1.033 8.65 2.786 2.985-4.82 7.78-8.253 13.388-8.977.094-.7.142-1.416.142-2.142 0-8.837-7.163-16-16-16S9 47.163 9 56zm80 12h28.627a3.908 3.908 0 0 0 3.075-1.472c.74-.94 1.03-2.26.511-3.553-1.59-3.962-5.135-6.975-9.505-6.975-1.809 0-3.49.524-4.946 1.419-2.173-3.223-5.604-5.419-9.608-5.419-6.283 0-11.09 5.335-11.995 11.725C84.807 66.215 86.88 68 89 68zm22.708-10a7.41 7.41 0 0 0-3.947 1.152 8.569 8.569 0 0 0-1.602 1.298 12.497 12.497 0 0 0-.993-1.823C103.308 55.811 100.41 54 97.154 54c-5.033 0-9.21 4.328-10.014 10.006C86.985 65.099 87.895 66 89 66h28.627c1.24 0 2.192-1.13 1.73-2.28C118 60.338 115.085 58 111.708 58z" opacity=".2"/><path stroke="#FFF" stroke-linecap="round" stroke-width="2" d="M65 34l-34 75m34-75l34 75M65 34v84M46 77l30-18M59 49l17 10m18 39L45 78m49 20l-28 10m-29-9l28 10m19-32L54 59m17-10L54 59M36 98l49-20"/><path fill="#FFF" d="M65 28a2 2 0 1 0 0-4 2 2 0 0 0 0 4z"/><path fill="#FFF" d="M68 32.326a7 7 0 1 0-6 0V30a5 5 0 1 1 6 0v2.326z"/><path fill="#FFF" opacity=".2" d="M65 108l.5-73 28 62.5z"/><path fill="#FFF" d="M64 26h2v9h-2z"/></g></svg>