<svg xmlns="http://www.w3.org/2000/svg" viewBox="0 0 128 128"><g fill="#FFF" fill-rule="nonzero"><path fill-opacity=".2" stroke="#FFF" stroke-width="2" d="M64 98c18.225 0 33-14.775 33-33S82.225 32 64 32 31 46.775 31 65s14.775 33 33 33zm-8-24.426V57.042c0-2.329 2.536-3.77 4.536-2.577l14.094 8.402c1.968 1.173 1.947 4.03-.037 5.175l-14.094 8.13c-2 1.155-4.499-.289-4.499-2.598z"/><path d="M97.541 14.004l.413-.627-.907-.597-.237 1.06.731.164zm17.411 17.388l.165.732 1.06-.24-.599-.906-.626.414zM97.8 13.015l-.718-.216-.161.538.47.306.41-.628zm18.141 18.117l-.628.41.307.47.537-.162-.216-.718zm.526.819l-.229-.714-.922.296.517.818.634-.4zM96.98 12.49l-.4.635.82.515.295-.922-.715-.228zm-83.055 89.076l.424.619.639-.437-.457-.625-.606.443zm12.394 12.673l.456-.595-.615-.471-.45.629.609.437zm89.176-82.011l.632-.404-.29-.455-.524.131.182.728zm-18.79-18.766l.728.18.13-.523-.456-.29-.402.633zm-81.948 87.599l-.605.444.385.525.574-.308-.354-.661zm12.085 12.359l-.653-.369-.32.567.516.396.457-.594zm-.496-.386l-.463.59.694.545.426-.773-.657-.362zM15.13 101.566l-.347-.665-.783.408.53.706.6-.449zm-.836.5l.6-.449-.429-.575-.593.403.422.621zm11.533 11.793l.61.435.417-.584-.565-.442-.462.591zm31.19-94.84l-.106-.742-.738.105.1.739.743-.101zm10.588-.275l.748.061.062-.743-.743-.066-.067.748zm-11.604-.615l.12.74.614-.099.016-.622-.75-.02zm12.572-.329l-.747.059.048.62.62.067.08-.746zm-11.596.183l-.749-.044-.053.912.905-.126-.103-.742zm10.615-.277l-.065.747.91.078-.1-.908-.745.083zm.978 1.133l.081-.746-.763-.083-.066.765.748.064zm-12.511.327l.742-.103-.105-.761-.758.123.12.74zm40.378-1.963c0 8.448 6.849 15.296 15.296 15.296V31c-7.619 0-13.796-6.177-13.796-13.796h-1.5zm.372-3.364a15.35 15.35 0 0 0-.372 3.364h1.5c0-1.043.116-2.06.335-3.035l-1.463-.329zm.319.791a60.619 60.619 0 0 1 17.198 17.175l1.251-.827a62.116 62.116 0 0 0-17.624-17.6l-.825 1.252zm14.605 17.87c1.162 0 2.294-.13 3.383-.377l-.33-1.463c-.981.222-2.003.34-3.053.34v1.5zM97.391 13.642a61.592 61.592 0 0 1 17.922 17.899l1.255-.82A63.07 63.07 0 0 0 98.21 12.386l-.819 1.256zm14.343-11.736c-6.918 0-12.761 4.592-14.652 10.893l1.437.43c1.706-5.683 6.978-9.823 13.215-9.823v-1.5zm15.296 15.296c0-8.448-6.848-15.296-15.296-15.296v1.5c7.62 0 13.796 6.177 13.796 13.796h1.5zM116.157 31.85c6.291-1.897 10.873-7.736 10.873-14.647h-1.5c0 6.231-4.131 11.5-9.806 13.21l.433 1.437zm.539.815c6.538-2.096 11.273-8.225 11.273-15.462h-1.5c0 6.566-4.295 12.13-10.231 14.034l.458 1.428zm11.273-15.462C127.969 8.237 120.7.97 111.734.97v1.5c8.138 0 14.735 6.597 14.735 14.734h1.5zM111.734.97c-7.244 0-13.378 4.744-15.468 11.293l1.429.456c1.898-5.945 7.467-10.25 14.039-10.25v-1.5zM64 3.75c11.975 0 23.145 3.436 32.58 9.375l.8-1.27C87.712 5.77 76.266 2.25 64 2.25v1.5zM2.75 65C2.75 31.173 30.173 3.75 64 3.75v-1.5C29.344 2.25 1.25 30.344 1.25 65h1.5zm11.78 36.123C7.124 90.996 2.75 78.51 2.75 65h-1.5c0 13.839 4.48 26.633 12.07 37.009l1.21-.886zm-1.028-.176A9.741 9.741 0 0 0 9.25 109h1.5a8.24 8.24 0 0 1 3.599-6.815l-.847-1.238zM9.25 109c0 5.385 4.365 9.75 9.75 9.75v-1.5a8.25 8.25 0 0 1-8.25-8.25h-1.5zm9.75 9.75a9.737 9.737 0 0 0 7.928-4.074l-1.219-.874A8.24 8.24 0 0 1 19 117.25v1.5zm45 7.5c-14.004 0-26.908-4.699-37.225-12.606l-.913 1.191c10.57 8.1 23.793 12.915 38.138 12.915v-1.5zM125.25 65c0 33.827-27.423 61.25-61.25 61.25v1.5c34.656 0 62.75-28.094 62.75-62.75h-1.5zm-9.417-32.649c5.965 9.45 9.417 20.645 9.417 32.649h1.5c0-12.295-3.537-23.766-9.649-33.45l-1.268.801zm-4.099 1.087c1.359 0 2.68-.168 3.942-.483l-.363-1.455a14.762 14.762 0 0 1-3.579.438v1.5zM95.5 17.203c0 8.966 7.268 16.235 16.234 16.235v-1.5C103.597 31.938 97 25.34 97 17.203h-1.5zm.477-3.921a16.267 16.267 0 0 0-.477 3.921H97c0-1.228.15-2.42.433-3.56l-1.456-.361zM64 4.719c11.886 0 22.966 3.439 32.302 9.376l.805-1.266C87.537 6.744 76.18 3.22 64 3.22v1.5zM3.719 65C3.719 31.708 30.708 4.719 64 4.719v-1.5C29.88 3.219 2.219 30.879 2.219 65h1.5zm11.642 35.618C8.041 90.638 3.72 78.325 3.72 65h-1.5c0 13.655 4.43 26.277 11.933 36.505l1.21-.887zM19 99.25a9.711 9.711 0 0 0-4.598 1.15l.709 1.322A8.213 8.213 0 0 1 19 100.75v-1.5zm9.75 9.75c0-5.385-4.365-9.75-9.75-9.75v1.5a8.25 8.25 0 0 1 8.25 8.25h1.5zm-1.255 4.788A9.706 9.706 0 0 0 28.75 109h-1.5a8.21 8.21 0 0 1-1.061 4.051l1.306.737zM64 125.281c-13.812 0-26.536-4.644-36.701-12.456l-.914 1.189c10.417 8.007 23.461 12.767 37.615 12.767v-1.5zM124.281 65c0 33.292-26.989 60.281-60.281 60.281v1.5c34.12 0 61.781-27.66 61.781-61.781h-1.5zm-9.418-32.369c5.963 9.35 9.418 20.455 9.418 32.369h1.5c0-12.208-3.541-23.591-9.654-33.176l-1.264.807zm-87.86 80.765A9.093 9.093 0 0 0 28.129 109h-1.5a7.594 7.594 0 0 1-.94 3.673l1.314.723zM28.129 109A9.13 9.13 0 0 0 19 99.87v1.501A7.629 7.629 0 0 1 26.63 109h1.5zM19 99.87c-1.52 0-2.954.373-4.216 1.03l.693 1.331a7.582 7.582 0 0 1 3.523-.86v-1.5zm7.809 12.574a60.644 60.644 0 0 1-11.078-11.328l-1.2.899a62.118 62.118 0 0 0 11.352 11.609l.926-1.18zm-12.936-10.999A9.123 9.123 0 0 0 9.871 109h1.5a7.62 7.62 0 0 1 3.345-6.314l-.843-1.241zM9.871 109A9.129 9.129 0 0 0 19 118.129v-1.5A7.629 7.629 0 0 1 11.37 109h-1.5zM19 118.129a9.118 9.118 0 0 0 7.438-3.835l-1.221-.87A7.62 7.62 0 0 1 19 116.629v1.5zm7.29-4.861a61.618 61.618 0 0 1-11.394-11.651l-1.202.897a63.116 63.116 0 0 0 11.671 11.936l.925-1.182zm36.007-90.393a4.58 4.58 0 0 1-4.536-3.956l-1.487.202a6.08 6.08 0 0 0 6.023 5.254v-1.5zm4.562-4.194a4.579 4.579 0 0 1-4.562 4.194v1.5a6.079 6.079 0 0 0 6.057-5.57l-1.495-.123zm-3.343.633c1.356 0 2.699.06 4.025.177l.132-1.495a47.309 47.309 0 0 0-4.157-.182v1.5zm-6.393.448a45.594 45.594 0 0 1 6.393-.448v-1.5c-2.241 0-4.446.158-6.604.463l.21 1.485zm-.371-1.614a5.547 5.547 0 0 1 5.545-5.398v-1.5a7.047 7.047 0 0 0-7.044 6.86l1.499.038zm5.545-5.398a5.547 5.547 0 0 1 5.53 5.109l1.495-.117a7.047 7.047 0 0 0-7.025-6.492v1.5zm6.198 5.796c23.192 2.483 41.255 22.117 41.255 45.97h1.5c0-24.627-18.649-44.898-42.596-47.461l-.16 1.491zm41.255 45.97c0 25.534-20.7 46.234-46.234 46.234v1.5c26.363 0 47.734-21.371 47.734-47.734h-1.5zM63.516 110.75c-25.535 0-46.235-20.7-46.235-46.234h-1.5c0 26.363 21.372 47.734 47.735 47.734v-1.5zM17.28 64.516c0-23.018 16.82-42.108 38.84-45.647l-.238-1.48C33.148 21.041 15.781 40.75 15.781 64.515h1.5zm40.446-46.49a4.578 4.578 0 0 1 4.57-4.307v-1.5a6.078 6.078 0 0 0-6.068 5.72l1.498.087zm4.57-4.307a4.579 4.579 0 0 1 4.55 4.069l1.491-.165a6.079 6.079 0 0 0-6.041-5.404v1.5zm1.219 4.562c1.352 0 2.69.058 4.012.172l.129-1.495a48.36 48.36 0 0 0-4.141-.177v1.5zm-6.435.444a46.644 46.644 0 0 1 6.435-.444v-1.5c-2.254 0-4.47.156-6.642.459l.207 1.485zm11.408.86c22.624 2.475 40.228 21.647 40.228 44.93h1.5c0-24.056-18.189-43.864-41.565-46.422l-.163 1.491zm40.228 44.93c0 24.965-20.237 45.202-45.201 45.202v1.5c25.792 0 46.701-20.909 46.701-46.701h-1.5zm-45.201 45.202c-24.965 0-45.202-20.237-45.202-45.201h-1.5c0 25.792 20.909 46.701 46.702 46.701v-1.5zM18.314 64.516c0-22.467 16.39-41.106 37.866-44.61l-.241-1.48c-22.19 3.62-39.125 22.876-39.125 46.09h1.5zm43.983-40.672a5.548 5.548 0 0 1-5.495-4.78l-1.486.204a7.048 7.048 0 0 0 6.98 6.076v-1.5zm5.526-5.069a5.548 5.548 0 0 1-5.526 5.069v1.5a7.047 7.047 0 0 0 7.021-6.442l-1.495-.127z" opacity=".2"/></g></svg>