<svg xmlns="http://www.w3.org/2000/svg" viewBox="0 0 128 128"><g fill="none" fill-rule="evenodd"><path stroke="#FFF" stroke-linecap="round" stroke-width="2" d="M103 96H31v-4.5c0-.825.736-1.5 1.636-1.5h68.728c.9 0 1.636.675 1.636 1.5V96zm1.227 6l-4.552-6h-65.35l-4.552 6c-1.95 2.571-2.357 6.171-.894 9.171 2.52 5.4 7.803 8.829 13.493 8.829h49.256c5.69 0 10.973-3.429 13.493-8.829 1.463-3 1.056-6.6-.894-9.171zM29 106l76-.004m7.143-59.746c-1.807 0-3.532.487-4.929 1.3-.164-1.625-1.56-2.925-3.285-2.925-1.15 0-2.054.569-2.711 1.381A6.58 6.58 0 0 0 95.714 43c-3.614 0-6.571 2.925-6.571 6.5v.081c-.575-.081-1.15-.081-1.807-.081-4.847 0-9.118 2.6-11.336 6.5h46c0-5.362-4.436-9.75-9.857-9.75zM75 63c-4.225 0-8.044 2.122-10.4 5.433a9.464 9.464 0 0 0-5.85-2.038C53.388 66.395 49 70.398 49 76h39c0-7.47-5.85-13-13-13z"/><path fill="#FFF" d="M99.133 49.657c.582 0 1.248.083 1.83.083v-.083c0-1.83.75-3.495 1.914-4.66-.499.25-.998.583-1.331 1.082-1.165-1.83-3.245-3.079-5.575-3.079-3.662 0-6.657 2.996-6.657 6.657v.083c-.583-.083-1.165-.083-1.83-.083-4.91 0-9.237 2.663-11.484 6.657h11.65c2.33-3.994 6.573-6.657 11.483-6.657zM63.978 67.33C62.48 66.5 60.816 66 58.985 66 53.493 66 49 70.493 49 75.985h9.985c0-3.66 1.998-6.906 4.993-8.654zm-10.014-50.01c.665 0 1.33.083 1.997.167 2.33-3.329 5.741-5.992 9.735-7.323C63.533 9.416 61.286 9 58.956 9c-6.74 0-12.731 3.328-16.31 8.488-.665-.084-1.33-.167-1.996-.167-6.408 0-11.65 5.242-11.65 11.65h13.314c0-6.407 5.242-11.65 11.65-11.65zM109.745 59.328L112.657 56h-2.912L106 59.328zM33.664 89A1.67 1.67 0 0 0 32 90.664v4.993h19.97V89H33.665zM28 107.206a9.151 9.151 0 0 0 .861 3.971c2.521 5.397 7.807 8.823 13.5 8.823H91.64c5.773 0 10.978-3.426 13.499-8.823.732-1.542.975-3.255.813-4.883H47.601a7.386 7.386 0 0 1 1.394-3.527c1.626-2.141 3.985-3.34 6.587-3.34h47.002L99.982 96h-65.38l-5.124 6.767a7.045 7.045 0 0 0-1.428 3.527h-.002a7.47 7.47 0 0 0-.048.912z" opacity=".25"/><path stroke="#FFF" stroke-linecap="round" stroke-width="2" d="M84.019 21.667c-1.7 0-3.319.333-4.776.916C78.433 21 76.814 20 74.953 20c-.324 0-.648 0-.972.083-3.32-6-9.633-10.083-16.838-10.083-6.557 0-12.386 3.333-15.867 8.5-.647-.083-1.295-.167-1.943-.167C33.1 18.333 28 23.583 28 30h68c-1.943-4.917-6.557-8.333-11.981-8.333zM80.127 51.22l-8.717-2.939-6.273-2.122-3.015-1.06c-.407-.082-.815-.327-1.14-.572-.652-.571-1.141-1.632-1.06-2.612 0-.163 0-.245.082-.408 0-.163.081-.245.081-.408l.082-.163.163-.327.326-.734 1.466-3.02L65.462 30H61.39l-2.422 4.163c-.408.572-1.223.408-1.467-.163l-2-4h-2.095l.651 6.448c-.244.326-1.059 2.122-1.222 2.53-.163.408-.326.816-.407 1.224-.978 3.265-.245 7.02 1.874 9.876 1.059 1.387 2.444 2.612 4.073 3.428l3.015 1.55 5.947 3.02 9.45 4.816c6.519.734 11.488 6.415 11.488 13.108H60.655l3.585 3.46c1.06 1.061.897 2.775-.244 3.673l-7.333 6.795h26.968l4.562-5.734 2.281-2.367 1.14-1.224.734-.816c.326-.408.652-.735.978-1.143l19.145-22.363h-2.77L96.829 67.544v-.163a16.927 16.927 0 0 0-1.467-5.632 17.225 17.225 0 0 0-3.34-4.734c-.326-.244-.57-.57-.896-.816"/><path fill="#FFF" fill-rule="nonzero" d="M47.441 44.521l-.79.614.022.028.024.026.744-.668zm-9.488-6.407l-.319.948.036.012.036.01.247-.97zM26.622 74.98l-.335.942.667.237.445-.55-.777-.63zM7 87.979l-.997-.072-.003.036v.036h1zm39.697-42.79c3.332 3.713 5.271 8.673 5.271 14.097h2c0-5.905-2.114-11.345-5.783-15.433l-1.488 1.336zm5.271 14.097c0 2.926-.616 5.765-1.67 8.244l1.84.783a23.225 23.225 0 0 0 1.83-9.027h-2zM16.355 74.723C12.3 70.815 9.75 65.313 9.75 59.286h-2c0 6.6 2.793 12.613 7.215 16.877l1.389-1.44zM9.75 59.286C9.75 47.48 19.167 38 30.86 38v-2C18.046 36 7.75 46.39 7.75 59.286h2zM30.86 38c2.388 0 4.674.357 6.774 1.062l.637-1.896C35.95 36.386 33.446 36 30.86 36v2zM51.65 67.074a22.726 22.726 0 0 0-7.803-1.36v2c2.554 0 4.926.444 7.121 1.24l.682-1.88zm-7.803-1.36c-7.226 0-13.77 3.399-18.004 8.636l1.555 1.257c3.874-4.791 9.857-7.893 16.45-7.893v-2zm-16.891 8.322a15.589 15.589 0 0 0-5.218-.893v2c1.547 0 3.092.26 4.548.778l.67-1.885zm-5.218-.893c-8.37 0-15.147 6.549-15.736 14.764l1.994.143c.517-7.199 6.452-12.907 13.742-12.907v-2zM6 87.979C6 88.95 6.688 90 7.921 90v-2c.005 0 .022.001.045.012.022.01.036.023.042.03.013.015-.008-.001-.008-.063H6zM7.921 90H56.5v-2H7.921v2zm29.785-50.916c1.718.436 6.02 2.287 8.946 6.051l1.579-1.227c-3.266-4.202-8.004-6.247-10.032-6.763l-.493 1.938z" opacity=".2"/></g></svg>