<svg xmlns="http://www.w3.org/2000/svg" fill="currentColor" class="bi bi-airplane" viewBox="0 0 16 16"><path d="M6.428 1.151C6.708.591 7.213 0 8 0s1.292.592 1.572 1.151C9.861 1.73 10 2.431 10 3v3.691l5.17 2.585a1.5 1.5 0 01.83 1.342V12a.5.5 0 01-.582.493l-5.507-.918-.375 2.253 1.318 1.318A.5.5 0 0110.5 16h-5a.5.5 0 01-.354-.854l1.319-1.318-.376-2.253-5.507.918A.5.5 0 010 12v-1.382a1.5 1.5 0 01.83-1.342L6 6.691V3c0-.568.14-1.271.428-1.849m.894.448C7.111 2.02 7 2.569 7 3v4a.5.5 0 01-.276.447l-5.448 2.724a.5.5 0 00-.276.447v.792l5.418-.903a.5.5 0 01.575.41l.5 3a.5.5 0 01-.14.437L6.708 15h2.586l-.647-.646a.5.5 0 01-.14-.436l.5-3a.5.5 0 01.576-.411L15 11.41v-.792a.5.5 0 00-.276-.447L9.276 7.447A.5.5 0 019 7V3c0-.432-.11-.979-.322-1.401C8.458 1.159 8.213 1 8 1s-.458.158-.678.599"/></svg>