<svg xmlns="http://www.w3.org/2000/svg" fill="currentColor" class="bi bi-brightness-low" viewBox="0 0 16 16"><path d="M8 11a3 3 0 110-6 3 3 0 010 6m0 1a4 4 0 100-8 4 4 0 000 8m.5-9.5a.5.5 0 11-1 0 .5.5 0 011 0m0 11a.5.5 0 11-1 0 .5.5 0 011 0m5-5a.5.5 0 110-1 .5.5 0 010 1m-11 0a.5.5 0 110-1 .5.5 0 010 1m9.743-4.036a.5.5 0 11-.707-.707.5.5 0 01.707.707m-7.779 7.779a.5.5 0 11-.707-.707.5.5 0 01.707.707m7.072 0a.5.5 0 11.707-.707.5.5 0 01-.707.707M3.757 4.464a.5.5 0 11.707-.707.5.5 0 01-.707.707"/></svg>