<svg xmlns="http://www.w3.org/2000/svg" fill="currentColor" class="bi bi-brightness-high-fill" viewBox="0 0 16 16"><path d="M12 8a4 4 0 11-8 0 4 4 0 018 0M8 0a.5.5 0 01.5.5v2a.5.5 0 01-1 0v-2A.5.5 0 018 0m0 13a.5.5 0 01.5.5v2a.5.5 0 01-1 0v-2A.5.5 0 018 13m8-5a.5.5 0 01-.5.5h-2a.5.5 0 010-1h2a.5.5 0 01.5.5M3 8a.5.5 0 01-.5.5h-2a.5.5 0 010-1h2A.5.5 0 013 8m10.657-5.657a.5.5 0 010 .707l-1.414 1.415a.5.5 0 11-.707-.708l1.414-1.414a.5.5 0 01.707 0m-9.193 9.193a.5.5 0 010 .707L3.05 13.657a.5.5 0 01-.707-.707l1.414-1.414a.5.5 0 01.707 0m9.193 2.121a.5.5 0 01-.707 0l-1.414-1.414a.5.5 0 01.707-.707l1.414 1.414a.5.5 0 010 .707M4.464 4.465a.5.5 0 01-.707 0L2.343 3.05a.5.5 0 11.707-.707l1.414 1.414a.5.5 0 010 .708"/></svg>