<svg xmlns="http://www.w3.org/2000/svg" fill="currentColor" class="bi bi-building-fill-check" viewBox="0 0 16 16"><path d="M12.5 16a3.5 3.5 0 100-7 3.5 3.5 0 000 7m1.679-4.493l-1.335 2.226a.75.75 0 01-1.174.144l-.774-.773a.5.5 0 01.708-.708l.547.548 1.17-1.951a.5.5 0 11.858.514"/><path d="M2 1a1 1 0 011-1h10a1 1 0 011 1v7.256A4.5 4.5 0 0012.5 8a4.5 4.5 0 00-3.59 1.787A.5.5 0 009 9.5v-1a.5.5 0 00-.5-.5h-1a.5.5 0 00-.5.5v1a.5.5 0 00.5.5h1a.5.5 0 00.39-.187A4.5 4.5 0 008.027 12H6.5a.5.5 0 00-.5.5V16H3a1 1 0 01-1-1zm2 1.5v1a.5.5 0 00.5.5h1a.5.5 0 00.5-.5v-1a.5.5 0 00-.5-.5h-1a.5.5 0 00-.5.5m3 0v1a.5.5 0 00.5.5h1a.5.5 0 00.5-.5v-1a.5.5 0 00-.5-.5h-1a.5.5 0 00-.5.5m3.5-.5a.5.5 0 00-.5.5v1a.5.5 0 00.5.5h1a.5.5 0 00.5-.5v-1a.5.5 0 00-.5-.5zM4 5.5v1a.5.5 0 00.5.5h1a.5.5 0 00.5-.5v-1a.5.5 0 00-.5-.5h-1a.5.5 0 00-.5.5M7.5 5a.5.5 0 00-.5.5v1a.5.5 0 00.5.5h1a.5.5 0 00.5-.5v-1a.5.5 0 00-.5-.5zm2.5.5v1a.5.5 0 00.5.5h1a.5.5 0 00.5-.5v-1a.5.5 0 00-.5-.5h-1a.5.5 0 00-.5.5M4.5 8a.5.5 0 00-.5.5v1a.5.5 0 00.5.5h1a.5.5 0 00.5-.5v-1a.5.5 0 00-.5-.5z"/></svg>