<svg xmlns="http://www.w3.org/2000/svg" fill="currentColor" class="bi bi-building-x" viewBox="0 0 16 16"><path d="M2 1a1 1 0 011-1h10a1 1 0 011 1v6.5a.5.5 0 01-1 0V1H3v14h3v-2.5a.5.5 0 01.5-.5H8v4H3a1 1 0 01-1-1z"/><path d="M4.5 2a.5.5 0 00-.5.5v1a.5.5 0 00.5.5h1a.5.5 0 00.5-.5v-1a.5.5 0 00-.5-.5zm3 0a.5.5 0 00-.5.5v1a.5.5 0 00.5.5h1a.5.5 0 00.5-.5v-1a.5.5 0 00-.5-.5zm3 0a.5.5 0 00-.5.5v1a.5.5 0 00.5.5h1a.5.5 0 00.5-.5v-1a.5.5 0 00-.5-.5zm-6 3a.5.5 0 00-.5.5v1a.5.5 0 00.5.5h1a.5.5 0 00.5-.5v-1a.5.5 0 00-.5-.5zm3 0a.5.5 0 00-.5.5v1a.5.5 0 00.5.5h1a.5.5 0 00.5-.5v-1a.5.5 0 00-.5-.5zm3 0a.5.5 0 00-.5.5v1a.5.5 0 00.5.5h1a.5.5 0 00.5-.5v-1a.5.5 0 00-.5-.5zm-6 3a.5.5 0 00-.5.5v1a.5.5 0 00.5.5h1a.5.5 0 00.5-.5v-1a.5.5 0 00-.5-.5zm3 0a.5.5 0 00-.5.5v1a.5.5 0 00.5.5h1a.5.5 0 00.5-.5v-1a.5.5 0 00-.5-.5zm5 8a3.5 3.5 0 100-7 3.5 3.5 0 000 7m-.646-4.854l.646.647.646-.647a.5.5 0 01.708.708l-.647.646.647.646a.5.5 0 01-.708.708l-.646-.647-.646.647a.5.5 0 01-.708-.708l.647-.646-.647-.646a.5.5 0 01.708-.708"/></svg>