<svg xmlns="http://www.w3.org/2000/svg" fill="currentColor" class="bi bi-building-fill-add" viewBox="0 0 16 16"><path d="M12.5 16a3.5 3.5 0 100-7 3.5 3.5 0 000 7m.5-5v1h1a.5.5 0 010 1h-1v1a.5.5 0 01-1 0v-1h-1a.5.5 0 010-1h1v-1a.5.5 0 011 0"/><path d="M2 1a1 1 0 011-1h10a1 1 0 011 1v7.256A4.5 4.5 0 0012.5 8a4.5 4.5 0 00-3.59 1.787A.5.5 0 009 9.5v-1a.5.5 0 00-.5-.5h-1a.5.5 0 00-.5.5v1a.5.5 0 00.5.5h1a.5.5 0 00.39-.187A4.5 4.5 0 008.027 12H6.5a.5.5 0 00-.5.5V16H3a1 1 0 01-1-1zm2 1.5v1a.5.5 0 00.5.5h1a.5.5 0 00.5-.5v-1a.5.5 0 00-.5-.5h-1a.5.5 0 00-.5.5m3 0v1a.5.5 0 00.5.5h1a.5.5 0 00.5-.5v-1a.5.5 0 00-.5-.5h-1a.5.5 0 00-.5.5m3.5-.5a.5.5 0 00-.5.5v1a.5.5 0 00.5.5h1a.5.5 0 00.5-.5v-1a.5.5 0 00-.5-.5zM4 5.5v1a.5.5 0 00.5.5h1a.5.5 0 00.5-.5v-1a.5.5 0 00-.5-.5h-1a.5.5 0 00-.5.5M7.5 5a.5.5 0 00-.5.5v1a.5.5 0 00.5.5h1a.5.5 0 00.5-.5v-1a.5.5 0 00-.5-.5zm2.5.5v1a.5.5 0 00.5.5h1a.5.5 0 00.5-.5v-1a.5.5 0 00-.5-.5h-1a.5.5 0 00-.5.5M4.5 8a.5.5 0 00-.5.5v1a.5.5 0 00.5.5h1a.5.5 0 00.5-.5v-1a.5.5 0 00-.5-.5z"/></svg>