<svg xmlns="http://www.w3.org/2000/svg" fill="currentColor" class="bi bi-building-down" viewBox="0 0 16 16"><path d="M12.5 9a3.5 3.5 0 110 7 3.5 3.5 0 010-7m.354 5.854l1.5-1.5a.5.5 0 00-.708-.708l-.646.647V10.5a.5.5 0 00-1 0v2.793l-.646-.647a.5.5 0 00-.708.708l1.5 1.5a.5.5 0 00.708 0"/><path d="M2 1a1 1 0 011-1h10a1 1 0 011 1v6.5a.5.5 0 01-1 0V1H3v14h3v-2.5a.5.5 0 01.5-.5H8v4H3a1 1 0 01-1-1z"/><path d="M4.5 2a.5.5 0 00-.5.5v1a.5.5 0 00.5.5h1a.5.5 0 00.5-.5v-1a.5.5 0 00-.5-.5zm3 0a.5.5 0 00-.5.5v1a.5.5 0 00.5.5h1a.5.5 0 00.5-.5v-1a.5.5 0 00-.5-.5zm3 0a.5.5 0 00-.5.5v1a.5.5 0 00.5.5h1a.5.5 0 00.5-.5v-1a.5.5 0 00-.5-.5zm-6 3a.5.5 0 00-.5.5v1a.5.5 0 00.5.5h1a.5.5 0 00.5-.5v-1a.5.5 0 00-.5-.5zm3 0a.5.5 0 00-.5.5v1a.5.5 0 00.5.5h1a.5.5 0 00.5-.5v-1a.5.5 0 00-.5-.5zm3 0a.5.5 0 00-.5.5v1a.5.5 0 00.5.5h1a.5.5 0 00.5-.5v-1a.5.5 0 00-.5-.5zm-6 3a.5.5 0 00-.5.5v1a.5.5 0 00.5.5h1a.5.5 0 00.5-.5v-1a.5.5 0 00-.5-.5zm3 0a.5.5 0 00-.5.5v1a.5.5 0 00.5.5h1a.5.5 0 00.5-.5v-1a.5.5 0 00-.5-.5z"/></svg>