<svg xmlns="http://www.w3.org/2000/svg" fill="currentColor" class="bi bi-calculator" viewBox="0 0 16 16"><path d="M12 1a1 1 0 011 1v12a1 1 0 01-1 1H4a1 1 0 01-1-1V2a1 1 0 011-1zM4 0a2 2 0 00-2 2v12a2 2 0 002 2h8a2 2 0 002-2V2a2 2 0 00-2-2z"/><path d="M4 2.5a.5.5 0 01.5-.5h7a.5.5 0 01.5.5v2a.5.5 0 01-.5.5h-7a.5.5 0 01-.5-.5zm0 4a.5.5 0 01.5-.5h1a.5.5 0 01.5.5v1a.5.5 0 01-.5.5h-1a.5.5 0 01-.5-.5zm0 3a.5.5 0 01.5-.5h1a.5.5 0 01.5.5v1a.5.5 0 01-.5.5h-1a.5.5 0 01-.5-.5zm0 3a.5.5 0 01.5-.5h1a.5.5 0 01.5.5v1a.5.5 0 01-.5.5h-1a.5.5 0 01-.5-.5zm3-6a.5.5 0 01.5-.5h1a.5.5 0 01.5.5v1a.5.5 0 01-.5.5h-1a.5.5 0 01-.5-.5zm0 3a.5.5 0 01.5-.5h1a.5.5 0 01.5.5v1a.5.5 0 01-.5.5h-1a.5.5 0 01-.5-.5zm0 3a.5.5 0 01.5-.5h1a.5.5 0 01.5.5v1a.5.5 0 01-.5.5h-1a.5.5 0 01-.5-.5zm3-6a.5.5 0 01.5-.5h1a.5.5 0 01.5.5v1a.5.5 0 01-.5.5h-1a.5.5 0 01-.5-.5zm0 3a.5.5 0 01.5-.5h1a.5.5 0 01.5.5v4a.5.5 0 01-.5.5h-1a.5.5 0 01-.5-.5z"/></svg>