<svg xmlns="http://www.w3.org/2000/svg" fill="currentColor" class="bi bi-calendar2-week" viewBox="0 0 16 16"><path d="M3.5 0a.5.5 0 01.5.5V1h8V.5a.5.5 0 011 0V1h1a2 2 0 012 2v11a2 2 0 01-2 2H2a2 2 0 01-2-2V3a2 2 0 012-2h1V.5a.5.5 0 01.5-.5M2 2a1 1 0 00-1 1v11a1 1 0 001 1h12a1 1 0 001-1V3a1 1 0 00-1-1z"/><path d="M2.5 4a.5.5 0 01.5-.5h10a.5.5 0 01.5.5v1a.5.5 0 01-.5.5H3a.5.5 0 01-.5-.5zM11 7.5a.5.5 0 01.5-.5h1a.5.5 0 01.5.5v1a.5.5 0 01-.5.5h-1a.5.5 0 01-.5-.5zm-3 0a.5.5 0 01.5-.5h1a.5.5 0 01.5.5v1a.5.5 0 01-.5.5h-1a.5.5 0 01-.5-.5zm-5 3a.5.5 0 01.5-.5h1a.5.5 0 01.5.5v1a.5.5 0 01-.5.5h-1a.5.5 0 01-.5-.5zm3 0a.5.5 0 01.5-.5h1a.5.5 0 01.5.5v1a.5.5 0 01-.5.5h-1a.5.5 0 01-.5-.5z"/></svg>