<svg xmlns="http://www.w3.org/2000/svg" fill="currentColor" class="bi bi-card-list" viewBox="0 0 16 16"><path d="M14.5 3a.5.5 0 01.5.5v9a.5.5 0 01-.5.5h-13a.5.5 0 01-.5-.5v-9a.5.5 0 01.5-.5zm-13-1A1.5 1.5 0 000 3.5v9A1.5 1.5 0 001.5 14h13a1.5 1.5 0 001.5-1.5v-9A1.5 1.5 0 0014.5 2z"/><path d="M5 8a.5.5 0 01.5-.5h7a.5.5 0 010 1h-7A.5.5 0 015 8m0-2.5a.5.5 0 01.5-.5h7a.5.5 0 010 1h-7a.5.5 0 01-.5-.5m0 5a.5.5 0 01.5-.5h7a.5.5 0 010 1h-7a.5.5 0 01-.5-.5m-1-5a.5.5 0 11-1 0 .5.5 0 011 0M4 8a.5.5 0 11-1 0 .5.5 0 011 0m0 2.5a.5.5 0 11-1 0 .5.5 0 011 0"/></svg>