<svg xmlns="http://www.w3.org/2000/svg" fill="currentColor" class="bi bi-clipboard2-check" viewBox="0 0 16 16"><path d="M9.5 0a.5.5 0 01.5.5.5.5 0 00.5.5.5.5 0 01.5.5V2a.5.5 0 01-.5.5h-5A.5.5 0 015 2v-.5a.5.5 0 01.5-.5.5.5 0 00.5-.5.5.5 0 01.5-.5z"/><path d="M3 2.5a.5.5 0 01.5-.5H4a.5.5 0 000-1h-.5A1.5 1.5 0 002 2.5v12A1.5 1.5 0 003.5 16h9a1.5 1.5 0 001.5-1.5v-12A1.5 1.5 0 0012.5 1H12a.5.5 0 000 1h.5a.5.5 0 01.5.5v12a.5.5 0 01-.5.5h-9a.5.5 0 01-.5-.5z"/><path d="M10.854 7.854a.5.5 0 00-.708-.708L7.5 9.793 6.354 8.646a.5.5 0 10-.708.708l1.5 1.5a.5.5 0 00.708 0z"/></svg>