<svg xmlns="http://www.w3.org/2000/svg" fill="currentColor" class="bi bi-clipboard-heart-fill" viewBox="0 0 16 16"><path fill-rule="evenodd" d="M6.5 0A1.5 1.5 0 005 1.5v1A1.5 1.5 0 006.5 4h3A1.5 1.5 0 0011 2.5v-1A1.5 1.5 0 009.5 0zm3 1a.5.5 0 01.5.5v1a.5.5 0 01-.5.5h-3a.5.5 0 01-.5-.5v-1a.5.5 0 01.5-.5z"/><path fill-rule="evenodd" d="M4 1.5H3a2 2 0 00-2 2V14a2 2 0 002 2h10a2 2 0 002-2V3.5a2 2 0 00-2-2h-1v1A2.5 2.5 0 019.5 5h-3A2.5 2.5 0 014 2.5zm4 5.982c1.664-1.673 5.825 1.254 0 5.018-5.825-3.764-1.664-6.69 0-5.018"/></svg>