<svg xmlns="http://www.w3.org/2000/svg" fill="currentColor" class="bi bi-clipboard2-check-fill" viewBox="0 0 16 16"><path d="M10 .5a.5.5 0 00-.5-.5h-3a.5.5 0 00-.5.5.5.5 0 01-.5.5.5.5 0 00-.5.5V2a.5.5 0 00.5.5h5A.5.5 0 0011 2v-.5a.5.5 0 00-.5-.5.5.5 0 01-.5-.5"/><path d="M4.085 1H3.5A1.5 1.5 0 002 2.5v12A1.5 1.5 0 003.5 16h9a1.5 1.5 0 001.5-1.5v-12A1.5 1.5 0 0012.5 1h-.585q.084.236.085.5V2a1.5 1.5 0 01-1.5 1.5h-5A1.5 1.5 0 014 2v-.5q.001-.264.085-.5m6.769 6.854l-3 3a.5.5 0 01-.708 0l-1.5-1.5a.5.5 0 11.708-.708L7.5 9.793l2.646-2.647a.5.5 0 01.708.708"/></svg>