<svg xmlns="http://www.w3.org/2000/svg" fill="currentColor" class="bi bi-cloud-snow" viewBox="0 0 16 16"><path d="M13.405 4.277a5.001 5.001 0 00-9.499-1.004A3.5 3.5 0 103.5 10.25H13a3 3 0 00.405-5.973M8.5 1.25a4 4 0 013.976 3.555.5.5 0 00.5.445H13a2 2 0 01-.001 4H3.5a2.5 2.5 0 11.605-4.926.5.5 0 00.596-.329A4 4 0 018.5 1.25M2.625 11.5a.25.25 0 01.25.25v.57l.501-.287a.25.25 0 01.248.434l-.495.283.495.283a.25.25 0 01-.248.434l-.501-.286v.569a.25.25 0 11-.5 0v-.57l-.501.287a.25.25 0 01-.248-.434l.495-.283-.495-.283a.25.25 0 01.248-.434l.501.286v-.569a.25.25 0 01.25-.25m2.75 2a.25.25 0 01.25.25v.57l.501-.287a.25.25 0 01.248.434l-.495.283.495.283a.25.25 0 01-.248.434l-.501-.286v.569a.25.25 0 11-.5 0v-.57l-.501.287a.25.25 0 01-.248-.434l.495-.283-.495-.283a.25.25 0 01.248-.434l.501.286v-.569a.25.25 0 01.25-.25m5.5 0a.25.25 0 01.25.25v.57l.501-.287a.25.25 0 01.248.434l-.495.283.495.283a.25.25 0 01-.248.434l-.501-.286v.569a.25.25 0 11-.5 0v-.57l-.501.287a.25.25 0 01-.248-.434l.495-.283-.495-.283a.25.25 0 01.248-.434l.501.286v-.569a.25.25 0 01.25-.25m-2.75-2a.25.25 0 01.25.25v.57l.501-.287a.25.25 0 01.248.434l-.495.283.495.283a.25.25 0 01-.248.434l-.501-.286v.569a.25.25 0 11-.5 0v-.57l-.501.287a.25.25 0 01-.248-.434l.495-.283-.495-.283a.25.25 0 01.248-.434l.501.286v-.569a.25.25 0 01.25-.25m5.5 0a.25.25 0 01.25.25v.57l.501-.287a.25.25 0 01.248.434l-.495.283.495.283a.25.25 0 01-.248.434l-.501-.286v.569a.25.25 0 11-.5 0v-.57l-.501.287a.25.25 0 01-.248-.434l.495-.283-.495-.283a.25.25 0 01.248-.434l.501.286v-.569a.25.25 0 01.25-.25"/></svg>