<svg xmlns="http://www.w3.org/2000/svg" fill="currentColor" class="bi bi-cloud-lightning-rain" viewBox="0 0 16 16"><path d="M2.658 11.026a.5.5 0 01.316.632l-.5 1.5a.5.5 0 11-.948-.316l.5-1.5a.5.5 0 01.632-.316m9.5 0a.5.5 0 01.316.632l-.5 1.5a.5.5 0 11-.948-.316l.5-1.5a.5.5 0 01.632-.316m-7.5 1.5a.5.5 0 01.316.632l-.5 1.5a.5.5 0 11-.948-.316l.5-1.5a.5.5 0 01.632-.316m9.5 0a.5.5 0 01.316.632l-.5 1.5a.5.5 0 11-.948-.316l.5-1.5a.5.5 0 01.632-.316m-.753-8.499a5.001 5.001 0 00-9.499-1.004A3.5 3.5 0 103.5 10H13a3 3 0 00.405-5.973M8.5 1a4 4 0 013.976 3.555.5.5 0 00.5.445H13a2 2 0 010 4H3.5a2.5 2.5 0 11.605-4.926.5.5 0 00.596-.329A4 4 0 018.5 1M7.053 11.276A.5.5 0 017.5 11h1a.5.5 0 01.474.658l-.28.842H9.5a.5.5 0 01.39.812l-2 2.5a.5.5 0 01-.875-.433L7.36 14H6.5a.5.5 0 01-.447-.724z"/></svg>