<svg xmlns="http://www.w3.org/2000/svg" fill="currentColor" class="bi bi-cloud-drizzle" viewBox="0 0 16 16"><path d="M4.158 12.025a.5.5 0 01.316.633l-.5 1.5a.5.5 0 01-.948-.316l.5-1.5a.5.5 0 01.632-.317m6 0a.5.5 0 01.316.633l-.5 1.5a.5.5 0 01-.948-.316l.5-1.5a.5.5 0 01.632-.317m-3.5 1.5a.5.5 0 01.316.633l-.5 1.5a.5.5 0 01-.948-.316l.5-1.5a.5.5 0 01.632-.317m6 0a.5.5 0 01.316.633l-.5 1.5a.5.5 0 11-.948-.316l.5-1.5a.5.5 0 01.632-.317m.747-8.498a5.001 5.001 0 00-9.499-1.004A3.5 3.5 0 103.5 11H13a3 3 0 00.405-5.973M8.5 2a4 4 0 013.976 3.555.5.5 0 00.5.445H13a2 2 0 010 4H3.5a2.5 2.5 0 11.605-4.926.5.5 0 00.596-.329A4 4 0 018.5 2"/></svg>