<svg xmlns="http://www.w3.org/2000/svg" fill="currentColor" class="bi bi-credit-card-2-front" viewBox="0 0 16 16"><path d="M14 3a1 1 0 011 1v8a1 1 0 01-1 1H2a1 1 0 01-1-1V4a1 1 0 011-1zM2 2a2 2 0 00-2 2v8a2 2 0 002 2h12a2 2 0 002-2V4a2 2 0 00-2-2z"/><path d="M2 5.5a.5.5 0 01.5-.5h2a.5.5 0 01.5.5v1a.5.5 0 01-.5.5h-2a.5.5 0 01-.5-.5zm0 3a.5.5 0 01.5-.5h5a.5.5 0 010 1h-5a.5.5 0 01-.5-.5m0 2a.5.5 0 01.5-.5h1a.5.5 0 010 1h-1a.5.5 0 01-.5-.5m3 0a.5.5 0 01.5-.5h1a.5.5 0 010 1h-1a.5.5 0 01-.5-.5m3 0a.5.5 0 01.5-.5h1a.5.5 0 010 1h-1a.5.5 0 01-.5-.5m3 0a.5.5 0 01.5-.5h1a.5.5 0 010 1h-1a.5.5 0 01-.5-.5"/></svg>