<svg xmlns="http://www.w3.org/2000/svg" fill="currentColor" class="bi bi-envelope-open-heart" viewBox="0 0 16 16"><path fill-rule="evenodd" d="M8.47 1.318a1 1 0 00-.94 0l-6 3.2A1 1 0 001 5.4v.817l3.235 1.94a2.8 2.8 0 00-.233 1.027L1 7.384v5.733l3.479-2.087q.224.414.558.83l-4.002 2.402A1 1 0 002 15h12a1 1 0 00.965-.738l-4.002-2.401q.334-.418.558-.831L15 13.117V7.383l-3.002 1.801a2.8 2.8 0 00-.233-1.026L15 6.217V5.4a1 1 0 00-.53-.882zM7.06.435a2 2 0 011.882 0l6 3.2A2 2 0 0116 5.4V14a2 2 0 01-2 2H2a2 2 0 01-2-2V5.4a2 2 0 011.059-1.765zM8 7.993c1.664-1.711 5.825 1.283 0 5.132-5.825-3.85-1.664-6.843 0-5.132"/></svg>