<svg xmlns="http://www.w3.org/2000/svg" fill="currentColor" class="bi bi-envelope-check-fill" viewBox="0 0 16 16"><path d="M.05 3.555A2 2 0 012 2h12a2 2 0 011.95 1.555L8 8.414zM0 4.697v7.104l5.803-3.558zM6.761 8.83l-6.57 4.026A2 2 0 002 14h6.256A4.5 4.5 0 018 12.5a4.49 4.49 0 011.606-3.446l-.367-.225L8 9.586zM16 4.697v4.974A4.5 4.5 0 0012.5 8a4.5 4.5 0 00-1.965.45l-.338-.207z"/><path d="M16 12.5a3.5 3.5 0 11-7 0 3.5 3.5 0 017 0m-1.993-1.679a.5.5 0 00-.686.172l-1.17 1.95-.547-.547a.5.5 0 00-.708.708l.774.773a.75.75 0 001.174-.144l1.335-2.226a.5.5 0 00-.172-.686"/></svg>