<svg xmlns="http://www.w3.org/2000/svg" fill="currentColor" class="bi bi-envelope-exclamation-fill" viewBox="0 0 16 16"><path d="M.05 3.555A2 2 0 012 2h12a2 2 0 011.95 1.555L8 8.414zM0 4.697v7.104l5.803-3.558zM6.761 8.83l-6.57 4.026A2 2 0 002 14h6.256A4.5 4.5 0 018 12.5a4.49 4.49 0 011.606-3.446l-.367-.225L8 9.586zM16 4.697v4.974A4.5 4.5 0 0012.5 8a4.5 4.5 0 00-1.965.45l-.338-.207z"/><path d="M12.5 16a3.5 3.5 0 100-7 3.5 3.5 0 000 7m.5-5v1.5a.5.5 0 01-1 0V11a.5.5 0 011 0m0 3a.5.5 0 11-1 0 .5.5 0 011 0"/></svg>