<svg xmlns="http://www.w3.org/2000/svg" fill="currentColor" class="bi bi-ev-station-fill" viewBox="0 0 16 16"><path d="M1 2a2 2 0 012-2h6a2 2 0 012 2v8a2 2 0 012 2v.5a.5.5 0 001 0V9c0-.258-.104-.377-.357-.635l-.007-.008C13.379 8.096 13 7.71 13 7V4a.5.5 0 01.146-.354l.5-.5a.5.5 0 01.708 0l.5.5A.5.5 0 0115 4v8.5a1.5 1.5 0 11-3 0V12a1 1 0 00-1-1v4h.5a.5.5 0 010 1H.5a.5.5 0 010-1H1zm2 .5v5a.5.5 0 00.5.5h5a.5.5 0 00.5-.5v-5a.5.5 0 00-.5-.5h-5a.5.5 0 00-.5.5m2.631 9.96H4.14v-.893h1.403v-.505H4.14v-.855h1.49v-.54H3.485V13h2.146zm1.316.54h.794l1.106-3.333h-.733l-.74 2.615h-.031l-.747-2.615h-.764z"/></svg>