<svg xmlns="http://www.w3.org/2000/svg" fill="currentColor" class="bi bi-file-earmark-music" viewBox="0 0 16 16"><path d="M11 6.64a1 1 0 00-1.243-.97l-1 .25A1 1 0 008 6.89v4.306A2.6 2.6 0 007 11c-.5 0-.974.134-1.338.377-.36.24-.662.628-.662 1.123s.301.883.662 1.123c.364.243.839.377 1.338.377s.974-.134 1.338-.377c.36-.24.662-.628.662-1.123V8.89l2-.5z"/><path d="M14 14V4.5L9.5 0H4a2 2 0 00-2 2v12a2 2 0 002 2h8a2 2 0 002-2M9.5 3A1.5 1.5 0 0011 4.5h2V14a1 1 0 01-1 1H4a1 1 0 01-1-1V2a1 1 0 011-1h5.5z"/></svg>