<svg xmlns="http://www.w3.org/2000/svg" fill="currentColor" class="bi bi-file-music" viewBox="0 0 16 16"><path d="M10.304 3.13a1 1 0 011.196.98v1.8l-2.5.5v5.09c0 .495-.301.883-.662 1.123C7.974 12.866 7.499 13 7 13s-.974-.134-1.338-.377C5.302 12.383 5 11.995 5 11.5s.301-.883.662-1.123C6.026 10.134 6.501 10 7 10c.356 0 .7.068 1 .196V4.41a1 1 0 01.804-.98z"/><path d="M4 0a2 2 0 00-2 2v12a2 2 0 002 2h8a2 2 0 002-2V2a2 2 0 00-2-2zm0 1h8a1 1 0 011 1v12a1 1 0 01-1 1H4a1 1 0 01-1-1V2a1 1 0 011-1"/></svg>