<svg xmlns="http://www.w3.org/2000/svg" fill="currentColor" class="bi bi-grid-3x3-gap-fill" viewBox="0 0 16 16"><path d="M1 2a1 1 0 011-1h2a1 1 0 011 1v2a1 1 0 01-1 1H2a1 1 0 01-1-1zm5 0a1 1 0 011-1h2a1 1 0 011 1v2a1 1 0 01-1 1H7a1 1 0 01-1-1zm5 0a1 1 0 011-1h2a1 1 0 011 1v2a1 1 0 01-1 1h-2a1 1 0 01-1-1zM1 7a1 1 0 011-1h2a1 1 0 011 1v2a1 1 0 01-1 1H2a1 1 0 01-1-1zm5 0a1 1 0 011-1h2a1 1 0 011 1v2a1 1 0 01-1 1H7a1 1 0 01-1-1zm5 0a1 1 0 011-1h2a1 1 0 011 1v2a1 1 0 01-1 1h-2a1 1 0 01-1-1zM1 12a1 1 0 011-1h2a1 1 0 011 1v2a1 1 0 01-1 1H2a1 1 0 01-1-1zm5 0a1 1 0 011-1h2a1 1 0 011 1v2a1 1 0 01-1 1H7a1 1 0 01-1-1zm5 0a1 1 0 011-1h2a1 1 0 011 1v2a1 1 0 01-1 1h-2a1 1 0 01-1-1z"/></svg>