<svg xmlns="http://www.w3.org/2000/svg" fill="currentColor" class="bi bi-grid" viewBox="0 0 16 16"><path d="M1 2.5A1.5 1.5 0 012.5 1h3A1.5 1.5 0 017 2.5v3A1.5 1.5 0 015.5 7h-3A1.5 1.5 0 011 5.5zM2.5 2a.5.5 0 00-.5.5v3a.5.5 0 00.5.5h3a.5.5 0 00.5-.5v-3a.5.5 0 00-.5-.5zm6.5.5A1.5 1.5 0 0110.5 1h3A1.5 1.5 0 0115 2.5v3A1.5 1.5 0 0113.5 7h-3A1.5 1.5 0 019 5.5zm1.5-.5a.5.5 0 00-.5.5v3a.5.5 0 00.5.5h3a.5.5 0 00.5-.5v-3a.5.5 0 00-.5-.5zM1 10.5A1.5 1.5 0 012.5 9h3A1.5 1.5 0 017 10.5v3A1.5 1.5 0 015.5 15h-3A1.5 1.5 0 011 13.5zm1.5-.5a.5.5 0 00-.5.5v3a.5.5 0 00.5.5h3a.5.5 0 00.5-.5v-3a.5.5 0 00-.5-.5zm6.5.5A1.5 1.5 0 0110.5 9h3a1.5 1.5 0 011.5 1.5v3a1.5 1.5 0 01-1.5 1.5h-3A1.5 1.5 0 019 13.5zm1.5-.5a.5.5 0 00-.5.5v3a.5.5 0 00.5.5h3a.5.5 0 00.5-.5v-3a.5.5 0 00-.5-.5z"/></svg>