<svg xmlns="http://www.w3.org/2000/svg" fill="currentColor" class="bi bi-house-exclamation-fill" viewBox="0 0 16 16"><path d="M8.707 1.5a1 1 0 00-1.414 0L.646 8.146a.5.5 0 00.708.708L8 2.207l6.646 6.647a.5.5 0 00.708-.708L13 5.793V2.5a.5.5 0 00-.5-.5h-1a.5.5 0 00-.5.5v1.293z"/><path d="M8 3.293l4.712 4.712A4.5 4.5 0 008.758 15H3.5A1.5 1.5 0 012 13.5V9.293z"/><path d="M16 12.5a3.5 3.5 0 11-7 0 3.5 3.5 0 017 0m-3.5-2a.5.5 0 00-.5.5v1.5a.5.5 0 101 0V11a.5.5 0 00-.5-.5m0 4a.5.5 0 100-1 .5.5 0 000 1"/></svg>