<svg xmlns="http://www.w3.org/2000/svg" fill="currentColor" class="bi bi-house-x" viewBox="0 0 16 16"><path d="M7.293 1.5a1 1 0 011.414 0L11 3.793V2.5a.5.5 0 01.5-.5h1a.5.5 0 01.5.5v3.293l2.354 2.353a.5.5 0 01-.708.708L8 2.207l-5 5V13.5a.5.5 0 00.5.5h4a.5.5 0 010 1h-4A1.5 1.5 0 012 13.5V8.207l-.646.647a.5.5 0 11-.708-.708z"/><path d="M12.5 16a3.5 3.5 0 100-7 3.5 3.5 0 000 7m-.646-4.854l.646.647.646-.646a.5.5 0 01.708.707l-.647.646.647.646a.5.5 0 01-.708.708l-.646-.647-.646.647a.5.5 0 01-.708-.707l.647-.647-.647-.646a.5.5 0 01.708-.707z"/></svg>