<svg xmlns="http://www.w3.org/2000/svg" fill="currentColor" class="bi bi-keyboard-fill" viewBox="0 0 16 16"><path d="M0 6a2 2 0 012-2h12a2 2 0 012 2v5a2 2 0 01-2 2H2a2 2 0 01-2-2zm13 .25v.5c0 .138.112.25.25.25h.5a.25.25 0 00.25-.25v-.5a.25.25 0 00-.25-.25h-.5a.25.25 0 00-.25.25M2.25 8a.25.25 0 00-.25.25v.5c0 .138.112.25.25.25h.5A.25.25 0 003 8.75v-.5A.25.25 0 002.75 8zM4 8.25v.5c0 .138.112.25.25.25h.5A.25.25 0 005 8.75v-.5A.25.25 0 004.75 8h-.5a.25.25 0 00-.25.25M6.25 8a.25.25 0 00-.25.25v.5c0 .138.112.25.25.25h.5A.25.25 0 007 8.75v-.5A.25.25 0 006.75 8zM8 8.25v.5c0 .138.112.25.25.25h.5A.25.25 0 009 8.75v-.5A.25.25 0 008.75 8h-.5a.25.25 0 00-.25.25M13.25 8a.25.25 0 00-.25.25v.5c0 .138.112.25.25.25h.5a.25.25 0 00.25-.25v-.5a.25.25 0 00-.25-.25zm0 2a.25.25 0 00-.25.25v.5c0 .138.112.25.25.25h.5a.25.25 0 00.25-.25v-.5a.25.25 0 00-.25-.25zm-3-2a.25.25 0 00-.25.25v.5c0 .138.112.25.25.25h1.5a.25.25 0 00.25-.25v-.5a.25.25 0 00-.25-.25zm.75 2.25v.5c0 .138.112.25.25.25h.5a.25.25 0 00.25-.25v-.5a.25.25 0 00-.25-.25h-.5a.25.25 0 00-.25.25M11.25 6a.25.25 0 00-.25.25v.5c0 .138.112.25.25.25h.5a.25.25 0 00.25-.25v-.5a.25.25 0 00-.25-.25zM9 6.25v.5c0 .138.112.25.25.25h.5a.25.25 0 00.25-.25v-.5A.25.25 0 009.75 6h-.5a.25.25 0 00-.25.25M7.25 6a.25.25 0 00-.25.25v.5c0 .138.112.25.25.25h.5A.25.25 0 008 6.75v-.5A.25.25 0 007.75 6zM5 6.25v.5c0 .138.112.25.25.25h.5A.25.25 0 006 6.75v-.5A.25.25 0 005.75 6h-.5a.25.25 0 00-.25.25M2.25 6a.25.25 0 00-.25.25v.5c0 .138.112.25.25.25h1.5A.25.25 0 004 6.75v-.5A.25.25 0 003.75 6zM2 10.25v.5c0 .138.112.25.25.25h.5a.25.25 0 00.25-.25v-.5a.25.25 0 00-.25-.25h-.5a.25.25 0 00-.25.25M4.25 10a.25.25 0 00-.25.25v.5c0 .138.112.25.25.25h5.5a.25.25 0 00.25-.25v-.5a.25.25 0 00-.25-.25z"/></svg>