<svg xmlns="http://www.w3.org/2000/svg" fill="currentColor" class="bi bi-send-x-fill" viewBox="0 0 16 16"><path d="M15.964.686a.5.5 0 00-.65-.65L.767 5.855H.766l-.452.18a.5.5 0 00-.082.887l.41.26.001.002 4.995 3.178 1.59 2.498C8 14 8 13 8 12.5a4.5 4.5 0 015.026-4.47zm-1.833 1.89L6.637 10.07l-.215-.338a.5.5 0 00-.154-.154l-.338-.215 7.494-7.494 1.178-.471z"/><path d="M16 12.5a3.5 3.5 0 11-7 0 3.5 3.5 0 017 0m-4.854-1.354a.5.5 0 000 .708l.647.646-.647.646a.5.5 0 00.708.708l.646-.647.646.647a.5.5 0 00.708-.708l-.647-.646.647-.646a.5.5 0 00-.708-.708l-.646.647-.646-.647a.5.5 0 00-.708 0"/></svg>