<svg xmlns="http://www.w3.org/2000/svg" fill="currentColor" class="bi bi-sign-turn-left" viewBox="0 0 16 16"><path d="M11 8.5A2.5 2.5 0 008.5 6H7V4.534a.25.25 0 00-.41-.192L4.23 6.308a.25.25 0 000 .384l2.36 1.966A.25.25 0 007 8.466V7h1.5A1.5 1.5 0 0110 8.5V11h1z"/><path fill-rule="evenodd" d="M6.95.435c.58-.58 1.52-.58 2.1 0l6.515 6.516c.58.58.58 1.519 0 2.098L9.05 15.565c-.58.58-1.519.58-2.098 0L.435 9.05a1.48 1.48 0 010-2.098zm1.4.7a.495.495 0 00-.7 0L1.134 7.65a.495.495 0 000 .7l6.516 6.516a.495.495 0 00.7 0l6.516-6.516a.495.495 0 000-.7L8.35 1.134z"/></svg>