<svg xmlns="http://www.w3.org/2000/svg" fill="currentColor" class="bi bi-trash3" viewBox="0 0 16 16"><path d="M6.5 1h3a.5.5 0 01.5.5v1H6v-1a.5.5 0 01.5-.5M11 2.5v-1A1.5 1.5 0 009.5 0h-3A1.5 1.5 0 005 1.5v1H1.5a.5.5 0 000 1h.538l.853 10.66A2 2 0 004.885 16h6.23a2 2 0 001.994-1.84l.853-10.66h.538a.5.5 0 000-1zm1.958 1l-.846 10.58a1 1 0 01-.997.92h-6.23a1 1 0 01-.997-.92L3.042 3.5zm-7.487 1a.5.5 0 01.528.47l.5 8.5a.5.5 0 01-.998.06L5 5.03a.5.5 0 01.47-.53zm5.058 0a.5.5 0 01.47.53l-.5 8.5a.5.5 0 11-.998-.06l.5-8.5a.5.5 0 01.528-.47M8 4.5a.5.5 0 01.5.5v8.5a.5.5 0 01-1 0V5a.5.5 0 01.5-.5"/></svg>