<svg xmlns="http://www.w3.org/2000/svg" fill="currentColor" class="bi bi-yelp" viewBox="0 0 16 16"><path d="M4.188 10.095l.736-.17.073-.02A.813.813 0 005.45 8.65a1 1 0 00-.3-.258 3 3 0 00-.428-.198l-.808-.295a76 76 0 00-1.364-.493C2.253 7.3 2 7.208 1.783 7.14c-.041-.013-.087-.025-.124-.038a2.1 2.1 0 00-.606-.116.72.72 0 00-.572.245 2 2 0 00-.105.132 1.6 1.6 0 00-.155.309c-.15.443-.225.908-.22 1.376.002.423.013.966.246 1.334a.8.8 0 00.22.24c.166.114.333.129.507.141.26.019.513-.045.764-.103l2.447-.566zm8.219-3.911a4.2 4.2 0 00-.8-1.14 1.6 1.6 0 00-.275-.21 2 2 0 00-.15-.073.72.72 0 00-.621.031c-.142.07-.294.182-.496.37-.028.028-.063.06-.094.089-.167.156-.353.35-.574.575q-.51.516-1.01 1.042l-.598.62a3 3 0 00-.298.365 1 1 0 00-.157.364.8.8 0 00.007.301q0 .007.003.013a.81.81 0 00.945.616l.074-.014 3.185-.736c.251-.058.506-.112.732-.242.151-.088.295-.175.394-.35a.8.8 0 00.093-.313c.05-.434-.178-.927-.36-1.308M6.706 7.523c.23-.29.23-.722.25-1.075.07-1.181.143-2.362.201-3.543.022-.448.07-.89.044-1.34-.022-.372-.025-.799-.26-1.104C6.528-.077 5.644-.033 5.04.05q-.278.038-.553.104a8 8 0 00-.543.149c-.58.19-1.393.537-1.53 1.204-.078.377.106.763.249 1.107.173.417.41.792.625 1.185.57 1.036 1.15 2.066 1.728 3.097.172.308.36.697.695.857q.033.015.068.025c.15.057.313.068.469.032l.028-.007a.8.8 0 00.377-.226zm-.276 3.161a.74.74 0 00-.923-.234 1 1 0 00-.145.09 2 2 0 00-.346.354c-.026.033-.05.077-.08.104l-.512.705q-.435.591-.861 1.193c-.185.26-.346.479-.472.673l-.072.11c-.152.235-.238.406-.282.559a.7.7 0 00-.03.314c.013.11.05.217.108.312q.046.07.1.138a1.6 1.6 0 00.257.237 4.5 4.5 0 002.196.76 1.6 1.6 0 00.349-.027 2 2 0 00.163-.048.8.8 0 00.278-.178.7.7 0 00.17-.266c.059-.147.098-.335.123-.613l.012-.13c.02-.231.03-.502.045-.821q.037-.735.06-1.469l.033-.87a2.1 2.1 0 00-.055-.623 1 1 0 00-.117-.27zm5.783 1.362a2.2 2.2 0 00-.498-.378l-.112-.067c-.199-.12-.438-.246-.719-.398q-.644-.353-1.295-.695l-.767-.407c-.04-.012-.08-.04-.118-.059a2 2 0 00-.466-.166 1 1 0 00-.17-.018.74.74 0 00-.725.616 1 1 0 00.01.293c.038.204.13.406.224.583l.41.768q.341.65.696 1.294c.152.28.28.52.398.719q.036.057.068.112c.145.239.261.39.379.497a.73.73 0 00.596.201 2 2 0 00.168-.029 1.6 1.6 0 00.325-.129 4 4 0 00.855-.64c.306-.3.577-.63.788-1.006q.045-.08.076-.165a2 2 0 00.051-.161q.019-.083.029-.168a.8.8 0 00-.038-.327.7.7 0 00-.165-.27"/></svg>