<svg class="lucide lucide-wheat" xmlns="http://www.w3.org/2000/svg" viewBox="0 0 24 24" fill="none" stroke="currentColor" stroke-width="2" stroke-linecap="round" stroke-linejoin="round"><path d="M2 22L16 8M3.47 12.53L5 11l1.53 1.53a3.5 3.5 0 010 4.94L5 19l-1.53-1.53a3.5 3.5 0 010-4.94zM7.47 8.53L9 7l1.53 1.53a3.5 3.5 0 010 4.94L9 15l-1.53-1.53a3.5 3.5 0 010-4.94zM11.47 4.53L13 3l1.53 1.53a3.5 3.5 0 010 4.94L13 11l-1.53-1.53a3.5 3.5 0 010-4.94zM20 2h2v2a4 4 0 01-4 4h-2V6a4 4 0 014-4z"/><path d="M11.47 17.47L13 19l-1.53 1.53a3.5 3.5 0 01-4.94 0L5 19l1.53-1.53a3.5 3.5 0 014.94 0zM15.47 13.47L17 15l-1.53 1.53a3.5 3.5 0 01-4.94 0L9 15l1.53-1.53a3.5 3.5 0 014.94 0zM19.47 9.47L21 11l-1.53 1.53a3.5 3.5 0 01-4.94 0L13 11l1.53-1.53a3.5 3.5 0 014.94 0z"/></svg>