<svg class="lucide lucide-brain-cog" xmlns="http://www.w3.org/2000/svg" viewBox="0 0 24 24" fill="none" stroke="currentColor" stroke-width="2" stroke-linecap="round" stroke-linejoin="round"><path d="M10.852 14.772l-.383.923M10.852 9.228l-.383-.923M13.148 14.772l.382.924M13.531 8.305l-.383.923M14.772 10.852l.923-.383M14.772 13.148l.923.383M17.598 6.5A3 3 0 1012 5a3 3 0 00-5.63-1.446 3 3 0 00-.368 1.571 4 4 0 00-2.525 5.771M17.998 5.125a4 4 0 012.525 5.771M19.505 10.294a4 4 0 01-1.5 7.706"/><path d="M4.032 17.483A4 4 0 0011.464 20c.18-.311.892-.311 1.072 0a4 4 0 007.432-2.516M4.5 10.291A4 4 0 006 18M6.002 5.125a3 3 0 00.4 1.375M9.228 10.852l-.923-.383M9.228 13.148l-.923.383"/><circle cx="12" cy="12" r="3"/></svg>