<svg class="lucide lucide-calendar-cog" xmlns="http://www.w3.org/2000/svg" viewBox="0 0 24 24" fill="none" stroke="currentColor" stroke-width="2" stroke-linecap="round" stroke-linejoin="round"><path d="M15.228 16.852l-.923-.383M15.228 19.148l-.923.383M16 2v4M16.47 14.305l.382.923M16.852 20.772l-.383.924M19.148 15.228l.383-.923M19.53 21.696l-.382-.924M20.772 16.852l.924-.383M20.772 19.148l.924.383M21 10.592V6a2 2 0 00-2-2H5a2 2 0 00-2 2v14a2 2 0 002 2h6M3 10h18M8 2v4"/><circle cx="18" cy="18" r="3"/></svg>