<svg class="lucide lucide-candy-off" xmlns="http://www.w3.org/2000/svg" viewBox="0 0 24 24" fill="none" stroke="currentColor" stroke-width="2" stroke-linecap="round" stroke-linejoin="round"><path d="M10 10v7.9M11.802 6.145a5 5 0 016.053 6.053M14 6.1v2.243M15.5 15.571l-.964.964a5 5 0 01-7.071 0 5 5 0 010-7.07l.964-.965"/><path d="M16 7V3a1 1 0 011.707-.707 2.5 2.5 0 002.152.717 1 1 0 011.131 1.131 2.5 2.5 0 00.717 2.152A1 1 0 0121 8h-4M2 2l20 20M8 17v4a1 1 0 01-1.707.707 2.5 2.5 0 00-2.152-.717 1 1 0 01-1.131-1.131 2.5 2.5 0 00-.717-2.152A1 1 0 013 16h4"/></svg>