<svg class="lucide lucide-candy" xmlns="http://www.w3.org/2000/svg" viewBox="0 0 24 24" fill="none" stroke="currentColor" stroke-width="2" stroke-linecap="round" stroke-linejoin="round"><path d="M10 7v10.9M14 6.1V17M16 7V3a1 1 0 011.707-.707 2.5 2.5 0 002.152.717 1 1 0 011.131 1.131 2.5 2.5 0 00.717 2.152A1 1 0 0121 8h-4"/><path d="M16.536 7.465a5 5 0 00-7.072 0l-2 2a5 5 0 000 7.07 5 5 0 007.072 0l2-2a5 5 0 000-7.07"/><path d="M8 17v4a1 1 0 01-1.707.707 2.5 2.5 0 00-2.152-.717 1 1 0 01-1.131-1.131 2.5 2.5 0 00-.717-2.152A1 1 0 013 16h4"/></svg>