<svg class="lucide lucide-cloud-cog" xmlns="http://www.w3.org/2000/svg" viewBox="0 0 24 24" fill="none" stroke="currentColor" stroke-width="2" stroke-linecap="round" stroke-linejoin="round"><path d="M10.852 19.772l-.383.924M13.148 14.228l.383-.923M13.148 19.772a3 3 0 10-2.296-5.544l-.383-.923"/><path d="M13.53 20.696l-.382-.924a3 3 0 11-2.296-5.544M14.772 15.852l.923-.383M14.772 18.148l.923.383"/><path d="M4.2 15.1a7 7 0 119.93-9.858A7 7 0 0115.71 8h1.79a4.5 4.5 0 012.5 8.2M9.228 15.852l-.923-.383M9.228 18.148l-.923.383"/></svg>