<svg class="lucide lucide-file-volume" xmlns="http://www.w3.org/2000/svg" viewBox="0 0 24 24" fill="none" stroke="currentColor" stroke-width="2" stroke-linecap="round" stroke-linejoin="round"><path d="M4 11.55V4a2 2 0 012-2h8a2.4 2.4 0 011.706.706l3.588 3.588A2.4 2.4 0 0120 8v12a2 2 0 01-2 2h-1.95"/><path d="M14 2v5a1 1 0 001 1h5M12 15a5 5 0 010 6M8 14.502a.5.5 0 00-.826-.381l-1.893 1.631a1 1 0 01-.651.243H3.5a.5.5 0 00-.5.501v3.006a.5.5 0 00.5.501h1.129a1 1 0 01.652.243l1.893 1.633a.5.5 0 00.826-.38z"/></svg>