<svg class="lucide lucide-file-cog" xmlns="http://www.w3.org/2000/svg" viewBox="0 0 24 24" fill="none" stroke="currentColor" stroke-width="2" stroke-linecap="round" stroke-linejoin="round"><path d="M15 8a1 1 0 01-1-1V2a2.4 2.4 0 011.704.706l3.588 3.588A2.4 2.4 0 0120 8zM20 8v12a2 2 0 01-2 2h-4.182M3.305 19.53l.923-.382M4 10.592V4a2 2 0 012-2h8M4.228 16.852l-.924-.383M5.852 15.228l-.383-.923M5.852 20.772l-.383.924M8.148 15.228l.383-.923M8.53 21.696l-.382-.924M9.773 16.852l.922-.383M9.773 19.148l.922.383"/><circle cx="7" cy="18" r="3"/></svg>