<svg class="lucide lucide-file-box" xmlns="http://www.w3.org/2000/svg" viewBox="0 0 24 24" fill="none" stroke="currentColor" stroke-width="2" stroke-linecap="round" stroke-linejoin="round"><path d="M14.5 22H18a2 2 0 002-2V8a2.4 2.4 0 00-.706-1.706l-3.588-3.588A2.4 2.4 0 0014 2H6a2 2 0 00-2 2v3.8"/><path d="M14 2v5a1 1 0 001 1h5M11.7 14.2L7 17l-4.7-2.8"/><path d="M3 13.1a2 2 0 00-.999 1.76v3.24a2 2 0 00.969 1.78L6 21.7a2 2 0 002.03.01L11 19.9a2 2 0 001-1.76V14.9a2 2 0 00-.97-1.78L8 11.3a2 2 0 00-2.03-.01zM7 17v5"/></svg>