<svg class="lucide lucide-folder-cog" xmlns="http://www.w3.org/2000/svg" viewBox="0 0 24 24" fill="none" stroke="currentColor" stroke-width="2" stroke-linecap="round" stroke-linejoin="round"><path d="M10.3 20H4a2 2 0 01-2-2V5a2 2 0 012-2h3.98a2 2 0 011.69.9l.66 1.2A2 2 0 0012 6h8a2 2 0 012 2v3.3M14.305 19.53l.923-.382M15.228 16.852l-.923-.383M16.852 15.228l-.383-.923M16.852 20.772l-.383.924M19.148 15.228l.383-.923M19.53 21.696l-.382-.924M20.772 16.852l.924-.383M20.772 19.148l.924.383"/><circle cx="18" cy="18" r="3"/></svg>