<svg class="lucide lucide-message-square-heart" xmlns="http://www.w3.org/2000/svg" viewBox="0 0 24 24" fill="none" stroke="currentColor" stroke-width="2" stroke-linecap="round" stroke-linejoin="round"><path d="M22 17a2 2 0 01-2 2H6.828a2 2 0 00-1.414.586l-2.202 2.202A.71.71 0 012 21.286V5a2 2 0 012-2h16a2 2 0 012 2z"/><path d="M7.5 9.5c0 .687.265 1.383.697 1.844l3.009 3.264a1.14 1.14 0 00.407.314 1 1 0 00.783-.004 1.14 1.14 0 00.398-.31l3.008-3.264A2.77 2.77 0 0016.5 9.5 2.5 2.5 0 0012 8a2.5 2.5 0 00-4.5 1.5"/></svg>