<svg class="lucide lucide-paint-bucket" xmlns="http://www.w3.org/2000/svg" viewBox="0 0 24 24" fill="none" stroke="currentColor" stroke-width="2" stroke-linecap="round" stroke-linejoin="round"><path d="M11 7L6 2M18.992 12H2.041M21.145 18.38A3.34 3.34 0 0120 16.5a3.3 3.3 0 01-1.145 1.88c-.575.46-.855 1.02-.855 1.595A2 2 0 0020 22a2 2 0 002-2.025c0-.58-.285-1.13-.855-1.595M8.5 4.5l2.148-2.148a1.205 1.205 0 011.704 0l7.296 7.296a1.205 1.205 0 010 1.704l-7.592 7.592a3.615 3.615 0 01-5.112 0l-3.888-3.888a3.615 3.615 0 010-5.112L5.67 7.33"/></svg>