<svg class="lucide lucide-pickaxe" xmlns="http://www.w3.org/2000/svg" viewBox="0 0 24 24" fill="none" stroke="currentColor" stroke-width="2" stroke-linecap="round" stroke-linejoin="round"><path d="M14 13l-8.381 8.38a1 1 0 01-3.001-3L11 9.999M15.973 4.027A13 13 0 005.902 2.373c-1.398.342-1.092 2.158.277 2.601a19.9 19.9 0 015.822 3.024M16.001 11.999a19.9 19.9 0 013.024 5.824c.444 1.369 2.26 1.676 2.603.278A13 13 0 0020 8.069"/><path d="M18.352 3.352a1.205 1.205 0 00-1.704 0l-5.296 5.296a1.205 1.205 0 000 1.704l2.296 2.296a1.205 1.205 0 001.704 0l5.296-5.296a1.205 1.205 0 000-1.704z"/></svg>