<svg class="lucide lucide-receipt-indian-rupee" xmlns="http://www.w3.org/2000/svg" viewBox="0 0 24 24" fill="none" stroke="currentColor" stroke-width="2" stroke-linecap="round" stroke-linejoin="round"><path d="M4 3a1 1 0 011-1 1.3 1.3 0 01.7.2l.933.6a1.3 1.3 0 001.4 0l.934-.6a1.3 1.3 0 011.4 0l.933.6a1.3 1.3 0 001.4 0l.933-.6a1.3 1.3 0 011.4 0l.934.6a1.3 1.3 0 001.4 0l.933-.6A1.3 1.3 0 0119 2a1 1 0 011 1v18a1 1 0 01-1 1 1.3 1.3 0 01-.7-.2l-.933-.6a1.3 1.3 0 00-1.4 0l-.934.6a1.3 1.3 0 01-1.4 0l-.933-.6a1.3 1.3 0 00-1.4 0l-.933.6a1.3 1.3 0 01-1.4 0l-.934-.6a1.3 1.3 0 00-1.4 0l-.933.6a1.3 1.3 0 01-.7.2 1 1 0 01-1-1zM8 11h8M8 7h8"/><path d="M9 7a4 4 0 010 8H8l3 2"/></svg>