<svg class="lucide lucide-settings" xmlns="http://www.w3.org/2000/svg" viewBox="0 0 24 24" fill="none" stroke="currentColor" stroke-width="2" stroke-linecap="round" stroke-linejoin="round"><path d="M9.671 4.136a2.34 2.34 0 014.659 0 2.34 2.34 0 003.319 1.915 2.34 2.34 0 012.33 4.033 2.34 2.34 0 000 3.831 2.34 2.34 0 01-2.33 4.033 2.34 2.34 0 00-3.319 1.915 2.34 2.34 0 01-4.659 0 2.34 2.34 0 00-3.32-1.915 2.34 2.34 0 01-2.33-4.033 2.34 2.34 0 000-3.831A2.34 2.34 0 016.35 6.051a2.34 2.34 0 003.319-1.915"/><circle cx="12" cy="12" r="3"/></svg>