<svg class="lucide lucide-shield-cog-corner" xmlns="http://www.w3.org/2000/svg" viewBox="0 0 24 24" fill="none" stroke="currentColor" stroke-width="2" stroke-linecap="round" stroke-linejoin="round"><path d="M11 22c-3.806-1.45-7-3.966-7-9V6a1 1 0 011-1c2 0 4.5-1.2 6.24-2.72a1.17 1.17 0 011.52 0C14.51 3.81 17 5 19 5a1 1 0 011 1v4M14.923 16.547L14 16.164M14.923 18.843l-.923.383M16.547 14.923L16.164 14M16.547 20.467l-.383.924M18.843 14.923l.383-.923M19.225 21.391l-.382-.924M20.467 16.547l.923-.383M20.467 18.843l.923.383"/><circle cx="17.695" cy="17.695" r="3"/></svg>