<svg class="lucide lucide-shield-cog" xmlns="http://www.w3.org/2000/svg" viewBox="0 0 24 24" fill="none" stroke="currentColor" stroke-width="2" stroke-linecap="round" stroke-linejoin="round"><path d="M10.929 14.467l-.383.924M10.929 8.923L10.546 8M13.225 8.923L13.608 8M13.607 15.391l-.382-.924M14.849 10.547l.923-.383M14.849 12.843l.923.383M20 13c0 5-3.5 7.5-7.66 8.95a1 1 0 01-.67-.01C7.5 20.5 4 18 4 13V6a1 1 0 011-1c2 0 4.5-1.2 6.24-2.72a1.17 1.17 0 011.52 0C14.51 3.81 17 5 19 5a1 1 0 011 1zM9.305 10.547l-.923-.383M9.305 12.843l-.923.383"/><circle cx="12.077" cy="11.695" r="3"/></svg>