<svg class="lucide lucide-star-off" xmlns="http://www.w3.org/2000/svg" viewBox="0 0 24 24" fill="none" stroke="currentColor" stroke-width="2" stroke-linecap="round" stroke-linejoin="round"><path d="M10.344 4.688l1.181-2.393a.53.53 0 01.95 0l2.31 4.679a2.12 2.12 0 001.595 1.16l5.166.756a.53.53 0 01.294.904l-3.237 3.152M17.945 17.945l.43 2.505a.53.53 0 01-.771.56l-4.618-2.428a2.12 2.12 0 00-1.973 0L6.396 21.01a.53.53 0 01-.77-.56l.881-5.139a2.12 2.12 0 00-.611-1.879L2.16 9.795a.53.53 0 01.294-.906l5.165-.755a8 8 0 00.4-.099M2 2l20 20"/></svg>