<svg class="lucide lucide-store" xmlns="http://www.w3.org/2000/svg" viewBox="0 0 24 24" fill="none" stroke="currentColor" stroke-width="2" stroke-linecap="round" stroke-linejoin="round"><path d="M15 21v-5a1 1 0 00-1-1h-4a1 1 0 00-1 1v5M17.774 10.31a1.12 1.12 0 00-1.549 0 2.5 2.5 0 01-3.451 0 1.12 1.12 0 00-1.548 0 2.5 2.5 0 01-3.452 0 1.12 1.12 0 00-1.549 0 2.5 2.5 0 01-3.77-3.248l2.889-4.184A2 2 0 017 2h10a2 2 0 011.653.873l2.895 4.192a2.5 2.5 0 01-3.774 3.244"/><path d="M4 10.95V19a2 2 0 002 2h12a2 2 0 002-2v-8.05"/></svg>