<svg class="lucide lucide-tool-case" xmlns="http://www.w3.org/2000/svg" viewBox="0 0 24 24" fill="none" stroke="currentColor" stroke-width="2" stroke-linecap="round" stroke-linejoin="round"><path d="M10 15h4M14.817 10.995l-.971-1.45 1.034-1.232a2 2 0 00-2.025-3.238l-1.82.364L9.91 3.885a2 2 0 00-3.625.748L6.141 6.55l-1.725.426a2 2 0 00-.19 3.756l.657.27"/><path d="M18.822 10.995l2.26-5.38a1 1 0 00-.557-1.318L16.954 2.9a1 1 0 00-1.281.533l-.924 2.122M4 12.006A1 1 0 014.994 11H19a1 1 0 011 1v7a2 2 0 01-2 2H6a2 2 0 01-2-2z"/></svg>