<svg class="lucide lucide-wheat-off" xmlns="http://www.w3.org/2000/svg" viewBox="0 0 24 24" fill="none" stroke="currentColor" stroke-width="2" stroke-linecap="round" stroke-linejoin="round"><path d="M2 22l10-10M16 8l-1.17 1.17M3.47 12.53L5 11l1.53 1.53a3.5 3.5 0 010 4.94L5 19l-1.53-1.53a3.5 3.5 0 010-4.94zM8 8l-.53.53a3.5 3.5 0 000 4.94L9 15l1.53-1.53c.55-.55.88-1.25.98-1.97M10.91 5.26c.15-.26.34-.51.56-.73L13 3l1.53 1.53a3.5 3.5 0 01.28 4.62M20 2h2v2a4 4 0 01-4 4h-2V6a4 4 0 014-4z"/><path d="M11.47 17.47L13 19l-1.53 1.53a3.5 3.5 0 01-4.94 0L5 19l1.53-1.53a3.5 3.5 0 014.94 0zM16 16l-.53.53a3.5 3.5 0 01-4.94 0L9 15l1.53-1.53a3.49 3.49 0 011.97-.98M18.74 13.09c.26-.15.51-.34.73-.56L21 11l-1.53-1.53a3.5 3.5 0 00-4.62-.28M2 2l20 20"/></svg>