<svg class="lucide lucide-zodiac-aquarius" xmlns="http://www.w3.org/2000/svg" viewBox="0 0 24 24" fill="none" stroke="currentColor" stroke-width="2" stroke-linecap="round" stroke-linejoin="round"><path d="M2 10l2.456-3.684a.7.7 0 011.106-.013l2.39 3.413a.7.7 0 001.096-.001l2.402-3.432a.7.7 0 011.098 0l2.402 3.432a.7.7 0 001.098 0l2.389-3.413a.7.7 0 011.106.013L22 10M2 18.002l2.456-3.684a.7.7 0 011.106-.013l2.39 3.413a.7.7 0 001.097 0l2.402-3.432a.7.7 0 011.098 0l2.402 3.432a.7.7 0 001.098 0l2.389-3.413a.7.7 0 011.106.013L22 18.002"/></svg>