<svg viewBox="0 0 24 24" fill="none" xmlns="http://www.w3.org/2000/svg"><path d="M18.498 15.471a3.464 3.464 0 01-2.165-.749 3.494 3.494 0 01-2.165.749 3.464 3.464 0 01-2.165-.749 3.494 3.494 0 01-2.166.749 3.464 3.464 0 01-2.165-.749 3.494 3.494 0 01-2.165.749 3.483 3.483 0 01-2.452-.995A3.41 3.41 0 012 12.06a3.45 3.45 0 01.965-2.457 3.477 3.477 0 012.416-1.075h.236a3.5 3.5 0 012.05.744 3.472 3.472 0 012.045-.744h.236a3.5 3.5 0 012.05.744 3.487 3.487 0 012.05-.744H14.282a3.5 3.5 0 012.05.744 3.475 3.475 0 012.05-.744h.236c.919.03 1.778.412 2.416 1.075.638.664.98 1.538.965 2.452a3.443 3.443 0 01-1.045 2.421 3.521 3.521 0 01-2.457.995zm-1.592-1.316c.447.326 1 .522 1.592.522 1.462 0 2.673-1.18 2.693-2.627.025-1.447-1.14-2.663-2.598-2.718h-.19c-.558.02-1.07.211-1.492.518.502.627.763 1.401.753 2.21a3.483 3.483 0 01-.758 2.095zm-4.33 0a2.684 2.684 0 003.18 0 3.466 3.466 0 01-.754-2.095 3.42 3.42 0 01.753-2.21 2.698 2.698 0 00-1.492-.518h-.19c-.558.02-1.07.211-1.493.518.503.627.764 1.401.754 2.21a3.515 3.515 0 01-.759 2.095zm-4.336 0a2.684 2.684 0 003.18 0 3.466 3.466 0 01-.754-2.095 3.42 3.42 0 01.754-2.21 2.698 2.698 0 00-1.492-.518h-.191c-.558.02-1.07.211-1.492.518.502.627.763 1.401.753 2.21a3.515 3.515 0 01-.758 2.095zM5.4 9.327c-1.456.05-2.622 1.271-2.597 2.718.025 1.447 1.231 2.627 2.693 2.627.593 0 1.14-.196 1.587-.522a3.466 3.466 0 01-.753-2.095 3.42 3.42 0 01.753-2.21 2.697 2.697 0 00-1.492-.518h-.19zm6.597 1.09a2.633 2.633 0 000 3.165c.321-.432.517-.965.527-1.537.01-.608-.19-1.17-.527-1.628zm-4.336 0a2.632 2.632 0 000 3.165 2.632 2.632 0 000-3.165zm8.666 0a2.631 2.631 0 000 3.165 2.65 2.65 0 00.527-1.537 2.601 2.601 0 00-.527-1.628z" fill="#323544"/></svg>