<svg viewBox="0 0 24 24" fill="none" xmlns="http://www.w3.org/2000/svg"><path fill-rule="evenodd" clip-rule="evenodd" d="M18.852 18.098v-2.655h-1.096v2.655h1.096zm-5.801-1.102v-1.513h-1.062v1.156c0 .336-.014.43-.034.518-.074.242-.33.35-.591.35-.363 0-.531-.142-.599-.364-.02-.073-.027-.154-.033-.235-.007-.087 0-.181 0-.282v-1.143H9.656v1.52c0 .343.115.598.303.773.322.316.867.41 1.371.41.612 0 1.082-.088 1.418-.417.175-.168.303-.39.303-.773zm-5.216-.189a.908.908 0 00-.162-.013h-1.21a.981.981 0 00-.161.013c.02-.02.06-.06.1-.114l.545-.9c.074-.121.108-.202.121-.236.014.034.047.114.121.242l.558.908c.027.04.067.08.088.1zm2.03 1.291l-2.42-3.63H6.087l.356.424c.007.007.02.013.034.02-.014.007-.027.013-.034.02l-2.11 3.166h1.223l.33-.544a.179.179 0 00.02-.067c.013 0 .047.013.08.013h2.185c.033 0 .06-.007.074-.014a.091.091 0 00.013.054l.343.558h1.264zm7.595-1.364c0-.296-.12-.64-.497-1.116l-.908-1.15h-1.263l.719.807c.121.134.276.255.276.255a1.194 1.194 0 00-.572-.14c-.416 0-.84.086-1.216.295-.404.222-.673.591-.673 1.082 0 .377.168.666.383.887.485.484 1.365.532 1.688.532.477 0 1.223-.108 1.647-.491a1.26 1.26 0 00.416-.961zm-1.048.033c0 .276-.182.484-.41.598-.188.101-.41.128-.605.128s-.424-.04-.612-.134c-.229-.115-.403-.336-.403-.578 0-.29.221-.518.484-.632.161-.074.356-.101.51-.101.149 0 .364.02.532.087.302.128.504.37.504.632zm2.092-10.953a3.48 3.48 0 00-2.168.754 3.48 3.48 0 00-2.168-.754A3.48 3.48 0 0012 6.568a3.48 3.48 0 00-2.168-.754 3.48 3.48 0 00-2.168.754 3.496 3.496 0 100 5.486 3.48 3.48 0 002.168.753A3.48 3.48 0 0012 12.054a3.48 3.48 0 002.168.753 3.48 3.48 0 002.168-.753 3.496 3.496 0 102.168-6.24zM7.092 11.483A2.694 2.694 0 012.801 9.31a2.694 2.694 0 014.291-2.172 3.502 3.502 0 000 4.344zm.572-.57a2.68 2.68 0 01-.527-1.602 2.675 2.675 0 01.527-1.602c.344.463.53 1.025.528 1.602a2.68 2.68 0 01-.528 1.601zm3.764.57a2.684 2.684 0 01-1.598.522 2.676 2.676 0 01-1.594-.522 3.5 3.5 0 000-4.344 2.675 2.675 0 011.594-.523c.598 0 1.15.194 1.598.523a3.5 3.5 0 000 4.344zm.572-.57a2.68 2.68 0 01-.527-1.602A2.675 2.675 0 0112 7.709c.344.463.529 1.025.527 1.602A2.679 2.679 0 0112 10.912zm3.764.57c-.447.33-1 .522-1.598.522a2.675 2.675 0 01-1.594-.522 3.5 3.5 0 000-4.344c.447-.329.996-.523 1.594-.523.598 0 1.15.194 1.598.523a3.502 3.502 0 000 4.344zm.572-.57a2.678 2.678 0 01-.527-1.602 2.673 2.673 0 01.527-1.602c.344.463.529 1.025.527 1.602a2.68 2.68 0 01-.527 1.601zm2.168 1.093c-.594 0-1.15-.198-1.596-.523a3.502 3.502 0 000-4.344 2.694 2.694 0 014.291 2.172 2.694 2.694 0 01-2.695 2.695z" fill="#323544"/></svg>