<svg viewBox="0 0 25 25" fill="none" xmlns="http://www.w3.org/2000/svg"><path fill-rule="evenodd" clip-rule="evenodd" d="M10.72 6.857a2.25 2.25 0 00-2.25 2.25v7.75a.75.75 0 001.174.619l2.431-1.668a.75.75 0 01.849 0l2.431 1.668a.75.75 0 001.175-.619v-7.75a2.25 2.25 0 00-2.25-2.25h-3.56zm-.75 2.25a.75.75 0 01.75-.75h3.56a.75.75 0 01.75.75v6.326l-1.257-.862a2.25 2.25 0 00-2.546 0l-1.257.862V9.107z" fill="#323544"/><path fill-rule="evenodd" clip-rule="evenodd" d="M12.5 2.232c-5.523 0-10 4.478-10 10 0 5.523 4.477 10 10 10s10-4.477 10-10c0-5.522-4.477-10-10-10zm-8.5 10a8.5 8.5 0 1117 0 8.5 8.5 0 01-17 0z" fill="#323544"/></svg>