<svg viewBox="0 0 24 24" fill="none" xmlns="http://www.w3.org/2000/svg"><path fill-rule="evenodd" clip-rule="evenodd" d="M1.566 4a.75.75 0 01.75-.75h1.181a2.25 2.25 0 012.228 1.937l.061.435h13.965a2.25 2.25 0 012.063 3.148l-2.668 6.128a2.25 2.25 0 01-2.063 1.352H7.722a2.25 2.25 0 01-2.228-1.937L4.24 5.396a.75.75 0 00-.743-.646h-1.18a.75.75 0 01-.75-.75zm4.431 3.122l.982 6.982a.75.75 0 00.743.646h9.361a.75.75 0 00.688-.45l2.667-6.13a.75.75 0 00-.687-1.048H5.997z" fill="#323544"/><path d="M6.034 19.5a1.75 1.75 0 113.5 0 1.75 1.75 0 01-3.5 0zM16.32 17.75a1.75 1.75 0 100 3.5 1.75 1.75 0 000-3.5z" fill="#323544"/></svg>