<svg viewBox="0 0 24 24" fill="none" xmlns="http://www.w3.org/2000/svg"><path d="M15.61 17.144v-.926l-.02.008c-.207.101-.434.159-.667.17a.989.989 0 01-.671-.198.865.865 0 01-.294-.415 1.009 1.009 0 01-.019-.556.852.852 0 01.298-.474.888.888 0 01.468-.202c.305-.034.612.024.884.165l.02.011v-.93l-.042-.013a2.386 2.386 0 00-.843-.11 1.95 1.95 0 00-.752.172c-.24.11-.45.273-.616.476a1.85 1.85 0 00-.034 2.254c.246.315.591.538.98.63.409.1.838.085 1.239-.043l.068-.02zm-9.163 0v-.926l-.019.008c-.208.101-.435.159-.667.17a.987.987 0 01-.672-.198.859.859 0 01-.292-.415 1.002 1.002 0 01-.02-.556.848.848 0 01.297-.474.888.888 0 01.469-.202c.304-.034.612.024.884.165l.02.011v-.93l-.043-.013a2.386 2.386 0 00-.842-.11c-.26.007-.516.066-.753.172-.239.11-.45.273-.617.476a1.853 1.853 0 00-.034 2.254c.246.316.592.538.98.63.41.1.838.085 1.24-.043l.069-.02zm3.27-.769l-.004.798.059.01c.183.034.367.057.553.07.163.017.326.019.49.01.155-.011.31-.04.458-.086.175-.05.338-.136.476-.254a.968.968 0 00.278-.398c.099-.258.097-.544-.006-.8a.89.89 0 00-.248-.345 1.05 1.05 0 00-.365-.213l-.602-.223a.323.323 0 01-.164-.157.203.203 0 01.006-.183.318.318 0 01.129-.118.665.665 0 01.214-.062c.127-.018.257-.017.383.005.15.016.298.042.444.08l.032.006v-.736l-.057-.012a3.94 3.94 0 00-.453-.08 2.37 2.37 0 00-.595-.003 1.29 1.29 0 00-.684.275.912.912 0 00-.293.403 1.107 1.107 0 000 .75c.045.12.117.227.21.317.081.077.173.144.273.196.13.07.27.124.414.163.048.014.095.029.142.045l.07.026.02.008c.07.025.136.065.189.117a.328.328 0 01.084.126.271.271 0 010 .134.282.282 0 01-.137.165.714.714 0 01-.23.071 1.701 1.701 0 01-.356.018 4.34 4.34 0 01-.464-.062 7.821 7.821 0 01-.239-.056l-.027-.005zm-2.063.83h.875v-3.473h-.875v3.473zm10.135-2.447a.912.912 0 011.485.8.912.912 0 01-.332.616l-.014.011a.913.913 0 01-1.139-1.427zm-1.27.712a1.83 1.83 0 002.221 1.755 1.783 1.783 0 00.584-3.28 1.839 1.839 0 00-2.806 1.524zm4.615-4.529a.433.433 0 00.866 0V9.98a.434.434 0 00-.866 0v.962zm-2.37 0a.435.435 0 00.868 0V8.784a.435.435 0 00-.867 0v2.157m-2.406.87a.434.434 0 00.866 0V7.142a.434.434 0 00-.866 0v4.667zm-2.365-.87a.434.434 0 00.867 0V8.784a.433.433 0 00-.866 0v2.157m-2.417 0a.435.435 0 00.866 0V9.98a.434.434 0 00-.866 0v.962zm-2.391 0a.433.433 0 00.866 0V8.784a.434.434 0 00-.866 0v2.157zm-2.406.87a.433.433 0 00.866 0V7.142a.433.433 0 00-.866 0v4.667zm-2.384-.87a.435.435 0 00.866 0V8.784a.433.433 0 00-.865 0v2.157m-2.398 0a.434.434 0 00.866 0V9.98a.433.433 0 00-.866 0v.962z" fill="#323544"/></svg>