<svg viewBox="0 0 24 24" fill="none" xmlns="http://www.w3.org/2000/svg"><path d="M13.368 8.124a.75.75 0 00-1.28.53v1.008a5.03 5.03 0 00-4.167 6.033.75.75 0 001.466 0 3.534 3.534 0 012.7-2.703v.872a.75.75 0 001.281.53l2.605-2.605a.75.75 0 000-1.06l-2.605-2.605z" fill="#323544"/><path fill-rule="evenodd" clip-rule="evenodd" d="M2.5 12.096a9.5 9.5 0 119.5 9.5H3.25a.75.75 0 01-.53-1.28l2.053-2.054A9.465 9.465 0 012.5 12.096zm9.5-8a8 8 0 00-5.657 13.657.75.75 0 010 1.06l-1.282 1.283H12a8 8 0 100-16z" fill="#323544"/></svg>