<svg viewBox="0 0 24 24" fill="none" xmlns="http://www.w3.org/2000/svg"><path d="M21.581 11.5l-1.803-3.188c.032-.032.032-.129.032-.257 0-.258-.258-.548-.547-.548L17.2 3.964c.032-.032.032-.128.032-.193a.543.543 0 00-.547-.547c-.193 0-.322.096-.45.225H12.37c-.064-.097-.193-.16-.354-.16a.503.503 0 00-.419.224H7.733a.562.562 0 00-.451-.225.543.543 0 00-.548.548c0 .032.033.128.033.193L4.705 7.57c-.193.097-.354.258-.354.516v.032l-1.9 3.35c-.258.032-.451.257-.451.547 0 .258.193.515.45.547l1.998 3.446c-.033.033-.033.097-.033.194 0 .257.194.515.451.547l1.868 3.285c-.032.032-.032.13-.032.194 0 .322.258.547.548.547a.574.574 0 00.418-.193h3.897c.129.096.258.193.451.193.129 0 .322-.097.419-.193h3.897a.64.64 0 00.418.193.543.543 0 00.548-.547c0-.033 0-.097-.032-.13l1.868-3.284c.257-.033.45-.258.45-.548 0-.032 0-.129-.032-.193l1.997-3.446c.258-.032.451-.258.451-.548 0-.29-.161-.515-.419-.58zM7.09 19.135l-1.579-2.77H7.09v2.77zm0-3.028H5.51c0-.032-.032-.032-.032-.129l1.643-1.739v1.868h-.032zm0-2.287L5.22 15.784c-.033-.032-.097-.097-.13-.097l-1.996-3.542c.032-.032.032-.097.032-.13v-.128l1.9-3.285a.366.366 0 00.258-.097l1.804 1.9v3.414zm0-3.768L5.446 8.312c.032-.096.097-.193.097-.257v-.033l1.61-.547-.064 2.576zm0-2.898L5.51 7.7 7.09 4.93v2.223zm11.916 1.385l.032.032-1.288 6.087-2.319-2.448 3.575-3.671zm-6.86 7.15l.419.45h-.87l.45-.45zm0-.452l-3.06-3.123 2.899-3.06 3.06 3.188-2.9 2.995zm.161.226l2.866-2.995 2.448 2.576-.161 1.063H12.95l-.644-.644zm4.155-11.143c.032.064.032.064.128.064l2.094 3.672v.032c0 .096.032.225.096.257l-3.542 3.672-3.06-3.188 4.284-4.51zm-.322-.097l-4.123 4.412-2.093-2.19 6.087-2.19h.128v-.032zm-4.51 0a.484.484 0 00.355.129.485.485 0 00.354-.129h2.738L9.697 6.187 7.83 4.222h3.8zm-4.218.225l.032-.032c.032 0 .032-.032.096-.032l1.868 1.965-1.996.74v-2.64zm0 2.931l2.222-.805 2.19 2.319-2.963 3.06-1.482-1.579c.033 0 .033-2.995.033-2.995zm0 3.35l1.32 1.352-1.32 1.417v-2.77zm0 3.188l1.546-1.642 3.06 3.124-.645.644H7.411v-2.126zm.225 5.926a.691.691 0 00-.225-.129l-.033-.032v-3.317h3.672l-3.414 3.478zm4.734 0a.484.484 0 00-.354-.129.485.485 0 00-.354.129H8.119l3.35-3.446h1.417l3.35 3.446H12.37zm4.413-.419l-.13.258c-.031 0-.096.032-.128.032l-3.285-3.35h4.187l-.644 3.06zm.45-.837l.451-2.222h.805l-1.256 2.222zm1.256-2.48h-.772l.128-.773.645.644c.064.032 0 .065 0 .13zm2.416-3.93l-2.061 3.511c-.032.033-.097.033-.129.033l-.773-.806 1.288-5.958 1.643 2.867c0 .032-.032.096-.032.128.032.162.064.194.064.226z" fill="#323544"/></svg>