<svg viewBox="0 0 24 24" fill="none" xmlns="http://www.w3.org/2000/svg"><path d="M19.378 12.943a.93.93 0 01-.526-.158.968.968 0 01-.147-1.472.935.935 0 011.028-.205.943.943 0 01.422.355.964.964 0 01-.12 1.2.933.933 0 01-.657.28zm-9.094-4.408a.93.93 0 01.524.157.968.968 0 01.15 1.47.937.937 0 01-1.024.21.943.943 0 01-.423-.351.965.965 0 01.114-1.204.933.933 0 01.66-.282zm-5.7-2.507a.922.922 0 01.515.163.961.961 0 01.133 1.456.928.928 0 01-1.014.202A.935.935 0 013.8 7.5a.957.957 0 01.425-1.402.92.92 0 01.359-.07zM15.22 3.53a.93.93 0 01.524.157.968.968 0 01.15 1.47.936.936 0 01-1.025.21.943.943 0 01-.423-.351.965.965 0 01.114-1.204.933.933 0 01.66-.282zm6.61 8.467a2.52 2.52 0 00-.36-1.305 2.469 2.469 0 00-.979-.922 2.42 2.42 0 00-2.56.207c-.366.271-.652.64-.824 1.067a2.526 2.526 0 00.414 2.575 2.45 2.45 0 001.114.745v1.273a1.762 1.762 0 01-.501 1.23 1.709 1.709 0 01-1.21.509h-.91a3.984 3.984 0 00-2.651 1.008 5.303 5.303 0 00-1.238-2.328 3.96 3.96 0 002.747-1.227A4.084 4.084 0 0016 12.004V6.859a2.46 2.46 0 001.33-1.07 2.524 2.524 0 00-.502-3.193A2.43 2.43 0 0015.236 2a2.43 2.43 0 00-1.592.596 2.524 2.524 0 00-.502 3.193 2.46 2.46 0 001.33 1.07v5.122c0 .667-.261 1.306-.725 1.778a2.457 2.457 0 01-1.751.736h-1.444a3.235 3.235 0 00.489-1.73v-.909a2.46 2.46 0 001.33-1.07c.303-.505.42-1.105.328-1.69a2.502 2.502 0 00-.83-1.502 2.43 2.43 0 00-1.592-.596 2.43 2.43 0 00-1.592.596 2.523 2.523 0 00-.502 3.193 2.46 2.46 0 001.33 1.07v.908c0 .448-.171.88-.478 1.202a1.692 1.692 0 01-1.165.528 2.48 2.48 0 01-1.758-.748 2.558 2.558 0 01-.726-1.79V9.342a2.46 2.46 0 001.33-1.07 2.524 2.524 0 00-.502-3.193 2.43 2.43 0 00-1.592-.596 2.43 2.43 0 00-1.592.596 2.524 2.524 0 00-.502 3.193 2.46 2.46 0 001.33 1.07v2.608a4.123 4.123 0 001.168 2.873 3.997 3.997 0 002.82 1.209h.91c.435.005.863.104 1.258.288s.748.451 1.034.783c.622.668.974 1.549.986 2.468V22h1.528v-.551c0-.675.264-1.323.735-1.8a2.487 2.487 0 011.772-.746h.91a3.2 3.2 0 002.28-.959 3.301 3.301 0 00.944-2.316v-1.273a2.455 2.455 0 001.206-.891c.302-.417.414-.95.422-1.468z" fill="#323544"/></svg>