<svg viewBox="0 0 24 24" fill="none" xmlns="http://www.w3.org/2000/svg"><path fill-rule="evenodd" clip-rule="evenodd" d="M5.832 9.41h-1.22c-1.386 0-2.538 1.002-2.609 2.467-.003.048-.003.097-.003.145 0 .045 0 .087.003.132.071 1.352 1.223 2.442 2.61 2.436h1.22c1.415.006 2.709-1.155 2.709-2.568 0-1.545-1.294-2.613-2.71-2.613zM4.62 14.366a2.373 2.373 0 010-4.745 2.371 2.371 0 012.371 2.374 2.369 2.369 0 01-2.37 2.371z" fill="#323544"/><path d="M13.339 11.37a.587.587 0 000 .158c.016.258.184.471.4.471.152 0 .268-.08.368-.184l.039.04c-.126.167-.281.306-.504.306-.432 0-.52-.42-.52-.594 0-.536.362-.694.553-.694.219 0 .458.14.46.43v.048l-.025.016h-.764l-.007.003zm.484-.087c.068 0 .077-.035.077-.068 0-.138-.084-.251-.238-.251-.165 0-.281.122-.313.32h.474zM14.268 12.051c.078 0 .13 0 .13-.09v-.764c0-.084-.1-.1-.143-.123v-.042c.2-.084.31-.155.333-.155.016 0 .022.01.022.036v.245h.007c.067-.107.184-.28.348-.28.068 0 .155.044.155.144 0 .075-.052.14-.129.14-.084 0-.084-.065-.18-.065-.046 0-.2.06-.2.225v.64c0 .09.054.09.132.09h.151v.07c-.148 0-.264-.006-.38-.006-.117 0-.226 0-.326.006v-.07h.08zM15.242 11.745c.035.18.145.332.342.332.16 0 .219-.097.219-.193 0-.323-.594-.22-.594-.658 0-.152.123-.349.423-.349.087 0 .203.026.31.08l.019.278H15.9c-.026-.17-.123-.27-.297-.27-.11 0-.213.06-.213.18 0 .32.632.22.632.648 0 .181-.145.371-.467.371a.716.716 0 01-.333-.093l-.029-.313.049-.013zM18.584 12.051h.052c.077 0 .132 0 .132-.09v-1.516c0-.178-.042-.184-.145-.213v-.045c.11-.036.223-.084.28-.116.03-.016.052-.03.062-.03.016 0 .022.017.022.04v1.88c0 .09.062.09.136.09h.045v.071c-.093 0-.187-.006-.287-.006-.1 0-.197 0-.297.006v-.07zM20.333 11.973c0 .049.029.052.077.052h.11v.058c-.116.01-.342.068-.394.084l-.013-.01v-.219c-.164.132-.29.229-.483.229-.149 0-.3-.097-.3-.323v-.696c0-.071-.01-.14-.165-.152v-.052c.097 0 .316-.019.352-.019.029 0 .029.02.029.077v.704c0 .08 0 .316.235.316.094 0 .216-.071.33-.165v-.732c0-.055-.133-.084-.23-.113v-.048c.245-.016.397-.039.426-.039.023 0 .023.02.023.048v1.007l.003-.007zM20.875 11.074c.11-.094.255-.197.406-.197.316 0 .507.274.507.571 0 .358-.262.713-.652.713-.2 0-.306-.064-.377-.097l-.081.062-.058-.03c.022-.16.038-.319.038-.483v-1.168c0-.178-.041-.184-.145-.213v-.045a1.82 1.82 0 00.281-.116c.029-.016.052-.03.061-.03.016 0 .023.017.023.04v.993h-.003zm0 .742c0 .103.096.277.28.277.29 0 .413-.287.413-.529 0-.293-.222-.538-.435-.538-.1 0-.184.064-.258.129v.661zM17.055 12.67v.007l-.02.12c-.003.041-.003.08-.003.122l-.051.02v-.007c-.004-.058-.01-.139-.104-.139h-.238v.784c.003.113.048.12.116.123h.035v.054h-.006c-.058 0-.161-.003-.242-.003-.087 0-.19.003-.248.003h-.007V13.7h.033c.083-.004.116-.004.116-.12v-.787H16.2c-.11.003-.106.023-.132.132l-.058.004v-.007c.006-.042.016-.084.02-.126a.821.821 0 00.009-.125v-.007h.045v.007c.013.035.039.035.077.035h.007l.768.003c.038-.003.07-.003.07-.042v-.006h.01l.042.006-.003.004zM18.145 12.69a.546.546 0 00-.555.552c0 .31.245.538.561.538.316 0 .568-.229.568-.574 0-.32-.255-.516-.574-.516zm.022 1.013c-.235 0-.355-.249-.355-.513 0-.197.075-.423.33-.423.254 0 .358.258.358.471-.004.216-.052.465-.333.465zM21.845 12.677c.09 0 .155.068.155.158s-.068.155-.155.155a.153.153 0 01-.155-.155c0-.087.068-.158.155-.158zm0 .284c.071 0 .123-.058.123-.126 0-.067-.052-.129-.123-.129-.07 0-.122.062-.122.13 0 .067.054.125.122.125zm-.077-.045v-.007c.02 0 .022 0 .022-.012v-.117c0-.016 0-.022-.022-.022v-.006h.08c.03 0 .052.012.052.041a.052.052 0 01-.035.049l.025.035c.013.016.026.032.036.036v.006h-.03l-.054-.07h-.016v.05s.003.01.022.014v.006h-.074l-.006-.003zm.051-.084h.02c.02 0 .029-.016.029-.039 0-.022-.016-.032-.03-.032h-.015v.074l-.004-.003zM13.132 12.051v.071c-.096 0-.193-.003-.29-.003-.097 0-.197 0-.294.003v-.07h.049c.077 0 .132 0 .132-.09v-.704c0-.158-.097-.232-.252-.232-.087 0-.225.07-.316.129v.806c0 .09.058.09.136.09h.048v.071c-.093 0-.19-.003-.287-.003-.097 0-.197 0-.293.003v-.07h.048c.074 0 .129 0 .129-.09v-.72c0-.104-.03-.13-.158-.18v-.053c.12-.038.229-.074.361-.132.007 0 .016.007.016.03v.177c.155-.113.287-.207.471-.207.232 0 .313.171.313.38v.704c0 .09.062.09.136.09h.051zM9.916 10.222c-.204 0-.358.003-.475.003-.106 0-.212 0-.319-.003v.07c.123 0 .248-.015.248.23v1.322c-.006.188-.087.19-.248.207v.071c.123 0 .242-.003.365-.003.129 0 .254.003.393.003.968 0 1.126-.678 1.126-.948 0-.481-.387-.952-1.09-.952zm.006 1.813c-.132 0-.284-.023-.284-.232v-1.484c.052-.004.1-.01.213-.01.526 0 .855.368.855.878 0 .406-.194.848-.784.848zM11.636 12.051h.048v.071c-.093 0-.19-.003-.287-.003-.097 0-.197.003-.297.003v-.07h.052c.078 0 .132 0 .132-.088v-.738c0-.123-.042-.14-.142-.194v-.042c.126-.039.281-.09.29-.097a.085.085 0 01.05-.016c.015 0 .018.016.018.039v1.048c0 .087.062.087.136.087zM11.258 10.322a.14.14 0 01.132-.132c.068 0 .136.058.136.132a.136.136 0 01-.136.136.136.136 0 01-.132-.136z" fill="#323544"/><path d="M13.339 11.37a.587.587 0 000 .158c.016.258.184.471.4.471.152 0 .268-.08.368-.184l.039.04c-.126.167-.281.306-.504.306-.432 0-.52-.42-.52-.594 0-.536.362-.694.553-.694.219 0 .458.14.46.43v.048l-.025.016h-.764l-.007.003zm.484-.087c.068 0 .077-.035.077-.068 0-.138-.084-.251-.238-.251-.165 0-.281.122-.313.32h.474zM14.268 12.051c.078 0 .13 0 .13-.09v-.764c0-.084-.1-.1-.143-.123v-.042c.2-.084.31-.155.333-.155.016 0 .022.01.022.036v.245h.007c.067-.107.184-.28.348-.28.068 0 .155.044.155.144 0 .075-.052.14-.129.14-.084 0-.084-.065-.18-.065-.046 0-.2.06-.2.225v.64c0 .09.054.09.132.09h.151v.07c-.148 0-.264-.006-.38-.006-.117 0-.226 0-.326.006v-.07h.08zM15.242 11.745c.035.18.145.332.342.332.16 0 .219-.097.219-.193 0-.323-.594-.22-.594-.658 0-.152.123-.349.423-.349.087 0 .203.026.31.08l.019.278H15.9c-.026-.17-.123-.27-.297-.27-.11 0-.213.06-.213.18 0 .32.632.22.632.648 0 .181-.145.371-.467.371a.716.716 0 01-.333-.093l-.029-.313.049-.013zM18.487 11.622l-.06.397c-.117.071-.423.145-.604.145-.639 0-1.042-.413-1.042-1.026 0-.558.5-.958 1.036-.958.219 0 .432.071.641.146l.026.387h-.068c-.051-.316-.277-.445-.583-.445-.307 0-.768.21-.768.864 0 .548.393.945.813.945a.556.556 0 00.548-.47l.061.015zM18.584 12.051h.052c.077 0 .132 0 .132-.09v-1.516c0-.178-.042-.184-.145-.213v-.045c.11-.036.223-.084.28-.116.03-.016.052-.03.062-.03.016 0 .022.017.022.04v1.88c0 .09.062.09.136.09h.045v.071c-.093 0-.187-.006-.287-.006-.1 0-.197 0-.297.006v-.07zM20.333 11.973c0 .049.029.052.077.052h.11v.058c-.116.01-.342.068-.394.084l-.013-.01v-.219c-.164.132-.29.229-.483.229-.149 0-.3-.097-.3-.323v-.696c0-.071-.01-.14-.165-.152v-.052c.097 0 .316-.019.352-.019.029 0 .029.02.029.077v.704c0 .08 0 .316.235.316.094 0 .216-.071.33-.165v-.732c0-.055-.133-.084-.23-.113v-.048c.245-.016.397-.039.426-.039.023 0 .023.02.023.048v1.007l.003-.007zM20.875 11.074c.11-.094.255-.197.406-.197.316 0 .507.274.507.571 0 .358-.262.713-.652.713-.2 0-.306-.064-.377-.097l-.081.062-.058-.03c.022-.16.038-.319.038-.483v-1.168c0-.178-.041-.184-.145-.213v-.045a1.82 1.82 0 00.281-.116c.029-.016.052-.03.061-.03.016 0 .023.017.023.04v.993h-.003zm0 .742c0 .103.096.277.28.277.29 0 .413-.287.413-.529 0-.293-.222-.538-.435-.538-.1 0-.184.064-.258.129v.661zM11.858 12.664l.042.007v.006c-.007.042-.013.08-.016.12-.004.041-.004.08-.004.122h-.003l-.055.02v-.007c-.003-.058-.01-.139-.103-.139h-.235v.784c0 .113.045.12.116.123h.032v.054h-.003l-.242-.003c-.09 0-.194.003-.252.003h-.006V13.7h.035c.081-.004.113-.004.117-.12v-.787h-.24c-.109.003-.106.023-.128.132h-.004l-.054.004v-.007c.006-.042.013-.084.016-.126a.821.821 0 00.01-.125v-.007h.048v.007c.01.035.039.035.074.035h.774c.042 0 .071 0 .075-.039v-.006h.006v.003zM9.571 12.713h.007v.054h-.03c-.031.004-.064.004-.083.023-.013.013-.02.029-.02.058v.774c0 .074.052.078.104.08h.029v.056H9.57l-.235-.003c-.074 0-.158.003-.216.003h-.007v-.055h.026c.055-.003.103-.007.103-.08v-.775c0-.029-.006-.045-.02-.058-.018-.02-.047-.02-.083-.023h-.026v-.054h.007c.058 0 .145.003.22.003l.231-.003zM12.793 13.512v.007a1.905 1.905 0 00-.051.236h-.004v.003c-.096 0-.267-.007-.4-.007-.132 0-.31.007-.393.007h-.007v-.055h.026c.055-.003.103-.007.103-.08v-.775c0-.029-.006-.045-.019-.058-.02-.02-.048-.02-.084-.023h-.026v-.054h.007c.09 0 .245.003.368.003l.38-.003h.007v.08c0 .052 0 .11.006.152l-.006.006-.052.013v-.006c-.01-.097-.022-.168-.174-.168h-.2v.374h.17c.085 0 .1-.045.11-.122v-.007h.059v.007a3.164 3.164 0 00-.007.174c0 .055.003.11.007.168v.006h-.007l-.051.01v-.007c-.01-.09-.01-.142-.11-.142h-.171v.339c0 .09.077.09.174.09.178 0 .252-.01.294-.174V13.5h.01l.048.012h-.007zM10.823 12.713h.006v.054H10.8c-.06.004-.125.007-.125.184v.674c0 .052 0 .104.006.149v.006h-.064l-.755-.838v.593c.003.13.022.165.135.168h.03v.055h-.007c-.065 0-.126-.003-.19-.003-.068 0-.136.003-.2.003h-.01v-.055h.029c.097-.003.126-.065.126-.184v-.623a.126.126 0 00-.126-.129h-.03v-.054h.01l.168.003c.045 0 .087-.003.139-.003l.652.735v-.545c0-.12-.081-.132-.123-.136h-.039v-.054h.007l.206.003c.062 0 .123-.003.184-.003zM13.865 13.703c-.07-.01-.097-.026-.139-.087l-.248-.374c.113-.046.203-.13.203-.265s-.068-.203-.164-.235h-.004a.54.54 0 00-.193-.03c-.078 0-.149.004-.239.004s-.18-.003-.229-.003h-.006v.054h.032c.048.004.1.004.1.107v.755c0 .048-.045.074-.1.074h-.032v.055h.006c.074 0 .145-.003.216-.003.084 0 .168.003.255.003h.007v-.055h-.033c-.07-.003-.116-.003-.116-.113v-.31h.087c.097.168.194.326.307.478.051 0 .1-.003.145-.003l.145.003h.006v-.055h-.006zm-.62-.49h-.064v-.43c.02 0 .039-.006.078-.006.129 0 .21.08.21.21 0 .174-.075.226-.223.226zM15.11 12.713v.054h-.03c-.061.004-.122.01-.126.184v.674c0 .052.004.104.01.149v.006h-.068l-.751-.838v.593c0 .13.02.165.132.168h.032v.055h-.006c-.065 0-.13-.003-.194-.003s-.132.003-.2.003h-.006v-.055h.026c.1 0 .126-.065.129-.184v-.623a.127.127 0 00-.13-.129h-.025v-.054h.006c.055 0 .113.003.171.003.042 0 .087-.003.136-.003l.651.735v-.545c0-.12-.08-.132-.122-.136h-.039v-.054h.007c.07 0 .138.003.206.003l.184-.003h.006zM16.122 13.703c-.048 0-.074-.017-.093-.059-.02-.042-.036-.096-.052-.148l-.274-.777-.013-.036c-.006-.01-.013-.01-.016-.01-.007 0-.013.004-.016.004a.665.665 0 01-.136.064c-.01.058-.039.133-.058.187l-.235.681c-.023.061-.068.094-.123.094h-.016v.058h.006c.052-.004.107-.007.158-.007.062 0 .123.003.181.003h.006v-.054h-.022c-.049 0-.103-.01-.107-.046 0-.025.02-.064.036-.116l.045-.148h.326l.058.168a.476.476 0 01.029.103c0 .029-.052.039-.087.039h-.023v.058h.007c.077-.004.151-.007.222-.007.071 0 .14.003.207.003h.006v-.054h-.016zm-.697-.407l.13-.397.129.397h-.259zM17.429 12.848v.774c0 .074.048.078.103.08h.026v.056h-.003c-.074 0-.162-.007-.236-.007-.074 0-.161.007-.22.007h-.006v-.055h.03c.051-.003.103-.007.103-.08v-.775c0-.029-.007-.045-.02-.058-.019-.02-.051-.02-.084-.023h-.029v-.054h.007l.22.003.235-.003h.003v.054h-.026c-.035.004-.064.004-.084.023-.013.013-.019.029-.019.058zM19.952 12.713v.054h-.03c-.06.004-.125.01-.125.184v.674c0 .052 0 .104.006.149v.006h-.064l-.755-.838v.593c0 .13.023.165.136.168h.029v.055h-.007c-.061 0-.126-.003-.19-.003l-.2.003h-.006v-.055h.025c.097-.003.126-.065.126-.184v-.623a.126.126 0 00-.126-.129h-.026v-.054h.007l.168.003c.045 0 .087-.003.138-.003l.652.735v-.545c0-.12-.08-.132-.123-.136h-.038v-.054h.006l.207.003.183-.003h.007zM20.965 13.703c-.049-.004-.075-.017-.094-.059-.02-.042-.035-.096-.055-.148l-.27-.777s-.01-.026-.017-.036c-.003-.01-.01-.01-.016-.01s-.01.004-.013.004a.666.666 0 01-.135.064 1.805 1.805 0 01-.058.187l-.24.681a.126.126 0 01-.122.094h-.012v.054h.006l.158-.003.18.003h.007v-.054h-.022c-.052 0-.107-.01-.107-.049 0-.022.02-.061.032-.113l.046-.148h.328l.055.168c.02.045.033.087.033.103 0 .029-.052.039-.088.039h-.022v.054h.006c.078 0 .152-.003.223-.003.07 0 .139.003.203.003h.007v-.054h-.013zm-.697-.407l.129-.397.129.397h-.258zM21.868 13.493v.01a7.12 7.12 0 01-.055.252l-.006.003c-.133 0-.262-.003-.39-.003-.13 0-.262.003-.394.003h-.007v-.055h.03c.05-.003.102-.007.102-.094v-.764c0-.071-.051-.074-.103-.078h-.029v-.054h.007c.08 0 .158.003.235.003.078 0 .149-.003.226-.003h.006v.054h-.045c-.058.004-.093 0-.093.075v.764c0 .055.035.071.084.078a1.417 1.417 0 00.194-.003.205.205 0 00.138-.078.357.357 0 00.045-.103v-.007h.055zM21.845 12.677c.09 0 .155.068.155.158s-.068.155-.155.155a.153.153 0 01-.155-.155c0-.087.068-.158.155-.158zm0 .284c.071 0 .123-.058.123-.126 0-.067-.052-.129-.123-.129-.07 0-.122.062-.122.13 0 .067.054.125.122.125zm-.077-.045v-.007c.02 0 .022 0 .022-.012v-.117c0-.016 0-.022-.022-.022v-.006h.08c.03 0 .052.012.052.041a.052.052 0 01-.035.049l.025.035c.013.016.026.032.036.036v.006h-.03l-.054-.07h-.016v.05s.003.01.022.014v.006h-.074l-.006-.003zm.051-.084h.02c.02 0 .029-.016.029-.039 0-.022-.016-.032-.03-.032h-.015v.074l-.004-.003z" fill="#323544"/><path fill-rule="evenodd" clip-rule="evenodd" d="M6.122 11.996c0 .639-.4 1.184-.964 1.403v-2.806a1.5 1.5 0 01.964 1.403z" fill="#323544"/><path fill-rule="evenodd" clip-rule="evenodd" d="M5.833 9.41h-1.22c-1.387 0-2.538 1.002-2.61 2.467v.277c.072 1.352 1.223 2.442 2.61 2.436h1.22c1.416.006 2.71-1.155 2.71-2.568 0-1.545-1.294-2.613-2.71-2.613zM4.62 14.366a2.373 2.373 0 010-4.745 2.371 2.371 0 012.37 2.374 2.369 2.369 0 01-2.37 2.371z" fill="#323544"/><path fill-rule="evenodd" clip-rule="evenodd" d="M4.081 10.593v2.803a1.5 1.5 0 010-2.803z" fill="#323544"/></svg>