<svg viewBox="0 0 24 24" fill="none" xmlns="http://www.w3.org/2000/svg"><path fill-rule="evenodd" clip-rule="evenodd" d="M2 10.37h.87c.162 0 .324.015.471.037.767.11 1.37.516 1.37 1.592 0 1.068-.603 1.48-1.37 1.584-.147.022-.31.03-.471.03H2V10.37zm19.72.494c.118 0 .206-.089.206-.221 0-.133-.088-.229-.206-.229s-.206.096-.206.229c0 .132.088.22.206.22zm0-.501a.28.28 0 110 .56.28.28 0 010-.56zm0 .324l-.015-.022h-.037v.133h-.059v-.317h.126c.073 0 .118.03.118.095 0 .052-.037.082-.089.089l.089.133h-.067l-.066-.111zm0-.162h.007c.03 0 .06.007.06.044 0 .044-.03.052-.06.052h-.058v-.096h.051zm-2.049 1.223c.244-.03.442-.133.442-.442 0-.295-.198-.376-.442-.413h-.442v.87h.206c.082 0 .163-.008.236-.015zm0-1.37c.575.022 1.106.14 1.106.876 0 .384-.244.7-.649.752.17.022.273.192.332.34l.508 1.266h-.707l-.383-1.016c-.06-.148-.11-.236-.206-.288a.497.497 0 00-.236-.044h-.207v1.348h-.633V10.37h.685c.125 0 .265 0 .39.008zm-5.902.965c.073.191.11.405.11.648 0 .229-.037.45-.11.649-.229.626-.782 1.031-1.54 1.031-1.017 0-1.666-.692-1.666-1.68 0-.995.663-1.672 1.666-1.672.758 0 1.311.397 1.54 1.024zm0-.685l1.12 2.954h.236l1.245-3.242h-.663l-.664 1.71-.707-1.71h-.678l.11.288zm2.763-.288h1.887v.523h-1.246v.796h1.135v.501h-1.135v.914h1.253v.508h-1.894V10.37zm-13.19.575a1.094 1.094 0 00-.347-.052h-.361v2.211h.36c.119 0 .237-.022.347-.059.39-.14.708-.501.708-1.046 0-.546-.317-.921-.708-1.054zm1.62-.575h.642v3.242h-.642V10.37zm2.698.862c-.221-.14-.457-.28-.708-.31-.228-.029-.471.038-.471.362 0 .56 1.4.324 1.4 1.407 0 .708-.56 1.054-1.201.98-.347-.037-.546-.14-.818-.324v-.663c.213.118.53.346.78.39.273.045.568-.037.568-.331 0-.626-1.393-.369-1.393-1.437 0-.722.546-.988 1.106-.988.28 0 .523.104.737.295v.62zm2.74 2.056c-.161.207-.544.324-.802.347-.995.066-1.658-.487-1.658-1.585 0-1.105.582-1.754 1.658-1.695.213.008.56.082.788.273v.62c-.273-.17-.553-.288-.788-.296-.656-.022-.995.39-.995 1.054 0 .663.317 1.032.995 1.002.265-.007.663-.22.803-.339v.62z" fill="#323544"/></svg>