<svg viewBox="0 0 25 24" fill="none" xmlns="http://www.w3.org/2000/svg"><path d="M12.25 6.625a.75.75 0 01.75.75v.438c.99.15 1.75 1.006 1.75 2.039a.75.75 0 11-1.5 0 .563.563 0 00-.563-.563H12a.75.75 0 00-.75.75v.265a.75.75 0 00.487.703l1.553.582a2.25 2.25 0 011.46 2.107v.265A2.25 2.25 0 0113 16.155v.47a.75.75 0 01-1.5 0v-.438a2.063 2.063 0 01-1.75-2.039.75.75 0 011.5 0c0 .311.252.563.563.563h.687a.75.75 0 00.75-.75v-.265a.75.75 0 00-.487-.702l-1.553-.583a2.25 2.25 0 01-1.46-2.107v-.265a2.25 2.25 0 011.75-2.194v-.47a.75.75 0 01.75-.75z" fill="#323544"/><path fill-rule="evenodd" clip-rule="evenodd" d="M12.25 2c-5.523 0-10 4.477-10 10s4.477 10 10 10 10-4.477 10-10-4.477-10-10-10zm-8.5 10a8.5 8.5 0 1117 0 8.5 8.5 0 01-17 0z" fill="#323544"/></svg>