<svg viewBox="0 0 24 24" fill="none" xmlns="http://www.w3.org/2000/svg"><path d="M10 9.233a1.25 1.25 0 10-2.5 0 1.25 1.25 0 002.5 0zM15.25 7.983a1.25 1.25 0 110 2.5 1.25 1.25 0 010-2.5z" fill="#323544"/><path fill-rule="evenodd" clip-rule="evenodd" d="M6.817 13.061a.75.75 0 00-.747.824c.24 2.418 2.46 4.888 5.93 4.888 3.47 0 5.69-2.47 5.93-4.888a.75.75 0 00-.747-.824H6.817zM12 17.273c-2.258 0-3.725-1.318-4.243-2.712h8.486c-.518 1.394-1.985 2.712-4.243 2.712z" fill="#323544"/><path fill-rule="evenodd" clip-rule="evenodd" d="M12 2C6.477 2 2 6.477 2 12s4.477 10 10 10 10-4.477 10-10S17.523 2 12 2zM3.5 12a8.5 8.5 0 1117 0 8.5 8.5 0 01-17 0z" fill="#323544"/></svg>