<svg viewBox="0 0 24 24" fill="none" xmlns="http://www.w3.org/2000/svg"><path d="M10 9.233a1.25 1.25 0 10-2.5 0 1.25 1.25 0 002.5 0zM15.25 7.983a1.25 1.25 0 110 2.5 1.25 1.25 0 010-2.5zM9.23 16.265a.75.75 0 11-1.173-.934A5.03 5.03 0 0112 13.429a5.03 5.03 0 013.943 1.902.75.75 0 11-1.173.934A3.53 3.53 0 0012 14.93a3.53 3.53 0 00-2.77 1.336z" fill="#323544"/><path fill-rule="evenodd" clip-rule="evenodd" d="M12 2C6.477 2 2 6.477 2 12s4.477 10 10 10 10-4.477 10-10S17.523 2 12 2zM3.5 12a8.5 8.5 0 1117 0 8.5 8.5 0 01-17 0z" fill="#323544"/></svg>