<svg viewBox="0 0 24 24" fill="none" xmlns="http://www.w3.org/2000/svg"><path d="M17.014 15.224a.75.75 0 10-1.235-.853 5.493 5.493 0 01-4.529 2.379.75.75 0 000 1.5c2.391 0 4.502-1.2 5.764-3.026zM8.75 7.983a1.25 1.25 0 110 2.5 1.25 1.25 0 010-2.5zM16.5 9.233a1.25 1.25 0 10-2.5 0 1.25 1.25 0 002.5 0z" fill="#323544"/><path fill-rule="evenodd" clip-rule="evenodd" d="M12 2C6.477 2 2 6.477 2 12s4.477 10 10 10 10-4.477 10-10S17.523 2 12 2zM3.5 12a8.5 8.5 0 1117 0 8.5 8.5 0 01-17 0z" fill="#323544"/></svg>