<svg viewBox="0 0 24 24" fill="none" xmlns="http://www.w3.org/2000/svg"><path d="M3.03 9.183c-.41.171-.86.655-1.002 1.263-.18.77.569 1.095.63.989.073-.126-.134-.168-.176-.568-.055-.516.185-1.092.486-1.345.057-.047.054.018.054.14 0 .216-.012 2.158-.012 2.563 0 .549-.023.722-.063.893-.042.174-.108.291-.058.336.056.05.296-.07.435-.263.166-.232.224-.511.235-.814.012-.365.012-.944.012-1.274 0-.303.005-1.19-.005-1.724-.003-.13-.365-.268-.537-.196zm18.88 2.881c-.06 0-.086.062-.109.165-.077.358-.16.439-.265.439-.117 0-.223-.178-.25-.533-.022-.279-.018-.793.009-1.304.006-.105-.023-.21-.305-.312-.121-.044-.298-.109-.385.103-.248.599-.345 1.074-.368 1.267-.002.01-.014.012-.016-.011-.014-.155-.047-.436-.051-1.026 0-.115-.025-.213-.152-.294-.083-.052-.333-.144-.423-.034-.078.09-.169.33-.263.616-.076.233-.13.39-.13.39l.002-.865c0-.09-.06-.12-.08-.125a1.663 1.663 0 00-.317-.065c-.087 0-.108.049-.108.119 0 .009-.013.825-.013 1.396v.08c-.048.263-.202.619-.37.619-.169 0-.248-.149-.248-.83 0-.396.012-.569.017-.856.004-.165.01-.292.01-.321-.001-.088-.154-.133-.225-.15a.668.668 0 00-.182-.02c-.069.004-.117.049-.117.111v.096a.657.657 0 00-.325-.263c-.255-.076-.52-.009-.72.272-.16.223-.256.475-.294.838a2.49 2.49 0 00.03.761c-.059.257-.169.362-.29.362-.175 0-.302-.286-.287-.78.01-.326.075-.554.146-.884.03-.14.005-.215-.056-.285-.057-.065-.178-.098-.351-.057-.124.029-.301.06-.463.084 0 0 .01-.04.018-.108.042-.36-.35-.33-.474-.216a.443.443 0 00-.145.296c-.03.23.158.34.158.34a3.514 3.514 0 01-.37.92c-.083.143-.148.25-.23.362l-.001-.126c-.002-.595.006-1.063.01-1.232.003-.165.01-.289.01-.318-.002-.064-.04-.089-.118-.12a.833.833 0 00-.237-.053c-.107-.008-.172.05-.17.117v.09a.657.657 0 00-.325-.263c-.255-.076-.52-.009-.72.272-.16.223-.264.535-.294.835a2.56 2.56 0 00.015.716c-.04.2-.157.41-.288.41-.169 0-.265-.149-.265-.83 0-.396.012-.569.018-.856.003-.165.01-.292.01-.321-.002-.088-.154-.133-.225-.15a.656.656 0 00-.188-.02c-.066.005-.111.064-.111.107v.1a.658.658 0 00-.325-.263c-.255-.076-.52-.008-.721.272-.132.182-.239.384-.293.831-.016.13-.023.25-.022.363-.053.321-.285.692-.475.692-.11 0-.216-.216-.216-.675 0-.611.038-1.481.044-1.565l.286-.005c.12-.001.228.002.387-.006.08-.005.157-.291.075-.327a2.859 2.859 0 00-.407-.032c-.088-.002-.333-.02-.333-.02s.022-.578.027-.639c.005-.05-.061-.077-.099-.093a1.363 1.363 0 00-.271-.077c-.134-.028-.195-.001-.207.112-.018.173-.028.677-.028.677-.098 0-.435-.02-.534-.02-.092 0-.19.395-.064.4.146.006.4.01.569.016 0 0-.008.885-.008 1.158v.084c-.092.483-.419.744-.419.744.07-.32-.073-.56-.331-.763a25.026 25.026 0 00-.493-.372s.121-.12.23-.361c.076-.171.08-.367-.109-.41-.31-.071-.565.157-.641.4a.463.463 0 00.088.473l.027.032c-.07.135-.166.317-.248.458-.226.39-.397.7-.526.7-.103 0-.101-.314-.101-.608 0-.253.018-.635.033-1.03.005-.13-.06-.204-.17-.271-.066-.041-.208-.122-.29-.122-.123 0-.478.017-.813.987-.042.122-.125.345-.125.345l.007-1.166c0-.028-.014-.054-.048-.072a.829.829 0 00-.341-.094c-.064 0-.096.03-.096.09l-.012 1.823c0 .139.004.3.018.371.013.071.035.129.063.163a.18.18 0 00.111.071c.049.01.314.044.328-.057.017-.122.017-.254.157-.745.217-.765.5-1.138.634-1.27.023-.023.05-.025.049.013-.006.168-.026.587-.04.943-.036.952.138 1.129.385 1.129.19 0 .457-.189.743-.665.178-.297.352-.588.476-.798.087.08.184.167.281.26.227.214.3.418.252.611-.038.148-.18.3-.432.152-.074-.043-.105-.076-.18-.125-.04-.026-.1-.034-.136-.007a.487.487 0 00-.18.275c-.03.109.08.166.193.217.098.043.307.083.441.087.522.018.94-.252 1.23-.946.052.6.274.94.659.94.257 0 .515-.333.628-.66.032.133.08.249.142.347.296.47.872.368 1.16-.03.09-.124.104-.168.104-.168a.544.544 0 00.519.508c.194 0 .395-.092.536-.409a.969.969 0 00.054.099c.297.47.872.368 1.161-.03a1.85 1.85 0 00.036-.051l.008.247-.266.244c-.446.409-.784.719-.81 1.08-.031.46.342.631.625.654.3.023.557-.142.714-.374.14-.204.23-.643.223-1.077l-.01-.632a5.049 5.049 0 00.959-1.673s.165.001.34-.01c.057-.004.073.007.063.049-.013.05-.223.858-.031 1.397.13.368.426.487.601.487.205 0 .4-.155.506-.385.012.026.026.05.04.074.297.47.87.368 1.161-.03.066-.09.103-.168.103-.168.062.39.366.51.54.51.18 0 .352-.074.491-.403.006.145.015.263.03.3.008.024.06.052.097.066a.748.748 0 00.397.02c.043-.009.077-.043.082-.133.012-.235.004-.63.076-.925.12-.493.231-.684.284-.779.03-.053.063-.062.064-.005.003.113.008.447.055.895.034.33.08.525.114.586.1.177.224.185.324.185.064 0 .197-.018.185-.13-.005-.054.005-.393.123-.878.077-.318.206-.604.252-.71.017-.038.025-.007.025-.001-.01.218-.032.933.057 1.324.12.53.47.588.591.588.26 0 .472-.197.544-.717.017-.125-.008-.222-.085-.222zm-10.877-.321c-.014.275-.068.505-.154.672-.156.302-.464.398-.6-.039-.098-.315-.065-.744-.024-.976.06-.344.212-.588.448-.565.243.023.362.336.33.908zm2.374.004c-.014.26-.081.52-.155.668-.151.304-.468.4-.6-.039-.09-.299-.068-.686-.024-.93.058-.317.198-.611.449-.611.244 0 .364.267.33.912zm.062 1.772c-.003.474-.078.89-.238 1.01-.227.17-.532.043-.468-.303.055-.306.32-.619.707-1l-.001.293zm4.097-1.77a1.675 1.675 0 01-.155.666c-.151.304-.466.399-.6-.039-.073-.238-.076-.636-.024-.97.054-.338.203-.594.449-.571.243.023.357.336.33.915z" fill="#323544"/></svg>