<svg viewBox="0 0 24 24" fill="none" xmlns="http://www.w3.org/2000/svg"><path d="M8.667 12a3.333 3.333 0 116.667 0 3.333 3.333 0 01-6.667 0zm-1.802 0a5.135 5.135 0 1010.27 0 5.135 5.135 0 00-10.27 0zm9.273-5.338a1.2 1.2 0 101.2-1.2 1.2 1.2 0 00-1.2 1.2zM7.96 20.14c-.975-.045-1.505-.207-1.857-.344a3.11 3.11 0 01-1.15-.748 3.086 3.086 0 01-.748-1.15c-.138-.352-.3-.882-.344-1.857-.049-1.054-.058-1.37-.058-4.04 0-2.671.01-2.987.058-4.042.044-.975.208-1.504.344-1.857.181-.467.398-.8.748-1.15.35-.35.682-.567 1.15-.748.352-.138.882-.3 1.857-.344C9.014 3.81 9.33 3.8 12 3.8s2.986.01 4.041.059c.975.044 1.504.208 1.857.344.467.18.8.398 1.15.748.35.35.567.683.749 1.15.137.352.3.882.343 1.857.049 1.055.059 1.37.059 4.041 0 2.67-.01 2.986-.059 4.041-.044.975-.207 1.505-.343 1.857a3.1 3.1 0 01-.748 1.15 3.11 3.11 0 01-1.15.748c-.353.137-.883.3-1.858.344-1.054.048-1.37.058-4.041.058-2.67 0-2.986-.01-4.04-.058zM7.877 2.06c-1.064.049-1.792.218-2.427.465a4.905 4.905 0 00-1.772 1.153A4.886 4.886 0 002.525 5.45c-.247.636-.416 1.363-.464 2.427C2.01 8.943 2 9.284 2 12s.011 3.057.06 4.123c.049 1.064.218 1.791.465 2.427a4.888 4.888 0 001.153 1.771 4.916 4.916 0 001.772 1.154c.636.247 1.363.416 2.427.464C8.944 21.988 9.284 22 12 22s3.057-.011 4.123-.06c1.064-.049 1.791-.218 2.427-.465a4.917 4.917 0 001.771-1.154 4.899 4.899 0 001.154-1.77c.247-.637.417-1.364.464-2.428.049-1.067.06-1.407.06-4.123s-.011-3.057-.06-4.123c-.048-1.064-.217-1.792-.464-2.427a4.918 4.918 0 00-1.154-1.772 4.893 4.893 0 00-1.77-1.153c-.637-.247-1.364-.417-2.427-.464C15.057 2.012 14.717 2 12 2s-3.057.011-4.124.06z" fill="#323544"/><path d="M8.667 12a3.333 3.333 0 116.667 0 3.333 3.333 0 01-6.667 0zm-1.802 0a5.135 5.135 0 1010.27 0 5.135 5.135 0 00-10.27 0zm9.273-5.338a1.2 1.2 0 101.2-1.2 1.2 1.2 0 00-1.2 1.2zM7.96 20.14c-.975-.045-1.505-.207-1.857-.344a3.11 3.11 0 01-1.15-.748 3.086 3.086 0 01-.748-1.15c-.138-.352-.3-.882-.344-1.857-.049-1.054-.058-1.37-.058-4.04 0-2.671.01-2.987.058-4.042.044-.975.208-1.504.344-1.857.181-.467.398-.8.748-1.15.35-.35.682-.567 1.15-.748.352-.138.882-.3 1.857-.344C9.014 3.81 9.33 3.8 12 3.8s2.986.01 4.041.059c.975.044 1.504.208 1.857.344.467.18.8.398 1.15.748.35.35.567.683.749 1.15.137.352.3.882.343 1.857.049 1.055.059 1.37.059 4.041 0 2.67-.01 2.986-.059 4.041-.044.975-.207 1.505-.343 1.857a3.1 3.1 0 01-.748 1.15 3.11 3.11 0 01-1.15.748c-.353.137-.883.3-1.858.344-1.054.048-1.37.058-4.041.058-2.67 0-2.986-.01-4.04-.058zM7.877 2.06c-1.064.049-1.792.218-2.427.465a4.905 4.905 0 00-1.772 1.153A4.886 4.886 0 002.525 5.45c-.247.636-.416 1.363-.464 2.427C2.01 8.943 2 9.284 2 12s.011 3.057.06 4.123c.049 1.064.218 1.791.465 2.427a4.888 4.888 0 001.153 1.771 4.916 4.916 0 001.772 1.154c.636.247 1.363.416 2.427.464C8.944 21.988 9.284 22 12 22s3.057-.011 4.123-.06c1.064-.049 1.791-.218 2.427-.465a4.917 4.917 0 001.771-1.154 4.899 4.899 0 001.154-1.77c.247-.637.417-1.364.464-2.428.049-1.067.06-1.407.06-4.123s-.011-3.057-.06-4.123c-.048-1.064-.217-1.792-.464-2.427a4.918 4.918 0 00-1.154-1.772 4.893 4.893 0 00-1.77-1.153c-.637-.247-1.364-.417-2.427-.464C15.057 2.012 14.717 2 12 2s-3.057.011-4.124.06z" fill="#323544"/></svg>