<svg viewBox="0 0 24 24" fill="none" xmlns="http://www.w3.org/2000/svg"><path fill-rule="evenodd" clip-rule="evenodd" d="M4.262 7.492c-.004.008-.015.045-.015.045.025.001.087-.008.09-.009.166-.017.206-.123.206-.123-.07-.022-.13-.016-.13-.016-.111.008-.141.08-.15.1a.057.057 0 010 .003zm15.717 5.109c.207-.07.382-.201.423-.304.033-.069.03-.142-.026-.197-.09-.09-.294-.002-.445.063l-.088.037s-.457.135-1.085-.16c0 0-.637-.316-1.33-.753 0 0-.927-.465-1.15-.59-1.152-.648-2.925-1.391-3.809-1.762l-.199-.083c-.524-.221-1.485-.563-1.485-.563C9.503 7.812 8.95 7.72 8.95 7.72c-.152-.03-.163.008-.163.008-.015.02.011.046.011.046.133.223.163.376.163.376-.87-.922-2.417-1.002-2.417-1.002-.468-.026-.733.216-.733.216-.038.038.003.065.003.065.56.186.885.794.885.794-.669-.545-1.078-.634-1.078-.634-.454-.084-.447-.253-.447-.253a.735.735 0 00.76-.212c.03-.037.007-.06-.017-.062-.66-.073-1.032.002-1.032.002-.665.1-.797.267-.835.316a.328.328 0 01-.005.006c-.039.038-.048.18.135.153v-.001c.005-.019.065-.227.267-.24 0 0 .217-.032.338.027 0 0-.188.28-.476.301l-.152.011a.562.562 0 00-.438.294s-.077.118.013.216a.126.126 0 01.004.005l.008.008s.088.11.209.102c0 0 .098.027.208-.158 0 0 .125-.215.182-.284 0 0 .073-.115.22-.115 0 0 .315-.029.372.367.028.198-.021.344-.37.628 0 0-.056.05-.117.088 0 0-.038.031-.015.066 0 0 .052.073.122.068h.007c.067-.005.137-.01.482-.358 0 0 .477-.126.477-.503 0 0 .012-.205-.096-.354 0 0 .219.017.411.377 0 0 .06.159.21.185 0 0 .521.094.88.386.14.114.297.265.407.444-.074-.163-.185-.48-.096-.792 0 0 .21.638.434.829.166.14.364.244.947.385 0 0-.814-.19-1.59-.11 0 0-.73.068-.938.54l-.003.006c-.029.065-.058.132-.064.227 0 0-.024.276.306.292a.708.708 0 00.27-.255c.045-.07-.048-.096-.048-.096-.083-.038-.062-.119-.062-.119.038-.169.357-.182.357-.182.423 0 .968.215.968.215 1.185.383 1.416-.19 1.416-.19.171-.316-.046-1.068-.046-1.068.88.711 2.288.78 2.288.78-.873.112-1.97-.281-1.97-.281.136.276.098.61.098.61.342.16.695.266.905.308l.034.007c.208.044.522.109 1.782.071.031 0 .06-.002.09-.003.06-.002.115-.004.165-.003.034-.164-.307-.463-.307-.463.355.156.686.595.748.68.04.052.082.115.128.194l.034.063c.173.315.677 1.24 1.9 1.222l.677.004s.925-.023 1.318.254c.194.137.269.203.35.274l.09.077c.03.026.062.052.093.08.224.19.481.412.775.438.222.032.412-.023.464-.176 0 0 .076-.191-.108-.301a1.383 1.383 0 01-.273-.137l-.01-.006c-.19-.122-.198-.127-.367-.279-.065-.058-.144-.158-.22-.256a1.96 1.96 0 00-.21-.241c-.125-.107-.297-.234-.699-.25-.409-.016-.885-.037-1.024-.066a.69.69 0 01-.359-.159.917.917 0 01-.229-.282 2.292 2.292 0 01-.077-.16c-.035-.079-.076-.17-.135-.28a.95.95 0 00-.21-.245l.026.017c.164.106.256.165.375.346.261.398.47.518.646.582.174.062.547.107.862.146.158.019.301.036.398.053.277.049.435.21.5.277l.085.09c.118.125.237.25.347.354.193.183.316.262.697.375.163.05.212.103.212.103.233.079.688.077.905.003zm.233-.698s.264-.048.346.147c.03.07.013.18-.084.302-.346.461-1.085.413-1.26.401-.031-.002-.044-.003-.033.001.06.143.078.4-.165.543 0 0-.412.227-1.126-.261-.134-.075-.315-.23-.475-.367-.127-.109-.24-.206-.306-.242-.34-.184-.685-.188-1.11-.188l-.698.02c-1.373.035-1.823-.769-2.128-1.314a6.418 6.418 0 00-.108-.19c-.078-.127-.274-.29-.582-.327 0 0-.223-.016-.413-.002-.964.074-1.558.011-1.558.011a4.204 4.204 0 01-1.027-.243c-.175.398-.9.324-.9.324-.638-.058-1.13-.35-1.13-.35-.452-.202-.676-.144-.676-.144-.069.015-.053.092-.053.092a.28.28 0 01-.05.237.824.824 0 01-.237.197.422.422 0 01-.367.01.381.381 0 01-.194-.198s-.185-.455.291-.831c0 0 .341-.33 1.187-.32-.222-.172-1.038-.766-1.61-.726 0 0-.515.054-.88.454 0 0-.142.164-.313.159-.192 0-.261-.264-.261-.264-.032-.084.04-.142.04-.142l.022-.019a1.275 1.275 0 01-.026-.097c-.012-.058-.008-.071-.008-.071s.113.062.163.063h.025c.088-.02.183-.187.183-.187.085-.212.01-.373-.06-.424-.089-.062-.207-.023-.255.015a.535.535 0 00-.134.197s-.024.058-.019.12c.003.036.024.086.043.132a.692.692 0 01.026.07s-.134-.005-.211-.084c0 0-.002.019-.077.026-.167.017-.277-.097-.332-.162a2.068 2.068 0 01-.141-.219c-.07-.134.017-.224.017-.224.162-.19.36-.323.36-.323.017-.015.012-.037.012-.037-.04-.083.04-.15.04-.15.452-.521 1.787-.504 1.787-.504 2.575 0 6.156 1.65 6.156 1.65 1.857.78 3.111 1.432 3.111 1.432a78.745 78.745 0 012.486 1.315c.079.046.169.103.271.168.282.18.659.418 1.151.642 0 0 .349.158.805.062.11-.023.203-.068.285-.107.076-.037.142-.07.2-.073zM5.415 7.237a.62.62 0 00.32-.07c0-.009-.19-.027-.19-.027-.175.007-.246.073-.247.08 0 .008.046.014.117.017zm4.386 9.383c-.826 0-1.612-.289-1.612-1.265 0-.317.139-.642.348-.875.328-.362.827-.506 1.297-.506.285 0 .614.066.87.198v.302a1.434 1.434 0 00-.836-.298c-.68 0-1.149.432-1.149 1.147 0 .647.414 1.09 1.05 1.09.162 0 .387-.03.54-.09v-.928h.48v1.037a1.485 1.485 0 01-.111.044 2.744 2.744 0 01-.877.144zm-4.096-2.116l-.553 1.173h1.08l-.527-1.173zm.922 2.06l-.315-.714H5.07l-.338.714h-.304l1.249-2.542h.297l1.222 2.542h-.57zm10.471-2.06l-.554 1.173h1.081l-.527-1.173zm.921 2.06l-.315-.714h-1.241l-.338.714h-.304l1.249-2.542h.297l1.222 2.542h-.57zm-4.47.056c.63 0 1.006-.213 1.126-.72.031-.129.045-.272.045-.524v-1.354h-.294v1.455c0 .176-.015.29-.034.383-.081.403-.382.551-.833.551-.213 0-.466-.05-.612-.223-.13-.147-.157-.347-.157-.682v-1.484h-.478v1.567c.005.286.045.551.241.747.194.197.57.284.996.284zm7.778-1.83c0-.429-.307-.591-.69-.591h-.352v1.216h.307c.258 0 .412-.05.533-.148.126-.103.202-.262.202-.476zm.122 1.774l-.663-.976h-.501v.976h-.479v-2.542h.905c.367 0 .735.054.94.284.107.12.165.287.165.501 0 .393-.292.631-.551.725L22 16.564h-.55zm-19.042.522a.95.95 0 01-.407.1c.328-.24.466-.485.514-.89.028-.226.028-.45.028-.676v-1.598h.478v1.924c0 .47-.178.924-.613 1.14z" fill="#323544"/></svg>