<svg viewBox="0 0 24 24" fill="none" xmlns="http://www.w3.org/2000/svg"><path d="M10.745 20.74c-.053 0-.238-.022-.41-.039a8.716 8.716 0 01-4.494-1.804l-.19-.149.09-.105c.079-.091.094-.101.125-.08.02.017.122.092.227.174 2.02 1.561 4.742 2.113 7.236 1.466a8.486 8.486 0 003.023-1.465 8.712 8.712 0 002.247-2.578 8.585 8.585 0 001.05-3.361c.038-.405.038-1.184 0-1.589a8.7 8.7 0 00-.56-2.335l-.076-.185.102-.104c.056-.056.108-.096.115-.088a8.76 8.76 0 01-4.108 11.328 8.716 8.716 0 01-3.016.877c-.26.028-1.162.051-1.367.035l.006.002zm-6.2-.931c0-.017-.017-.082-.02-.15l-.017-.123.11-.145c.69-.917 1.86-2.03 3.109-2.961a94.62 94.62 0 013.695-2.545c.127-.08.23-.153.23-.162 0 0-.407-.016-.905-.016h-.904l.307-.31-.167-.435h-1.08l-.032.215-.033.215.045.068c.025.039.073.105.108.152l.062.083h-.991l.127-.115.178-.161c.041-.039.078-.139.193-.528l.142-.48-.18-.322c-.99-1.771-1.48-3.413-1.323-4.44.097-.636.38-.962.97-1.119.22-.058.65-.063.9-.016 1.107.235 2.383 1.18 3.76 2.783.11.13.295.34.41.469 1.397 1.562 2.444 3.648 2.681 5.34.037.264.032.823-.017 1.035-.1.51-.332.857-.686 1.03-.225.11-.353.139-.627.14-.369 0-.719-.08-1.164-.272-.218-.093-.568-.278-.568-.299 0 0 .017-.028.025-.046.024-.032.037-.028.188.056.374.207.822.374 1.161.433.215.037.598.029.743-.018.189-.062.32-.14.458-.278.682-.678.52-2.33-.421-4.264a12.287 12.287 0 00-2.007-2.955l-.496-.547c-1.135-1.267-2.187-2.078-3.094-2.384a2.076 2.076 0 00-.802-.137c-.252 0-.304 0-.46.054-.365.11-.58.27-.705.528-.128.264-.177.563-.16 1 .034.876.378 1.978 1.008 3.228.24.478.423.804.445.795.017 0 .109-.307.217-.674l.2-.666-.368-.394h.737c.405 0 .743.001.752.016 0 0 .254.65.545 1.424l.53 1.409.364.365.487-.317a84.864 84.864 0 001.84-1.237c.218-.15.402-.274.412-.274.016-.001.113.16.101.17l-1.318.902c-3.408 2.33-5.367 3.684-5.684 3.924a17.372 17.372 0 00-2.833 2.753c-.1.125-.183.21-.188.196l.01.007zm5.287-7.31c-.152-.38-.439-1.06-.447-1.06 0 0-.057.148-.114.327-.056.18-.131.423-.168.538l-.066.21h.4c.221 0 .399 0 .395-.016zm-.593-.244c.078-.264.155-.483.167-.47.017.018.175.394.175.416 0 .017-.3.099-.343.099l.001-.045zm-.93 6.861c0-.056-.085-.49-.1-.509-.016-.017-.14-.042-.291-.067a2.795 2.795 0 01-.268-.05s.125-.025.269-.046a1.28 1.28 0 00.285-.065c.017-.017.042-.139.065-.278.038-.22.06-.315.06-.253 0 .078.085.512.103.531.017.017.147.042.297.063.15.022.275.044.28.047 0 0-.12.027-.278.05-.16.025-.293.055-.305.07-.017.017-.039.133-.06.266-.034.205-.057.307-.057.241zm-3.297-.957a8.722 8.722 0 01-2.162-3.632.88.88 0 01.243-.131s.054.151.114.329a8.415 8.415 0 002.145 3.377l.13.12-.089.098a.515.515 0 01-.105.1c-.016.002-.132-.115-.276-.261zm8.828.212c-.024-.023-.017-.1.016-.125.024-.018.042-.02.079 0 .048.022.058.052.036.11-.016.032-.106.043-.131.018v-.003zm1.422-.203c-.075-.028-.07-.172 0-.177.097 0 .127.02.119.108 0 .063-.06.093-.125.07l.006-.001zm-6.404-.556c-.035-.041 0-.108.047-.108.065 0 .098.045.07.097-.025.046-.084.053-.117.016v-.005zm-.948-.12c-.057-.056-.024-.125.06-.125.063 0 .091.06.053.115-.035.05-.072.054-.113.017v-.007zm2.88-.028c-.048-.04-.038-.083.03-.127.05-.031.123.047.095.102-.031.058-.075.067-.125.025zm5.959-.592c-.035-.099-.042-.104-.153-.144l-.117-.041.102-.034c.108-.035.14-.071.178-.192.029-.09.047-.081.078.034.029.101.04.115.147.148.043.017.085.03.092.037 0 0-.037.033-.1.056-.107.042-.117.05-.139.132a.369.369 0 01-.04.097s-.031-.037-.051-.094h.003zm-4.376.016c-.025-.025-.016-.1.017-.111.051-.02.09.016.085.063 0 .05-.07.08-.102.048zm-3.621-.056c-.068-.069-.001-.183.095-.159.057.017.087.097.057.147-.027.043-.112.05-.15.017l-.002-.005zm8.638-.134c-.017-.02-.017-.031 0-.05.02-.016.032-.016.05 0 .016.02.016.032 0 .05-.02.017-.032.017-.05 0zm-11.3-.161c-.058-.059-.017-.165.065-.165.042 0 .1.06.1.101 0 .039-.062.095-.103.095-.017 0-.045-.018-.062-.031zm8.725-.165c-.019-.03 0-.059.05-.059.025 0 .038.017.038.039 0 .041-.065.056-.088.02zm1.712-.055c-.072-.025-.079-.114-.017-.145.037-.017.055-.017.078 0 .067.055.017.169-.068.141l.007.004zm-9.267-.034c-.016-.038 0-.07.05-.07.039 0 .06.034.045.074-.016.033-.081.03-.095 0v-.004zm-1.483-.12c-.037-.036-.04-.108 0-.141.052-.052.172 0 .172.066 0 .037-.07.107-.106.107-.017 0-.042-.017-.059-.03l-.007-.002zm5.467-.397a1.226 1.226 0 01-.176-.09c-.115-.073-.317-.275-.361-.362a1.55 1.55 0 00-.139-.199l-.105-.13.21-.143.1.08c.055.043.165.113.242.153.253.134.522.446.522.609 0 .116-.122.151-.294.085l.001-.003zm-5.269-.035s-.016-.03-.016-.05c0-.025.016-.036.05-.036.04 0 .05 0 .043.043 0 .043-.053.068-.08.041l.003.002zm-.914-.097c-.022-.024-.02-.036 0-.063.03-.03.035-.03.065 0 .026.027.028.039 0 .063-.017.017-.032.03-.04.03 0 0-.027-.016-.04-.03h.015zm3.183-.034c-.016-.037.035-.079.075-.064.017 0 .029.027.025.047 0 .043-.085.056-.1.017zm7.137 0c0-.017 0-.035.017-.052.035-.035.073-.018.073.035 0 .041-.067.053-.088.017h-.002zm1.917 0c-.038-.029-.026-.084.022-.104.04-.017.091.037.076.077-.016.045-.058.055-.098.027zm.266-.119c0-.076-.087-.495-.107-.516-.017-.016-.148-.046-.297-.07-.3-.048-.3-.051.051-.1a.922.922 0 00.248-.055c.017-.016.042-.136.065-.276.037-.22.058-.315.06-.254.001.089.082.51.102.53.016.016.131.037.26.056.34.046.347.056.066.096a2.271 2.271 0 00-.295.055c-.059.022-.059.022-.105.33-.027.175-.047.264-.047.206l-.001-.002zm-2.812-.062c-.016-.043.035-.071.07-.038.017.017.022.037.017.049-.02.031-.07.024-.083-.017l-.004.006zm2.95-.036c-.017-.017-.02-.049-.017-.074 0-.036.018-.044.075-.044.062 0 .07 0 .075.056.017.084-.08.125-.133.062zm-2.381-.374c-.027-.04-.028-.06-.017-.098.042-.09.2-.055.2.043 0 .038-.074.103-.117.103-.022 0-.054-.023-.072-.05l.006.002zm1.2 0c-.042-.023-.044-.102 0-.135.04-.033.126 0 .126.053 0 .07-.065.114-.123.08l-.004.002zm-14.463-.34c.245-.202.883-.603 1.416-.889.382-.204.908-.456.89-.425 0 .016-.067.088-.133.168-.085.105-.119.16-.119.202 0 .057-.016.063-.362.219-.445.199-.907.432-1.24.627-.246.143-.256.148-.382.147L2 14.717l.058-.048zm8.006-.22a37.729 37.729 0 01-.773-1.105l-.18-.269h.073c.057 0 .08.017.1.043.053.087.428.61.71.987l.288.384-.045.037c-.025.02-.055.037-.067.037-.017 0-.057-.05-.106-.113zm6.287.036c0-.054.036-.07.073-.035.035.035.018.073-.035.073-.025 0-.038-.017-.038-.038zm-13.625-.428c-.033-.057-.153-.738-.201-1.149a11.474 11.474 0 010-1.82c.164-1.423.618-2.709 1.356-3.84a8.74 8.74 0 0113.886-1.04c.304.345.775.969.775 1.026 0 .022-.182.147-.212.147 0 0-.053-.058-.101-.131a8.561 8.561 0 00-3.16-2.793 8.49 8.49 0 00-6.975-.33c-.326.128-.927.427-1.238.616a8.517 8.517 0 00-3.685 4.63 8.528 8.528 0 00-.268 4.19l.059.315c0 .045 0 .058-.11.122-.065.038-.121.065-.126.057zm9.461-.152v-.117l.606-.416.275.016c.22 0 .296 0 .386-.021.182-.054.308-.192.308-.342 0-.041-.022-.076-.078-.126l-.079-.07.064-.047c.128-.095.878-.603.904-.613.016 0 .046.02.078.067.14.211.179.476.11.747a.803.803 0 01-.235.418c-.328.35-.831.521-1.372.465a3.339 3.339 0 01-.607-.129c-.02-.016-.074.025-.157.1l-.171.152-.045.038v-.116l.013-.006zm-7.947-.2s.061-.09.136-.18l.137-.167v-2.486l-.116-.182a2.531 2.531 0 01-.116-.19s.302-.017.672-.017h.673l1.15 1.935v-1.704l-.2-.23h.412c.227 0 .413 0 .413.017 0 0-.044.075-.099.155l-.098.145v2.568l.293.32h-.669c-.368 0-.675-.001-.683-.016 0 0-.262-.447-.566-.974-.303-.527-.56-.967-.57-.977-.016-.017-.016.333-.016.818v.836l.117.155c.065.085.116.159.116.165 0 0-.224.017-.499.017-.274 0-.498 0-.498-.017l.01.01zm10.917-.111c.058-.059.112-.102.118-.094 0 0 .022.042.034.074.016.031.026.073.033.093.017.032-.001.035-.138.035h-.154l.107-.107v-.001zm.426-.195a5.364 5.364 0 01-.114-.321c0-.017.154-.51.343-1.11.33-1.053.341-1.092.308-1.132a5.461 5.461 0 00-.18-.197l-.147-.157h.722c.398 0 .729.002.735.017 0 0 .275.649.595 1.424l.582 1.408.398.382H16.83l.152-.152c.083-.083.152-.161.152-.172 0-.017-.035-.108-.075-.215l-.077-.194h-1.087l-.055.195a2.14 2.14 0 00-.055.227c0 .017.043.09.098.16.054.072.099.134.099.14 0 0-.064.017-.142.017h-.142l-.112-.302-.003-.018zm1.237-.906c0-.047-.44-1.077-.452-1.057-.02.035-.33 1.024-.33 1.05 0 .016.116.021.39.021.216 0 .392 0 .392-.016v.002zm-4.637.481l.09.065c.05.035.094.07.098.079 0 0-.036.04-.09.073l-.098.06v-.277zm-4.852-.505v-.234l.171-.052c.095-.028.311-.095.482-.148.17-.053.318-.09.326-.082.035.037.276.48.266.49-.02.02-1.145.26-1.217.26-.023 0-.028-.043-.028-.234zm5.596.05c-.454-.163-.71-.386-.805-.702-.082-.269-.017-.67.146-.888a1.2 1.2 0 01.542-.428c.11-.04.384-.099.537-.115l.117-.017.118.152c.132.17.264.352.264.362h-.249c-.295 0-.359.025-.43.167-.047.093-.06.266-.024.333.037.07.185.134.47.204.288.07.671.23.633.263-.016.017-.288.203-.833.576a4.413 4.413 0 01-.254.167l-.232-.083v.01zm-4.255-.636c-.028-.057-.028-.057.032-.079a.22.22 0 01.066-.021s0 .035-.016.078c-.024.093-.042.098-.082.022zm2.238-.095c-.017-.03-.046-.125-.08-.21a23.1 23.1 0 01-.115-.307l-.055-.15.454-.171c.479-.181 1.562-.61 1.915-.76l.21-.088.157.183-.175.017c-.353.028-.623.135-.836.334-.221.207-.327.407-.394.746l-.035.174-.086.027c-.313.095-.89.26-.913.26-.017 0-.037-.024-.047-.053v-.002zm3.885-.045c-.027-.044-.045-.087-.039-.097 0-.017.115-.092.24-.183.127-.09.383-.28.57-.421.186-.142.345-.257.352-.257 0 0 .036.029.06.062.044.058.045.067.019.142-.025.073-.07.108-.576.455a16.34 16.34 0 01-.562.378s-.036-.036-.064-.08zm-.348-.572a11.08 11.08 0 00-.296-.433 3.802 3.802 0 01-.201-.298l.156.035.15.04.294-.164v.96s-.049-.063-.097-.141l-.006.001zm-1.207-.052c0-.033.091-.098.166-.118.075-.02.24-.03.223-.017-.02.02-.389.145-.389.132v.003zm1.428-.665c0-.123 0-.16-.037-.185-.053-.049-.09-.04-.266.055l-.162.088-.348-.08-.143-.177c-.079-.097-.137-.184-.127-.192.017-.017.206-.099.437-.201 1.68-.741 3.177-1.523 4.422-2.31.337-.214.674-.48 1.438-1.136 1.015-.872 1.696-1.562 2.02-2.049.05-.073.091-.135.096-.135.025 0-.203.523-.385.88-.878 1.73-2.485 3.605-4.414 5.152l-.238.19h-.51l.19-.156c.208-.173.808-.76.84-.822.017-.028-.128.035-.51.225-.65.325-1.505.704-2.2.977l-.103.04v-.163zM9.135 8.883c.017-.037.055-.042.055 0 0 .016-.016.031-.031.031-.017 0-.029-.016-.024-.023v-.008zm.069-.466c0-.017-.027-.122-.044-.235a1.107 1.107 0 00-.058-.245c-.02-.034-.068-.047-.257-.077-.354-.055-.355-.057-.047-.103.153-.024.287-.05.297-.06.017-.017.037-.127.058-.261.022-.133.047-.25.055-.258 0 0 .03.095.05.23.02.135.045.259.059.276.016.021.108.043.314.071.323.045.322.049-.044.102-.158.023-.248.047-.267.067-.016.016-.045.141-.066.275-.022.135-.044.232-.05.216v.002zm-.72-.363c-.034-.043 0-.096.063-.096.038 0 .046.016.046.058 0 .045-.016.06-.04.065a.147.147 0 01-.068-.027zm-.227-.374c-.017-.041.018-.095.061-.095.02 0 .044.017.055.032.03.047 0 .095-.055.095-.028 0-.055-.017-.061-.032zm4.693-.259a.072.072 0 01-.02-.063c.016-.065.105-.078.123-.018.022.07-.042.12-.103.081zm-1.17-.891c-.017-.039 0-.07.05-.07.038 0 .068.05.048.08-.016.028-.086.02-.098-.017v.007zm-1.958-.022c0-.017 0-.045.02-.063.029-.029.035-.029.062 0 .017.016.025.045.017.063-.017.042-.084.043-.099 0zm3.282-.582a1.349 1.349 0 00-.066-.284c-.017-.017-.14-.037-.286-.06-.238-.038-.328-.06-.253-.062.098 0 .516-.08.537-.101.016-.017.043-.14.066-.28a3.77 3.77 0 01.049-.26s.018.056.07.38c.016.077.035.15.048.164.022.018.425.088.557.098.057 0-.073.034-.304.067a1.156 1.156 0 00-.258.057c-.017.016-.042.133-.064.266a7.31 7.31 0 01-.045.262c0 .016-.026-.102-.051-.25v.003zm-3.158.189c-.023-.023-.016-.045.017-.045.017 0 .03.017.03.03 0 .03-.023.038-.045.017l-.002-.002zm1.09-.018c0-.017 0-.045.02-.064.028-.028.035-.028.061 0 .017.017.025.045.018.064-.016.041-.085.043-.1 0zm-1.294-.05c-.061-.062.017-.159.084-.107.045.033.033.118-.019.127-.021 0-.05 0-.063-.019l-.002-.001zm1.63-.152c-.016-.023.022-.047.049-.03.021.017 0 .048-.02.048-.017 0-.022 0-.029-.018zm-1.752-.03c0-.017.017-.03.03-.03.017 0 .03.017.03.03 0 .017-.016.03-.03.03-.016 0-.03-.017-.03-.03zm2.222-.236c-.036-.037-.04-.109 0-.142.03-.03.119-.03.149 0 .055.055 0 .172-.075.172-.02 0-.05-.016-.067-.031h-.007zm-.965-.227c-.065-.065.017-.188.102-.165.057.017.087.097.057.147-.025.04-.127.051-.159.018zm.582-.848c-.021-.027-.021-.037 0-.062.042-.041.097-.018.09.039 0 .053-.06.066-.095.025l.005-.002z" fill="#323544"/></svg>