<svg viewBox="0 0 24 24" fill="none" xmlns="http://www.w3.org/2000/svg"><path d="M16.414 8.94l-.007-.003-.012-.006a.058.058 0 01-.014-.049l.396-2.465 1.86 1.891-1.934.837a.04.04 0 01-.017.003h-.008a.88.88 0 00-.264-.208zm2.697-.15l1.988 2.022c.412.42.619.63.694.873a1 1 0 01.028.11l-4.75-2.047-.008-.003c-.019-.008-.041-.017-.041-.037 0-.02.023-.029.042-.037l.006-.002 2.04-.879zm2.63 3.653c-.104.196-.303.4-.642.744l-2.241 2.28-2.899-.615-.015-.003c-.026-.004-.053-.008-.053-.032a.894.894 0 00-.336-.622c-.012-.012-.008-.031-.005-.048l.001-.008.545-3.404.002-.011c.003-.026.008-.056.031-.056a.884.884 0 00.595-.347c.005-.005.008-.011.014-.014.016-.008.036 0 .053.007l4.949 2.13zm-3.398 3.548l-3.686 3.748.631-3.944.001-.005a.09.09 0 01.003-.015c.005-.012.018-.018.031-.023l.006-.002a.95.95 0 00.357-.27c.012-.015.027-.029.046-.031h.015l2.595.542zm-4.466 4.541l-.415.423-4.593-6.751-.005-.007c-.007-.01-.015-.02-.013-.032 0-.008.006-.015.011-.021l.005-.007c.014-.021.026-.042.039-.064l.01-.019.002-.001c.007-.013.013-.025.026-.032.01-.005.025-.003.037 0l5.088 1.067a.083.083 0 01.039.017c.007.007.008.014.01.023a.912.912 0 00.527.613c.014.007.008.023.002.04a.121.121 0 00-.008.024l-.762 4.727zm-.868.882c-.306.308-.486.472-.69.537a1.01 1.01 0 01-.619 0c-.239-.077-.445-.286-.858-.707l-4.612-4.69 1.204-1.9a.078.078 0 01.02-.025c.014-.01.032-.005.048 0 .276.085.573.07.84-.044.013-.005.027-.009.038.001l.014.017 4.615 6.812zm-7.224-5.313l-1.058-1.076 2.09-.907a.043.043 0 01.016-.003c.018 0 .028.018.037.034.021.033.043.065.067.096l.007.008c.006.009.002.018-.005.026l-1.153 1.822h-.001zM4.259 14.55L2.92 13.187c-.227-.231-.393-.4-.507-.544l4.07.859.015.003c.025.004.053.008.053.032 0 .026-.03.038-.056.048l-.012.006-2.224.958zm-2.08-2.606c.004-.087.02-.174.046-.258.076-.243.282-.453.695-.873L4.633 9.07c.789 1.164 1.58 2.327 2.373 3.488.013.019.029.04.013.055-.075.084-.15.176-.203.276a.084.084 0 01-.025.032c-.007.004-.014.003-.022 0l-4.59-.978zm2.913-3.34l2.302-2.342c.217.097 1.005.435 1.71.738.532.23 1.019.438 1.171.506.016.006.03.012.036.028.005.01.002.021 0 .031-.074.343.027.702.269.954.015.015 0 .038-.014.057l-.007.01-2.338 3.685a.071.071 0 01-.023.026c-.012.008-.03.004-.044 0a1.145 1.145 0 00-.278-.038 1.51 1.51 0 00-.268.033c-.01.001-.02.003-.028-.003a.108.108 0 01-.023-.026L5.09 8.604zM7.86 5.789l2.982-3.033c.412-.42.62-.63.858-.706a1.01 1.01 0 01.619 0c.239.076.445.286.858.706l.646.658-2.12 3.34a.08.08 0 01-.021.025c-.013.009-.031.005-.046 0a1.061 1.061 0 00-.985.193c-.014.015-.034.006-.052-.002-.277-.122-2.43-1.048-2.739-1.181zm6.414-1.917l1.958 1.991-.472 2.972v.008a.067.067 0 01-.004.02c-.005.01-.016.012-.026.015a.933.933 0 00-.312.165.056.056 0 01-.022-.004l-2.984-1.29-.005-.002c-.02-.008-.042-.017-.042-.037a1.158 1.158 0 00-.159-.477c-.014-.024-.03-.05-.018-.074l2.086-3.287zm-2.017 4.488l2.797 1.205c.015.008.032.014.04.03.002.01.002.02 0 .03a.72.72 0 00-.016.138v.08c0 .02-.02.027-.039.035l-.005.002c-.444.193-6.221 2.699-6.23 2.699-.009 0-.018 0-.027-.01-.015-.015 0-.037.014-.057l.007-.01 2.299-3.62.004-.006c.013-.022.029-.047.053-.047l.024.004c.052.007.098.014.145.014.348 0 .671-.173.866-.468a.082.082 0 01.018-.02c.014-.011.034-.006.05.001zM9.054 13.15l6.298-2.731s.009 0 .018.009a.844.844 0 00.091.08l.014.009c.013.007.026.016.027.029l-.001.013-.54 3.37-.002.014c-.003.026-.007.056-.031.056a.885.885 0 00-.704.442l-.003.004c-.007.012-.014.024-.025.03-.011.005-.025.003-.036 0l-5.022-1.053c-.006-.001-.078-.271-.084-.272z" fill="#323544"/></svg>