<svg viewBox="0 0 24 24" fill="none" xmlns="http://www.w3.org/2000/svg"><path d="M12.03 3.44c-4.08 0-7.52 2.7-8.52 6.36-.43.05-.64.08-.82.13-.57.13-.69.33-.69.74v2.77c0 .4.43.68.73.73.3.06.49.08.8.11h.003c1.034 3.625 4.441 6.28 8.497 6.28 4.055 0 7.47-2.663 8.496-6.285.25-.021.498-.056.744-.105.3-.05.73-.33.73-.73v-2.77c0-.41-.12-.61-.69-.74-.172-.047-.376-.077-.766-.123a.06.06 0 01-.004-.027c-1.01-3.66-4.44-6.34-8.51-6.34zm.01 2.02c2.88 0 5.34 1.76 6.3 4.23 0 .01.01.02.01.02l.012.005C16.287 9.636 13.607 9.55 12 9.55c-1.585 0-4.21.084-6.274.161h.004c.96-2.48 3.42-4.25 6.31-4.25zm-4.71 5.43h.54c.05 0 .06.02.06.06v2.1c0 .05-.01.07-.07.07h-.51c-.06 0-.07-.01-.07-.07v-2.1c0-.04.01-.06.05-.06zm1.79.01h1.6c.06 0 .08.01.08.06v.36c0 .05-.02.07-.08.06H9.15c-.07 0-.1.03-.11.1v.09c0 .05.03.09.1.1.18.03.76.07.98.09.39.04.68.11.76.48 0 .03.01.13.01.24 0 .07 0 .16-.02.24-.07.35-.33.42-.75.42H8.47c-.06 0-.07-.01-.07-.07v-.35c0-.06.01-.07.07-.07h1.67c.07 0 .09-.02.1-.07v-.15c-.01-.04-.02-.1-.11-.11-.37-.026-.74-.06-1.11-.1-.48-.05-.6-.25-.62-.43-.01-.06-.01-.14-.01-.21 0-.06 0-.15.01-.22.07-.31.3-.46.72-.46zm2.84 0h1.6c.06 0 .08.01.08.06v.36c0 .05-.02.07-.08.06h-1.57c-.07 0-.1.03-.11.1v.09c0 .05.02.09.1.1.18.03.76.07.97.09.39.04.68.11.76.48 0 .03.01.13.01.24 0 .07 0 .16-.02.24-.07.35-.33.42-.75.42h-1.64c-.06 0-.07-.01-.07-.07v-.35c0-.06.01-.07.07-.07h1.67c.07 0 .09-.02.1-.07v-.15c-.01-.04-.03-.1-.11-.11-.37-.026-.74-.06-1.11-.1-.48-.05-.59-.25-.62-.43-.01-.06-.01-.14-.01-.21 0-.06 0-.15.01-.22.07-.31.3-.46.72-.46zm-7.77.01h.51c.38 0 .43-.01.57.19.11.18 1 1.55 1 1.55v-1.67c0-.05.01-.07.07-.07h.44c.06 0 .07.02.07.07v2.09c0 .06-.01.07-.07.07h-.6c-.35 0-.38 0-.5-.2-.24-.38-.98-1.51-.98-1.51v1.64c0 .06-.01.07-.07.07h-.44c-.06 0-.07-.01-.07-.07v-2.09c0-.05.01-.07.07-.07zm11.18 0c.11 0 .19 0 .22.01.36.01.3-.03.47.34.09.21.73 1.58.83 1.82.03.07.01.06-.07.06h-.55c-.03 0-.06-.01-.07-.04 0-.01-.07-.17-.17-.4h-1.29c-.1.23-.18.4-.18.4-.01.02-.03.04-.07.04h-.53c-.08 0-.11 0-.06-.1l.01-.02c.25-.55.84-1.87.84-1.87.12-.25.06-.23.4-.23.09-.01.11-.01.22-.01zm1.92 0h.51c.38 0 .43-.01.57.19.12.18 1 1.55 1 1.55v-1.67c0-.05.01-.07.07-.07h.44c.06 0 .07.02.07.07v2.09c0 .06-.01.07-.07.07h-.6c-.35 0-.38 0-.5-.2-.25-.38-.98-1.51-.98-1.51v1.64c0 .06-.01.07-.07.07h-.44c-.06 0-.07-.01-.07-.07v-2.09c0-.05.01-.07.07-.07zm-1.89.5c-.03 0-.06 0-.07.01-.03 0-.05.01-.06.03 0 .01-.16.39-.33.78h.89c-.13-.33-.28-.66-.32-.77-.01-.03-.03-.04-.05-.04-.01-.01-.04-.01-.06-.01zm2.9 2.992c-.003.012-.02.04-.02.048-1 2.4-3.42 4.1-6.25 4.1-2.85 0-5.28-1.72-6.27-4.14l-.02-.005c1.814.091 4.162.185 6.26.185 2.115 0 4.48-.095 6.3-.187z" fill="#323544"/></svg>