<svg viewBox="0 0 25 24" fill="none" xmlns="http://www.w3.org/2000/svg"><path fill-rule="evenodd" clip-rule="evenodd" d="M7 3.25A2.25 2.25 0 004.75 5.5v13A2.25 2.25 0 007 20.75h1.75A2.25 2.25 0 0011 18.5v-13a2.25 2.25 0 00-2.25-2.25H7zM6.25 5.5A.75.75 0 017 4.75h1.75a.75.75 0 01.75.75v13a.75.75 0 01-.75.75H7a.75.75 0 01-.75-.75v-13zM16.25 3.25A2.25 2.25 0 0014 5.5v13a2.25 2.25 0 002.25 2.25H18a2.25 2.25 0 002.25-2.25v-13A2.25 2.25 0 0018 3.25h-1.75zM15.5 5.5a.75.75 0 01.75-.75H18a.75.75 0 01.75.75v13a.75.75 0 01-.75.75h-1.75a.75.75 0 01-.75-.75v-13z" fill="#323544"/></svg>