<svg viewBox="0 0 24 24" fill="none" xmlns="http://www.w3.org/2000/svg"><path d="M16.238 2a8.445 8.445 0 00-2.295.336l-.053.017a9.102 9.102 0 00-1.425-.138c-.982-.017-1.825.222-2.505.618-.67-.232-2.06-.633-3.525-.553-1.02.056-2.133.366-2.958 1.237-.823.87-1.258 2.218-1.166 4.051.025.506.17 1.331.408 2.4.24 1.068.575 2.319.994 3.46.42 1.141.879 2.166 1.596 2.863.359.35.852.642 1.434.618.408-.016.777-.195 1.095-.46.155.204.321.294.472.376.19.104.375.175.567.222.344.086.933.2 1.623.083.235-.039.483-.116.73-.225.008.275.02.544.03.817.034.863.056 1.66.315 2.36.042.114.156.702.606 1.221.45.52 1.332.845 2.336.63.708-.152 1.609-.425 2.207-1.277.592-.842.859-2.05.911-4.008a3.95 3.95 0 01.046-.28l.14.013h.017c.756.034 1.576-.073 2.261-.392.607-.28 1.066-.565 1.4-1.069a1.07 1.07 0 00.2-.536c.025-.26-.124-.666-.371-.854-.496-.377-.808-.233-1.142-.164-.33.073-.665.113-1.002.122a19.17 19.17 0 002.049-4.871c.233-.9.364-1.73.375-2.456.01-.726-.049-1.368-.484-1.924-1.359-1.737-3.27-2.217-4.748-2.234h-.138V2zm-.039.533c1.399-.013 3.185.38 4.468 2.019.288.368.374.906.364 1.57-.01.662-.133 1.456-.357 2.325-.436 1.683-1.257 3.646-2.415 5.406.041.03.085.053.132.072.242.1.793.186 1.892-.04.276-.058.479-.097.689.063a.435.435 0 01.152.354.588.588 0 01-.108.28c-.212.319-.632.621-1.17.87-.475.222-1.157.338-1.762.345a2.702 2.702 0 01-.821-.094l-.015-.006c-.092.883-.303 2.627-.44 3.423-.11.642-.303 1.152-.67 1.534-.367.381-.886.611-1.585.761-.865.186-1.495-.014-1.902-.357-.406-.341-.592-.794-.703-1.072-.077-.192-.117-.44-.155-.772a16.95 16.95 0 01-.086-1.195c-.026-.7-.034-1.401-.025-2.102a2.55 2.55 0 01-1.293.633 3.411 3.411 0 01-1.393-.075 1.893 1.893 0 01-.433-.167c-.142-.076-.277-.162-.367-.331a.467.467 0 01-.048-.318.508.508 0 01.182-.276c.165-.134.383-.209.713-.277.599-.123.808-.207.935-.308.109-.087.231-.262.448-.519a.786.786 0 01-.002-.034 2.467 2.467 0 01-1.109-.298c-.125.132-.763.807-1.542 1.743-.327.392-.689.617-1.07.633-.382.016-.727-.176-1.02-.46-.586-.57-1.054-1.549-1.461-2.655-.407-1.107-.738-2.34-.973-3.39-.236-1.05-.375-1.896-.395-2.305-.087-1.735.319-2.904 1.014-3.641.697-.738 1.652-1.017 2.583-1.07 1.67-.096 3.257.486 3.578.611.619-.42 1.415-.681 2.41-.665.473.007.943.068 1.401.182l.017-.007c.202-.071.407-.131.616-.179a8.022 8.022 0 011.725-.209l.001-.002zm.127.559h-.122c-.477.006-.953.06-1.42.16a6.244 6.244 0 012.375 1.875c.384.489.701 1.027.944 1.6.091.22.153.406.188.55.017.072.03.133.033.196.002.032.004.065-.01.12 0 .003-.004.009-.005.011.025.73-.155 1.225-.177 1.922-.017.505.112 1.098.144 1.746.03.608-.043 1.276-.438 1.932.033.04.063.08.095.12 1.045-1.646 1.798-3.466 2.2-5.019.215-.836.329-1.593.339-2.193.008-.6-.104-1.035-.246-1.217-1.118-1.43-2.632-1.794-3.9-1.804zm-3.992.213c-.985.003-1.691.3-2.227.746-.553.46-.924 1.092-1.167 1.737A7.371 7.371 0 008.513 7.8l.01-.007a4.317 4.317 0 011.107-.43c.418-.095.87-.125 1.278.033.408.158.745.53.868 1.096.587 2.714-.182 3.723-.466 4.485-.107.276-.2.558-.276.844.036-.008.072-.018.108-.022.2-.016.357.05.45.09.285.119.48.367.586.65.028.075.048.155.06.237a.28.28 0 01.016.106 45.957 45.957 0 00.011 3.115c.02.448.048.843.083 1.155.036.31.087.547.12.627.106.267.262.616.544.854.281.236.686.395 1.424.236.64-.137 1.035-.328 1.3-.602.262-.274.42-.656.52-1.24.152-.875.455-3.413.492-3.89-.017-.36.036-.637.151-.848a.986.986 0 01.46-.42c.08-.036.154-.06.214-.078a4.938 4.938 0 00-.202-.27 3.712 3.712 0 01-.555-.917 6.95 6.95 0 00-.214-.402c-.111-.2-.251-.45-.398-.731-.293-.563-.612-1.244-.778-1.908-.165-.664-.19-1.35.234-1.835.375-.43 1.034-.608 2.022-.508-.03-.087-.047-.16-.096-.277a6.512 6.512 0 00-.867-1.47c-.838-1.07-2.194-2.132-4.289-2.166h-.096v-.002zM6.8 3.348c-.106 0-.211.004-.316.01-.842.048-1.638.292-2.207.895-.57.604-.945 1.593-.863 3.23.015.31.15 1.179.382 2.21.23 1.032.558 2.246.952 3.319.394 1.072.871 2.006 1.325 2.447.228.221.426.31.606.303.181-.008.399-.113.665-.432.484-.585.987-1.154 1.508-1.707a2.914 2.914 0 01-.973-2.625c.086-.615.098-1.191.088-1.646-.01-.444-.042-.739-.042-.923v-.025c-.001-.96.166-1.912.493-2.814.233-.62.58-1.25 1.101-1.76-.511-.168-1.42-.425-2.403-.473a6.321 6.321 0 00-.317-.009H6.8zM17.131 7.75c-.566.008-.883.153-1.05.344-.236.271-.258.746-.112 1.331.146.586.448 1.24.731 1.785.142.273.28.518.39.717.112.2.194.341.244.462.045.112.096.21.148.302.219-.463.258-.917.236-1.39-.03-.586-.165-1.185-.145-1.792.022-.709.162-1.17.175-1.719a4.828 4.828 0 00-.617-.04zm-6.862.096a2.348 2.348 0 00-.513.062 3.888 3.888 0 00-.96.374c-.103.055-.2.118-.292.19l-.018.016c.005.122.03.417.04.851.01.475-.003 1.081-.094 1.737-.2 1.425.835 2.605 2.05 2.607.07-.293.187-.59.304-.902.338-.912 1.004-1.577.443-4.172-.091-.425-.273-.596-.523-.693a1.228 1.228 0 00-.437-.07zm6.598.17h.041a.731.731 0 01.15.018c.046.01.084.025.116.046a.136.136 0 01.062.092v.006a.2.2 0 01-.03.113.556.556 0 01-.092.125.565.565 0 01-.321.177.492.492 0 01-.342-.086.506.506 0 01-.108-.099.216.216 0 01-.053-.105.14.14 0 01.035-.107.318.318 0 01.098-.075 1.075 1.075 0 01.444-.107v.002zm-6.517.14c.044 0 .091.004.139.01.127.018.24.052.327.102.042.022.08.052.11.089.018.019.03.041.038.066.008.024.01.05.008.075a.251.251 0 01-.063.129.541.541 0 01-.119.108.533.533 0 01-.373.094.607.607 0 01-.35-.19.592.592 0 01-.099-.136.233.233 0 01-.034-.148c.013-.09.087-.137.16-.162a.722.722 0 01.255-.034l.001-.003zm7.55 6.12h-.002c-.123.044-.224.063-.309.1a.376.376 0 00-.199.178c-.052.096-.097.266-.084.555.038.026.08.046.123.059.143.043.382.071.649.067.531-.006 1.186-.13 1.533-.291.285-.133.55-.306.786-.513-1.162.24-1.818.176-2.22.01a1.096 1.096 0 01-.277-.167v.001zm-6.692.078h-.018c-.044.004-.108.019-.232.156-.29.325-.392.53-.631.72-.24.19-.55.292-1.171.42a1.6 1.6 0 00-.384.12c.024.02.021.024.058.043.09.05.208.095.302.119.266.066.705.144 1.162.066.458-.078.934-.297 1.34-.866.07-.098.077-.243.02-.4-.059-.155-.186-.29-.276-.327a.545.545 0 00-.17-.05v-.002z" fill="#323544"/></svg>