<svg viewBox="0 0 24 24" fill="none" xmlns="http://www.w3.org/2000/svg"><path d="M10.92 10.438a1.08 1.08 0 111.698.886c-.27.19-.598.442-.86.76-.267.322-.508.759-.508 1.3a.75.75 0 001.5 0c0-.075.03-.184.162-.343.135-.163.332-.325.566-.489a2.58 2.58 0 10-4.058-2.114.75.75 0 001.5 0zM12 14.642a.75.75 0 100 1.5.75.75 0 000-1.5z" fill="#323544"/><path fill-rule="evenodd" clip-rule="evenodd" d="M12 2C6.477 2 2 6.477 2 12s4.477 10 10 10 10-4.477 10-10S17.523 2 12 2zM3.5 12a8.5 8.5 0 1117 0 8.5 8.5 0 01-17 0z" fill="#323544"/></svg>