<svg viewBox="0 0 24 24" fill="none" xmlns="http://www.w3.org/2000/svg"><path d="M12 2C6.478 2 2 6.478 2 12c0 5.523 4.478 10 10 10 5.523 0 10-4.477 10-10 0-5.522-4.477-10-10-10zm7.351 5.251l-.14-.21.14.21zm-.543-.747l-.085-.106c.03.035.059.071.085.106zm-1.21-1.23l-.106-.086c.039.03.071.059.106.085zm-.637-.484l-.21-.141c.07.047.139.094.21.14zm-3.987-1.486l-.21-.02c.069.006.138.012.21.02zm-1.74-.022l-.21.02c.07-.006.14-.012.21-.02zM7.252 4.649l-.21.14.21-.14zm-.747.543l-.102.081c.035-.026.067-.055.102-.081zm-1.23 1.21l-.086.106c.03-.035.059-.07.085-.106zm-.484.637l-.141.21c.047-.07.094-.139.14-.21zm-1.486 3.988l-.02.21c.006-.07.012-.139.02-.21zm-.022 1.738l.02.21a8.049 8.049 0 00-.02-.21zm1.367 3.982l.14.21a4.674 4.674 0 01-.14-.21zm.163.245l1.56-1.043-.172-.261-1.56 1.043a8.678 8.678 0 01-1.328-3.719l.933-.094-.03-.312-.933.094a8.049 8.049 0 01-.027-.547h1.876v-.312H3.253c.004-.184.012-.364.027-.547l.932.09.03-.313-.932-.09a8.683 8.683 0 011.333-3.718l1.559 1.043.171-.261L4.81 7.01c.106-.149.21-.296.325-.437l.722.594.2-.243-.722-.593c.116-.141.243-.274.367-.407L7.027 7.25l.222-.222-1.325-1.325c.133-.124.266-.251.403-.367l.593.726.243-.2-.594-.722c.145-.115.29-.223.437-.329L8.05 6.37l.261-.172-1.043-1.56a8.678 8.678 0 013.719-1.328l.094.933.312-.03-.094-.933c.18-.017.363-.023.547-.027V5.13h.312V3.25c.184.004.363.012.547.027l-.09.932.313.03.09-.932c1.359.157 2.62.625 3.718 1.333L15.694 6.2l.261.171 1.043-1.559c.149.106.296.21.437.325l-.594.722.243.2.593-.722c.141.116.274.243.407.367l-.5.488-6.837 4.559-4.56 6.837-.487.488a13.6 13.6 0 01-.367-.402l.722-.594-.198-.243-.722.594a8.63 8.63 0 01-.323-.44zm.461.606c-.026-.035-.055-.065-.081-.102l.081.102zm1.129 1.129l.102.081c-.035-.026-.067-.055-.102-.081zm.637.481l.21.141a9.726 9.726 0 01-.21-.14zm3.988 1.488l.21.02c-.07-.006-.139-.012-.21-.02zm1.738.022l.208-.02a6.948 6.948 0 00-.208.02zm3.986-1.367l.21-.14c-.071.046-.14.093-.21.14zm.745-.543l.106-.085c-.037.03-.071.059-.106.085zm.684-.612l.016-.016-.016.016zm.547-.598l.085-.106c-.03.034-.059.071-.085.106zm.136-.167l-.722-.594-.2.243.722.594c-.116.14-.243.273-.367.406l-1.325-1.325-.222.223 1.325 1.324c-.133.125-.266.251-.403.367l-.593-.726-.243.2.594.722c-.145.113-.29.223-.437.329l-1.043-1.561-.261.171 1.043 1.56a8.678 8.678 0 01-3.719 1.328l-.094-.933-.312.03.094.933c-.18.017-.363.023-.547.027v-1.875h-.312v1.875a9.903 9.903 0 01-.547-.026l.09-.933-.313-.03-.09.932a8.682 8.682 0 01-3.718-1.333L8.306 17.8l-.261-.171-1.035 1.559c-.149-.106-.296-.21-.437-.325l.594-.722-.243-.2-.593.722c-.141-.116-.274-.243-.407-.367l.492-.488 6.837-4.559 4.56-6.837.487-.488c.124.133.251.266.367.403l-.722.593.2.243.722-.594c.113.145.223.29.329.437L17.633 8.05l.171.261 1.56-1.043a8.678 8.678 0 011.328 3.719l-.933.094.03.312.933-.094c.017.18.023.363.027.547h-1.875v.312h1.875a9.912 9.912 0 01-.026.547l-.933-.09-.03.313.932.09a8.682 8.682 0 01-1.333 3.718L17.8 15.694l-.171.261 1.559 1.043c-.102.14-.212.286-.325.433zm1.855-4.67c-.008.07-.012.141-.02.21l.02-.21zm-1.367 3.99l-.14.21.14-.21z" fill="#323544"/><path d="M10.446 3.389l.366 1.838-.307.062-.365-1.84.306-.06zM13.555 20.613l-.365-1.84.306-.06.365 1.838-.306.062zM9.61 3.58l.271.897-.3.09-.271-.898.3-.09zM14.39 20.416l-.27-.898.3-.09.27.898-.3.09zM8.797 3.857l.719 1.733-.288.12-.718-1.732.287-.12zM15.206 20.143l-.719-1.733.288-.12.718 1.732-.287.12zM7.735 4.358l.275-.147.443.826-.276.147-.442-.826zM16.26 19.642l-.276.147-.443-.826.275-.147.443.826zM4.355 7.738l.826.443-.147.276-.826-.443.147-.276zM19.641 16.261l-.826-.443.146-.275.827.443-.147.275zM5.59 9.513l-1.733-.719.12-.288 1.733.719-.12.288zM18.413 14.486l1.733.718-.12.288-1.733-.716.12-.29zM3.671 9.312l.898.272-.09.3-.898-.272.09-.3zM20.327 14.687l-.898-.271.09-.3.898.271-.09.3zM3.447 10.14l1.84.366-.062.306-1.839-.365.061-.306zM20.549 13.86l-1.84-.364.062-.306 1.839.365-.061.306zM3.386 13.553l1.839-.365.061.306-1.839.365-.06-.306zM20.61 10.447l-1.839.365-.061-.306 1.839-.365.06.306zM3.581 14.392l.898-.272.09.3-.898.271-.09-.3zM20.419 9.612l-.899.272-.09-.3.899-.272.09.3zM3.977 15.494l-.12-.288 1.732-.718.12.288-1.732.718zM20.023 8.508l.12.288-1.732.718-.12-.287 1.732-.719zM4.36 16.263l-.147-.276.826-.442.147.275-.826.443zM19.645 7.738l.147.276-.827.443-.147-.276.827-.443zM8.013 19.79l-.276-.148.443-.826.276.147-.443.826zM15.986 4.209l.276.147-.443.826-.276-.147.443-.826zM8.508 20.022l.719-1.732.287.12-.716 1.733-.29-.12zM15.493 3.975l-.718 1.73-.288-.12.719-1.733.287.123zM9.61 20.419l-.3-.09.271-.898.3.09-.271.898zM14.39 3.58l.3.09-.272.897-.3-.09.272-.897zM10.446 20.61l-.306-.06.365-1.84.306.062-.365 1.838zM13.552 3.385l.306.062-.365 1.838-.306-.06.365-1.84z" fill="#323544"/></svg>