<svg viewBox="0 0 24 24" fill="none" xmlns="http://www.w3.org/2000/svg"><path d="M2.227 11.495c-.042 0-.075.032-.08.078L2 12.683l.146 1.093c.006.046.039.078.08.078.04 0 .074-.032.08-.078l.174-1.092-.174-1.111c-.006-.046-.04-.078-.08-.078zm.822-.607c-.007-.048-.041-.081-.083-.081-.043 0-.078.034-.083.08l-.197 1.797.197 1.756c.005.047.04.081.083.081.042 0 .076-.033.083-.08l.223-1.757-.223-1.796zM6.147 9.23a.154.154 0 00-.151.15l-.157 3.304.157 2.136c.004.083.07.15.151.15.08 0 .147-.067.152-.15l.177-2.136-.177-3.304a.155.155 0 00-.152-.15zm-1.603 1.148c-.062 0-.113.05-.118.116l-.176 2.19.176 2.118a.12.12 0 00.118.115c.06 0 .111-.05.117-.115l.2-2.119-.2-2.19c-.006-.065-.056-.115-.117-.115zm3.233 4.591c.1 0 .181-.08.185-.184l.154-2.1-.154-4.4a.188.188 0 00-.185-.183c-.101 0-.183.08-.186.184l-.136 4.4.136 2.1a.187.187 0 00.186.183zm3.336.01a.257.257 0 00.254-.253l.107-2.04-.107-5.08a.257.257 0 00-.254-.253.256.256 0 00-.254.253l-.096 5.079.096 2.043a.256.256 0 00.254.25zm-1.681-.008c.12 0 .216-.096.22-.219v.002l.13-2.068-.13-4.432a.22.22 0 00-.22-.218.22.22 0 00-.22.218l-.116 4.432.116 2.068a.22.22 0 00.22.217zm-4.09-.02a.137.137 0 00.134-.132l.19-2.136-.19-2.031a.137.137 0 00-.134-.132.136.136 0 00-.134.132l-.166 2.031.166 2.136a.136.136 0 00.134.133zm-1.59-.116c.052 0 .094-.042.1-.098l.212-2.054-.212-2.131c-.006-.057-.048-.098-.1-.098-.053 0-.095.041-.1.098l-.187 2.131.186 2.053c.005.057.048.099.1.099zm6.517-6.654a.237.237 0 00-.237.236l-.106 4.27.106 2.054a.237.237 0 00.474-.002v.002l.118-2.055-.118-4.27a.237.237 0 00-.237-.235zm-3.31 6.792c.09 0 .164-.073.168-.167l.165-2.121-.165-4.06a.172.172 0 00-.168-.167.171.171 0 00-.169.167l-.146 4.06.146 2.122a.17.17 0 00.169.166zm1.844-.201l.142-2.086-.142-4.548a.204.204 0 00-.202-.202c-.11 0-.2.089-.203.202l-.126 4.547.127 2.088c.003.112.092.2.202.2.11 0 .199-.088.202-.201zm10.737-4.708c-.337 0-.658.068-.951.191a4.341 4.341 0 00-5.897-3.662c-.185.072-.235.146-.236.29v7.807c.001.15.118.276.265.29l6.819.005a2.46 2.46 0 000-4.92zm-7.587-3.189a.274.274 0 00-.272.27l-.11 5.542.11 2.012a.273.273 0 00.272.268.273.273 0 00.27-.27v.002l.121-2.012-.12-5.542a.274.274 0 00-.271-.27zM3.987 16.55c-.291-.069-.37-.105-.37-.22 0-.082.065-.166.262-.166.168 0 .3.068.417.189l.265-.257a.877.877 0 00-.669-.289c-.362 0-.655.205-.655.538 0 .362.236.47.574.548.346.079.409.131.409.25 0 .138-.103.199-.32.199a.594.594 0 01-.47-.21l-.264.236c.139.204.407.333.713.333.501 0 .721-.236.721-.585 0-.399-.322-.498-.613-.566zm1.689-.743c-.5 0-.797.389-.797.947 0 .559.296.947.797.947.5 0 .797-.388.797-.947 0-.558-.296-.947-.797-.947zm0 1.53c-.296 0-.42-.255-.42-.583 0-.327.124-.582.42-.582s.42.255.42.582c0 .328-.124.582-.42.582zm2.279-.47c0 .294-.145.475-.378.475s-.375-.186-.375-.48v-1.026h-.367v1.031c0 .535.3.834.742.834.467 0 .745-.307.745-.839v-1.026h-.367v1.031zm1.95-.254c0 .102.006.333.006.4-.024-.047-.084-.138-.128-.207l-.651-.97H8.78v1.836h.362v-.808c0-.102-.006-.333-.006-.401.024.047.085.139.129.207l.674 1.002h.328v-1.836h-.362v.777zm1.409-.777h-.574v1.836h.547c.473 0 .94-.273.94-.918 0-.671-.389-.918-.913-.918zm-.027 1.48h-.18v-1.123h.194c.388 0 .548.186.548.561 0 .336-.176.561-.562.561zm2.075-1.144a.35.35 0 01.336.2l.34-.158c-.115-.238-.325-.406-.67-.406-.48 0-.816.388-.816.946 0 .58.322.947.802.947.333 0 .554-.155.68-.415l-.31-.183c-.097.162-.194.233-.36.233-.275 0-.435-.252-.435-.582 0-.34.158-.582.433-.582zm1.362-.336h-.367v1.836h1.103v-.362h-.736v-1.474zm1.703-.029c-.5 0-.797.389-.797.947 0 .559.296.947.797.947.501 0 .797-.388.797-.947 0-.558-.296-.947-.797-.947zm0 1.53c-.296 0-.42-.255-.42-.583 0-.327.124-.582.42-.582s.42.255.42.582c0 .328-.124.582-.42.582zm2.279-.47c0 .294-.144.475-.377.475-.234 0-.376-.186-.376-.48v-1.026h-.367v1.031c0 .535.3.834.743.834.466 0 .744-.307.744-.839v-1.026h-.367v1.031zm1.4-1.03h-.574v1.835h.548c.472 0 .939-.273.939-.918 0-.671-.388-.918-.913-.918zm-.026 1.479h-.18v-1.123h.194c.387 0 .547.186.547.561 0 .336-.175.561-.56.561z" fill="#323544"/></svg>