<svg viewBox="0 0 20 20" xmlns="http://www.w3.org/2000/svg"><path d="M17.848 18.654H2.305a.555.555 0 0 1-.555-.555V2.555c0-.306.249-.555.555-.555h15.543c.307 0 .555.249.555.555V18.1a.555.555 0 0 1-.555.555zm-.555-14.988a.556.556 0 0 0-.555-.556H3.416a.556.556 0 0 0-.555.556v2.776h14.432V3.666zm0 3.885H2.861v9.437c0 .307.248.557.555.557h13.322a.556.556 0 0 0 .555-.557V7.551zm-5.276 7.768l-1.94-1.94-1.94 1.94-.831-.83 1.94-1.94-1.94-1.94.831-.832 1.94 1.94 1.94-1.94.831.831-1.94 1.94 1.94 1.94-.83.831zM5.081 5.331H3.97V4.22h1.11v1.11zm2.22 0h-1.11V4.22H7.3v1.11zm2.22 0h-1.11V4.22h1.11v1.11z" fill="#000" fill-rule="evenodd"/></svg>