<svg viewBox="0 0 20 20" xmlns="http://www.w3.org/2000/svg"><path d="M10.074 17.717a.512.512 0 0 1-.28.117c-.012 0-.021.008-.032.008l-.007.002-.009-.002c-.007 0-.012-.004-.019-.004a.548.548 0 0 1-.341-.141c-.008-.007-.02-.004-.027-.011-.008-.008-.004-.02-.011-.028-.006-.007-.005-.019-.011-.026l-5.513-6.066a.54.54 0 1 1 .764-.765L9.2 15.876V2.888a.553.553 0 0 1 1.107 0v12.988l4.613-5.075a.54.54 0 1 1 .765.765L10.2 17.601c-.007.009-.017.013-.024.022-.015.019-.009.045-.026.062-.021.022-.053.015-.076.032z" fill="#000" fill-rule="evenodd"/></svg>