<svg viewBox="0 0 20 20" xmlns="http://www.w3.org/2000/svg" xmlns:xlink="http://www.w3.org/1999/xlink"><defs><path d="M9.882 16.544c-.34 0-.674-.02-1.003-.052L4.33 18.766v-3.932C2.3 13.41 1 11.226 1 8.773 1 4.48 4.977 1 9.882 1c4.905 0 8.882 3.48 8.882 7.773 0 4.292-3.977 7.771-8.882 7.771zm0-14.434C5.59 2.11 2.11 5.093 2.11 8.772c0 2.257 1.326 4.229 3.331 5.431V17.1l3.33-1.664h1.11c4.293 0 7.772-2.983 7.772-6.662 0-3.68-3.479-6.663-7.771-6.663z" id="a"/></defs><use fill="#000" xlink:href="#a" fill-rule="evenodd"/></svg>