<svg viewBox="0 0 20 20" xmlns="http://www.w3.org/2000/svg"><path d="M17.653 11.547l-1.42.236a6.591 6.591 0 0 1-.514 1.246l.835 1.17a1.11 1.11 0 0 1 0 1.571l-.784.785a1.11 1.11 0 0 1-1.57 0l-1.171-.836a6.64 6.64 0 0 1-1.245.515l-.237 1.42a1.11 1.11 0 0 1-1.11 1.11h-1.11a1.11 1.11 0 0 1-1.11-1.11l-.238-1.42a6.64 6.64 0 0 1-1.245-.515l-1.17.836a1.11 1.11 0 0 1-1.57 0l-.785-.785a1.11 1.11 0 0 1 0-1.57l.836-1.171a6.556 6.556 0 0 1-.516-1.246l-1.419-.236A1.11 1.11 0 0 1 1 10.437v-1.11c0-.613.497-1.11 1.11-1.11l1.42-.238c.13-.437.302-.85.515-1.245l-.836-1.17a1.11 1.11 0 0 1 0-1.57l.785-.786a1.11 1.11 0 0 1 1.57 0l1.17.837a6.604 6.604 0 0 1 1.245-.516l.237-1.419c0-.613.497-1.11 1.11-1.11h1.11c.614 0 1.11.497 1.11 1.11l.238 1.42c.436.13.85.302 1.245.515l1.17-.837a1.111 1.111 0 0 1 1.57 0l.785.785a1.11 1.11 0 0 1 0 1.57l-.836 1.171c.214.394.385.809.516 1.245l1.419.237c.613 0 1.11.498 1.11 1.11v1.11a1.11 1.11 0 0 1-1.11 1.111zm-.555-2.22l-1.743-.29a5.504 5.504 0 0 0-1.008-2.425l1.03-1.441a.555.555 0 0 0-.785-.785l-1.443 1.03a5.527 5.527 0 0 0-2.42-1l-.293-1.752a.555.555 0 0 0-1.11 0l-.292 1.751a5.531 5.531 0 0 0-2.42 1.001L5.17 4.386a.554.554 0 1 0-.785.785l1.03 1.441a5.503 5.503 0 0 0-1.008 2.424l-1.743.29a.555.555 0 1 0 0 1.11l1.743.291a5.504 5.504 0 0 0 1.007 2.424l-1.03 1.44a.555.555 0 0 0 .786.786l1.442-1.031c.7.511 1.524.863 2.421 1.001l.292 1.751a.555.555 0 0 0 1.11 0l.292-1.75a5.527 5.527 0 0 0 2.421-1.002l1.443 1.03a.554.554 0 1 0 .785-.785l-1.03-1.44c.515-.7.87-1.526 1.008-2.424l1.743-.29a.555.555 0 1 0 0-1.11zm-7.217 3.33a2.776 2.776 0 1 1 .001-5.552 2.776 2.776 0 0 1 0 5.552zm0-4.441a1.665 1.665 0 1 0 0 3.33 1.665 1.665 0 0 0 0-3.33z" fill="#000" fill-rule="evenodd"/></svg>